<svg width="42" height="45" viewBox="0 0 42 45" fill="none" xmlns="http://www.w3.org/2000/svg">
<path d="M39.2151 33.9442C35.9019 40.4955 28.9279 45 20.8755 45C12.823 45 5.84903 40.4955 2.53583 33.9442C2.19529 33.3212 1.90441 32.6572 1.67029 32H10.4818C11.0068 32.712 11.5957 33.376 12.2626 33.9442C14.5541 35.9637 17.541 37.1754 20.8755 37.1754C24.2099 37.1754 27.1968 35.9568 29.4883 33.9442H39.2151Z" fill="#D72300"/>
<path d="M40.7551 20.3007C39.0394 12.0163 32.4368 5.58715 24.1677 4.22426V0H17.6494V4.23853C9.40139 5.59429 2.81281 12.0306 1.11118 20.2936C0.822881 21.6493 0.682251 23.0693 0.682251 24.5178C0.682251 25.6952 0.787724 26.8726 0.970545 28H40.9028C41.0786 26.8797 41.1911 25.6952 41.1911 24.5178C41.1841 23.0764 41.0434 21.6636 40.7551 20.3007ZM8.8459 20.3007C10.435 15.0632 15.2587 11.2599 20.9332 11.2599C26.6147 11.2599 31.4313 15.0632 33.0204 20.3007H8.8459Z" fill="#D72300"/>
</svg>
