<svg width="16" height="20" viewBox="0 0 16 20" fill="none" xmlns="http://www.w3.org/2000/svg">
<path d="M13.3637 10.6097C13.3413 8.18733 15.398 7.00884 15.492 6.95397C14.3272 5.29823 12.5219 5.072 11.8875 5.05396C10.3712 4.89839 8.9004 5.93858 8.128 5.93858C7.34018 5.93858 6.15075 5.06899 4.86881 5.09455C3.21918 5.11935 1.67592 6.05057 0.829517 7.49662C-0.917247 10.4451 0.385503 14.778 2.05904 17.1613C2.89619 18.3285 3.87441 19.6317 5.1548 19.5859C6.40744 19.5355 6.87536 18.8072 8.38701 18.8072C9.88478 18.8072 10.3242 19.5859 11.63 19.5566C12.9744 19.5355 13.8208 18.3841 14.6286 17.2064C15.5961 15.8685 15.9846 14.551 16 14.4834C15.9684 14.4728 13.3891 13.5131 13.3637 10.6097Z" fill="white"/>
<path d="M10.8969 3.48615C11.5707 2.66467 12.0316 1.54706 11.9037 0.412918C10.9285 0.455007 9.70903 1.07056 9.00678 1.874C8.38547 2.582 7.83045 3.74245 7.97383 4.83375C9.06922 4.91342 10.1939 4.29486 10.8969 3.48615Z" fill="white"/>
</svg>
