<svg width="211" height="62" viewBox="0 0 211 62" fill="none" xmlns="http://www.w3.org/2000/svg">
<g filter="url(#filter0_d_2684_69)">
<rect x="4" width="203" height="54" rx="8" fill="#298A5A" shape-rendering="crispEdges"/>
<rect x="4.5" y="0.5" width="202" height="53" rx="7.5" stroke="#298A5A" shape-rendering="crispEdges"/>
<path d="M30.4999 37.6666H37.4999C43.3333 37.6666 45.6666 35.3333 45.6666 29.5V22.5C45.6666 16.6666 43.3333 14.3333 37.4999 14.3333H30.4999C24.6666 14.3333 22.3333 16.6666 22.3333 22.5V29.5C22.3333 35.3333 24.6666 37.6666 30.4999 37.6666Z" stroke="white" stroke-width="2" stroke-linecap="round" stroke-linejoin="round"/>
<path d="M29.0417 26L32.3434 29.3017L38.9584 22.6984" stroke="white" stroke-width="2" stroke-linecap="round" stroke-linejoin="round"/>
<path d="M57.992 37V19.12H64.304C65.488 19.12 66.528 19.344 67.424 19.792C68.32 20.24 69.016 20.88 69.512 21.712C70.024 22.544 70.28 23.52 70.28 24.64C70.28 25.76 70.024 26.736 69.512 27.568C69.016 28.384 68.32 29.024 67.424 29.488C66.544 29.936 65.504 30.16 64.304 30.16H60.344V37H57.992ZM60.344 28H64.376C65.096 28 65.72 27.864 66.248 27.592C66.776 27.32 67.184 26.928 67.472 26.416C67.76 25.904 67.904 25.312 67.904 24.64C67.904 23.952 67.76 23.36 67.472 22.864C67.184 22.352 66.776 21.96 66.248 21.688C65.72 21.416 65.096 21.28 64.376 21.28H60.344V28ZM73.1968 37V18.832H75.4288V26.584L75.0208 26.368C75.3408 25.552 75.8528 24.92 76.5568 24.472C77.2768 24.008 78.1168 23.776 79.0768 23.776C80.0048 23.776 80.8288 23.984 81.5488 24.4C82.2848 24.816 82.8608 25.392 83.2768 26.128C83.7088 26.864 83.9248 27.696 83.9248 28.624V37H81.6688V29.344C81.6688 28.624 81.5328 28.016 81.2608 27.52C81.0048 27.024 80.6448 26.64 80.1808 26.368C79.7168 26.08 79.1808 25.936 78.5728 25.936C77.9808 25.936 77.4448 26.08 76.9648 26.368C76.4848 26.64 76.1088 27.032 75.8368 27.544C75.5648 28.04 75.4288 28.64 75.4288 29.344V37H73.1968ZM90.9106 37.288C90.0626 37.288 89.3106 37.136 88.6546 36.832C88.0146 36.512 87.5106 36.08 87.1426 35.536C86.7746 34.976 86.5906 34.336 86.5906 33.616C86.5906 32.928 86.7346 32.312 87.0226 31.768C87.3266 31.208 87.7906 30.736 88.4146 30.352C89.0546 29.968 89.8546 29.696 90.8146 29.536L95.6146 28.744V30.616L91.3186 31.336C90.4866 31.48 89.8786 31.744 89.4946 32.128C89.1266 32.512 88.9426 32.984 88.9426 33.544C88.9426 34.072 89.1506 34.512 89.5666 34.864C89.9986 35.216 90.5346 35.392 91.1746 35.392C91.9906 35.392 92.6946 35.224 93.2866 34.888C93.8946 34.536 94.3666 34.064 94.7026 33.472C95.0546 32.88 95.2306 32.224 95.2306 31.504V28.216C95.2306 27.512 94.9666 26.944 94.4386 26.512C93.9266 26.064 93.2466 25.84 92.3986 25.84C91.6626 25.84 91.0066 26.032 90.4306 26.416C89.8706 26.784 89.4546 27.28 89.1826 27.904L87.2386 26.896C87.4786 26.304 87.8626 25.776 88.3906 25.312C88.9186 24.832 89.5346 24.456 90.2386 24.184C90.9426 23.912 91.6786 23.776 92.4466 23.776C93.4386 23.776 94.3106 23.968 95.0626 24.352C95.8146 24.72 96.3986 25.24 96.8146 25.912C97.2466 26.568 97.4626 27.336 97.4626 28.216V37H95.2786V34.552L95.6866 34.696C95.4146 35.208 95.0466 35.656 94.5826 36.04C94.1186 36.424 93.5746 36.728 92.9506 36.952C92.3266 37.176 91.6466 37.288 90.9106 37.288ZM100.923 37V24.064H103.107V26.44L102.867 26.104C103.171 25.368 103.635 24.824 104.259 24.472C104.883 24.104 105.643 23.92 106.539 23.92H107.331V26.032H106.203C105.291 26.032 104.555 26.32 103.995 26.896C103.435 27.456 103.155 28.256 103.155 29.296V37H100.923ZM109.314 37V24.064H111.498V26.704L111.186 26.296C111.506 25.48 112.018 24.856 112.722 24.424C113.426 23.992 114.218 23.776 115.098 23.776C116.106 23.776 117.01 24.056 117.81 24.616C118.626 25.176 119.186 25.912 119.49 26.824L118.866 26.848C119.202 25.84 119.77 25.08 120.57 24.568C121.37 24.04 122.258 23.776 123.234 23.776C124.13 23.776 124.938 23.984 125.658 24.4C126.394 24.816 126.978 25.392 127.41 26.128C127.842 26.864 128.058 27.696 128.058 28.624V37H125.802V29.344C125.802 28.624 125.674 28.016 125.418 27.52C125.162 27.024 124.81 26.64 124.362 26.368C123.93 26.08 123.418 25.936 122.826 25.936C122.25 25.936 121.73 26.08 121.266 26.368C120.818 26.64 120.458 27.032 120.186 27.544C119.93 28.04 119.802 28.64 119.802 29.344V37H117.546V29.344C117.546 28.624 117.418 28.016 117.162 27.52C116.906 27.024 116.554 26.64 116.106 26.368C115.674 26.08 115.162 25.936 114.57 25.936C113.994 25.936 113.474 26.08 113.01 26.368C112.562 26.64 112.202 27.032 111.93 27.544C111.674 28.04 111.546 28.64 111.546 29.344V37H109.314ZM135.02 37.288C134.172 37.288 133.42 37.136 132.764 36.832C132.124 36.512 131.62 36.08 131.252 35.536C130.884 34.976 130.7 34.336 130.7 33.616C130.7 32.928 130.844 32.312 131.132 31.768C131.436 31.208 131.9 30.736 132.524 30.352C133.164 29.968 133.964 29.696 134.924 29.536L139.724 28.744V30.616L135.428 31.336C134.596 31.48 133.988 31.744 133.604 32.128C133.236 32.512 133.052 32.984 133.052 33.544C133.052 34.072 133.26 34.512 133.676 34.864C134.108 35.216 134.644 35.392 135.284 35.392C136.1 35.392 136.804 35.224 137.396 34.888C138.004 34.536 138.476 34.064 138.812 33.472C139.164 32.88 139.34 32.224 139.34 31.504V28.216C139.34 27.512 139.076 26.944 138.548 26.512C138.036 26.064 137.356 25.84 136.508 25.84C135.772 25.84 135.116 26.032 134.54 26.416C133.98 26.784 133.564 27.28 133.292 27.904L131.348 26.896C131.588 26.304 131.972 25.776 132.5 25.312C133.028 24.832 133.644 24.456 134.348 24.184C135.052 23.912 135.788 23.776 136.556 23.776C137.548 23.776 138.42 23.968 139.172 24.352C139.924 24.72 140.508 25.24 140.924 25.912C141.356 26.568 141.572 27.336 141.572 28.216V37H139.388V34.552L139.796 34.696C139.524 35.208 139.156 35.656 138.692 36.04C138.228 36.424 137.684 36.728 137.06 36.952C136.436 37.176 135.756 37.288 135.02 37.288ZM151.033 37.288C149.769 37.288 148.641 36.992 147.649 36.4C146.673 35.808 145.905 35 145.345 33.976C144.785 32.952 144.505 31.8 144.505 30.52C144.505 29.224 144.785 28.072 145.345 27.064C145.905 26.056 146.673 25.256 147.649 24.664C148.641 24.072 149.769 23.776 151.033 23.776C151.881 23.776 152.673 23.928 153.409 24.232C154.145 24.536 154.793 24.944 155.353 25.456C155.913 25.968 156.321 26.568 156.577 27.256L154.585 28.216C154.281 27.544 153.817 27 153.193 26.584C152.569 26.152 151.849 25.936 151.033 25.936C150.249 25.936 149.537 26.136 148.897 26.536C148.273 26.936 147.777 27.48 147.409 28.168C147.041 28.856 146.857 29.648 146.857 30.544C146.857 31.408 147.041 32.192 147.409 32.896C147.777 33.584 148.273 34.128 148.897 34.528C149.537 34.928 150.249 35.128 151.033 35.128C151.849 35.128 152.569 34.92 153.193 34.504C153.817 34.072 154.281 33.504 154.585 32.8L156.577 33.808C156.321 34.48 155.913 35.08 155.353 35.608C154.793 36.12 154.145 36.528 153.409 36.832C152.673 37.136 151.881 37.288 151.033 37.288ZM159.494 37V24.064H161.726V37H159.494ZM159.494 22V19.12H161.726V22H159.494ZM171.141 37.288C169.893 37.288 168.781 36.992 167.805 36.4C166.829 35.808 166.061 35 165.501 33.976C164.941 32.936 164.661 31.776 164.661 30.496C164.661 29.2 164.933 28.048 165.477 27.04C166.037 26.032 166.789 25.24 167.733 24.664C168.693 24.072 169.765 23.776 170.949 23.776C171.909 23.776 172.757 23.952 173.493 24.304C174.245 24.64 174.877 25.104 175.389 25.696C175.917 26.272 176.317 26.936 176.589 27.688C176.877 28.424 177.021 29.192 177.021 29.992C177.021 30.168 177.005 30.368 176.973 30.592C176.957 30.8 176.933 31 176.901 31.192H166.293V29.272H175.605L174.549 30.136C174.693 29.304 174.613 28.56 174.309 27.904C174.005 27.248 173.557 26.728 172.965 26.344C172.373 25.96 171.701 25.768 170.949 25.768C170.197 25.768 169.509 25.96 168.885 26.344C168.261 26.728 167.773 27.28 167.421 28C167.085 28.704 166.949 29.544 167.013 30.52C166.949 31.464 167.093 32.296 167.445 33.016C167.813 33.72 168.325 34.272 168.981 34.672C169.653 35.056 170.381 35.248 171.165 35.248C172.029 35.248 172.757 35.048 173.349 34.648C173.941 34.248 174.421 33.736 174.789 33.112L176.661 34.072C176.405 34.664 176.005 35.208 175.461 35.704C174.933 36.184 174.301 36.568 173.565 36.856C172.845 37.144 172.037 37.288 171.141 37.288ZM184.563 37.288C183.267 37.288 182.139 36.968 181.179 36.328C180.219 35.688 179.539 34.824 179.139 33.736L180.915 32.872C181.283 33.64 181.787 34.248 182.427 34.696C183.067 35.144 183.779 35.368 184.563 35.368C185.267 35.368 185.851 35.2 186.315 34.864C186.779 34.528 187.011 34.088 187.011 33.544C187.011 33.16 186.899 32.856 186.675 32.632C186.467 32.392 186.211 32.208 185.907 32.08C185.603 31.936 185.323 31.832 185.067 31.768L183.123 31.216C181.955 30.88 181.099 30.4 180.555 29.776C180.027 29.152 179.763 28.424 179.763 27.592C179.763 26.824 179.955 26.16 180.339 25.6C180.739 25.024 181.275 24.576 181.947 24.256C182.635 23.936 183.403 23.776 184.251 23.776C185.387 23.776 186.403 24.064 187.299 24.64C188.211 25.216 188.859 26.024 189.243 27.064L187.419 27.904C187.131 27.232 186.699 26.704 186.123 26.32C185.547 25.92 184.899 25.72 184.179 25.72C183.523 25.72 183.003 25.888 182.619 26.224C182.235 26.544 182.043 26.952 182.043 27.448C182.043 27.816 182.139 28.12 182.331 28.36C182.523 28.584 182.755 28.76 183.027 28.888C183.299 29 183.563 29.096 183.819 29.176L185.931 29.8C186.987 30.104 187.803 30.576 188.379 31.216C188.971 31.856 189.267 32.624 189.267 33.52C189.267 34.24 189.067 34.888 188.667 35.464C188.267 36.04 187.715 36.488 187.011 36.808C186.307 37.128 185.491 37.288 184.563 37.288Z" fill="white"/>
</g>
<defs>
<filter id="filter0_d_2684_69" x="0" y="0" width="211" height="62" filterUnits="userSpaceOnUse" color-interpolation-filters="sRGB">
<feFlood flood-opacity="0" result="BackgroundImageFix"/>
<feColorMatrix in="SourceAlpha" type="matrix" values="0 0 0 0 0 0 0 0 0 0 0 0 0 0 0 0 0 0 127 0" result="hardAlpha"/>
<feOffset dy="4"/>
<feGaussianBlur stdDeviation="2"/>
<feComposite in2="hardAlpha" operator="out"/>
<feColorMatrix type="matrix" values="0 0 0 0 0 0 0 0 0 0 0 0 0 0 0 0 0 0 0.25 0"/>
<feBlend mode="normal" in2="BackgroundImageFix" result="effect1_dropShadow_2684_69"/>
<feBlend mode="normal" in="SourceGraphic" in2="effect1_dropShadow_2684_69" result="shape"/>
</filter>
</defs>
</svg>
