<svg width="263" height="64" viewBox="0 0 263 64" fill="none" xmlns="http://www.w3.org/2000/svg">
<path d="M54.6505 47.0202C49.9805 56.5902 40.1505 63.1702 28.8005 63.1702C17.4505 63.1702 7.62047 56.5902 2.95047 47.0202C2.47047 46.1102 2.06047 45.1402 1.73047 44.1802H14.1505C14.8905 45.2202 15.7205 46.1902 16.6605 47.0202C19.8905 49.9702 24.1005 51.7402 28.8005 51.7402C33.5005 51.7402 37.7105 49.9602 40.9405 47.0202H54.6505Z" fill="#D72300"/>
<path d="M56.99 28.45C54.55 16.84 45.16 7.83 33.4 5.92V0H24.13V5.94C12.4 7.84 3.03 16.86 0.609999 28.44C0.199999 30.34 0 32.33 0 34.36C0 36.01 0.15 37.66 0.41 39.24H57.2C57.45 37.67 57.61 36.01 57.61 34.36C57.6 32.34 57.4 30.36 56.99 28.45ZM11.61 28.45C13.87 21.11 20.73 15.78 28.8 15.78C36.88 15.78 43.73 21.11 45.99 28.45H11.61Z" fill="#D72300"/>
<path d="M65.3533 50.9927V17.2584H88.1349V23.6353H72.9471V30.2556H86.4311V36.4865H72.9471V44.6158H89.2545V50.9927H65.3533ZM103.601 45.9301C104.315 45.9301 104.997 45.9139 105.646 45.8814C106.295 45.849 106.814 45.8003 107.204 45.7354V40.2347C106.911 40.1698 106.473 40.1049 105.889 40.04C105.305 39.9751 104.77 39.9426 104.283 39.9426C103.601 39.9426 102.952 39.9913 102.336 40.0887C101.752 40.1536 101.232 40.2996 100.778 40.5268C100.324 40.7539 99.9667 41.0622 99.7071 41.4517C99.4474 41.8411 99.3176 42.3279 99.3176 42.912C99.3176 44.0479 99.6908 44.8429 100.437 45.2973C101.216 45.7192 102.271 45.9301 103.601 45.9301ZM103.017 24.7062C105.159 24.7062 106.944 24.9496 108.372 25.4364C109.8 25.9232 110.936 26.6209 111.779 27.5296C112.656 28.4383 113.272 29.5416 113.629 30.8397C113.986 32.1378 114.165 33.582 114.165 35.1721V50.2625C113.126 50.4897 111.682 50.7493 109.832 51.0414C107.982 51.3659 105.743 51.5281 103.115 51.5281C101.459 51.5281 99.9504 51.3821 98.5874 51.09C97.2569 50.798 96.1048 50.3274 95.1313 49.6784C94.1577 48.9969 93.4113 48.1206 92.892 47.0497C92.3728 45.9788 92.1132 44.6645 92.1132 43.1067C92.1132 41.6139 92.4053 40.3483 92.9894 39.3098C93.606 38.2713 94.4173 37.4438 95.4233 36.8272C96.4294 36.2106 97.5814 35.7725 98.8795 35.5129C100.178 35.2208 101.524 35.0748 102.92 35.0748C103.861 35.0748 104.688 35.1235 105.402 35.2208C106.149 35.2857 106.749 35.3831 107.204 35.5129V34.8314C107.204 33.5982 106.83 32.6084 106.084 31.862C105.338 31.1156 104.039 30.7424 102.19 30.7424C100.956 30.7424 99.7395 30.8397 98.5388 31.0344C97.338 31.1967 96.2996 31.4401 95.4233 31.7646L94.4984 25.9232C94.9203 25.7934 95.4396 25.6636 96.0562 25.5338C96.7052 25.3715 97.4029 25.2417 98.1493 25.1443C98.8957 25.0145 99.6746 24.9172 100.486 24.8523C101.33 24.7549 102.173 24.7062 103.017 24.7062ZM120.48 19.0108L127.733 17.8425V25.3877H136.446V31.4239H127.733V40.4294C127.733 41.9547 127.993 43.1716 128.512 44.0803C129.064 44.989 130.151 45.4433 131.773 45.4433C132.552 45.4433 133.347 45.3784 134.159 45.2486C135.002 45.0863 135.765 44.8754 136.446 44.6158L137.469 50.2625C136.593 50.6195 135.619 50.9278 134.548 51.1874C133.477 51.447 132.163 51.5768 130.605 51.5768C128.625 51.5768 126.987 51.3172 125.688 50.798C124.39 50.2463 123.352 49.4999 122.573 48.5587C121.794 47.5852 121.243 46.4169 120.918 45.0539C120.626 43.6909 120.48 42.1818 120.48 40.5268V19.0108ZM151.187 45.9301C151.901 45.9301 152.582 45.9139 153.231 45.8814C153.88 45.849 154.399 45.8003 154.789 45.7354V40.2347C154.497 40.1698 154.059 40.1049 153.474 40.04C152.89 39.9751 152.355 39.9426 151.868 39.9426C151.187 39.9426 150.538 39.9913 149.921 40.0887C149.337 40.1536 148.818 40.2996 148.363 40.5268C147.909 40.7539 147.552 41.0622 147.292 41.4517C147.033 41.8411 146.903 42.3279 146.903 42.912C146.903 44.0479 147.276 44.8429 148.022 45.2973C148.801 45.7192 149.856 45.9301 151.187 45.9301ZM150.602 24.7062C152.744 24.7062 154.529 24.9496 155.957 25.4364C157.385 25.9232 158.521 26.6209 159.365 27.5296C160.241 28.4383 160.857 29.5416 161.214 30.8397C161.571 32.1378 161.75 33.582 161.75 35.1721V50.2625C160.711 50.4897 159.267 50.7493 157.417 51.0414C155.568 51.3659 153.328 51.5281 150.7 51.5281C149.045 51.5281 147.536 51.3821 146.173 51.09C144.842 50.798 143.69 50.3274 142.716 49.6784C141.743 48.9969 140.997 48.1206 140.477 47.0497C139.958 45.9788 139.698 44.6645 139.698 43.1067C139.698 41.6139 139.99 40.3483 140.575 39.3098C141.191 38.2713 142.003 37.4438 143.009 36.8272C144.015 36.2106 145.167 35.7725 146.465 35.5129C147.763 35.2208 149.11 35.0748 150.505 35.0748C151.446 35.0748 152.274 35.1235 152.988 35.2208C153.734 35.2857 154.334 35.3831 154.789 35.5129V34.8314C154.789 33.5982 154.416 32.6084 153.669 31.862C152.923 31.1156 151.625 30.7424 149.775 30.7424C148.542 30.7424 147.325 30.8397 146.124 31.0344C144.923 31.1967 143.885 31.4401 143.009 31.7646L142.084 25.9232C142.506 25.7934 143.025 25.6636 143.641 25.5338C144.29 25.3715 144.988 25.2417 145.735 25.1443C146.481 25.0145 147.26 24.9172 148.071 24.8523C148.915 24.7549 149.759 24.7062 150.602 24.7062ZM184.713 37.9955C184.713 33.3223 182.993 30.9858 179.553 30.9858C178.807 30.9858 178.06 31.0831 177.314 31.2778C176.6 31.4726 176.016 31.7159 175.562 32.008V45.1999C175.919 45.2648 176.373 45.3297 176.925 45.3946C177.476 45.4271 178.077 45.4433 178.726 45.4433C180.705 45.4433 182.198 44.7618 183.204 43.3988C184.21 42.0358 184.713 40.2347 184.713 37.9955ZM192.112 38.1902C192.112 40.2347 191.804 42.0845 191.187 43.7396C190.603 45.3946 189.743 46.8063 188.607 47.9746C187.472 49.1429 186.076 50.0516 184.421 50.7006C182.766 51.3172 180.884 51.6255 178.774 51.6255C177.898 51.6255 176.973 51.5768 176 51.4795C175.059 51.4146 174.117 51.3172 173.176 51.1874C172.268 51.0576 171.391 50.9115 170.548 50.7493C169.704 50.5546 168.958 50.3599 168.309 50.1651V14.3864L175.562 13.2181V25.9719C176.373 25.6149 177.217 25.3391 178.093 25.1443C178.969 24.9496 179.91 24.8523 180.916 24.8523C182.734 24.8523 184.34 25.1768 185.735 25.8258C187.131 26.4424 188.299 27.3349 189.24 28.5032C190.181 29.6714 190.895 31.0831 191.382 32.7382C191.869 34.3608 192.112 36.1782 192.112 38.1902ZM207.909 51.4795C205.8 51.447 204.08 51.2198 202.749 50.798C201.451 50.3761 200.413 49.7919 199.634 49.0455C198.888 48.2667 198.368 47.3418 198.076 46.2709C197.817 45.1675 197.687 43.9343 197.687 42.5713V14.3864L204.94 13.2181V41.1109C204.94 41.76 204.989 42.3441 205.086 42.8633C205.183 43.3826 205.362 43.8207 205.621 44.1777C205.913 44.5346 206.319 44.8267 206.838 45.0539C207.358 45.2811 208.055 45.4271 208.932 45.492L207.909 51.4795ZM211.872 38.3849C211.872 36.1132 212.213 34.1337 212.894 32.4461C213.608 30.7262 214.533 29.2982 215.669 28.1624C216.805 27.0266 218.103 26.1666 219.563 25.5824C221.056 24.9983 222.581 24.7062 224.139 24.7062C227.774 24.7062 230.646 25.8258 232.755 28.0651C234.865 30.2718 235.919 33.5333 235.919 37.8495C235.919 38.2713 235.903 38.7419 235.871 39.2611C235.838 39.7479 235.806 40.186 235.773 40.5755H219.32C219.482 42.0683 220.18 43.2528 221.413 44.129C222.646 45.0052 224.301 45.4433 226.378 45.4433C227.709 45.4433 229.007 45.3297 230.273 45.1026C231.571 44.8429 232.625 44.5346 233.437 44.1777L234.41 50.0678C234.021 50.2625 233.502 50.4572 232.853 50.6519C232.203 50.8466 231.473 51.0089 230.662 51.1387C229.883 51.301 229.039 51.4308 228.131 51.5281C227.222 51.6255 226.313 51.6742 225.405 51.6742C223.101 51.6742 221.089 51.3334 219.369 50.6519C217.681 49.9704 216.269 49.0455 215.134 47.8772C214.03 46.6765 213.203 45.2648 212.651 43.6422C212.132 42.0196 211.872 40.2672 211.872 38.3849ZM228.91 35.6102C228.877 34.9936 228.764 34.3933 228.569 33.8091C228.407 33.225 228.131 32.7057 227.741 32.2514C227.384 31.7971 226.914 31.4239 226.33 31.1318C225.778 30.8397 225.08 30.6937 224.236 30.6937C223.425 30.6937 222.727 30.8397 222.143 31.1318C221.559 31.3914 221.072 31.7484 220.683 32.2027C220.293 32.6571 219.985 33.1925 219.758 33.8091C219.563 34.3933 219.417 34.9936 219.32 35.6102H228.91ZM248.867 45.7841C250.198 45.7841 251.139 45.6543 251.69 45.3946C252.242 45.135 252.518 44.632 252.518 43.8856C252.518 43.3015 252.161 42.7984 251.447 42.3766C250.733 41.9222 249.646 41.4192 248.186 40.8675C247.05 40.4456 246.011 40.0075 245.07 39.5532C244.161 39.0989 243.383 38.5634 242.734 37.9468C242.084 37.2978 241.581 36.5351 241.224 35.6589C240.868 34.7827 240.689 33.728 240.689 32.4948C240.689 30.0933 241.581 28.1949 243.366 26.7994C245.151 25.404 247.601 24.7062 250.717 24.7062C252.275 24.7062 253.767 24.8523 255.195 25.1443C256.623 25.404 257.759 25.696 258.603 26.0206L257.337 31.6673C256.493 31.3752 255.568 31.1156 254.562 30.8884C253.589 30.6612 252.485 30.5477 251.252 30.5477C248.981 30.5477 247.845 31.1805 247.845 32.4461C247.845 32.7382 247.893 32.9978 247.991 33.225C248.088 33.4522 248.283 33.6793 248.575 33.9065C248.867 34.1012 249.256 34.3284 249.743 34.588C250.262 34.8152 250.912 35.0748 251.69 35.3668C253.281 35.951 254.595 36.5351 255.633 37.1193C256.672 37.671 257.483 38.2876 258.067 38.9691C258.684 39.6181 259.106 40.3483 259.333 41.1596C259.593 41.9709 259.722 42.912 259.722 43.983C259.722 46.5142 258.765 48.4289 256.85 49.727C254.968 51.0251 252.291 51.6742 248.818 51.6742C246.547 51.6742 244.648 51.4795 243.123 51.09C241.63 50.7006 240.592 50.3761 240.008 50.1165L241.224 44.2263C242.458 44.7131 243.723 45.1026 245.021 45.3946C246.32 45.6543 247.601 45.7841 248.867 45.7841Z" fill="#014425"/>
</svg>
