<svg width="160" height="174" viewBox="0 0 160 174" fill="none" xmlns="http://www.w3.org/2000/svg">
<path d="M151 129.37C138.17 155.67 111.17 173.73 80.0004 173.73C48.8204 173.73 21.8304 155.67 9.00039 129.37C7.67039 126.86 6.56039 124.21 5.65039 121.56H39.7604C41.7804 124.42 44.0804 127.07 46.6704 129.37C55.5304 137.46 67.1104 142.34 80.0104 142.34C92.9104 142.34 104.49 137.46 113.35 129.37H151Z" fill="#D72300"/>
<path d="M157.42 78.39C150.72 46.51 124.92 21.75 92.6204 16.52V0.27002H67.1604V16.59C34.9404 21.82 9.20039 46.58 2.57039 78.39C1.45039 83.62 0.900391 89.06 0.900391 94.64C0.900391 99.17 1.32039 103.71 2.02039 108.03H157.98C158.68 103.71 159.1 99.17 159.1 94.64C159.09 89.06 158.54 83.62 157.42 78.39ZM32.7804 78.39C38.9904 58.23 57.8204 43.59 80.0004 43.59C102.18 43.59 121.01 58.24 127.22 78.39H32.7804Z" fill="#D72300"/>
</svg>
