<svg width="350" height="158" viewBox="0 0 350 158" fill="none" xmlns="http://www.w3.org/2000/svg">
<path d="M1.872 27.866V8.49597H5.408V27.866H1.872ZM15.2957 28.022C13.7011 28.022 12.4617 27.5886 11.5777 26.722C10.7111 25.838 10.2777 24.5986 10.2777 23.004V16.764H7.83372V13.722H8.09372C8.78705 13.722 9.32439 13.54 9.70572 13.176C10.0871 12.812 10.2777 12.2833 10.2777 11.59V10.498H13.6837V13.722H16.9337V16.764H13.6837V22.822C13.6837 23.29 13.7617 23.6886 13.9177 24.018C14.0911 24.3473 14.3511 24.5986 14.6977 24.772C15.0617 24.9453 15.5211 25.032 16.0757 25.032C16.1971 25.032 16.3357 25.0233 16.4917 25.006C16.6651 24.9886 16.8297 24.9713 16.9857 24.954V27.866C16.7431 27.9006 16.4657 27.9353 16.1537 27.97C15.8417 28.0046 15.5557 28.022 15.2957 28.022ZM30.657 28.022C29.0624 28.022 27.823 27.5886 26.939 26.722C26.0724 25.838 25.639 24.5986 25.639 23.004V16.764H23.195V13.722H23.455C24.1484 13.722 24.6857 13.54 25.067 13.176C25.4484 12.812 25.639 12.2833 25.639 11.59V10.498H29.045V13.722H32.295V16.764H29.045V22.822C29.045 23.29 29.123 23.6886 29.279 24.018C29.4524 24.3473 29.7124 24.5986 30.059 24.772C30.423 24.9453 30.8824 25.032 31.437 25.032C31.5584 25.032 31.697 25.0233 31.853 25.006C32.0264 24.9886 32.191 24.9713 32.347 24.954V27.866C32.1044 27.9006 31.827 27.9353 31.515 27.97C31.203 28.0046 30.917 28.022 30.657 28.022ZM39.1885 28.178C38.2005 28.178 37.3425 28.0133 36.6145 27.684C35.8865 27.3546 35.3232 26.8866 34.9245 26.28C34.5258 25.656 34.3265 24.9366 34.3265 24.122C34.3265 23.342 34.4998 22.6486 34.8465 22.042C35.1932 21.418 35.7305 20.898 36.4585 20.482C37.1865 20.066 38.1052 19.7713 39.2145 19.598L43.8425 18.844V21.444L39.8645 22.12C39.1885 22.2413 38.6858 22.458 38.3565 22.77C38.0272 23.082 37.8625 23.4893 37.8625 23.992C37.8625 24.4773 38.0445 24.8673 38.4085 25.162C38.7898 25.4393 39.2578 25.578 39.8125 25.578C40.5232 25.578 41.1472 25.4306 41.6845 25.136C42.2392 24.824 42.6638 24.3993 42.9585 23.862C43.2705 23.3246 43.4265 22.7353 43.4265 22.094V18.454C43.4265 17.8473 43.1838 17.3446 42.6985 16.946C42.2305 16.53 41.6065 16.322 40.8265 16.322C40.0985 16.322 39.4485 16.5213 38.8765 16.92C38.3218 17.3013 37.9145 17.8126 37.6545 18.454L34.8725 17.102C35.1498 16.3566 35.5832 15.7153 36.1725 15.178C36.7792 14.6233 37.4898 14.19 38.3045 13.878C39.1192 13.566 40.0032 13.41 40.9565 13.41C42.1178 13.41 43.1405 13.6266 44.0245 14.06C44.9085 14.476 45.5932 15.0653 46.0785 15.828C46.5812 16.5733 46.8325 17.4486 46.8325 18.454V27.866H43.6085V25.448L44.3365 25.396C43.9725 26.0026 43.5392 26.514 43.0365 26.93C42.5338 27.3286 41.9618 27.6406 41.3205 27.866C40.6792 28.074 39.9685 28.178 39.1885 28.178ZM49.9805 27.866V8.18397H53.3865V21.08L52.0865 20.69L58.7425 13.722H62.9805L57.7545 19.416L63.0845 27.866H59.1845L54.5565 20.534L56.5845 20.118L52.3205 24.694L53.3865 22.614V27.866H49.9805ZM71.4405 28.178C69.9845 28.178 68.7105 27.8486 67.6185 27.19C66.5265 26.5313 65.6772 25.6386 65.0705 24.512C64.4638 23.3853 64.1605 22.1373 64.1605 20.768C64.1605 19.3466 64.4638 18.09 65.0705 16.998C65.6945 15.8886 66.5352 15.0133 67.5925 14.372C68.6672 13.7306 69.8632 13.41 71.1805 13.41C72.2898 13.41 73.2605 13.592 74.0925 13.956C74.9418 14.32 75.6612 14.8226 76.2505 15.464C76.8398 16.1053 77.2905 16.842 77.6025 17.674C77.9145 18.4886 78.0705 19.3726 78.0705 20.326C78.0705 20.5686 78.0532 20.82 78.0185 21.08C78.0012 21.34 77.9578 21.5653 77.8885 21.756H66.9685V19.156H75.9645L74.3525 20.378C74.5085 19.5806 74.4652 18.87 74.2225 18.246C73.9972 17.622 73.6158 17.128 73.0785 16.764C72.5585 16.4 71.9258 16.218 71.1805 16.218C70.4698 16.218 69.8372 16.4 69.2825 16.764C68.7278 17.1106 68.3032 17.6306 68.0085 18.324C67.7312 19 67.6272 19.8233 67.6965 20.794C67.6272 21.6606 67.7398 22.432 68.0345 23.108C68.3465 23.7666 68.7972 24.278 69.3865 24.642C69.9932 25.006 70.6865 25.188 71.4665 25.188C72.2465 25.188 72.9052 25.0233 73.4425 24.694C73.9972 24.3646 74.4305 23.9226 74.7425 23.368L77.4985 24.72C77.2212 25.396 76.7878 25.994 76.1985 26.514C75.6092 27.034 74.9072 27.4413 74.0925 27.736C73.2952 28.0306 72.4112 28.178 71.4405 28.178ZM86.0344 28.178C84.5264 28.178 83.2091 27.8226 82.0824 27.112C80.9731 26.384 80.2104 25.4046 79.7944 24.174L82.3424 22.952C82.7064 23.7493 83.2091 24.3733 83.8504 24.824C84.5091 25.2746 85.2371 25.5 86.0344 25.5C86.6584 25.5 87.1524 25.3613 87.5164 25.084C87.8804 24.8066 88.0624 24.4426 88.0624 23.992C88.0624 23.7146 87.9844 23.4893 87.8284 23.316C87.6897 23.1253 87.4904 22.9693 87.2304 22.848C86.9877 22.7093 86.7191 22.5966 86.4244 22.51L84.1104 21.86C82.9144 21.5133 82.0044 20.9846 81.3804 20.274C80.7737 19.5633 80.4704 18.7226 80.4704 17.752C80.4704 16.8853 80.6871 16.1313 81.1204 15.49C81.5711 14.8313 82.1864 14.32 82.9664 13.956C83.7637 13.592 84.6737 13.41 85.6964 13.41C87.0311 13.41 88.2097 13.7306 89.2324 14.372C90.2551 15.0133 90.9831 15.9146 91.4164 17.076L88.8164 18.298C88.5737 17.6566 88.1664 17.1453 87.5944 16.764C87.0224 16.3826 86.3811 16.192 85.6704 16.192C85.0984 16.192 84.6477 16.322 84.3184 16.582C83.9891 16.842 83.8244 17.18 83.8244 17.596C83.8244 17.856 83.8937 18.0813 84.0324 18.272C84.1711 18.4626 84.3617 18.6186 84.6044 18.74C84.8644 18.8613 85.1591 18.974 85.4884 19.078L87.7504 19.754C88.9117 20.1006 89.8044 20.6206 90.4284 21.314C91.0697 22.0073 91.3904 22.8566 91.3904 23.862C91.3904 24.7113 91.1651 25.4653 90.7144 26.124C90.2637 26.7653 89.6397 27.268 88.8424 27.632C88.0451 27.996 87.1091 28.178 86.0344 28.178ZM96.679 33.612C96.4536 33.612 96.2196 33.6033 95.977 33.586C95.7343 33.5686 95.535 33.5426 95.379 33.508V30.544C95.691 30.596 96.003 30.622 96.315 30.622C97.043 30.622 97.6063 30.4486 98.005 30.102C98.421 29.7726 98.629 29.2613 98.629 28.568V13.722H102.035V28.568C102.035 29.6426 101.818 30.5526 101.385 31.298C100.952 32.0606 100.328 32.6326 99.513 33.014C98.7156 33.4126 97.771 33.612 96.679 33.612ZM98.629 12.136V8.49597H102.035V12.136H98.629ZM110.224 28.178C109.132 28.178 108.178 27.9353 107.364 27.45C106.566 26.9646 105.951 26.2886 105.518 25.422C105.102 24.5553 104.894 23.5413 104.894 22.38V13.722H108.3V22.094C108.3 22.6833 108.412 23.2033 108.638 23.654C108.88 24.0873 109.218 24.434 109.652 24.694C110.102 24.9366 110.605 25.058 111.16 25.058C111.714 25.058 112.208 24.9366 112.642 24.694C113.075 24.434 113.413 24.0786 113.656 23.628C113.898 23.1773 114.02 22.64 114.02 22.016V13.722H117.426V27.866H114.202V25.084L114.488 25.578C114.158 26.4446 113.612 27.0946 112.85 27.528C112.104 27.9613 111.229 28.178 110.224 28.178ZM125.974 28.178C124.466 28.178 123.149 27.8226 122.022 27.112C120.913 26.384 120.15 25.4046 119.734 24.174L122.282 22.952C122.646 23.7493 123.149 24.3733 123.79 24.824C124.449 25.2746 125.177 25.5 125.974 25.5C126.598 25.5 127.092 25.3613 127.456 25.084C127.82 24.8066 128.002 24.4426 128.002 23.992C128.002 23.7146 127.924 23.4893 127.768 23.316C127.629 23.1253 127.43 22.9693 127.17 22.848C126.927 22.7093 126.659 22.5966 126.364 22.51L124.05 21.86C122.854 21.5133 121.944 20.9846 121.32 20.274C120.713 19.5633 120.41 18.7226 120.41 17.752C120.41 16.8853 120.627 16.1313 121.06 15.49C121.511 14.8313 122.126 14.32 122.906 13.956C123.703 13.592 124.613 13.41 125.636 13.41C126.971 13.41 128.149 13.7306 129.172 14.372C130.195 15.0133 130.923 15.9146 131.356 17.076L128.756 18.298C128.513 17.6566 128.106 17.1453 127.534 16.764C126.962 16.3826 126.321 16.192 125.61 16.192C125.038 16.192 124.587 16.322 124.258 16.582C123.929 16.842 123.764 17.18 123.764 17.596C123.764 17.856 123.833 18.0813 123.972 18.272C124.111 18.4626 124.301 18.6186 124.544 18.74C124.804 18.8613 125.099 18.974 125.428 19.078L127.69 19.754C128.851 20.1006 129.744 20.6206 130.368 21.314C131.009 22.0073 131.33 22.8566 131.33 23.862C131.33 24.7113 131.105 25.4653 130.654 26.124C130.203 26.7653 129.579 27.268 128.782 27.632C127.985 27.996 127.049 28.178 125.974 28.178ZM140.395 28.022C138.801 28.022 137.561 27.5886 136.677 26.722C135.811 25.838 135.377 24.5986 135.377 23.004V16.764H132.933V13.722H133.193C133.887 13.722 134.424 13.54 134.805 13.176C135.187 12.812 135.377 12.2833 135.377 11.59V10.498H138.783V13.722H142.033V16.764H138.783V22.822C138.783 23.29 138.861 23.6886 139.017 24.018C139.191 24.3473 139.451 24.5986 139.797 24.772C140.161 24.9453 140.621 25.032 141.175 25.032C141.297 25.032 141.435 25.0233 141.591 25.006C141.765 24.9886 141.929 24.9713 142.085 24.954V27.866C141.843 27.9006 141.565 27.9353 141.253 27.97C140.941 28.0046 140.655 28.022 140.395 28.022ZM155.341 28.178C154.283 28.178 153.278 27.9873 152.325 27.606C151.389 27.2073 150.583 26.6526 149.907 25.942C149.248 25.214 148.797 24.356 148.555 23.368L151.649 22.276C151.961 23.16 152.437 23.836 153.079 24.304C153.72 24.7546 154.474 24.98 155.341 24.98C156.034 24.98 156.632 24.85 157.135 24.59C157.655 24.33 158.062 23.9573 158.357 23.472C158.651 22.9693 158.799 22.38 158.799 21.704C158.799 21.028 158.651 20.456 158.357 19.988C158.079 19.5026 157.681 19.13 157.161 18.87C156.641 18.61 156.025 18.48 155.315 18.48C154.985 18.48 154.639 18.5146 154.275 18.584C153.928 18.6533 153.616 18.7573 153.339 18.896L152.533 17.206L157.551 11.486H149.647V8.49597H161.529V11.278L156.485 17.18L156.537 15.854C157.698 15.8713 158.712 16.1226 159.579 16.608C160.445 17.0933 161.121 17.7606 161.607 18.61C162.092 19.4593 162.335 20.456 162.335 21.6C162.335 22.848 162.031 23.9746 161.425 24.98C160.818 25.968 159.986 26.748 158.929 27.32C157.871 27.892 156.675 28.178 155.341 28.178ZM175.206 28.178C173.698 28.178 172.381 27.8226 171.254 27.112C170.145 26.384 169.382 25.4046 168.966 24.174L171.514 22.952C171.878 23.7493 172.381 24.3733 173.022 24.824C173.681 25.2746 174.409 25.5 175.206 25.5C175.83 25.5 176.324 25.3613 176.688 25.084C177.052 24.8066 177.234 24.4426 177.234 23.992C177.234 23.7146 177.156 23.4893 177 23.316C176.862 23.1253 176.662 22.9693 176.402 22.848C176.16 22.7093 175.891 22.5966 175.596 22.51L173.282 21.86C172.086 21.5133 171.176 20.9846 170.552 20.274C169.946 19.5633 169.642 18.7226 169.642 17.752C169.642 16.8853 169.859 16.1313 170.292 15.49C170.743 14.8313 171.358 14.32 172.138 13.956C172.936 13.592 173.846 13.41 174.868 13.41C176.203 13.41 177.382 13.7306 178.404 14.372C179.427 15.0133 180.155 15.9146 180.588 17.076L177.988 18.298C177.746 17.6566 177.338 17.1453 176.766 16.764C176.194 16.3826 175.553 16.192 174.842 16.192C174.27 16.192 173.82 16.322 173.49 16.582C173.161 16.842 172.996 17.18 172.996 17.596C172.996 17.856 173.066 18.0813 173.204 18.272C173.343 18.4626 173.534 18.6186 173.776 18.74C174.036 18.8613 174.331 18.974 174.66 19.078L176.922 19.754C178.084 20.1006 178.976 20.6206 179.6 21.314C180.242 22.0073 180.562 22.8566 180.562 23.862C180.562 24.7113 180.337 25.4653 179.886 26.124C179.436 26.7653 178.812 27.268 178.014 27.632C177.217 27.996 176.281 28.178 175.206 28.178ZM183.18 27.866V13.722H186.586V27.866H183.18ZM183.18 12.136V8.49597H186.586V12.136H183.18ZM189.731 27.866V13.722H192.929V16.998L192.565 16.452C192.825 15.4293 193.345 14.6666 194.125 14.164C194.905 13.6613 195.823 13.41 196.881 13.41C198.042 13.41 199.065 13.7133 199.949 14.32C200.833 14.9266 201.405 15.724 201.665 16.712L200.703 16.79C201.136 15.6633 201.786 14.8226 202.653 14.268C203.519 13.696 204.516 13.41 205.643 13.41C206.648 13.41 207.541 13.6353 208.321 14.086C209.118 14.5366 209.742 15.1693 210.193 15.984C210.643 16.7813 210.869 17.7086 210.869 18.766V27.866H207.463V19.572C207.463 18.948 207.35 18.4106 207.125 17.96C206.899 17.5093 206.587 17.1626 206.189 16.92C205.79 16.66 205.305 16.53 204.733 16.53C204.195 16.53 203.719 16.66 203.303 16.92C202.887 17.1626 202.566 17.5093 202.341 17.96C202.115 18.4106 202.003 18.948 202.003 19.572V27.866H198.597V19.572C198.597 18.948 198.484 18.4106 198.259 17.96C198.033 17.5093 197.713 17.1626 197.297 16.92C196.898 16.66 196.421 16.53 195.867 16.53C195.329 16.53 194.853 16.66 194.437 16.92C194.021 17.1626 193.7 17.5093 193.475 17.96C193.249 18.4106 193.137 18.948 193.137 19.572V27.866H189.731ZM213.75 33.066V13.722H216.948V16.53L216.636 15.828C217.121 15.0653 217.78 14.476 218.612 14.06C219.444 13.6266 220.406 13.41 221.498 13.41C222.833 13.41 224.037 13.7393 225.112 14.398C226.187 15.0566 227.036 15.9406 227.66 17.05C228.301 18.1593 228.622 19.4073 228.622 20.794C228.622 22.1633 228.31 23.4113 227.686 24.538C227.062 25.6646 226.213 26.5573 225.138 27.216C224.063 27.8573 222.841 28.178 221.472 28.178C220.449 28.178 219.505 27.9786 218.638 27.58C217.789 27.164 217.113 26.5746 216.61 25.812L217.156 25.136V33.066H213.75ZM221.082 25.058C221.862 25.058 222.555 24.876 223.162 24.512C223.769 24.148 224.237 23.6453 224.566 23.004C224.913 22.3626 225.086 21.626 225.086 20.794C225.086 19.962 224.913 19.234 224.566 18.61C224.237 17.9686 223.769 17.466 223.162 17.102C222.555 16.7206 221.862 16.53 221.082 16.53C220.337 16.53 219.661 16.712 219.054 17.076C218.465 17.44 217.997 17.9513 217.65 18.61C217.321 19.2513 217.156 19.9793 217.156 20.794C217.156 21.626 217.321 22.3626 217.65 23.004C217.997 23.6453 218.465 24.148 219.054 24.512C219.661 24.876 220.337 25.058 221.082 25.058ZM231.219 27.866V8.18397H234.625V27.866H231.219ZM244.478 28.178C243.022 28.178 241.748 27.8486 240.656 27.19C239.564 26.5313 238.714 25.6386 238.108 24.512C237.501 23.3853 237.198 22.1373 237.198 20.768C237.198 19.3466 237.501 18.09 238.108 16.998C238.732 15.8886 239.572 15.0133 240.63 14.372C241.704 13.7306 242.9 13.41 244.218 13.41C245.327 13.41 246.298 13.592 247.13 13.956C247.979 14.32 248.698 14.8226 249.288 15.464C249.877 16.1053 250.328 16.842 250.64 17.674C250.952 18.4886 251.108 19.3726 251.108 20.326C251.108 20.5686 251.09 20.82 251.056 21.08C251.038 21.34 250.995 21.5653 250.926 21.756H240.006V19.156H249.002L247.39 20.378C247.546 19.5806 247.502 18.87 247.26 18.246C247.034 17.622 246.653 17.128 246.116 16.764C245.596 16.4 244.963 16.218 244.218 16.218C243.507 16.218 242.874 16.4 242.32 16.764C241.765 17.1106 241.34 17.6306 241.046 18.324C240.768 19 240.664 19.8233 240.734 20.794C240.664 21.6606 240.777 22.432 241.072 23.108C241.384 23.7666 241.834 24.278 242.424 24.642C243.03 25.006 243.724 25.188 244.504 25.188C245.284 25.188 245.942 25.0233 246.48 24.694C247.034 24.3646 247.468 23.9226 247.78 23.368L250.536 24.72C250.258 25.396 249.825 25.994 249.236 26.514C248.646 27.034 247.944 27.4413 247.13 27.736C246.332 28.0306 245.448 28.178 244.478 28.178ZM263.693 28.178C262.185 28.178 260.867 27.8226 259.741 27.112C258.631 26.384 257.869 25.4046 257.453 24.174L260.001 22.952C260.365 23.7493 260.867 24.3733 261.509 24.824C262.167 25.2746 262.895 25.5 263.693 25.5C264.317 25.5 264.811 25.3613 265.175 25.084C265.539 24.8066 265.721 24.4426 265.721 23.992C265.721 23.7146 265.643 23.4893 265.487 23.316C265.348 23.1253 265.149 22.9693 264.889 22.848C264.646 22.7093 264.377 22.5966 264.083 22.51L261.769 21.86C260.573 21.5133 259.663 20.9846 259.039 20.274C258.432 19.5633 258.129 18.7226 258.129 17.752C258.129 16.8853 258.345 16.1313 258.779 15.49C259.229 14.8313 259.845 14.32 260.625 13.956C261.422 13.592 262.332 13.41 263.355 13.41C264.689 13.41 265.868 13.7306 266.891 14.372C267.913 15.0133 268.641 15.9146 269.075 17.076L266.475 18.298C266.232 17.6566 265.825 17.1453 265.253 16.764C264.681 16.3826 264.039 16.192 263.329 16.192C262.757 16.192 262.306 16.322 261.977 16.582C261.647 16.842 261.483 17.18 261.483 17.596C261.483 17.856 261.552 18.0813 261.691 18.272C261.829 18.4626 262.02 18.6186 262.263 18.74C262.523 18.8613 262.817 18.974 263.147 19.078L265.409 19.754C266.57 20.1006 267.463 20.6206 268.087 21.314C268.728 22.0073 269.049 22.8566 269.049 23.862C269.049 24.7113 268.823 25.4653 268.373 26.124C267.922 26.7653 267.298 27.268 266.501 27.632C265.703 27.996 264.767 28.178 263.693 28.178ZM278.114 28.022C276.519 28.022 275.28 27.5886 274.396 26.722C273.529 25.838 273.096 24.5986 273.096 23.004V16.764H270.652V13.722H270.912C271.605 13.722 272.143 13.54 272.524 13.176C272.905 12.812 273.096 12.2833 273.096 11.59V10.498H276.502V13.722H279.752V16.764H276.502V22.822C276.502 23.29 276.58 23.6886 276.736 24.018C276.909 24.3473 277.169 24.5986 277.516 24.772C277.88 24.9453 278.339 25.032 278.894 25.032C279.015 25.032 279.154 25.0233 279.31 25.006C279.483 24.9886 279.648 24.9713 279.804 24.954V27.866C279.561 27.9006 279.284 27.9353 278.972 27.97C278.66 28.0046 278.374 28.022 278.114 28.022ZM288.987 28.178C287.531 28.178 286.257 27.8486 285.165 27.19C284.073 26.5313 283.224 25.6386 282.617 24.512C282.011 23.3853 281.707 22.1373 281.707 20.768C281.707 19.3466 282.011 18.09 282.617 16.998C283.241 15.8886 284.082 15.0133 285.139 14.372C286.214 13.7306 287.41 13.41 288.727 13.41C289.837 13.41 290.807 13.592 291.639 13.956C292.489 14.32 293.208 14.8226 293.797 15.464C294.387 16.1053 294.837 16.842 295.149 17.674C295.461 18.4886 295.617 19.3726 295.617 20.326C295.617 20.5686 295.6 20.82 295.565 21.08C295.548 21.34 295.505 21.5653 295.435 21.756H284.515V19.156H293.511L291.899 20.378C292.055 19.5806 292.012 18.87 291.769 18.246C291.544 17.622 291.163 17.128 290.625 16.764C290.105 16.4 289.473 16.218 288.727 16.218C288.017 16.218 287.384 16.4 286.829 16.764C286.275 17.1106 285.85 17.6306 285.555 18.324C285.278 19 285.174 19.8233 285.243 20.794C285.174 21.6606 285.287 22.432 285.581 23.108C285.893 23.7666 286.344 24.278 286.933 24.642C287.54 25.006 288.233 25.188 289.013 25.188C289.793 25.188 290.452 25.0233 290.989 24.694C291.544 24.3646 291.977 23.9226 292.289 23.368L295.045 24.72C294.768 25.396 294.335 25.994 293.745 26.514C293.156 27.034 292.454 27.4413 291.639 27.736C290.842 28.0306 289.958 28.178 288.987 28.178ZM298.199 33.066V13.722H301.397V16.53L301.085 15.828C301.571 15.0653 302.229 14.476 303.061 14.06C303.893 13.6266 304.855 13.41 305.947 13.41C307.282 13.41 308.487 13.7393 309.561 14.398C310.636 15.0566 311.485 15.9406 312.109 17.05C312.751 18.1593 313.071 19.4073 313.071 20.794C313.071 22.1633 312.759 23.4113 312.135 24.538C311.511 25.6646 310.662 26.5573 309.587 27.216C308.513 27.8573 307.291 28.178 305.921 28.178C304.899 28.178 303.954 27.9786 303.087 27.58C302.238 27.164 301.562 26.5746 301.059 25.812L301.605 25.136V33.066H298.199ZM305.531 25.058C306.311 25.058 307.005 24.876 307.611 24.512C308.218 24.148 308.686 23.6453 309.015 23.004C309.362 22.3626 309.535 21.626 309.535 20.794C309.535 19.962 309.362 19.234 309.015 18.61C308.686 17.9686 308.218 17.466 307.611 17.102C307.005 16.7206 306.311 16.53 305.531 16.53C304.786 16.53 304.11 16.712 303.503 17.076C302.914 17.44 302.446 17.9513 302.099 18.61C301.77 19.2513 301.605 19.9793 301.605 20.794C301.605 21.626 301.77 22.3626 302.099 23.004C302.446 23.6453 302.914 24.148 303.503 24.512C304.11 24.876 304.786 25.058 305.531 25.058ZM321.05 28.178C319.542 28.178 318.225 27.8226 317.098 27.112C315.989 26.384 315.226 25.4046 314.81 24.174L317.358 22.952C317.722 23.7493 318.225 24.3733 318.866 24.824C319.525 25.2746 320.253 25.5 321.05 25.5C321.674 25.5 322.168 25.3613 322.532 25.084C322.896 24.8066 323.078 24.4426 323.078 23.992C323.078 23.7146 323 23.4893 322.844 23.316C322.705 23.1253 322.506 22.9693 322.246 22.848C322.003 22.7093 321.735 22.5966 321.44 22.51L319.126 21.86C317.93 21.5133 317.02 20.9846 316.396 20.274C315.789 19.5633 315.486 18.7226 315.486 17.752C315.486 16.8853 315.703 16.1313 316.136 15.49C316.587 14.8313 317.202 14.32 317.982 13.956C318.779 13.592 319.689 13.41 320.712 13.41C322.047 13.41 323.225 13.7306 324.248 14.372C325.271 15.0133 325.999 15.9146 326.432 17.076L323.832 18.298C323.589 17.6566 323.182 17.1453 322.61 16.764C322.038 16.3826 321.397 16.192 320.686 16.192C320.114 16.192 319.663 16.322 319.334 16.582C319.005 16.842 318.84 17.18 318.84 17.596C318.84 17.856 318.909 18.0813 319.048 18.272C319.187 18.4626 319.377 18.6186 319.62 18.74C319.88 18.8613 320.175 18.974 320.504 19.078L322.766 19.754C323.927 20.1006 324.82 20.6206 325.444 21.314C326.085 22.0073 326.406 22.8566 326.406 23.862C326.406 24.7113 326.181 25.4653 325.73 26.124C325.279 26.7653 324.655 27.268 323.858 27.632C323.061 27.996 322.125 28.178 321.05 28.178Z" fill="#191717"/>
<path d="M5.082 81.034C4.25133 81.034 3.52333 80.81 2.898 80.362C2.282 79.9046 1.80133 79.2746 1.456 78.472C1.11067 77.66 0.938 76.7173 0.938 75.644C0.938 74.5706 1.11067 73.6326 1.456 72.83C1.80133 72.018 2.282 71.388 2.898 70.94C3.514 70.492 4.23733 70.268 5.068 70.268C5.89867 70.268 6.622 70.492 7.238 70.94C7.854 71.388 8.33467 72.018 8.68 72.83C9.03467 73.6326 9.212 74.5706 9.212 75.644C9.212 76.7173 9.03933 77.66 8.694 78.472C8.34867 79.284 7.86333 79.914 7.238 80.362C6.622 80.81 5.90333 81.034 5.082 81.034ZM5.082 79.76C5.642 79.76 6.12733 79.592 6.538 79.256C6.94867 78.9106 7.266 78.43 7.49 77.814C7.72333 77.198 7.84 76.4746 7.84 75.644C7.84 74.8133 7.72333 74.09 7.49 73.474C7.266 72.858 6.944 72.382 6.524 72.046C6.11333 71.71 5.628 71.542 5.068 71.542C4.508 71.542 4.02267 71.71 3.612 72.046C3.20133 72.382 2.87933 72.858 2.646 73.474C2.422 74.09 2.31 74.8133 2.31 75.644C2.31 76.4653 2.422 77.184 2.646 77.8C2.87933 78.416 3.20133 78.8966 3.612 79.242C4.032 79.5873 4.522 79.76 5.082 79.76ZM12.6229 80.866V71.626H10.6489V70.436H14.0089V80.866H12.6229Z" fill="#054425"/>
<path d="M31.162 80.866V70.436H34.578C35.6327 70.436 36.552 70.6506 37.336 71.08C38.12 71.5093 38.7267 72.116 39.156 72.9C39.5853 73.6746 39.8 74.5893 39.8 75.644C39.8 76.6893 39.5853 77.604 39.156 78.388C38.7267 79.172 38.12 79.7833 37.336 80.222C36.552 80.6513 35.6327 80.866 34.578 80.866H31.162ZM32.534 79.606H34.592C35.3667 79.606 36.034 79.4426 36.594 79.116C37.1633 78.7893 37.602 78.332 37.91 77.744C38.218 77.1466 38.372 76.4466 38.372 75.644C38.372 74.832 38.2133 74.132 37.896 73.544C37.588 72.956 37.1493 72.5033 36.58 72.186C36.02 71.8593 35.3573 71.696 34.592 71.696H32.534V79.606ZM44.969 81.034C44.241 81.034 43.583 80.866 42.995 80.53C42.407 80.1846 41.9403 79.7133 41.595 79.116C41.2496 78.5186 41.077 77.842 41.077 77.086C41.077 76.33 41.245 75.658 41.581 75.07C41.9263 74.482 42.393 74.0153 42.981 73.67C43.569 73.3246 44.2316 73.152 44.969 73.152C45.697 73.152 46.355 73.3246 46.943 73.67C47.531 74.006 47.993 74.468 48.329 75.056C48.6743 75.644 48.847 76.3206 48.847 77.086C48.847 77.8513 48.6696 78.5326 48.315 79.13C47.9603 79.718 47.489 80.1846 46.901 80.53C46.3223 80.866 45.6783 81.034 44.969 81.034ZM44.969 79.774C45.4356 79.774 45.8556 79.6573 46.229 79.424C46.6116 79.1906 46.9103 78.8686 47.125 78.458C47.349 78.0473 47.461 77.59 47.461 77.086C47.461 76.5726 47.349 76.12 47.125 75.728C46.9103 75.3266 46.6116 75.0093 46.229 74.776C45.8556 74.5333 45.4356 74.412 44.969 74.412C44.493 74.412 44.0636 74.5333 43.681 74.776C43.3076 75.0093 43.009 75.3266 42.785 75.728C42.561 76.12 42.449 76.5726 42.449 77.086C42.449 77.59 42.561 78.0473 42.785 78.458C43.009 78.8686 43.3076 79.1906 43.681 79.424C44.0636 79.6573 44.493 79.774 44.969 79.774ZM52.1444 80.866L49.5544 73.32H50.9964L53.0544 79.634L52.5504 79.62L54.5664 73.32H55.7984L57.8144 79.62L57.3104 79.634L59.3824 73.32H60.8104L58.2204 80.866H56.9744L54.9864 74.566H55.3784L53.3904 80.866H52.1444ZM61.9748 80.866V73.32H63.2488V74.79L63.0388 74.664C63.2255 74.188 63.5241 73.8193 63.9348 73.558C64.3548 73.2873 64.8448 73.152 65.4048 73.152C65.9461 73.152 66.4268 73.2733 66.8468 73.516C67.2761 73.7586 67.6121 74.0946 67.8548 74.524C68.1068 74.9533 68.2328 75.4386 68.2328 75.98V80.866H66.9168V76.4C66.9168 75.98 66.8421 75.6253 66.6928 75.336C66.5435 75.0466 66.3288 74.8226 66.0488 74.664C65.7781 74.496 65.4655 74.412 65.1108 74.412C64.7561 74.412 64.4388 74.496 64.1588 74.664C63.8881 74.8226 63.6735 75.0513 63.5148 75.35C63.3561 75.6393 63.2768 75.9893 63.2768 76.4V80.866H61.9748ZM70.0959 80.866V70.268H71.3979V80.866H70.0959ZM77.0022 81.034C76.2742 81.034 75.6162 80.866 75.0282 80.53C74.4402 80.1846 73.9735 79.7133 73.6282 79.116C73.2828 78.5186 73.1102 77.842 73.1102 77.086C73.1102 76.33 73.2782 75.658 73.6142 75.07C73.9595 74.482 74.4262 74.0153 75.0142 73.67C75.6022 73.3246 76.2648 73.152 77.0022 73.152C77.7302 73.152 78.3882 73.3246 78.9762 73.67C79.5642 74.006 80.0262 74.468 80.3622 75.056C80.7075 75.644 80.8802 76.3206 80.8802 77.086C80.8802 77.8513 80.7028 78.5326 80.3482 79.13C79.9935 79.718 79.5222 80.1846 78.9342 80.53C78.3555 80.866 77.7115 81.034 77.0022 81.034ZM77.0022 79.774C77.4688 79.774 77.8888 79.6573 78.2622 79.424C78.6448 79.1906 78.9435 78.8686 79.1582 78.458C79.3822 78.0473 79.4942 77.59 79.4942 77.086C79.4942 76.5726 79.3822 76.12 79.1582 75.728C78.9435 75.3266 78.6448 75.0093 78.2622 74.776C77.8888 74.5333 77.4688 74.412 77.0022 74.412C76.5262 74.412 76.0968 74.5333 75.7142 74.776C75.3408 75.0093 75.0422 75.3266 74.8182 75.728C74.5942 76.12 74.4822 76.5726 74.4822 77.086C74.4822 77.59 74.5942 78.0473 74.8182 78.458C75.0422 78.8686 75.3408 79.1906 75.7142 79.424C76.0968 79.6573 76.5262 79.774 77.0022 79.774ZM84.7903 81.034C84.2956 81.034 83.857 80.9453 83.4743 80.768C83.101 80.5813 82.807 80.3293 82.5923 80.012C82.3776 79.6853 82.2703 79.312 82.2703 78.892C82.2703 78.4906 82.3543 78.1313 82.5223 77.814C82.6996 77.4873 82.9703 77.212 83.3343 76.988C83.7076 76.764 84.1743 76.6053 84.7343 76.512L87.5343 76.05V77.142L85.0283 77.562C84.543 77.646 84.1883 77.8 83.9643 78.024C83.7496 78.248 83.6423 78.5233 83.6423 78.85C83.6423 79.158 83.7636 79.4146 84.0063 79.62C84.2583 79.8253 84.571 79.928 84.9443 79.928C85.4203 79.928 85.831 79.83 86.1763 79.634C86.531 79.4286 86.8063 79.1533 87.0023 78.808C87.2076 78.4626 87.3103 78.08 87.3103 77.66V75.742C87.3103 75.3313 87.1563 75 86.8483 74.748C86.5496 74.4866 86.153 74.356 85.6583 74.356C85.229 74.356 84.8463 74.468 84.5103 74.692C84.1836 74.9066 83.941 75.196 83.7823 75.56L82.6483 74.972C82.7883 74.6266 83.0123 74.3186 83.3203 74.048C83.6283 73.768 83.9876 73.5486 84.3983 73.39C84.809 73.2313 85.2383 73.152 85.6863 73.152C86.265 73.152 86.7736 73.264 87.2123 73.488C87.651 73.7026 87.9916 74.006 88.2343 74.398C88.4863 74.7806 88.6123 75.2286 88.6123 75.742V80.866H87.3383V79.438L87.5763 79.522C87.4176 79.8206 87.203 80.082 86.9323 80.306C86.6616 80.53 86.3443 80.7073 85.9803 80.838C85.6163 80.9686 85.2196 81.034 84.7903 81.034ZM94.061 81.034C93.3517 81.034 92.7124 80.8613 92.143 80.516C91.583 80.1706 91.1397 79.6993 90.813 79.102C90.4864 78.5046 90.323 77.8373 90.323 77.1C90.323 76.344 90.4864 75.672 90.813 75.084C91.1397 74.4866 91.583 74.0153 92.143 73.67C92.7124 73.3246 93.3517 73.152 94.061 73.152C94.6864 73.152 95.2417 73.2873 95.727 73.558C96.2124 73.8193 96.595 74.174 96.875 74.622L96.665 74.944V70.268H97.981V80.866H96.707V79.256L96.875 79.48C96.6137 79.9746 96.231 80.3573 95.727 80.628C95.2324 80.8986 94.677 81.034 94.061 81.034ZM94.173 79.774C94.649 79.774 95.0737 79.6573 95.447 79.424C95.8204 79.1906 96.1144 78.8733 96.329 78.472C96.553 78.0613 96.665 77.604 96.665 77.1C96.665 76.5866 96.553 76.1293 96.329 75.728C96.1144 75.3173 95.8204 74.9953 95.447 74.762C95.0737 74.5286 94.649 74.412 94.173 74.412C93.7064 74.412 93.2817 74.5333 92.899 74.776C92.5257 75.0093 92.2317 75.3266 92.017 75.728C91.8024 76.12 91.695 76.5773 91.695 77.1C91.695 77.604 91.8024 78.0613 92.017 78.472C92.2317 78.8733 92.5257 79.1906 92.899 79.424C93.2724 79.6573 93.697 79.774 94.173 79.774ZM105.482 80.95C104.745 80.95 104.176 80.74 103.774 80.32C103.382 79.9 103.186 79.3073 103.186 78.542V74.566H101.814V73.32H102.094C102.43 73.32 102.696 73.2173 102.892 73.012C103.088 72.8066 103.186 72.536 103.186 72.2V71.584H104.488V73.32H106.182V74.566H104.488V78.5C104.488 78.752 104.526 78.9713 104.6 79.158C104.684 79.3446 104.82 79.494 105.006 79.606C105.193 79.7086 105.44 79.76 105.748 79.76C105.814 79.76 105.893 79.7553 105.986 79.746C106.089 79.7366 106.182 79.7273 106.266 79.718V80.866C106.145 80.894 106.01 80.9126 105.86 80.922C105.711 80.9406 105.585 80.95 105.482 80.95ZM107.967 80.866V70.268H109.269V74.79L109.031 74.664C109.218 74.188 109.516 73.8193 109.927 73.558C110.347 73.2873 110.837 73.152 111.397 73.152C111.938 73.152 112.419 73.2733 112.839 73.516C113.268 73.7586 113.604 74.0946 113.847 74.524C114.099 74.9533 114.225 75.4386 114.225 75.98V80.866H112.909V76.4C112.909 75.98 112.83 75.6253 112.671 75.336C112.522 75.0466 112.312 74.8226 112.041 74.664C111.77 74.496 111.458 74.412 111.103 74.412C110.758 74.412 110.445 74.496 110.165 74.664C109.885 74.8226 109.666 75.0513 109.507 75.35C109.348 75.6393 109.269 75.9893 109.269 76.4V80.866H107.967ZM119.56 81.034C118.832 81.034 118.183 80.8613 117.614 80.516C117.045 80.1706 116.597 79.6993 116.27 79.102C115.943 78.4953 115.78 77.8186 115.78 77.072C115.78 76.316 115.939 75.644 116.256 75.056C116.583 74.468 117.021 74.006 117.572 73.67C118.132 73.3246 118.757 73.152 119.448 73.152C120.008 73.152 120.503 73.2546 120.932 73.46C121.371 73.656 121.739 73.9266 122.038 74.272C122.346 74.608 122.579 74.9953 122.738 75.434C122.906 75.8633 122.99 76.3113 122.99 76.778C122.99 76.8806 122.981 76.9973 122.962 77.128C122.953 77.2493 122.939 77.366 122.92 77.478H116.732V76.358H122.164L121.548 76.862C121.632 76.3766 121.585 75.9426 121.408 75.56C121.231 75.1773 120.969 74.874 120.624 74.65C120.279 74.426 119.887 74.314 119.448 74.314C119.009 74.314 118.608 74.426 118.244 74.65C117.88 74.874 117.595 75.196 117.39 75.616C117.194 76.0266 117.115 76.5166 117.152 77.086C117.115 77.6366 117.199 78.122 117.404 78.542C117.619 78.9526 117.917 79.2746 118.3 79.508C118.692 79.732 119.117 79.844 119.574 79.844C120.078 79.844 120.503 79.7273 120.848 79.494C121.193 79.2606 121.473 78.962 121.688 78.598L122.78 79.158C122.631 79.5033 122.397 79.8206 122.08 80.11C121.772 80.39 121.403 80.614 120.974 80.782C120.554 80.95 120.083 81.034 119.56 81.034ZM127.262 80.866V70.436H134.052V71.696H128.634V75H133.772V76.26H128.634V79.606H134.052V80.866H127.262ZM137.81 81.034C137.315 81.034 136.877 80.9453 136.494 80.768C136.121 80.5813 135.827 80.3293 135.612 80.012C135.397 79.6853 135.29 79.312 135.29 78.892C135.29 78.4906 135.374 78.1313 135.542 77.814C135.719 77.4873 135.99 77.212 136.354 76.988C136.727 76.764 137.194 76.6053 137.754 76.512L140.554 76.05V77.142L138.048 77.562C137.563 77.646 137.208 77.8 136.984 78.024C136.769 78.248 136.662 78.5233 136.662 78.85C136.662 79.158 136.783 79.4146 137.026 79.62C137.278 79.8253 137.591 79.928 137.964 79.928C138.44 79.928 138.851 79.83 139.196 79.634C139.551 79.4286 139.826 79.1533 140.022 78.808C140.227 78.4626 140.33 78.08 140.33 77.66V75.742C140.33 75.3313 140.176 75 139.868 74.748C139.569 74.4866 139.173 74.356 138.678 74.356C138.249 74.356 137.866 74.468 137.53 74.692C137.203 74.9066 136.961 75.196 136.802 75.56L135.668 74.972C135.808 74.6266 136.032 74.3186 136.34 74.048C136.648 73.768 137.007 73.5486 137.418 73.39C137.829 73.2313 138.258 73.152 138.706 73.152C139.285 73.152 139.793 73.264 140.232 73.488C140.671 73.7026 141.011 74.006 141.254 74.398C141.506 74.7806 141.632 75.2286 141.632 75.742V80.866H140.358V79.438L140.596 79.522C140.437 79.8206 140.223 80.082 139.952 80.306C139.681 80.53 139.364 80.7073 139 80.838C138.636 80.9686 138.239 81.034 137.81 81.034ZM146.58 80.95C145.843 80.95 145.273 80.74 144.872 80.32C144.48 79.9 144.284 79.3073 144.284 78.542V74.566H142.912V73.32H143.192C143.528 73.32 143.794 73.2173 143.99 73.012C144.186 72.8066 144.284 72.536 144.284 72.2V71.584H145.586V73.32H147.28V74.566H145.586V78.5C145.586 78.752 145.623 78.9713 145.698 79.158C145.782 79.3446 145.917 79.494 146.104 79.606C146.291 79.7086 146.538 79.76 146.846 79.76C146.911 79.76 146.991 79.7553 147.084 79.746C147.187 79.7366 147.28 79.7273 147.364 79.718V80.866C147.243 80.894 147.107 80.9126 146.958 80.922C146.809 80.9406 146.683 80.95 146.58 80.95ZM151.181 81.034C150.686 81.034 150.248 80.9453 149.865 80.768C149.492 80.5813 149.198 80.3293 148.983 80.012C148.768 79.6853 148.661 79.312 148.661 78.892C148.661 78.4906 148.745 78.1313 148.913 77.814C149.09 77.4873 149.361 77.212 149.725 76.988C150.098 76.764 150.565 76.6053 151.125 76.512L153.925 76.05V77.142L151.419 77.562C150.934 77.646 150.579 77.8 150.355 78.024C150.14 78.248 150.033 78.5233 150.033 78.85C150.033 79.158 150.154 79.4146 150.397 79.62C150.649 79.8253 150.962 79.928 151.335 79.928C151.811 79.928 152.222 79.83 152.567 79.634C152.922 79.4286 153.197 79.1533 153.393 78.808C153.598 78.4626 153.701 78.08 153.701 77.66V75.742C153.701 75.3313 153.547 75 153.239 74.748C152.94 74.4866 152.544 74.356 152.049 74.356C151.62 74.356 151.237 74.468 150.901 74.692C150.574 74.9066 150.332 75.196 150.173 75.56L149.039 74.972C149.179 74.6266 149.403 74.3186 149.711 74.048C150.019 73.768 150.378 73.5486 150.789 73.39C151.2 73.2313 151.629 73.152 152.077 73.152C152.656 73.152 153.164 73.264 153.603 73.488C154.042 73.7026 154.382 74.006 154.625 74.398C154.877 74.7806 155.003 75.2286 155.003 75.742V80.866H153.729V79.438L153.967 79.522C153.808 79.8206 153.594 80.082 153.323 80.306C153.052 80.53 152.735 80.7073 152.371 80.838C152.007 80.9686 151.61 81.034 151.181 81.034ZM160.928 81.034C160.321 81.034 159.766 80.8986 159.262 80.628C158.767 80.3573 158.384 79.9746 158.114 79.48L158.296 79.256V80.866H157.022V70.268H158.324V74.944L158.128 74.622C158.408 74.174 158.79 73.8193 159.276 73.558C159.761 73.2873 160.316 73.152 160.942 73.152C161.651 73.152 162.286 73.3246 162.846 73.67C163.415 74.0153 163.863 74.4866 164.19 75.084C164.516 75.672 164.68 76.344 164.68 77.1C164.68 77.8373 164.516 78.5046 164.19 79.102C163.863 79.6993 163.415 80.1706 162.846 80.516C162.286 80.8613 161.646 81.034 160.928 81.034ZM160.83 79.774C161.306 79.774 161.73 79.6573 162.104 79.424C162.477 79.1906 162.766 78.8733 162.972 78.472C163.186 78.0613 163.294 77.604 163.294 77.1C163.294 76.5773 163.186 76.12 162.972 75.728C162.766 75.3266 162.477 75.0093 162.104 74.776C161.73 74.5333 161.306 74.412 160.83 74.412C160.354 74.412 159.924 74.5286 159.542 74.762C159.168 74.9953 158.87 75.3173 158.646 75.728C158.431 76.1293 158.324 76.5866 158.324 77.1C158.324 77.604 158.431 78.0613 158.646 78.472C158.87 78.8733 159.168 79.1906 159.542 79.424C159.924 79.6573 160.354 79.774 160.83 79.774ZM166.387 80.866V70.268H167.689V80.866H166.387ZM173.181 81.034C172.453 81.034 171.805 80.8613 171.235 80.516C170.666 80.1706 170.218 79.6993 169.891 79.102C169.565 78.4953 169.401 77.8186 169.401 77.072C169.401 76.316 169.56 75.644 169.877 75.056C170.204 74.468 170.643 74.006 171.193 73.67C171.753 73.3246 172.379 73.152 173.069 73.152C173.629 73.152 174.124 73.2546 174.553 73.46C174.992 73.656 175.361 73.9266 175.659 74.272C175.967 74.608 176.201 74.9953 176.359 75.434C176.527 75.8633 176.611 76.3113 176.611 76.778C176.611 76.8806 176.602 76.9973 176.583 77.128C176.574 77.2493 176.56 77.366 176.541 77.478H170.353V76.358H175.785L175.169 76.862C175.253 76.3766 175.207 75.9426 175.029 75.56C174.852 75.1773 174.591 74.874 174.245 74.65C173.9 74.426 173.508 74.314 173.069 74.314C172.631 74.314 172.229 74.426 171.865 74.65C171.501 74.874 171.217 75.196 171.011 75.616C170.815 76.0266 170.736 76.5166 170.773 77.086C170.736 77.6366 170.82 78.122 171.025 78.542C171.24 78.9526 171.539 79.2746 171.921 79.508C172.313 79.732 172.738 79.844 173.195 79.844C173.699 79.844 174.124 79.7273 174.469 79.494C174.815 79.2606 175.095 78.962 175.309 78.598L176.401 79.158C176.252 79.5033 176.019 79.8206 175.701 80.11C175.393 80.39 175.025 80.614 174.595 80.782C174.175 80.95 173.704 81.034 173.181 81.034ZM181.011 81.034C180.255 81.034 179.597 80.8473 179.037 80.474C178.477 80.1006 178.08 79.5966 177.847 78.962L178.883 78.458C179.097 78.906 179.391 79.2606 179.765 79.522C180.138 79.7833 180.553 79.914 181.011 79.914C181.421 79.914 181.762 79.816 182.033 79.62C182.303 79.424 182.439 79.1673 182.439 78.85C182.439 78.626 182.373 78.4486 182.243 78.318C182.121 78.178 181.972 78.0706 181.795 77.996C181.617 77.912 181.454 77.8513 181.305 77.814L180.171 77.492C179.489 77.296 178.99 77.016 178.673 76.652C178.365 76.288 178.211 75.8633 178.211 75.378C178.211 74.93 178.323 74.5426 178.547 74.216C178.78 73.88 179.093 73.6186 179.485 73.432C179.886 73.2453 180.334 73.152 180.829 73.152C181.491 73.152 182.084 73.32 182.607 73.656C183.139 73.992 183.517 74.4633 183.741 75.07L182.677 75.56C182.509 75.168 182.257 74.86 181.921 74.636C181.585 74.4026 181.207 74.286 180.787 74.286C180.404 74.286 180.101 74.384 179.877 74.58C179.653 74.7666 179.541 75.0046 179.541 75.294C179.541 75.5086 179.597 75.686 179.709 75.826C179.821 75.9566 179.956 76.0593 180.115 76.134C180.273 76.1993 180.427 76.2553 180.577 76.302L181.809 76.666C182.425 76.8433 182.901 77.1186 183.237 77.492C183.582 77.8653 183.755 78.3133 183.755 78.836C183.755 79.256 183.638 79.634 183.405 79.97C183.171 80.306 182.849 80.5673 182.439 80.754C182.028 80.9406 181.552 81.034 181.011 81.034ZM190.091 81.034C189.596 81.034 189.158 80.9453 188.775 80.768C188.402 80.5813 188.108 80.3293 187.893 80.012C187.678 79.6853 187.571 79.312 187.571 78.892C187.571 78.4906 187.655 78.1313 187.823 77.814C188 77.4873 188.271 77.212 188.635 76.988C189.008 76.764 189.475 76.6053 190.035 76.512L192.835 76.05V77.142L190.329 77.562C189.844 77.646 189.489 77.8 189.265 78.024C189.05 78.248 188.943 78.5233 188.943 78.85C188.943 79.158 189.064 79.4146 189.307 79.62C189.559 79.8253 189.872 79.928 190.245 79.928C190.721 79.928 191.132 79.83 191.477 79.634C191.832 79.4286 192.107 79.1533 192.303 78.808C192.508 78.4626 192.611 78.08 192.611 77.66V75.742C192.611 75.3313 192.457 75 192.149 74.748C191.85 74.4866 191.454 74.356 190.959 74.356C190.53 74.356 190.147 74.468 189.811 74.692C189.484 74.9066 189.242 75.196 189.083 75.56L187.949 74.972C188.089 74.6266 188.313 74.3186 188.621 74.048C188.929 73.768 189.288 73.5486 189.699 73.39C190.11 73.2313 190.539 73.152 190.987 73.152C191.566 73.152 192.074 73.264 192.513 73.488C192.952 73.7026 193.292 74.006 193.535 74.398C193.787 74.7806 193.913 75.2286 193.913 75.742V80.866H192.639V79.438L192.877 79.522C192.718 79.8206 192.504 80.082 192.233 80.306C191.962 80.53 191.645 80.7073 191.281 80.838C190.917 80.9686 190.52 81.034 190.091 81.034ZM195.932 83.666V73.32H197.206V74.944L197.038 74.622C197.318 74.174 197.7 73.8193 198.186 73.558C198.671 73.2873 199.226 73.152 199.852 73.152C200.561 73.152 201.196 73.3246 201.756 73.67C202.325 74.0153 202.773 74.4866 203.1 75.084C203.426 75.672 203.59 76.344 203.59 77.1C203.59 77.8373 203.426 78.5046 203.1 79.102C202.773 79.6993 202.325 80.1706 201.756 80.516C201.196 80.8613 200.556 81.034 199.838 81.034C199.231 81.034 198.676 80.8986 198.172 80.628C197.677 80.3573 197.294 79.9746 197.024 79.48L197.234 79.256V83.666H195.932ZM199.74 79.774C200.216 79.774 200.64 79.6573 201.014 79.424C201.387 79.1906 201.676 78.8733 201.882 78.472C202.096 78.0613 202.204 77.604 202.204 77.1C202.204 76.5773 202.096 76.12 201.882 75.728C201.676 75.3266 201.387 75.0093 201.014 74.776C200.64 74.5333 200.216 74.412 199.74 74.412C199.264 74.412 198.834 74.5286 198.452 74.762C198.078 74.9953 197.78 75.3173 197.556 75.728C197.341 76.1293 197.234 76.5866 197.234 77.1C197.234 77.604 197.341 78.0613 197.556 78.472C197.78 78.8733 198.078 79.1906 198.452 79.424C198.834 79.6573 199.264 79.774 199.74 79.774ZM205.297 83.666V73.32H206.571V74.944L206.403 74.622C206.683 74.174 207.066 73.8193 207.551 73.558C208.036 73.2873 208.592 73.152 209.217 73.152C209.926 73.152 210.561 73.3246 211.121 73.67C211.69 74.0153 212.138 74.4866 212.465 75.084C212.792 75.672 212.955 76.344 212.955 77.1C212.955 77.8373 212.792 78.5046 212.465 79.102C212.138 79.6993 211.69 80.1706 211.121 80.516C210.561 80.8613 209.922 81.034 209.203 81.034C208.596 81.034 208.041 80.8986 207.537 80.628C207.042 80.3573 206.66 79.9746 206.389 79.48L206.599 79.256V83.666H205.297ZM209.105 79.774C209.581 79.774 210.006 79.6573 210.379 79.424C210.752 79.1906 211.042 78.8733 211.247 78.472C211.462 78.0613 211.569 77.604 211.569 77.1C211.569 76.5773 211.462 76.12 211.247 75.728C211.042 75.3266 210.752 75.0093 210.379 74.776C210.006 74.5333 209.581 74.412 209.105 74.412C208.629 74.412 208.2 74.5286 207.817 74.762C207.444 74.9953 207.145 75.3173 206.921 75.728C206.706 76.1293 206.599 76.5866 206.599 77.1C206.599 77.604 206.706 78.0613 206.921 78.472C207.145 78.8733 207.444 79.1906 207.817 79.424C208.2 79.6573 208.629 79.774 209.105 79.774Z" fill="#191717"/>
<line x1="10.4209" y1="91.8712" x2="10.2104" y2="131.871" stroke="#298A5A" stroke-width="2"/>
<path d="M5.026 155.034C4.19533 155.034 3.46733 154.81 2.842 154.362C2.21667 153.905 1.72667 153.275 1.372 152.472C1.02667 151.66 0.854 150.717 0.854 149.644C0.854 148.561 1.02667 147.619 1.372 146.816C1.72667 146.013 2.212 145.388 2.828 144.94C3.45333 144.492 4.18133 144.268 5.012 144.268C5.84267 144.268 6.566 144.492 7.182 144.94C7.80733 145.388 8.29267 146.018 8.638 146.83C8.99267 147.633 9.17 148.571 9.17 149.644C9.17 150.717 8.99733 151.66 8.652 152.472C8.30667 153.275 7.82133 153.905 7.196 154.362C6.58 154.81 5.85667 155.034 5.026 155.034ZM5.026 153.522C5.53933 153.522 5.98267 153.363 6.356 153.046C6.72933 152.729 7.01867 152.281 7.224 151.702C7.42933 151.123 7.532 150.437 7.532 149.644C7.532 148.851 7.42933 148.165 7.224 147.586C7.01867 147.007 6.72933 146.559 6.356 146.242C5.98267 145.925 5.53467 145.766 5.012 145.766C4.49867 145.766 4.05533 145.925 3.682 146.242C3.30867 146.559 3.01933 147.007 2.814 147.586C2.60867 148.165 2.506 148.851 2.506 149.644C2.506 150.428 2.60867 151.114 2.814 151.702C3.01933 152.281 3.30867 152.729 3.682 153.046C4.06467 153.363 4.51267 153.522 5.026 153.522ZM10.7215 154.866V153.676L13.5775 150.624C14.1375 150.027 14.5762 149.546 14.8935 149.182C15.2202 148.809 15.4535 148.482 15.5935 148.202C15.7428 147.922 15.8175 147.628 15.8175 147.32C15.8175 146.816 15.6635 146.429 15.3555 146.158C15.0475 145.878 14.6508 145.738 14.1655 145.738C13.6615 145.738 13.2275 145.883 12.8635 146.172C12.4995 146.452 12.2475 146.863 12.1075 147.404L10.6515 146.984C10.7635 146.433 10.9875 145.957 11.3235 145.556C11.6595 145.145 12.0702 144.828 12.5555 144.604C13.0502 144.38 13.5822 144.268 14.1515 144.268C14.8142 144.268 15.3928 144.394 15.8875 144.646C16.3822 144.889 16.7648 145.229 17.0355 145.668C17.3155 146.107 17.4555 146.615 17.4555 147.194C17.4555 147.577 17.3808 147.95 17.2315 148.314C17.0915 148.669 16.8722 149.047 16.5735 149.448C16.2748 149.84 15.8922 150.283 15.4255 150.778L12.9055 153.466H17.6515V154.866H10.7215Z" fill="#298A5A"/>
<path d="M31.078 154.866V144.436H37.952V145.906H32.73V148.902H37.672V150.372H32.73V153.396H37.952V154.866H31.078ZM38.5762 154.866L41.2222 151.072L38.5762 147.292H40.4382L42.6082 150.456H41.7122L43.8822 147.292H45.7442L43.0842 151.072L45.7302 154.866H43.8682L41.7262 151.688H42.5942L40.4382 154.866H38.5762ZM46.8244 157.666V147.292H48.3364V148.86L48.1544 148.496C48.4344 148.067 48.8077 147.731 49.2744 147.488C49.7411 147.245 50.2731 147.124 50.8704 147.124C51.5891 147.124 52.2331 147.297 52.8024 147.642C53.3811 147.987 53.8337 148.459 54.1604 149.056C54.4964 149.653 54.6644 150.325 54.6644 151.072C54.6644 151.819 54.4964 152.491 54.1604 153.088C53.8337 153.685 53.3857 154.161 52.8164 154.516C52.2471 154.861 51.5984 155.034 50.8704 155.034C50.2824 155.034 49.7457 154.913 49.2604 154.67C48.7844 154.427 48.4157 154.077 48.1544 153.62L48.4064 153.326V157.666H46.8244ZM50.7164 153.564C51.1644 153.564 51.5611 153.457 51.9064 153.242C52.2517 153.027 52.5224 152.733 52.7184 152.36C52.9237 151.977 53.0264 151.548 53.0264 151.072C53.0264 150.596 52.9237 150.171 52.7184 149.798C52.5224 149.425 52.2517 149.131 51.9064 148.916C51.5611 148.701 51.1644 148.594 50.7164 148.594C50.2777 148.594 49.8811 148.701 49.5264 148.916C49.1811 149.131 48.9057 149.425 48.7004 149.798C48.5044 150.171 48.4064 150.596 48.4064 151.072C48.4064 151.548 48.5044 151.977 48.7004 152.36C48.9057 152.733 49.1811 153.027 49.5264 153.242C49.8811 153.457 50.2777 153.564 50.7164 153.564ZM56.2033 154.866V144.268H57.7853V154.866H56.2033ZM63.2889 155.034C62.5609 155.034 61.8936 154.861 61.2869 154.516C60.6896 154.171 60.2136 153.699 59.8589 153.102C59.5043 152.505 59.3269 151.828 59.3269 151.072C59.3269 150.307 59.5043 149.63 59.8589 149.042C60.2136 148.445 60.6896 147.978 61.2869 147.642C61.8843 147.297 62.5516 147.124 63.2889 147.124C64.0356 147.124 64.7029 147.297 65.2909 147.642C65.8883 147.978 66.3596 148.445 66.7049 149.042C67.0596 149.63 67.2369 150.307 67.2369 151.072C67.2369 151.837 67.0596 152.519 66.7049 153.116C66.3503 153.713 65.8743 154.185 65.2769 154.53C64.6796 154.866 64.0169 155.034 63.2889 155.034ZM63.2889 153.564C63.7369 153.564 64.1336 153.457 64.4789 153.242C64.8243 153.027 65.0949 152.733 65.2909 152.36C65.4963 151.977 65.5989 151.548 65.5989 151.072C65.5989 150.596 65.4963 150.171 65.2909 149.798C65.0949 149.425 64.8243 149.131 64.4789 148.916C64.1336 148.701 63.7369 148.594 63.2889 148.594C62.8503 148.594 62.4536 148.701 62.0989 148.916C61.7536 149.131 61.4783 149.425 61.2729 149.798C61.0769 150.171 60.9789 150.596 60.9789 151.072C60.9789 151.548 61.0769 151.977 61.2729 152.36C61.4783 152.733 61.7536 153.027 62.0989 153.242C62.4536 153.457 62.8503 153.564 63.2889 153.564ZM68.7814 154.866V147.292H70.2934V148.818L70.1534 148.594C70.3214 148.099 70.5921 147.745 70.9654 147.53C71.3388 147.306 71.7868 147.194 72.3094 147.194H72.7714V148.636H72.1134C71.5908 148.636 71.1661 148.799 70.8394 149.126C70.5221 149.443 70.3634 149.901 70.3634 150.498V154.866H68.7814ZM77.4097 155.034C76.6537 155.034 75.9817 154.861 75.3937 154.516C74.815 154.161 74.3624 153.685 74.0357 153.088C73.709 152.481 73.5457 151.805 73.5457 151.058C73.5457 150.293 73.709 149.616 74.0357 149.028C74.3717 148.44 74.8197 147.978 75.3797 147.642C75.9397 147.297 76.5744 147.124 77.2837 147.124C77.853 147.124 78.3617 147.222 78.8097 147.418C79.2577 147.614 79.6357 147.885 79.9437 148.23C80.2517 148.566 80.485 148.953 80.6437 149.392C80.8117 149.831 80.8957 150.297 80.8957 150.792C80.8957 150.913 80.891 151.039 80.8817 151.17C80.8724 151.301 80.8537 151.422 80.8257 151.534H74.7917V150.274H79.9297L79.1737 150.848C79.267 150.391 79.2344 149.985 79.0757 149.63C78.9264 149.266 78.693 148.981 78.3757 148.776C78.0677 148.561 77.7037 148.454 77.2837 148.454C76.8637 148.454 76.4904 148.561 76.1637 148.776C75.837 148.981 75.585 149.28 75.4077 149.672C75.2304 150.055 75.1604 150.521 75.1977 151.072C75.151 151.585 75.221 152.033 75.4077 152.416C75.6037 152.799 75.8744 153.097 76.2197 153.312C76.5744 153.527 76.9757 153.634 77.4237 153.634C77.881 153.634 78.2684 153.531 78.5857 153.326C78.9124 153.121 79.169 152.855 79.3557 152.528L80.6437 153.158C80.4944 153.513 80.261 153.835 79.9437 154.124C79.6357 154.404 79.2624 154.628 78.8237 154.796C78.3944 154.955 77.923 155.034 77.4097 155.034ZM88.4849 155.034C87.7289 155.034 87.0569 154.861 86.4689 154.516C85.8902 154.161 85.4282 153.685 85.0829 153.088C84.7469 152.491 84.5789 151.814 84.5789 151.058C84.5789 150.311 84.7469 149.639 85.0829 149.042C85.4189 148.445 85.8809 147.978 86.4689 147.642C87.0569 147.297 87.7289 147.124 88.4849 147.124C88.9982 147.124 89.4789 147.217 89.9269 147.404C90.3749 147.581 90.7622 147.829 91.0889 148.146C91.4249 148.463 91.6722 148.832 91.8309 149.252L90.4449 149.896C90.2862 149.504 90.0296 149.191 89.6749 148.958C89.3296 148.715 88.9329 148.594 88.4849 148.594C88.0556 148.594 87.6682 148.701 87.3229 148.916C86.9869 149.121 86.7209 149.415 86.5249 149.798C86.3289 150.171 86.2309 150.596 86.2309 151.072C86.2309 151.548 86.3289 151.977 86.5249 152.36C86.7209 152.733 86.9869 153.027 87.3229 153.242C87.6682 153.457 88.0556 153.564 88.4849 153.564C88.9422 153.564 89.3389 153.447 89.6749 153.214C90.0202 152.971 90.2769 152.649 90.4449 152.248L91.8309 152.906C91.6816 153.307 91.4389 153.671 91.1029 153.998C90.7762 154.315 90.3889 154.567 89.9409 154.754C89.4929 154.941 89.0076 155.034 88.4849 155.034ZM95.5768 155.034C95.0634 155.034 94.6108 154.945 94.2188 154.768C93.8361 154.581 93.5374 154.329 93.3228 154.012C93.1081 153.685 93.0008 153.303 93.0008 152.864C93.0008 152.453 93.0894 152.085 93.2668 151.758C93.4534 151.431 93.7381 151.156 94.1208 150.932C94.5034 150.708 94.9841 150.549 95.5628 150.456L98.1948 150.022V151.268L95.8708 151.674C95.4508 151.749 95.1428 151.884 94.9468 152.08C94.7508 152.267 94.6528 152.509 94.6528 152.808C94.6528 153.097 94.7601 153.335 94.9748 153.522C95.1988 153.699 95.4834 153.788 95.8288 153.788C96.2581 153.788 96.6314 153.695 96.9488 153.508C97.2754 153.321 97.5274 153.074 97.7048 152.766C97.8821 152.449 97.9708 152.099 97.9708 151.716V149.77C97.9708 149.397 97.8308 149.093 97.5508 148.86C97.2801 148.617 96.9161 148.496 96.4588 148.496C96.0388 148.496 95.6701 148.608 95.3528 148.832C95.0448 149.047 94.8161 149.327 94.6668 149.672L93.3508 149.014C93.4908 148.641 93.7194 148.314 94.0368 148.034C94.3541 147.745 94.7228 147.521 95.1428 147.362C95.5721 147.203 96.0248 147.124 96.5008 147.124C97.0981 147.124 97.6254 147.236 98.0828 147.46C98.5494 147.684 98.9088 147.997 99.1608 148.398C99.4221 148.79 99.5528 149.247 99.5528 149.77V154.866H98.0408V153.494L98.3628 153.536C98.1854 153.844 97.9568 154.11 97.6768 154.334C97.4061 154.558 97.0934 154.731 96.7388 154.852C96.3934 154.973 96.0061 155.034 95.5768 155.034ZM104.542 154.95C103.748 154.95 103.132 154.726 102.694 154.278C102.255 153.83 102.036 153.2 102.036 152.388V148.72H100.706V147.292H100.916C101.27 147.292 101.546 147.189 101.742 146.984C101.938 146.779 102.036 146.499 102.036 146.144V145.556H103.618V147.292H105.34V148.72H103.618V152.318C103.618 152.579 103.66 152.803 103.744 152.99C103.828 153.167 103.963 153.307 104.15 153.41C104.336 153.503 104.579 153.55 104.878 153.55C104.952 153.55 105.036 153.545 105.13 153.536C105.223 153.527 105.312 153.517 105.396 153.508V154.866C105.265 154.885 105.12 154.903 104.962 154.922C104.803 154.941 104.663 154.95 104.542 154.95ZM110.359 155.034C109.603 155.034 108.931 154.861 108.343 154.516C107.764 154.161 107.312 153.685 106.985 153.088C106.658 152.481 106.495 151.805 106.495 151.058C106.495 150.293 106.658 149.616 106.985 149.028C107.321 148.44 107.769 147.978 108.329 147.642C108.889 147.297 109.524 147.124 110.233 147.124C110.802 147.124 111.311 147.222 111.759 147.418C112.207 147.614 112.585 147.885 112.893 148.23C113.201 148.566 113.434 148.953 113.593 149.392C113.761 149.831 113.845 150.297 113.845 150.792C113.845 150.913 113.84 151.039 113.831 151.17C113.822 151.301 113.803 151.422 113.775 151.534H107.741V150.274H112.879L112.123 150.848C112.216 150.391 112.184 149.985 112.025 149.63C111.876 149.266 111.642 148.981 111.325 148.776C111.017 148.561 110.653 148.454 110.233 148.454C109.813 148.454 109.44 148.561 109.113 148.776C108.786 148.981 108.534 149.28 108.357 149.672C108.18 150.055 108.11 150.521 108.147 151.072C108.1 151.585 108.17 152.033 108.357 152.416C108.553 152.799 108.824 153.097 109.169 153.312C109.524 153.527 109.925 153.634 110.373 153.634C110.83 153.634 111.218 153.531 111.535 153.326C111.862 153.121 112.118 152.855 112.305 152.528L113.593 153.158C113.444 153.513 113.21 153.835 112.893 154.124C112.585 154.404 112.212 154.628 111.773 154.796C111.344 154.955 110.872 155.034 110.359 155.034ZM119.043 157.946C118.492 157.946 117.984 157.857 117.517 157.68C117.05 157.503 116.649 157.255 116.313 156.938C115.977 156.63 115.725 156.266 115.557 155.846L117.013 155.244C117.144 155.599 117.382 155.893 117.727 156.126C118.082 156.359 118.516 156.476 119.029 156.476C119.43 156.476 119.79 156.397 120.107 156.238C120.424 156.089 120.676 155.865 120.863 155.566C121.05 155.277 121.143 154.927 121.143 154.516V152.808L121.423 153.13C121.162 153.615 120.798 153.984 120.331 154.236C119.874 154.488 119.356 154.614 118.777 154.614C118.077 154.614 117.447 154.451 116.887 154.124C116.327 153.797 115.884 153.349 115.557 152.78C115.24 152.211 115.081 151.571 115.081 150.862C115.081 150.143 115.24 149.504 115.557 148.944C115.884 148.384 116.322 147.941 116.873 147.614C117.424 147.287 118.054 147.124 118.763 147.124C119.342 147.124 119.855 147.25 120.303 147.502C120.76 147.745 121.134 148.099 121.423 148.566L121.213 148.958V147.292H122.711V154.516C122.711 155.169 122.552 155.753 122.235 156.266C121.927 156.789 121.498 157.199 120.947 157.498C120.396 157.797 119.762 157.946 119.043 157.946ZM118.959 153.144C119.379 153.144 119.752 153.046 120.079 152.85C120.406 152.645 120.662 152.374 120.849 152.038C121.045 151.693 121.143 151.305 121.143 150.876C121.143 150.447 121.045 150.059 120.849 149.714C120.653 149.369 120.392 149.098 120.065 148.902C119.738 148.697 119.37 148.594 118.959 148.594C118.53 148.594 118.147 148.697 117.811 148.902C117.475 149.098 117.209 149.369 117.013 149.714C116.826 150.05 116.733 150.437 116.733 150.876C116.733 151.296 116.826 151.679 117.013 152.024C117.209 152.369 117.475 152.645 117.811 152.85C118.147 153.046 118.53 153.144 118.959 153.144ZM128.217 155.034C127.489 155.034 126.821 154.861 126.215 154.516C125.617 154.171 125.141 153.699 124.787 153.102C124.432 152.505 124.255 151.828 124.255 151.072C124.255 150.307 124.432 149.63 124.787 149.042C125.141 148.445 125.617 147.978 126.215 147.642C126.812 147.297 127.479 147.124 128.217 147.124C128.963 147.124 129.631 147.297 130.219 147.642C130.816 147.978 131.287 148.445 131.633 149.042C131.987 149.63 132.165 150.307 132.165 151.072C132.165 151.837 131.987 152.519 131.633 153.116C131.278 153.713 130.802 154.185 130.205 154.53C129.607 154.866 128.945 155.034 128.217 155.034ZM128.217 153.564C128.665 153.564 129.061 153.457 129.407 153.242C129.752 153.027 130.023 152.733 130.219 152.36C130.424 151.977 130.527 151.548 130.527 151.072C130.527 150.596 130.424 150.171 130.219 149.798C130.023 149.425 129.752 149.131 129.407 148.916C129.061 148.701 128.665 148.594 128.217 148.594C127.778 148.594 127.381 148.701 127.027 148.916C126.681 149.131 126.406 149.425 126.201 149.798C126.005 150.171 125.907 150.596 125.907 151.072C125.907 151.548 126.005 151.977 126.201 152.36C126.406 152.733 126.681 153.027 127.027 153.242C127.381 153.457 127.778 153.564 128.217 153.564ZM133.709 154.866V147.292H135.221V148.818L135.081 148.594C135.249 148.099 135.52 147.745 135.893 147.53C136.266 147.306 136.714 147.194 137.237 147.194H137.699V148.636H137.041C136.518 148.636 136.094 148.799 135.767 149.126C135.45 149.443 135.291 149.901 135.291 150.498V154.866H133.709ZM138.781 154.866V147.292H140.363V154.866H138.781ZM138.781 146.256V144.436H140.363V146.256H138.781ZM145.769 155.034C145.013 155.034 144.341 154.861 143.753 154.516C143.174 154.161 142.722 153.685 142.395 153.088C142.068 152.481 141.905 151.805 141.905 151.058C141.905 150.293 142.068 149.616 142.395 149.028C142.731 148.44 143.179 147.978 143.739 147.642C144.299 147.297 144.934 147.124 145.643 147.124C146.212 147.124 146.721 147.222 147.169 147.418C147.617 147.614 147.995 147.885 148.303 148.23C148.611 148.566 148.844 148.953 149.003 149.392C149.171 149.831 149.255 150.297 149.255 150.792C149.255 150.913 149.25 151.039 149.241 151.17C149.232 151.301 149.213 151.422 149.185 151.534H143.151V150.274H148.289L147.533 150.848C147.626 150.391 147.594 149.985 147.435 149.63C147.286 149.266 147.052 148.981 146.735 148.776C146.427 148.561 146.063 148.454 145.643 148.454C145.223 148.454 144.85 148.561 144.523 148.776C144.196 148.981 143.944 149.28 143.767 149.672C143.59 150.055 143.52 150.521 143.557 151.072C143.51 151.585 143.58 152.033 143.767 152.416C143.963 152.799 144.234 153.097 144.579 153.312C144.934 153.527 145.335 153.634 145.783 153.634C146.24 153.634 146.628 153.531 146.945 153.326C147.272 153.121 147.528 152.855 147.715 152.528L149.003 153.158C148.854 153.513 148.62 153.835 148.303 154.124C147.995 154.404 147.622 154.628 147.183 154.796C146.754 154.955 146.282 155.034 145.769 155.034ZM153.599 155.034C152.824 155.034 152.143 154.843 151.555 154.46C150.976 154.077 150.57 153.564 150.337 152.92L151.555 152.346C151.76 152.775 152.04 153.116 152.395 153.368C152.759 153.62 153.16 153.746 153.599 153.746C153.972 153.746 154.276 153.662 154.509 153.494C154.742 153.326 154.859 153.097 154.859 152.808C154.859 152.621 154.808 152.472 154.705 152.36C154.602 152.239 154.472 152.141 154.313 152.066C154.164 151.991 154.01 151.935 153.851 151.898L152.661 151.562C152.008 151.375 151.518 151.095 151.191 150.722C150.874 150.339 150.715 149.896 150.715 149.392C150.715 148.935 150.832 148.538 151.065 148.202C151.298 147.857 151.62 147.591 152.031 147.404C152.442 147.217 152.904 147.124 153.417 147.124C154.108 147.124 154.724 147.297 155.265 147.642C155.806 147.978 156.189 148.449 156.413 149.056L155.195 149.63C155.046 149.266 154.808 148.977 154.481 148.762C154.164 148.547 153.804 148.44 153.403 148.44C153.058 148.44 152.782 148.524 152.577 148.692C152.372 148.851 152.269 149.061 152.269 149.322C152.269 149.499 152.316 149.649 152.409 149.77C152.502 149.882 152.624 149.975 152.773 150.05C152.922 150.115 153.076 150.171 153.235 150.218L154.467 150.582C155.092 150.759 155.573 151.039 155.909 151.422C156.245 151.795 156.413 152.243 156.413 152.766C156.413 153.214 156.292 153.611 156.049 153.956C155.816 154.292 155.489 154.558 155.069 154.754C154.649 154.941 154.159 155.034 153.599 155.034Z" fill="#298A5A"/>
</svg>
