<svg width="350" height="303" viewBox="0 0 350 303" fill="none" xmlns="http://www.w3.org/2000/svg">
<path d="M1.872 27.8694V8.49938H5.408V27.8694H1.872ZM15.2957 28.0254C13.7011 28.0254 12.4617 27.5921 11.5777 26.7254C10.7111 25.8414 10.2777 24.6021 10.2777 23.0074V16.7674H7.83372V13.7254H8.09372C8.78705 13.7254 9.32439 13.5434 9.70572 13.1794C10.0871 12.8154 10.2777 12.2867 10.2777 11.5934V10.5014H13.6837V13.7254H16.9337V16.7674H13.6837V22.8254C13.6837 23.2934 13.7617 23.6921 13.9177 24.0214C14.0911 24.3507 14.3511 24.6021 14.6977 24.7754C15.0617 24.9487 15.5211 25.0354 16.0757 25.0354C16.1971 25.0354 16.3357 25.0267 16.4917 25.0094C16.6651 24.9921 16.8297 24.9747 16.9857 24.9574V27.8694C16.7431 27.9041 16.4657 27.9387 16.1537 27.9734C15.8417 28.0081 15.5557 28.0254 15.2957 28.0254ZM30.657 28.0254C29.0624 28.0254 27.823 27.5921 26.939 26.7254C26.0724 25.8414 25.639 24.6021 25.639 23.0074V16.7674H23.195V13.7254H23.455C24.1484 13.7254 24.6857 13.5434 25.067 13.1794C25.4484 12.8154 25.639 12.2867 25.639 11.5934V10.5014H29.045V13.7254H32.295V16.7674H29.045V22.8254C29.045 23.2934 29.123 23.6921 29.279 24.0214C29.4524 24.3507 29.7124 24.6021 30.059 24.7754C30.423 24.9487 30.8824 25.0354 31.437 25.0354C31.5584 25.0354 31.697 25.0267 31.853 25.0094C32.0264 24.9921 32.191 24.9747 32.347 24.9574V27.8694C32.1044 27.9041 31.827 27.9387 31.515 27.9734C31.203 28.0081 30.917 28.0254 30.657 28.0254ZM39.1885 28.1814C38.2005 28.1814 37.3425 28.0167 36.6145 27.6874C35.8865 27.3581 35.3232 26.8901 34.9245 26.2834C34.5258 25.6594 34.3265 24.9401 34.3265 24.1254C34.3265 23.3454 34.4998 22.6521 34.8465 22.0454C35.1932 21.4214 35.7305 20.9014 36.4585 20.4854C37.1865 20.0694 38.1052 19.7747 39.2145 19.6014L43.8425 18.8474V21.4474L39.8645 22.1234C39.1885 22.2447 38.6858 22.4614 38.3565 22.7734C38.0272 23.0854 37.8625 23.4927 37.8625 23.9954C37.8625 24.4807 38.0445 24.8707 38.4085 25.1654C38.7898 25.4427 39.2578 25.5814 39.8125 25.5814C40.5232 25.5814 41.1472 25.4341 41.6845 25.1394C42.2392 24.8274 42.6638 24.4027 42.9585 23.8654C43.2705 23.3281 43.4265 22.7387 43.4265 22.0974V18.4574C43.4265 17.8507 43.1838 17.3481 42.6985 16.9494C42.2305 16.5334 41.6065 16.3254 40.8265 16.3254C40.0985 16.3254 39.4485 16.5247 38.8765 16.9234C38.3218 17.3047 37.9145 17.8161 37.6545 18.4574L34.8725 17.1054C35.1498 16.3601 35.5832 15.7187 36.1725 15.1814C36.7792 14.6267 37.4898 14.1934 38.3045 13.8814C39.1192 13.5694 40.0032 13.4134 40.9565 13.4134C42.1178 13.4134 43.1405 13.6301 44.0245 14.0634C44.9085 14.4794 45.5932 15.0687 46.0785 15.8314C46.5812 16.5767 46.8325 17.4521 46.8325 18.4574V27.8694H43.6085V25.4514L44.3365 25.3994C43.9725 26.0061 43.5392 26.5174 43.0365 26.9334C42.5338 27.3321 41.9618 27.6441 41.3205 27.8694C40.6792 28.0774 39.9685 28.1814 39.1885 28.1814ZM49.9805 27.8694V8.18738H53.3865V21.0834L52.0865 20.6934L58.7425 13.7254H62.9805L57.7545 19.4194L63.0845 27.8694H59.1845L54.5565 20.5374L56.5845 20.1214L52.3205 24.6974L53.3865 22.6174V27.8694H49.9805ZM71.4405 28.1814C69.9845 28.1814 68.7105 27.8521 67.6185 27.1934C66.5265 26.5347 65.6772 25.6421 65.0705 24.5154C64.4638 23.3887 64.1605 22.1407 64.1605 20.7714C64.1605 19.3501 64.4638 18.0934 65.0705 17.0014C65.6945 15.8921 66.5352 15.0167 67.5925 14.3754C68.6672 13.7341 69.8632 13.4134 71.1805 13.4134C72.2898 13.4134 73.2605 13.5954 74.0925 13.9594C74.9418 14.3234 75.6612 14.8261 76.2505 15.4674C76.8398 16.1087 77.2905 16.8454 77.6025 17.6774C77.9145 18.4921 78.0705 19.3761 78.0705 20.3294C78.0705 20.5721 78.0532 20.8234 78.0185 21.0834C78.0012 21.3434 77.9578 21.5687 77.8885 21.7594H66.9685V19.1594H75.9645L74.3525 20.3814C74.5085 19.5841 74.4652 18.8734 74.2225 18.2494C73.9972 17.6254 73.6158 17.1314 73.0785 16.7674C72.5585 16.4034 71.9258 16.2214 71.1805 16.2214C70.4698 16.2214 69.8372 16.4034 69.2825 16.7674C68.7278 17.1141 68.3032 17.6341 68.0085 18.3274C67.7312 19.0034 67.6272 19.8267 67.6965 20.7974C67.6272 21.6641 67.7398 22.4354 68.0345 23.1114C68.3465 23.7701 68.7972 24.2814 69.3865 24.6454C69.9932 25.0094 70.6865 25.1914 71.4665 25.1914C72.2465 25.1914 72.9052 25.0267 73.4425 24.6974C73.9972 24.3681 74.4305 23.9261 74.7425 23.3714L77.4985 24.7234C77.2212 25.3994 76.7878 25.9974 76.1985 26.5174C75.6092 27.0374 74.9072 27.4447 74.0925 27.7394C73.2952 28.0341 72.4112 28.1814 71.4405 28.1814ZM86.0344 28.1814C84.5264 28.1814 83.2091 27.8261 82.0824 27.1154C80.9731 26.3874 80.2104 25.4081 79.7944 24.1774L82.3424 22.9554C82.7064 23.7527 83.2091 24.3767 83.8504 24.8274C84.5091 25.2781 85.2371 25.5034 86.0344 25.5034C86.6584 25.5034 87.1524 25.3647 87.5164 25.0874C87.8804 24.8101 88.0624 24.4461 88.0624 23.9954C88.0624 23.7181 87.9844 23.4927 87.8284 23.3194C87.6897 23.1287 87.4904 22.9727 87.2304 22.8514C86.9877 22.7127 86.7191 22.6001 86.4244 22.5134L84.1104 21.8634C82.9144 21.5167 82.0044 20.9881 81.3804 20.2774C80.7737 19.5667 80.4704 18.7261 80.4704 17.7554C80.4704 16.8887 80.6871 16.1347 81.1204 15.4934C81.5711 14.8347 82.1864 14.3234 82.9664 13.9594C83.7637 13.5954 84.6737 13.4134 85.6964 13.4134C87.0311 13.4134 88.2097 13.7341 89.2324 14.3754C90.2551 15.0167 90.9831 15.9181 91.4164 17.0794L88.8164 18.3014C88.5737 17.6601 88.1664 17.1487 87.5944 16.7674C87.0224 16.3861 86.3811 16.1954 85.6704 16.1954C85.0984 16.1954 84.6477 16.3254 84.3184 16.5854C83.9891 16.8454 83.8244 17.1834 83.8244 17.5994C83.8244 17.8594 83.8937 18.0847 84.0324 18.2754C84.1711 18.4661 84.3617 18.6221 84.6044 18.7434C84.8644 18.8647 85.1591 18.9774 85.4884 19.0814L87.7504 19.7574C88.9117 20.1041 89.8044 20.6241 90.4284 21.3174C91.0697 22.0107 91.3904 22.8601 91.3904 23.8654C91.3904 24.7147 91.1651 25.4687 90.7144 26.1274C90.2637 26.7687 89.6397 27.2714 88.8424 27.6354C88.0451 27.9994 87.1091 28.1814 86.0344 28.1814ZM96.679 33.6154C96.4536 33.6154 96.2196 33.6067 95.977 33.5894C95.7343 33.5721 95.535 33.5461 95.379 33.5114V30.5474C95.691 30.5994 96.003 30.6254 96.315 30.6254C97.043 30.6254 97.6063 30.4521 98.005 30.1054C98.421 29.7761 98.629 29.2647 98.629 28.5714V13.7254H102.035V28.5714C102.035 29.6461 101.818 30.5561 101.385 31.3014C100.952 32.0641 100.328 32.6361 99.513 33.0174C98.7156 33.4161 97.771 33.6154 96.679 33.6154ZM98.629 12.1394V8.49938H102.035V12.1394H98.629ZM110.224 28.1814C109.132 28.1814 108.178 27.9387 107.364 27.4534C106.566 26.9681 105.951 26.2921 105.518 25.4254C105.102 24.5587 104.894 23.5447 104.894 22.3834V13.7254H108.3V22.0974C108.3 22.6867 108.412 23.2067 108.638 23.6574C108.88 24.0907 109.218 24.4374 109.652 24.6974C110.102 24.9401 110.605 25.0614 111.16 25.0614C111.714 25.0614 112.208 24.9401 112.642 24.6974C113.075 24.4374 113.413 24.0821 113.656 23.6314C113.898 23.1807 114.02 22.6434 114.02 22.0194V13.7254H117.426V27.8694H114.202V25.0874L114.488 25.5814C114.158 26.4481 113.612 27.0981 112.85 27.5314C112.104 27.9647 111.229 28.1814 110.224 28.1814ZM125.974 28.1814C124.466 28.1814 123.149 27.8261 122.022 27.1154C120.913 26.3874 120.15 25.4081 119.734 24.1774L122.282 22.9554C122.646 23.7527 123.149 24.3767 123.79 24.8274C124.449 25.2781 125.177 25.5034 125.974 25.5034C126.598 25.5034 127.092 25.3647 127.456 25.0874C127.82 24.8101 128.002 24.4461 128.002 23.9954C128.002 23.7181 127.924 23.4927 127.768 23.3194C127.629 23.1287 127.43 22.9727 127.17 22.8514C126.927 22.7127 126.659 22.6001 126.364 22.5134L124.05 21.8634C122.854 21.5167 121.944 20.9881 121.32 20.2774C120.713 19.5667 120.41 18.7261 120.41 17.7554C120.41 16.8887 120.627 16.1347 121.06 15.4934C121.511 14.8347 122.126 14.3234 122.906 13.9594C123.703 13.5954 124.613 13.4134 125.636 13.4134C126.971 13.4134 128.149 13.7341 129.172 14.3754C130.195 15.0167 130.923 15.9181 131.356 17.0794L128.756 18.3014C128.513 17.6601 128.106 17.1487 127.534 16.7674C126.962 16.3861 126.321 16.1954 125.61 16.1954C125.038 16.1954 124.587 16.3254 124.258 16.5854C123.929 16.8454 123.764 17.1834 123.764 17.5994C123.764 17.8594 123.833 18.0847 123.972 18.2754C124.111 18.4661 124.301 18.6221 124.544 18.7434C124.804 18.8647 125.099 18.9774 125.428 19.0814L127.69 19.7574C128.851 20.1041 129.744 20.6241 130.368 21.3174C131.009 22.0107 131.33 22.8601 131.33 23.8654C131.33 24.7147 131.105 25.4687 130.654 26.1274C130.203 26.7687 129.579 27.2714 128.782 27.6354C127.985 27.9994 127.049 28.1814 125.974 28.1814ZM140.395 28.0254C138.801 28.0254 137.561 27.5921 136.677 26.7254C135.811 25.8414 135.377 24.6021 135.377 23.0074V16.7674H132.933V13.7254H133.193C133.887 13.7254 134.424 13.5434 134.805 13.1794C135.187 12.8154 135.377 12.2867 135.377 11.5934V10.5014H138.783V13.7254H142.033V16.7674H138.783V22.8254C138.783 23.2934 138.861 23.6921 139.017 24.0214C139.191 24.3507 139.451 24.6021 139.797 24.7754C140.161 24.9487 140.621 25.0354 141.175 25.0354C141.297 25.0354 141.435 25.0267 141.591 25.0094C141.765 24.9921 141.929 24.9747 142.085 24.9574V27.8694C141.843 27.9041 141.565 27.9387 141.253 27.9734C140.941 28.0081 140.655 28.0254 140.395 28.0254ZM155.341 28.1814C154.283 28.1814 153.278 27.9907 152.325 27.6094C151.389 27.2107 150.583 26.6561 149.907 25.9454C149.248 25.2174 148.797 24.3594 148.555 23.3714L151.649 22.2794C151.961 23.1634 152.437 23.8394 153.079 24.3074C153.72 24.7581 154.474 24.9834 155.341 24.9834C156.034 24.9834 156.632 24.8534 157.135 24.5934C157.655 24.3334 158.062 23.9607 158.357 23.4754C158.651 22.9727 158.799 22.3834 158.799 21.7074C158.799 21.0314 158.651 20.4594 158.357 19.9914C158.079 19.5061 157.681 19.1334 157.161 18.8734C156.641 18.6134 156.025 18.4834 155.315 18.4834C154.985 18.4834 154.639 18.5181 154.275 18.5874C153.928 18.6567 153.616 18.7607 153.339 18.8994L152.533 17.2094L157.551 11.4894H149.647V8.49938H161.529V11.2814L156.485 17.1834L156.537 15.8574C157.698 15.8747 158.712 16.1261 159.579 16.6114C160.445 17.0967 161.121 17.7641 161.607 18.6134C162.092 19.4627 162.335 20.4594 162.335 21.6034C162.335 22.8514 162.031 23.9781 161.425 24.9834C160.818 25.9714 159.986 26.7514 158.929 27.3234C157.871 27.8954 156.675 28.1814 155.341 28.1814ZM175.206 28.1814C173.698 28.1814 172.381 27.8261 171.254 27.1154C170.145 26.3874 169.382 25.4081 168.966 24.1774L171.514 22.9554C171.878 23.7527 172.381 24.3767 173.022 24.8274C173.681 25.2781 174.409 25.5034 175.206 25.5034C175.83 25.5034 176.324 25.3647 176.688 25.0874C177.052 24.8101 177.234 24.4461 177.234 23.9954C177.234 23.7181 177.156 23.4927 177 23.3194C176.862 23.1287 176.662 22.9727 176.402 22.8514C176.16 22.7127 175.891 22.6001 175.596 22.5134L173.282 21.8634C172.086 21.5167 171.176 20.9881 170.552 20.2774C169.946 19.5667 169.642 18.7261 169.642 17.7554C169.642 16.8887 169.859 16.1347 170.292 15.4934C170.743 14.8347 171.358 14.3234 172.138 13.9594C172.936 13.5954 173.846 13.4134 174.868 13.4134C176.203 13.4134 177.382 13.7341 178.404 14.3754C179.427 15.0167 180.155 15.9181 180.588 17.0794L177.988 18.3014C177.746 17.6601 177.338 17.1487 176.766 16.7674C176.194 16.3861 175.553 16.1954 174.842 16.1954C174.27 16.1954 173.82 16.3254 173.49 16.5854C173.161 16.8454 172.996 17.1834 172.996 17.5994C172.996 17.8594 173.066 18.0847 173.204 18.2754C173.343 18.4661 173.534 18.6221 173.776 18.7434C174.036 18.8647 174.331 18.9774 174.66 19.0814L176.922 19.7574C178.084 20.1041 178.976 20.6241 179.6 21.3174C180.242 22.0107 180.562 22.8601 180.562 23.8654C180.562 24.7147 180.337 25.4687 179.886 26.1274C179.436 26.7687 178.812 27.2714 178.014 27.6354C177.217 27.9994 176.281 28.1814 175.206 28.1814ZM183.18 27.8694V13.7254H186.586V27.8694H183.18ZM183.18 12.1394V8.49938H186.586V12.1394H183.18ZM189.731 27.8694V13.7254H192.929V17.0014L192.565 16.4554C192.825 15.4327 193.345 14.6701 194.125 14.1674C194.905 13.6647 195.823 13.4134 196.881 13.4134C198.042 13.4134 199.065 13.7167 199.949 14.3234C200.833 14.9301 201.405 15.7274 201.665 16.7154L200.703 16.7934C201.136 15.6667 201.786 14.8261 202.653 14.2714C203.519 13.6994 204.516 13.4134 205.643 13.4134C206.648 13.4134 207.541 13.6387 208.321 14.0894C209.118 14.5401 209.742 15.1727 210.193 15.9874C210.643 16.7847 210.869 17.7121 210.869 18.7694V27.8694H207.463V19.5754C207.463 18.9514 207.35 18.4141 207.125 17.9634C206.899 17.5127 206.587 17.1661 206.189 16.9234C205.79 16.6634 205.305 16.5334 204.733 16.5334C204.195 16.5334 203.719 16.6634 203.303 16.9234C202.887 17.1661 202.566 17.5127 202.341 17.9634C202.115 18.4141 202.003 18.9514 202.003 19.5754V27.8694H198.597V19.5754C198.597 18.9514 198.484 18.4141 198.259 17.9634C198.033 17.5127 197.713 17.1661 197.297 16.9234C196.898 16.6634 196.421 16.5334 195.867 16.5334C195.329 16.5334 194.853 16.6634 194.437 16.9234C194.021 17.1661 193.7 17.5127 193.475 17.9634C193.249 18.4141 193.137 18.9514 193.137 19.5754V27.8694H189.731ZM213.75 33.0694V13.7254H216.948V16.5334L216.636 15.8314C217.121 15.0687 217.78 14.4794 218.612 14.0634C219.444 13.6301 220.406 13.4134 221.498 13.4134C222.833 13.4134 224.037 13.7427 225.112 14.4014C226.187 15.0601 227.036 15.9441 227.66 17.0534C228.301 18.1627 228.622 19.4107 228.622 20.7974C228.622 22.1667 228.31 23.4147 227.686 24.5414C227.062 25.6681 226.213 26.5607 225.138 27.2194C224.063 27.8607 222.841 28.1814 221.472 28.1814C220.449 28.1814 219.505 27.9821 218.638 27.5834C217.789 27.1674 217.113 26.5781 216.61 25.8154L217.156 25.1394V33.0694H213.75ZM221.082 25.0614C221.862 25.0614 222.555 24.8794 223.162 24.5154C223.769 24.1514 224.237 23.6487 224.566 23.0074C224.913 22.3661 225.086 21.6294 225.086 20.7974C225.086 19.9654 224.913 19.2374 224.566 18.6134C224.237 17.9721 223.769 17.4694 223.162 17.1054C222.555 16.7241 221.862 16.5334 221.082 16.5334C220.337 16.5334 219.661 16.7154 219.054 17.0794C218.465 17.4434 217.997 17.9547 217.65 18.6134C217.321 19.2547 217.156 19.9827 217.156 20.7974C217.156 21.6294 217.321 22.3661 217.65 23.0074C217.997 23.6487 218.465 24.1514 219.054 24.5154C219.661 24.8794 220.337 25.0614 221.082 25.0614ZM231.219 27.8694V8.18738H234.625V27.8694H231.219ZM244.478 28.1814C243.022 28.1814 241.748 27.8521 240.656 27.1934C239.564 26.5347 238.714 25.6421 238.108 24.5154C237.501 23.3887 237.198 22.1407 237.198 20.7714C237.198 19.3501 237.501 18.0934 238.108 17.0014C238.732 15.8921 239.572 15.0167 240.63 14.3754C241.704 13.7341 242.9 13.4134 244.218 13.4134C245.327 13.4134 246.298 13.5954 247.13 13.9594C247.979 14.3234 248.698 14.8261 249.288 15.4674C249.877 16.1087 250.328 16.8454 250.64 17.6774C250.952 18.4921 251.108 19.3761 251.108 20.3294C251.108 20.5721 251.09 20.8234 251.056 21.0834C251.038 21.3434 250.995 21.5687 250.926 21.7594H240.006V19.1594H249.002L247.39 20.3814C247.546 19.5841 247.502 18.8734 247.26 18.2494C247.034 17.6254 246.653 17.1314 246.116 16.7674C245.596 16.4034 244.963 16.2214 244.218 16.2214C243.507 16.2214 242.874 16.4034 242.32 16.7674C241.765 17.1141 241.34 17.6341 241.046 18.3274C240.768 19.0034 240.664 19.8267 240.734 20.7974C240.664 21.6641 240.777 22.4354 241.072 23.1114C241.384 23.7701 241.834 24.2814 242.424 24.6454C243.03 25.0094 243.724 25.1914 244.504 25.1914C245.284 25.1914 245.942 25.0267 246.48 24.6974C247.034 24.3681 247.468 23.9261 247.78 23.3714L250.536 24.7234C250.258 25.3994 249.825 25.9974 249.236 26.5174C248.646 27.0374 247.944 27.4447 247.13 27.7394C246.332 28.0341 245.448 28.1814 244.478 28.1814ZM263.693 28.1814C262.185 28.1814 260.867 27.8261 259.741 27.1154C258.631 26.3874 257.869 25.4081 257.453 24.1774L260.001 22.9554C260.365 23.7527 260.867 24.3767 261.509 24.8274C262.167 25.2781 262.895 25.5034 263.693 25.5034C264.317 25.5034 264.811 25.3647 265.175 25.0874C265.539 24.8101 265.721 24.4461 265.721 23.9954C265.721 23.7181 265.643 23.4927 265.487 23.3194C265.348 23.1287 265.149 22.9727 264.889 22.8514C264.646 22.7127 264.377 22.6001 264.083 22.5134L261.769 21.8634C260.573 21.5167 259.663 20.9881 259.039 20.2774C258.432 19.5667 258.129 18.7261 258.129 17.7554C258.129 16.8887 258.345 16.1347 258.779 15.4934C259.229 14.8347 259.845 14.3234 260.625 13.9594C261.422 13.5954 262.332 13.4134 263.355 13.4134C264.689 13.4134 265.868 13.7341 266.891 14.3754C267.913 15.0167 268.641 15.9181 269.075 17.0794L266.475 18.3014C266.232 17.6601 265.825 17.1487 265.253 16.7674C264.681 16.3861 264.039 16.1954 263.329 16.1954C262.757 16.1954 262.306 16.3254 261.977 16.5854C261.647 16.8454 261.483 17.1834 261.483 17.5994C261.483 17.8594 261.552 18.0847 261.691 18.2754C261.829 18.4661 262.02 18.6221 262.263 18.7434C262.523 18.8647 262.817 18.9774 263.147 19.0814L265.409 19.7574C266.57 20.1041 267.463 20.6241 268.087 21.3174C268.728 22.0107 269.049 22.8601 269.049 23.8654C269.049 24.7147 268.823 25.4687 268.373 26.1274C267.922 26.7687 267.298 27.2714 266.501 27.6354C265.703 27.9994 264.767 28.1814 263.693 28.1814ZM278.114 28.0254C276.519 28.0254 275.28 27.5921 274.396 26.7254C273.529 25.8414 273.096 24.6021 273.096 23.0074V16.7674H270.652V13.7254H270.912C271.605 13.7254 272.143 13.5434 272.524 13.1794C272.905 12.8154 273.096 12.2867 273.096 11.5934V10.5014H276.502V13.7254H279.752V16.7674H276.502V22.8254C276.502 23.2934 276.58 23.6921 276.736 24.0214C276.909 24.3507 277.169 24.6021 277.516 24.7754C277.88 24.9487 278.339 25.0354 278.894 25.0354C279.015 25.0354 279.154 25.0267 279.31 25.0094C279.483 24.9921 279.648 24.9747 279.804 24.9574V27.8694C279.561 27.9041 279.284 27.9387 278.972 27.9734C278.66 28.0081 278.374 28.0254 278.114 28.0254ZM288.987 28.1814C287.531 28.1814 286.257 27.8521 285.165 27.1934C284.073 26.5347 283.224 25.6421 282.617 24.5154C282.011 23.3887 281.707 22.1407 281.707 20.7714C281.707 19.3501 282.011 18.0934 282.617 17.0014C283.241 15.8921 284.082 15.0167 285.139 14.3754C286.214 13.7341 287.41 13.4134 288.727 13.4134C289.837 13.4134 290.807 13.5954 291.639 13.9594C292.489 14.3234 293.208 14.8261 293.797 15.4674C294.387 16.1087 294.837 16.8454 295.149 17.6774C295.461 18.4921 295.617 19.3761 295.617 20.3294C295.617 20.5721 295.6 20.8234 295.565 21.0834C295.548 21.3434 295.505 21.5687 295.435 21.7594H284.515V19.1594H293.511L291.899 20.3814C292.055 19.5841 292.012 18.8734 291.769 18.2494C291.544 17.6254 291.163 17.1314 290.625 16.7674C290.105 16.4034 289.473 16.2214 288.727 16.2214C288.017 16.2214 287.384 16.4034 286.829 16.7674C286.275 17.1141 285.85 17.6341 285.555 18.3274C285.278 19.0034 285.174 19.8267 285.243 20.7974C285.174 21.6641 285.287 22.4354 285.581 23.1114C285.893 23.7701 286.344 24.2814 286.933 24.6454C287.54 25.0094 288.233 25.1914 289.013 25.1914C289.793 25.1914 290.452 25.0267 290.989 24.6974C291.544 24.3681 291.977 23.9261 292.289 23.3714L295.045 24.7234C294.768 25.3994 294.335 25.9974 293.745 26.5174C293.156 27.0374 292.454 27.4447 291.639 27.7394C290.842 28.0341 289.958 28.1814 288.987 28.1814ZM298.199 33.0694V13.7254H301.397V16.5334L301.085 15.8314C301.571 15.0687 302.229 14.4794 303.061 14.0634C303.893 13.6301 304.855 13.4134 305.947 13.4134C307.282 13.4134 308.487 13.7427 309.561 14.4014C310.636 15.0601 311.485 15.9441 312.109 17.0534C312.751 18.1627 313.071 19.4107 313.071 20.7974C313.071 22.1667 312.759 23.4147 312.135 24.5414C311.511 25.6681 310.662 26.5607 309.587 27.2194C308.513 27.8607 307.291 28.1814 305.921 28.1814C304.899 28.1814 303.954 27.9821 303.087 27.5834C302.238 27.1674 301.562 26.5781 301.059 25.8154L301.605 25.1394V33.0694H298.199ZM305.531 25.0614C306.311 25.0614 307.005 24.8794 307.611 24.5154C308.218 24.1514 308.686 23.6487 309.015 23.0074C309.362 22.3661 309.535 21.6294 309.535 20.7974C309.535 19.9654 309.362 19.2374 309.015 18.6134C308.686 17.9721 308.218 17.4694 307.611 17.1054C307.005 16.7241 306.311 16.5334 305.531 16.5334C304.786 16.5334 304.11 16.7154 303.503 17.0794C302.914 17.4434 302.446 17.9547 302.099 18.6134C301.77 19.2547 301.605 19.9827 301.605 20.7974C301.605 21.6294 301.77 22.3661 302.099 23.0074C302.446 23.6487 302.914 24.1514 303.503 24.5154C304.11 24.8794 304.786 25.0614 305.531 25.0614ZM321.05 28.1814C319.542 28.1814 318.225 27.8261 317.098 27.1154C315.989 26.3874 315.226 25.4081 314.81 24.1774L317.358 22.9554C317.722 23.7527 318.225 24.3767 318.866 24.8274C319.525 25.2781 320.253 25.5034 321.05 25.5034C321.674 25.5034 322.168 25.3647 322.532 25.0874C322.896 24.8101 323.078 24.4461 323.078 23.9954C323.078 23.7181 323 23.4927 322.844 23.3194C322.705 23.1287 322.506 22.9727 322.246 22.8514C322.003 22.7127 321.735 22.6001 321.44 22.5134L319.126 21.8634C317.93 21.5167 317.02 20.9881 316.396 20.2774C315.789 19.5667 315.486 18.7261 315.486 17.7554C315.486 16.8887 315.703 16.1347 316.136 15.4934C316.587 14.8347 317.202 14.3234 317.982 13.9594C318.779 13.5954 319.689 13.4134 320.712 13.4134C322.047 13.4134 323.225 13.7341 324.248 14.3754C325.271 15.0167 325.999 15.9181 326.432 17.0794L323.832 18.3014C323.589 17.6601 323.182 17.1487 322.61 16.7674C322.038 16.3861 321.397 16.1954 320.686 16.1954C320.114 16.1954 319.663 16.3254 319.334 16.5854C319.005 16.8454 318.84 17.1834 318.84 17.5994C318.84 17.8594 318.909 18.0847 319.048 18.2754C319.187 18.4661 319.377 18.6221 319.62 18.7434C319.88 18.8647 320.175 18.9774 320.504 19.0814L322.766 19.7574C323.927 20.1041 324.82 20.6241 325.444 21.3174C326.085 22.0107 326.406 22.8601 326.406 23.8654C326.406 24.7147 326.181 25.4687 325.73 26.1274C325.279 26.7687 324.655 27.2714 323.858 27.6354C323.061 27.9994 322.125 28.1814 321.05 28.1814Z" fill="#191717"/>
<path d="M5.082 81.0374C4.25133 81.0374 3.52333 80.8134 2.898 80.3654C2.282 79.9081 1.80133 79.2781 1.456 78.4754C1.11067 77.6634 0.938 76.7207 0.938 75.6474C0.938 74.5741 1.11067 73.6361 1.456 72.8334C1.80133 72.0214 2.282 71.3914 2.898 70.9434C3.514 70.4954 4.23733 70.2714 5.068 70.2714C5.89867 70.2714 6.622 70.4954 7.238 70.9434C7.854 71.3914 8.33467 72.0214 8.68 72.8334C9.03467 73.6361 9.212 74.5741 9.212 75.6474C9.212 76.7207 9.03933 77.6634 8.694 78.4754C8.34867 79.2874 7.86333 79.9174 7.238 80.3654C6.622 80.8134 5.90333 81.0374 5.082 81.0374ZM5.082 79.7634C5.642 79.7634 6.12733 79.5954 6.538 79.2594C6.94867 78.9141 7.266 78.4334 7.49 77.8174C7.72333 77.2014 7.84 76.4781 7.84 75.6474C7.84 74.8167 7.72333 74.0934 7.49 73.4774C7.266 72.8614 6.944 72.3854 6.524 72.0494C6.11333 71.7134 5.628 71.5454 5.068 71.5454C4.508 71.5454 4.02267 71.7134 3.612 72.0494C3.20133 72.3854 2.87933 72.8614 2.646 73.4774C2.422 74.0934 2.31 74.8167 2.31 75.6474C2.31 76.4687 2.422 77.1874 2.646 77.8034C2.87933 78.4194 3.20133 78.9001 3.612 79.2454C4.032 79.5907 4.522 79.7634 5.082 79.7634ZM12.6229 80.8694V71.6294H10.6489V70.4394H14.0089V80.8694H12.6229Z" fill="#054425"/>
<path d="M31.162 80.8694V70.4394H34.578C35.6327 70.4394 36.552 70.6541 37.336 71.0834C38.12 71.5127 38.7267 72.1194 39.156 72.9034C39.5853 73.6781 39.8 74.5927 39.8 75.6474C39.8 76.6927 39.5853 77.6074 39.156 78.3914C38.7267 79.1754 38.12 79.7867 37.336 80.2254C36.552 80.6547 35.6327 80.8694 34.578 80.8694H31.162ZM32.534 79.6094H34.592C35.3667 79.6094 36.034 79.4461 36.594 79.1194C37.1633 78.7927 37.602 78.3354 37.91 77.7474C38.218 77.1501 38.372 76.4501 38.372 75.6474C38.372 74.8354 38.2133 74.1354 37.896 73.5474C37.588 72.9594 37.1493 72.5067 36.58 72.1894C36.02 71.8627 35.3573 71.6994 34.592 71.6994H32.534V79.6094ZM44.969 81.0374C44.241 81.0374 43.583 80.8694 42.995 80.5334C42.407 80.1881 41.9403 79.7167 41.595 79.1194C41.2496 78.5221 41.077 77.8454 41.077 77.0894C41.077 76.3334 41.245 75.6614 41.581 75.0734C41.9263 74.4854 42.393 74.0187 42.981 73.6734C43.569 73.3281 44.2316 73.1554 44.969 73.1554C45.697 73.1554 46.355 73.3281 46.943 73.6734C47.531 74.0094 47.993 74.4714 48.329 75.0594C48.6743 75.6474 48.847 76.3241 48.847 77.0894C48.847 77.8547 48.6696 78.5361 48.315 79.1334C47.9603 79.7214 47.489 80.1881 46.901 80.5334C46.3223 80.8694 45.6783 81.0374 44.969 81.0374ZM44.969 79.7774C45.4356 79.7774 45.8556 79.6607 46.229 79.4274C46.6116 79.1941 46.9103 78.8721 47.125 78.4614C47.349 78.0507 47.461 77.5934 47.461 77.0894C47.461 76.5761 47.349 76.1234 47.125 75.7314C46.9103 75.3301 46.6116 75.0127 46.229 74.7794C45.8556 74.5367 45.4356 74.4154 44.969 74.4154C44.493 74.4154 44.0636 74.5367 43.681 74.7794C43.3076 75.0127 43.009 75.3301 42.785 75.7314C42.561 76.1234 42.449 76.5761 42.449 77.0894C42.449 77.5934 42.561 78.0507 42.785 78.4614C43.009 78.8721 43.3076 79.1941 43.681 79.4274C44.0636 79.6607 44.493 79.7774 44.969 79.7774ZM52.1444 80.8694L49.5544 73.3234H50.9964L53.0544 79.6374L52.5504 79.6234L54.5664 73.3234H55.7984L57.8144 79.6234L57.3104 79.6374L59.3824 73.3234H60.8104L58.2204 80.8694H56.9744L54.9864 74.5694H55.3784L53.3904 80.8694H52.1444ZM61.9748 80.8694V73.3234H63.2488V74.7934L63.0388 74.6674C63.2255 74.1914 63.5241 73.8227 63.9348 73.5614C64.3548 73.2907 64.8448 73.1554 65.4048 73.1554C65.9461 73.1554 66.4268 73.2767 66.8468 73.5194C67.2761 73.7621 67.6121 74.0981 67.8548 74.5274C68.1068 74.9567 68.2328 75.4421 68.2328 75.9834V80.8694H66.9168V76.4034C66.9168 75.9834 66.8421 75.6287 66.6928 75.3394C66.5435 75.0501 66.3288 74.8261 66.0488 74.6674C65.7781 74.4994 65.4655 74.4154 65.1108 74.4154C64.7561 74.4154 64.4388 74.4994 64.1588 74.6674C63.8881 74.8261 63.6735 75.0547 63.5148 75.3534C63.3561 75.6427 63.2768 75.9927 63.2768 76.4034V80.8694H61.9748ZM70.0959 80.8694V70.2714H71.3979V80.8694H70.0959ZM77.0022 81.0374C76.2742 81.0374 75.6162 80.8694 75.0282 80.5334C74.4402 80.1881 73.9735 79.7167 73.6282 79.1194C73.2828 78.5221 73.1102 77.8454 73.1102 77.0894C73.1102 76.3334 73.2782 75.6614 73.6142 75.0734C73.9595 74.4854 74.4262 74.0187 75.0142 73.6734C75.6022 73.3281 76.2648 73.1554 77.0022 73.1554C77.7302 73.1554 78.3882 73.3281 78.9762 73.6734C79.5642 74.0094 80.0262 74.4714 80.3622 75.0594C80.7075 75.6474 80.8802 76.3241 80.8802 77.0894C80.8802 77.8547 80.7028 78.5361 80.3482 79.1334C79.9935 79.7214 79.5222 80.1881 78.9342 80.5334C78.3555 80.8694 77.7115 81.0374 77.0022 81.0374ZM77.0022 79.7774C77.4688 79.7774 77.8888 79.6607 78.2622 79.4274C78.6448 79.1941 78.9435 78.8721 79.1582 78.4614C79.3822 78.0507 79.4942 77.5934 79.4942 77.0894C79.4942 76.5761 79.3822 76.1234 79.1582 75.7314C78.9435 75.3301 78.6448 75.0127 78.2622 74.7794C77.8888 74.5367 77.4688 74.4154 77.0022 74.4154C76.5262 74.4154 76.0968 74.5367 75.7142 74.7794C75.3408 75.0127 75.0422 75.3301 74.8182 75.7314C74.5942 76.1234 74.4822 76.5761 74.4822 77.0894C74.4822 77.5934 74.5942 78.0507 74.8182 78.4614C75.0422 78.8721 75.3408 79.1941 75.7142 79.4274C76.0968 79.6607 76.5262 79.7774 77.0022 79.7774ZM84.7903 81.0374C84.2956 81.0374 83.857 80.9487 83.4743 80.7714C83.101 80.5847 82.807 80.3327 82.5923 80.0154C82.3776 79.6887 82.2703 79.3154 82.2703 78.8954C82.2703 78.4941 82.3543 78.1347 82.5223 77.8174C82.6996 77.4907 82.9703 77.2154 83.3343 76.9914C83.7076 76.7674 84.1743 76.6087 84.7343 76.5154L87.5343 76.0534V77.1454L85.0283 77.5654C84.543 77.6494 84.1883 77.8034 83.9643 78.0274C83.7496 78.2514 83.6423 78.5267 83.6423 78.8534C83.6423 79.1614 83.7636 79.4181 84.0063 79.6234C84.2583 79.8287 84.571 79.9314 84.9443 79.9314C85.4203 79.9314 85.831 79.8334 86.1763 79.6374C86.531 79.4321 86.8063 79.1567 87.0023 78.8114C87.2076 78.4661 87.3103 78.0834 87.3103 77.6634V75.7454C87.3103 75.3347 87.1563 75.0034 86.8483 74.7514C86.5496 74.4901 86.153 74.3594 85.6583 74.3594C85.229 74.3594 84.8463 74.4714 84.5103 74.6954C84.1836 74.9101 83.941 75.1994 83.7823 75.5634L82.6483 74.9754C82.7883 74.6301 83.0123 74.3221 83.3203 74.0514C83.6283 73.7714 83.9876 73.5521 84.3983 73.3934C84.809 73.2347 85.2383 73.1554 85.6863 73.1554C86.265 73.1554 86.7736 73.2674 87.2123 73.4914C87.651 73.7061 87.9916 74.0094 88.2343 74.4014C88.4863 74.7841 88.6123 75.2321 88.6123 75.7454V80.8694H87.3383V79.4414L87.5763 79.5254C87.4176 79.8241 87.203 80.0854 86.9323 80.3094C86.6616 80.5334 86.3443 80.7107 85.9803 80.8414C85.6163 80.9721 85.2196 81.0374 84.7903 81.0374ZM94.061 81.0374C93.3517 81.0374 92.7124 80.8647 92.143 80.5194C91.583 80.1741 91.1397 79.7027 90.813 79.1054C90.4864 78.5081 90.323 77.8407 90.323 77.1034C90.323 76.3474 90.4864 75.6754 90.813 75.0874C91.1397 74.4901 91.583 74.0187 92.143 73.6734C92.7124 73.3281 93.3517 73.1554 94.061 73.1554C94.6864 73.1554 95.2417 73.2907 95.727 73.5614C96.2124 73.8227 96.595 74.1774 96.875 74.6254L96.665 74.9474V70.2714H97.981V80.8694H96.707V79.2594L96.875 79.4834C96.6137 79.9781 96.231 80.3607 95.727 80.6314C95.2324 80.9021 94.677 81.0374 94.061 81.0374ZM94.173 79.7774C94.649 79.7774 95.0737 79.6607 95.447 79.4274C95.8204 79.1941 96.1144 78.8767 96.329 78.4754C96.553 78.0647 96.665 77.6074 96.665 77.1034C96.665 76.5901 96.553 76.1327 96.329 75.7314C96.1144 75.3207 95.8204 74.9987 95.447 74.7654C95.0737 74.5321 94.649 74.4154 94.173 74.4154C93.7064 74.4154 93.2817 74.5367 92.899 74.7794C92.5257 75.0127 92.2317 75.3301 92.017 75.7314C91.8024 76.1234 91.695 76.5807 91.695 77.1034C91.695 77.6074 91.8024 78.0647 92.017 78.4754C92.2317 78.8767 92.5257 79.1941 92.899 79.4274C93.2724 79.6607 93.697 79.7774 94.173 79.7774ZM105.482 80.9534C104.745 80.9534 104.176 80.7434 103.774 80.3234C103.382 79.9034 103.186 79.3107 103.186 78.5454V74.5694H101.814V73.3234H102.094C102.43 73.3234 102.696 73.2207 102.892 73.0154C103.088 72.8101 103.186 72.5394 103.186 72.2034V71.5874H104.488V73.3234H106.182V74.5694H104.488V78.5034C104.488 78.7554 104.526 78.9747 104.6 79.1614C104.684 79.3481 104.82 79.4974 105.006 79.6094C105.193 79.7121 105.44 79.7634 105.748 79.7634C105.814 79.7634 105.893 79.7587 105.986 79.7494C106.089 79.7401 106.182 79.7307 106.266 79.7214V80.8694C106.145 80.8974 106.01 80.9161 105.86 80.9254C105.711 80.9441 105.585 80.9534 105.482 80.9534ZM107.967 80.8694V70.2714H109.269V74.7934L109.031 74.6674C109.218 74.1914 109.516 73.8227 109.927 73.5614C110.347 73.2907 110.837 73.1554 111.397 73.1554C111.938 73.1554 112.419 73.2767 112.839 73.5194C113.268 73.7621 113.604 74.0981 113.847 74.5274C114.099 74.9567 114.225 75.4421 114.225 75.9834V80.8694H112.909V76.4034C112.909 75.9834 112.83 75.6287 112.671 75.3394C112.522 75.0501 112.312 74.8261 112.041 74.6674C111.77 74.4994 111.458 74.4154 111.103 74.4154C110.758 74.4154 110.445 74.4994 110.165 74.6674C109.885 74.8261 109.666 75.0547 109.507 75.3534C109.348 75.6427 109.269 75.9927 109.269 76.4034V80.8694H107.967ZM119.56 81.0374C118.832 81.0374 118.183 80.8647 117.614 80.5194C117.045 80.1741 116.597 79.7027 116.27 79.1054C115.943 78.4987 115.78 77.8221 115.78 77.0754C115.78 76.3194 115.939 75.6474 116.256 75.0594C116.583 74.4714 117.021 74.0094 117.572 73.6734C118.132 73.3281 118.757 73.1554 119.448 73.1554C120.008 73.1554 120.503 73.2581 120.932 73.4634C121.371 73.6594 121.739 73.9301 122.038 74.2754C122.346 74.6114 122.579 74.9987 122.738 75.4374C122.906 75.8667 122.99 76.3147 122.99 76.7814C122.99 76.8841 122.981 77.0007 122.962 77.1314C122.953 77.2527 122.939 77.3694 122.92 77.4814H116.732V76.3614H122.164L121.548 76.8654C121.632 76.3801 121.585 75.9461 121.408 75.5634C121.231 75.1807 120.969 74.8774 120.624 74.6534C120.279 74.4294 119.887 74.3174 119.448 74.3174C119.009 74.3174 118.608 74.4294 118.244 74.6534C117.88 74.8774 117.595 75.1994 117.39 75.6194C117.194 76.0301 117.115 76.5201 117.152 77.0894C117.115 77.6401 117.199 78.1254 117.404 78.5454C117.619 78.9561 117.917 79.2781 118.3 79.5114C118.692 79.7354 119.117 79.8474 119.574 79.8474C120.078 79.8474 120.503 79.7307 120.848 79.4974C121.193 79.2641 121.473 78.9654 121.688 78.6014L122.78 79.1614C122.631 79.5067 122.397 79.8241 122.08 80.1134C121.772 80.3934 121.403 80.6174 120.974 80.7854C120.554 80.9534 120.083 81.0374 119.56 81.0374ZM127.262 80.8694V70.4394H134.052V71.6994H128.634V75.0034H133.772V76.2634H128.634V79.6094H134.052V80.8694H127.262ZM137.81 81.0374C137.315 81.0374 136.877 80.9487 136.494 80.7714C136.121 80.5847 135.827 80.3327 135.612 80.0154C135.397 79.6887 135.29 79.3154 135.29 78.8954C135.29 78.4941 135.374 78.1347 135.542 77.8174C135.719 77.4907 135.99 77.2154 136.354 76.9914C136.727 76.7674 137.194 76.6087 137.754 76.5154L140.554 76.0534V77.1454L138.048 77.5654C137.563 77.6494 137.208 77.8034 136.984 78.0274C136.769 78.2514 136.662 78.5267 136.662 78.8534C136.662 79.1614 136.783 79.4181 137.026 79.6234C137.278 79.8287 137.591 79.9314 137.964 79.9314C138.44 79.9314 138.851 79.8334 139.196 79.6374C139.551 79.4321 139.826 79.1567 140.022 78.8114C140.227 78.4661 140.33 78.0834 140.33 77.6634V75.7454C140.33 75.3347 140.176 75.0034 139.868 74.7514C139.569 74.4901 139.173 74.3594 138.678 74.3594C138.249 74.3594 137.866 74.4714 137.53 74.6954C137.203 74.9101 136.961 75.1994 136.802 75.5634L135.668 74.9754C135.808 74.6301 136.032 74.3221 136.34 74.0514C136.648 73.7714 137.007 73.5521 137.418 73.3934C137.829 73.2347 138.258 73.1554 138.706 73.1554C139.285 73.1554 139.793 73.2674 140.232 73.4914C140.671 73.7061 141.011 74.0094 141.254 74.4014C141.506 74.7841 141.632 75.2321 141.632 75.7454V80.8694H140.358V79.4414L140.596 79.5254C140.437 79.8241 140.223 80.0854 139.952 80.3094C139.681 80.5334 139.364 80.7107 139 80.8414C138.636 80.9721 138.239 81.0374 137.81 81.0374ZM146.58 80.9534C145.843 80.9534 145.273 80.7434 144.872 80.3234C144.48 79.9034 144.284 79.3107 144.284 78.5454V74.5694H142.912V73.3234H143.192C143.528 73.3234 143.794 73.2207 143.99 73.0154C144.186 72.8101 144.284 72.5394 144.284 72.2034V71.5874H145.586V73.3234H147.28V74.5694H145.586V78.5034C145.586 78.7554 145.623 78.9747 145.698 79.1614C145.782 79.3481 145.917 79.4974 146.104 79.6094C146.291 79.7121 146.538 79.7634 146.846 79.7634C146.911 79.7634 146.991 79.7587 147.084 79.7494C147.187 79.7401 147.28 79.7307 147.364 79.7214V80.8694C147.243 80.8974 147.107 80.9161 146.958 80.9254C146.809 80.9441 146.683 80.9534 146.58 80.9534ZM151.181 81.0374C150.686 81.0374 150.248 80.9487 149.865 80.7714C149.492 80.5847 149.198 80.3327 148.983 80.0154C148.768 79.6887 148.661 79.3154 148.661 78.8954C148.661 78.4941 148.745 78.1347 148.913 77.8174C149.09 77.4907 149.361 77.2154 149.725 76.9914C150.098 76.7674 150.565 76.6087 151.125 76.5154L153.925 76.0534V77.1454L151.419 77.5654C150.934 77.6494 150.579 77.8034 150.355 78.0274C150.14 78.2514 150.033 78.5267 150.033 78.8534C150.033 79.1614 150.154 79.4181 150.397 79.6234C150.649 79.8287 150.962 79.9314 151.335 79.9314C151.811 79.9314 152.222 79.8334 152.567 79.6374C152.922 79.4321 153.197 79.1567 153.393 78.8114C153.598 78.4661 153.701 78.0834 153.701 77.6634V75.7454C153.701 75.3347 153.547 75.0034 153.239 74.7514C152.94 74.4901 152.544 74.3594 152.049 74.3594C151.62 74.3594 151.237 74.4714 150.901 74.6954C150.574 74.9101 150.332 75.1994 150.173 75.5634L149.039 74.9754C149.179 74.6301 149.403 74.3221 149.711 74.0514C150.019 73.7714 150.378 73.5521 150.789 73.3934C151.2 73.2347 151.629 73.1554 152.077 73.1554C152.656 73.1554 153.164 73.2674 153.603 73.4914C154.042 73.7061 154.382 74.0094 154.625 74.4014C154.877 74.7841 155.003 75.2321 155.003 75.7454V80.8694H153.729V79.4414L153.967 79.5254C153.808 79.8241 153.594 80.0854 153.323 80.3094C153.052 80.5334 152.735 80.7107 152.371 80.8414C152.007 80.9721 151.61 81.0374 151.181 81.0374ZM160.928 81.0374C160.321 81.0374 159.766 80.9021 159.262 80.6314C158.767 80.3607 158.384 79.9781 158.114 79.4834L158.296 79.2594V80.8694H157.022V70.2714H158.324V74.9474L158.128 74.6254C158.408 74.1774 158.79 73.8227 159.276 73.5614C159.761 73.2907 160.316 73.1554 160.942 73.1554C161.651 73.1554 162.286 73.3281 162.846 73.6734C163.415 74.0187 163.863 74.4901 164.19 75.0874C164.516 75.6754 164.68 76.3474 164.68 77.1034C164.68 77.8407 164.516 78.5081 164.19 79.1054C163.863 79.7027 163.415 80.1741 162.846 80.5194C162.286 80.8647 161.646 81.0374 160.928 81.0374ZM160.83 79.7774C161.306 79.7774 161.73 79.6607 162.104 79.4274C162.477 79.1941 162.766 78.8767 162.972 78.4754C163.186 78.0647 163.294 77.6074 163.294 77.1034C163.294 76.5807 163.186 76.1234 162.972 75.7314C162.766 75.3301 162.477 75.0127 162.104 74.7794C161.73 74.5367 161.306 74.4154 160.83 74.4154C160.354 74.4154 159.924 74.5321 159.542 74.7654C159.168 74.9987 158.87 75.3207 158.646 75.7314C158.431 76.1327 158.324 76.5901 158.324 77.1034C158.324 77.6074 158.431 78.0647 158.646 78.4754C158.87 78.8767 159.168 79.1941 159.542 79.4274C159.924 79.6607 160.354 79.7774 160.83 79.7774ZM166.387 80.8694V70.2714H167.689V80.8694H166.387ZM173.181 81.0374C172.453 81.0374 171.805 80.8647 171.235 80.5194C170.666 80.1741 170.218 79.7027 169.891 79.1054C169.565 78.4987 169.401 77.8221 169.401 77.0754C169.401 76.3194 169.56 75.6474 169.877 75.0594C170.204 74.4714 170.643 74.0094 171.193 73.6734C171.753 73.3281 172.379 73.1554 173.069 73.1554C173.629 73.1554 174.124 73.2581 174.553 73.4634C174.992 73.6594 175.361 73.9301 175.659 74.2754C175.967 74.6114 176.201 74.9987 176.359 75.4374C176.527 75.8667 176.611 76.3147 176.611 76.7814C176.611 76.8841 176.602 77.0007 176.583 77.1314C176.574 77.2527 176.56 77.3694 176.541 77.4814H170.353V76.3614H175.785L175.169 76.8654C175.253 76.3801 175.207 75.9461 175.029 75.5634C174.852 75.1807 174.591 74.8774 174.245 74.6534C173.9 74.4294 173.508 74.3174 173.069 74.3174C172.631 74.3174 172.229 74.4294 171.865 74.6534C171.501 74.8774 171.217 75.1994 171.011 75.6194C170.815 76.0301 170.736 76.5201 170.773 77.0894C170.736 77.6401 170.82 78.1254 171.025 78.5454C171.24 78.9561 171.539 79.2781 171.921 79.5114C172.313 79.7354 172.738 79.8474 173.195 79.8474C173.699 79.8474 174.124 79.7307 174.469 79.4974C174.815 79.2641 175.095 78.9654 175.309 78.6014L176.401 79.1614C176.252 79.5067 176.019 79.8241 175.701 80.1134C175.393 80.3934 175.025 80.6174 174.595 80.7854C174.175 80.9534 173.704 81.0374 173.181 81.0374ZM181.011 81.0374C180.255 81.0374 179.597 80.8507 179.037 80.4774C178.477 80.1041 178.08 79.6001 177.847 78.9654L178.883 78.4614C179.097 78.9094 179.391 79.2641 179.765 79.5254C180.138 79.7867 180.553 79.9174 181.011 79.9174C181.421 79.9174 181.762 79.8194 182.033 79.6234C182.303 79.4274 182.439 79.1707 182.439 78.8534C182.439 78.6294 182.373 78.4521 182.243 78.3214C182.121 78.1814 181.972 78.0741 181.795 77.9994C181.617 77.9154 181.454 77.8547 181.305 77.8174L180.171 77.4954C179.489 77.2994 178.99 77.0194 178.673 76.6554C178.365 76.2914 178.211 75.8667 178.211 75.3814C178.211 74.9334 178.323 74.5461 178.547 74.2194C178.78 73.8834 179.093 73.6221 179.485 73.4354C179.886 73.2487 180.334 73.1554 180.829 73.1554C181.491 73.1554 182.084 73.3234 182.607 73.6594C183.139 73.9954 183.517 74.4667 183.741 75.0734L182.677 75.5634C182.509 75.1714 182.257 74.8634 181.921 74.6394C181.585 74.4061 181.207 74.2894 180.787 74.2894C180.404 74.2894 180.101 74.3874 179.877 74.5834C179.653 74.7701 179.541 75.0081 179.541 75.2974C179.541 75.5121 179.597 75.6894 179.709 75.8294C179.821 75.9601 179.956 76.0627 180.115 76.1374C180.273 76.2027 180.427 76.2587 180.577 76.3054L181.809 76.6694C182.425 76.8467 182.901 77.1221 183.237 77.4954C183.582 77.8687 183.755 78.3167 183.755 78.8394C183.755 79.2594 183.638 79.6374 183.405 79.9734C183.171 80.3094 182.849 80.5707 182.439 80.7574C182.028 80.9441 181.552 81.0374 181.011 81.0374ZM190.091 81.0374C189.596 81.0374 189.158 80.9487 188.775 80.7714C188.402 80.5847 188.108 80.3327 187.893 80.0154C187.678 79.6887 187.571 79.3154 187.571 78.8954C187.571 78.4941 187.655 78.1347 187.823 77.8174C188 77.4907 188.271 77.2154 188.635 76.9914C189.008 76.7674 189.475 76.6087 190.035 76.5154L192.835 76.0534V77.1454L190.329 77.5654C189.844 77.6494 189.489 77.8034 189.265 78.0274C189.05 78.2514 188.943 78.5267 188.943 78.8534C188.943 79.1614 189.064 79.4181 189.307 79.6234C189.559 79.8287 189.872 79.9314 190.245 79.9314C190.721 79.9314 191.132 79.8334 191.477 79.6374C191.832 79.4321 192.107 79.1567 192.303 78.8114C192.508 78.4661 192.611 78.0834 192.611 77.6634V75.7454C192.611 75.3347 192.457 75.0034 192.149 74.7514C191.85 74.4901 191.454 74.3594 190.959 74.3594C190.53 74.3594 190.147 74.4714 189.811 74.6954C189.484 74.9101 189.242 75.1994 189.083 75.5634L187.949 74.9754C188.089 74.6301 188.313 74.3221 188.621 74.0514C188.929 73.7714 189.288 73.5521 189.699 73.3934C190.11 73.2347 190.539 73.1554 190.987 73.1554C191.566 73.1554 192.074 73.2674 192.513 73.4914C192.952 73.7061 193.292 74.0094 193.535 74.4014C193.787 74.7841 193.913 75.2321 193.913 75.7454V80.8694H192.639V79.4414L192.877 79.5254C192.718 79.8241 192.504 80.0854 192.233 80.3094C191.962 80.5334 191.645 80.7107 191.281 80.8414C190.917 80.9721 190.52 81.0374 190.091 81.0374ZM195.932 83.6694V73.3234H197.206V74.9474L197.038 74.6254C197.318 74.1774 197.7 73.8227 198.186 73.5614C198.671 73.2907 199.226 73.1554 199.852 73.1554C200.561 73.1554 201.196 73.3281 201.756 73.6734C202.325 74.0187 202.773 74.4901 203.1 75.0874C203.426 75.6754 203.59 76.3474 203.59 77.1034C203.59 77.8407 203.426 78.5081 203.1 79.1054C202.773 79.7027 202.325 80.1741 201.756 80.5194C201.196 80.8647 200.556 81.0374 199.838 81.0374C199.231 81.0374 198.676 80.9021 198.172 80.6314C197.677 80.3607 197.294 79.9781 197.024 79.4834L197.234 79.2594V83.6694H195.932ZM199.74 79.7774C200.216 79.7774 200.64 79.6607 201.014 79.4274C201.387 79.1941 201.676 78.8767 201.882 78.4754C202.096 78.0647 202.204 77.6074 202.204 77.1034C202.204 76.5807 202.096 76.1234 201.882 75.7314C201.676 75.3301 201.387 75.0127 201.014 74.7794C200.64 74.5367 200.216 74.4154 199.74 74.4154C199.264 74.4154 198.834 74.5321 198.452 74.7654C198.078 74.9987 197.78 75.3207 197.556 75.7314C197.341 76.1327 197.234 76.5901 197.234 77.1034C197.234 77.6074 197.341 78.0647 197.556 78.4754C197.78 78.8767 198.078 79.1941 198.452 79.4274C198.834 79.6607 199.264 79.7774 199.74 79.7774ZM205.297 83.6694V73.3234H206.571V74.9474L206.403 74.6254C206.683 74.1774 207.066 73.8227 207.551 73.5614C208.036 73.2907 208.592 73.1554 209.217 73.1554C209.926 73.1554 210.561 73.3281 211.121 73.6734C211.69 74.0187 212.138 74.4901 212.465 75.0874C212.792 75.6754 212.955 76.3474 212.955 77.1034C212.955 77.8407 212.792 78.5081 212.465 79.1054C212.138 79.7027 211.69 80.1741 211.121 80.5194C210.561 80.8647 209.922 81.0374 209.203 81.0374C208.596 81.0374 208.041 80.9021 207.537 80.6314C207.042 80.3607 206.66 79.9781 206.389 79.4834L206.599 79.2594V83.6694H205.297ZM209.105 79.7774C209.581 79.7774 210.006 79.6607 210.379 79.4274C210.752 79.1941 211.042 78.8767 211.247 78.4754C211.462 78.0647 211.569 77.6074 211.569 77.1034C211.569 76.5807 211.462 76.1234 211.247 75.7314C211.042 75.3301 210.752 75.0127 210.379 74.7794C210.006 74.5367 209.581 74.4154 209.105 74.4154C208.629 74.4154 208.2 74.5321 207.817 74.7654C207.444 74.9987 207.145 75.3207 206.921 75.7314C206.706 76.1327 206.599 76.5901 206.599 77.1034C206.599 77.6074 206.706 78.0647 206.921 78.4754C207.145 78.8767 207.444 79.1941 207.817 79.4274C208.2 79.6607 208.629 79.7774 209.105 79.7774Z" fill="#191717"/>
<line x1="9.92089" y1="91.872" x2="9.71037" y2="131.871" stroke="#191717"/>
<line x1="10.2104" y1="165.875" x2="9.99991" y2="205.874" stroke="#298A5A" stroke-width="2"/>
<path d="M5.082 155.037C4.25133 155.037 3.52333 154.813 2.898 154.365C2.282 153.908 1.80133 153.278 1.456 152.475C1.11067 151.663 0.938 150.721 0.938 149.647C0.938 148.574 1.11067 147.636 1.456 146.833C1.80133 146.021 2.282 145.391 2.898 144.943C3.514 144.495 4.23733 144.271 5.068 144.271C5.89867 144.271 6.622 144.495 7.238 144.943C7.854 145.391 8.33467 146.021 8.68 146.833C9.03467 147.636 9.212 148.574 9.212 149.647C9.212 150.721 9.03933 151.663 8.694 152.475C8.34867 153.287 7.86333 153.917 7.238 154.365C6.622 154.813 5.90333 155.037 5.082 155.037ZM5.082 153.763C5.642 153.763 6.12733 153.595 6.538 153.259C6.94867 152.914 7.266 152.433 7.49 151.817C7.72333 151.201 7.84 150.478 7.84 149.647C7.84 148.817 7.72333 148.093 7.49 147.477C7.266 146.861 6.944 146.385 6.524 146.049C6.11333 145.713 5.628 145.545 5.068 145.545C4.508 145.545 4.02267 145.713 3.612 146.049C3.20133 146.385 2.87933 146.861 2.646 147.477C2.422 148.093 2.31 148.817 2.31 149.647C2.31 150.469 2.422 151.187 2.646 151.803C2.87933 152.419 3.20133 152.9 3.612 153.245C4.032 153.591 4.522 153.763 5.082 153.763ZM10.8869 154.869V153.917L13.7709 150.795C14.3402 150.189 14.7929 149.689 15.1289 149.297C15.4742 148.905 15.7262 148.555 15.8849 148.247C16.0435 147.939 16.1229 147.613 16.1229 147.267C16.1229 146.698 15.9549 146.259 15.6189 145.951C15.2829 145.643 14.8395 145.489 14.2889 145.489C13.7289 145.489 13.2529 145.653 12.8609 145.979C12.4689 146.297 12.1982 146.749 12.0489 147.337L10.8029 147.015C10.9242 146.455 11.1482 145.97 11.4749 145.559C11.8015 145.149 12.2075 144.831 12.6929 144.607C13.1782 144.383 13.7102 144.271 14.2889 144.271C14.9235 144.271 15.4789 144.397 15.9549 144.649C16.4402 144.892 16.8182 145.233 17.0889 145.671C17.3689 146.11 17.5089 146.619 17.5089 147.197C17.5089 147.58 17.4295 147.953 17.2709 148.317C17.1122 148.681 16.8789 149.069 16.5709 149.479C16.2629 149.881 15.8615 150.347 15.3669 150.879L12.7909 153.679H17.7329V154.869H10.8869Z" fill="#191717"/>
<path d="M31.162 154.869V144.439H37.952V145.699H32.534V149.003H37.672V150.263H32.534V153.609H37.952V154.869H31.162ZM38.6442 154.869L41.2902 151.089L38.6582 147.323H40.2262L42.4802 150.599H41.6822L43.9082 147.323H45.4902L42.8582 151.089L45.4762 154.869H43.9082L41.6822 151.593H42.4662L40.2402 154.869H38.6442ZM46.6486 157.669V147.323H47.9226V148.947L47.7546 148.625C48.0346 148.177 48.4173 147.823 48.9026 147.561C49.388 147.291 49.9433 147.155 50.5686 147.155C51.278 147.155 51.9126 147.328 52.4726 147.673C53.042 148.019 53.49 148.49 53.8166 149.087C54.1433 149.675 54.3066 150.347 54.3066 151.103C54.3066 151.841 54.1433 152.508 53.8166 153.105C53.49 153.703 53.042 154.174 52.4726 154.519C51.9126 154.865 51.2733 155.037 50.5546 155.037C49.948 155.037 49.3926 154.902 48.8886 154.631C48.394 154.361 48.0113 153.978 47.7406 153.483L47.9506 153.259V157.669H46.6486ZM50.4566 153.777C50.9326 153.777 51.3573 153.661 51.7306 153.427C52.104 153.194 52.3933 152.877 52.5986 152.475C52.8133 152.065 52.9206 151.607 52.9206 151.103C52.9206 150.581 52.8133 150.123 52.5986 149.731C52.3933 149.33 52.104 149.013 51.7306 148.779C51.3573 148.537 50.9326 148.415 50.4566 148.415C49.9806 148.415 49.5513 148.532 49.1686 148.765C48.7953 148.999 48.4966 149.321 48.2726 149.731C48.058 150.133 47.9506 150.59 47.9506 151.103C47.9506 151.607 48.058 152.065 48.2726 152.475C48.4966 152.877 48.7953 153.194 49.1686 153.427C49.5513 153.661 49.9806 153.777 50.4566 153.777ZM56.0139 154.869V144.271H57.3159V154.869H56.0139ZM62.9201 155.037C62.1921 155.037 61.5341 154.869 60.9461 154.533C60.3581 154.188 59.8915 153.717 59.5461 153.119C59.2008 152.522 59.0281 151.845 59.0281 151.089C59.0281 150.333 59.1961 149.661 59.5321 149.073C59.8775 148.485 60.3441 148.019 60.9321 147.673C61.5201 147.328 62.1828 147.155 62.9201 147.155C63.6481 147.155 64.3061 147.328 64.8941 147.673C65.4821 148.009 65.9441 148.471 66.2801 149.059C66.6255 149.647 66.7981 150.324 66.7981 151.089C66.7981 151.855 66.6208 152.536 66.2661 153.133C65.9115 153.721 65.4401 154.188 64.8521 154.533C64.2735 154.869 63.6295 155.037 62.9201 155.037ZM62.9201 153.777C63.3868 153.777 63.8068 153.661 64.1801 153.427C64.5628 153.194 64.8615 152.872 65.0761 152.461C65.3001 152.051 65.4121 151.593 65.4121 151.089C65.4121 150.576 65.3001 150.123 65.0761 149.731C64.8615 149.33 64.5628 149.013 64.1801 148.779C63.8068 148.537 63.3868 148.415 62.9201 148.415C62.4441 148.415 62.0148 148.537 61.6321 148.779C61.2588 149.013 60.9601 149.33 60.7361 149.731C60.5121 150.123 60.4001 150.576 60.4001 151.089C60.4001 151.593 60.5121 152.051 60.7361 152.461C60.9601 152.872 61.2588 153.194 61.6321 153.427C62.0148 153.661 62.4441 153.777 62.9201 153.777ZM68.4963 154.869V147.323H69.7703V148.709L69.6303 148.513C69.8076 148.084 70.0783 147.767 70.4423 147.561C70.8063 147.347 71.2496 147.239 71.7723 147.239H72.2343V148.471H71.5763C71.0443 148.471 70.6149 148.639 70.2883 148.975C69.9616 149.302 69.7983 149.769 69.7983 150.375V154.869H68.4963ZM76.8628 155.037C76.1348 155.037 75.4861 154.865 74.9168 154.519C74.3475 154.174 73.8995 153.703 73.5728 153.105C73.2461 152.499 73.0828 151.822 73.0828 151.075C73.0828 150.319 73.2415 149.647 73.5588 149.059C73.8855 148.471 74.3241 148.009 74.8748 147.673C75.4348 147.328 76.0601 147.155 76.7508 147.155C77.3108 147.155 77.8055 147.258 78.2348 147.463C78.6735 147.659 79.0421 147.93 79.3408 148.275C79.6488 148.611 79.8821 148.999 80.0408 149.437C80.2088 149.867 80.2928 150.315 80.2928 150.781C80.2928 150.884 80.2835 151.001 80.2648 151.131C80.2555 151.253 80.2415 151.369 80.2228 151.481H74.0348V150.361H79.4668L78.8508 150.865C78.9348 150.38 78.8881 149.946 78.7108 149.563C78.5335 149.181 78.2721 148.877 77.9268 148.653C77.5815 148.429 77.1895 148.317 76.7508 148.317C76.3121 148.317 75.9108 148.429 75.5468 148.653C75.1828 148.877 74.8981 149.199 74.6928 149.619C74.4968 150.03 74.4175 150.52 74.4548 151.089C74.4175 151.64 74.5015 152.125 74.7068 152.545C74.9215 152.956 75.2201 153.278 75.6028 153.511C75.9948 153.735 76.4195 153.847 76.8768 153.847C77.3808 153.847 77.8055 153.731 78.1508 153.497C78.4961 153.264 78.7761 152.965 78.9908 152.601L80.0828 153.161C79.9335 153.507 79.7001 153.824 79.3828 154.113C79.0748 154.393 78.7061 154.617 78.2768 154.785C77.8568 154.953 77.3855 155.037 76.8628 155.037ZM87.9103 155.037C87.173 155.037 86.515 154.865 85.9363 154.519C85.367 154.174 84.919 153.703 84.5923 153.105C84.2657 152.508 84.1023 151.836 84.1023 151.089C84.1023 150.333 84.2657 149.661 84.5923 149.073C84.919 148.485 85.367 148.019 85.9363 147.673C86.515 147.328 87.173 147.155 87.9103 147.155C88.405 147.155 88.867 147.244 89.2963 147.421C89.7257 147.599 90.1037 147.837 90.4303 148.135C90.757 148.434 90.995 148.784 91.1443 149.185L89.9823 149.745C89.805 149.353 89.5343 149.036 89.1703 148.793C88.8063 148.541 88.3863 148.415 87.9103 148.415C87.453 148.415 87.0377 148.532 86.6643 148.765C86.3003 148.999 86.011 149.316 85.7963 149.717C85.5817 150.119 85.4743 150.581 85.4743 151.103C85.4743 151.607 85.5817 152.065 85.7963 152.475C86.011 152.877 86.3003 153.194 86.6643 153.427C87.0377 153.661 87.453 153.777 87.9103 153.777C88.3863 153.777 88.8063 153.656 89.1703 153.413C89.5343 153.161 89.805 152.83 89.9823 152.419L91.1443 153.007C90.995 153.399 90.757 153.749 90.4303 154.057C90.1037 154.356 89.7257 154.594 89.2963 154.771C88.867 154.949 88.405 155.037 87.9103 155.037ZM94.9622 155.037C94.4675 155.037 94.0289 154.949 93.6462 154.771C93.2729 154.585 92.9789 154.333 92.7642 154.015C92.5495 153.689 92.4422 153.315 92.4422 152.895C92.4422 152.494 92.5262 152.135 92.6942 151.817C92.8715 151.491 93.1422 151.215 93.5062 150.991C93.8795 150.767 94.3462 150.609 94.9062 150.515L97.7062 150.053V151.145L95.2002 151.565C94.7149 151.649 94.3602 151.803 94.1362 152.027C93.9215 152.251 93.8142 152.527 93.8142 152.853C93.8142 153.161 93.9355 153.418 94.1782 153.623C94.4302 153.829 94.7429 153.931 95.1162 153.931C95.5922 153.931 96.0029 153.833 96.3482 153.637C96.7029 153.432 96.9782 153.157 97.1742 152.811C97.3795 152.466 97.4822 152.083 97.4822 151.663V149.745C97.4822 149.335 97.3282 149.003 97.0202 148.751C96.7215 148.49 96.3249 148.359 95.8302 148.359C95.4009 148.359 95.0182 148.471 94.6822 148.695C94.3555 148.91 94.1129 149.199 93.9542 149.563L92.8202 148.975C92.9602 148.63 93.1842 148.322 93.4922 148.051C93.8002 147.771 94.1595 147.552 94.5702 147.393C94.9809 147.235 95.4102 147.155 95.8582 147.155C96.4369 147.155 96.9455 147.267 97.3842 147.491C97.8229 147.706 98.1635 148.009 98.4062 148.401C98.6582 148.784 98.7842 149.232 98.7842 149.745V154.869H97.5102V153.441L97.7482 153.525C97.5895 153.824 97.3749 154.085 97.1042 154.309C96.8335 154.533 96.5162 154.711 96.1522 154.841C95.7882 154.972 95.3915 155.037 94.9622 155.037ZM103.732 154.953C102.995 154.953 102.426 154.743 102.024 154.323C101.632 153.903 101.436 153.311 101.436 152.545V148.569H100.064V147.323H100.344C100.68 147.323 100.946 147.221 101.142 147.015C101.338 146.81 101.436 146.539 101.436 146.203V145.587H102.738V147.323H104.432V148.569H102.738V152.503C102.738 152.755 102.776 152.975 102.85 153.161C102.934 153.348 103.07 153.497 103.256 153.609C103.443 153.712 103.69 153.763 103.998 153.763C104.064 153.763 104.143 153.759 104.236 153.749C104.339 153.74 104.432 153.731 104.516 153.721V154.869C104.395 154.897 104.26 154.916 104.11 154.925C103.961 154.944 103.835 154.953 103.732 154.953ZM109.484 155.037C108.756 155.037 108.107 154.865 107.538 154.519C106.969 154.174 106.521 153.703 106.194 153.105C105.867 152.499 105.704 151.822 105.704 151.075C105.704 150.319 105.863 149.647 106.18 149.059C106.507 148.471 106.945 148.009 107.496 147.673C108.056 147.328 108.681 147.155 109.372 147.155C109.932 147.155 110.427 147.258 110.856 147.463C111.295 147.659 111.663 147.93 111.962 148.275C112.27 148.611 112.503 148.999 112.662 149.437C112.83 149.867 112.914 150.315 112.914 150.781C112.914 150.884 112.905 151.001 112.886 151.131C112.877 151.253 112.863 151.369 112.844 151.481H106.656V150.361H112.088L111.472 150.865C111.556 150.38 111.509 149.946 111.332 149.563C111.155 149.181 110.893 148.877 110.548 148.653C110.203 148.429 109.811 148.317 109.372 148.317C108.933 148.317 108.532 148.429 108.168 148.653C107.804 148.877 107.519 149.199 107.314 149.619C107.118 150.03 107.039 150.52 107.076 151.089C107.039 151.64 107.123 152.125 107.328 152.545C107.543 152.956 107.841 153.278 108.224 153.511C108.616 153.735 109.041 153.847 109.498 153.847C110.002 153.847 110.427 153.731 110.772 153.497C111.117 153.264 111.397 152.965 111.612 152.601L112.704 153.161C112.555 153.507 112.321 153.824 112.004 154.113C111.696 154.393 111.327 154.617 110.898 154.785C110.478 154.953 110.007 155.037 109.484 155.037ZM118.21 157.949C117.678 157.949 117.183 157.865 116.726 157.697C116.278 157.529 115.89 157.296 115.564 156.997C115.246 156.708 115.004 156.367 114.836 155.975L116.054 155.415C116.184 155.77 116.432 156.069 116.796 156.311C117.169 156.563 117.636 156.689 118.196 156.689C118.625 156.689 119.012 156.605 119.358 156.437C119.712 156.279 119.992 156.036 120.198 155.709C120.403 155.392 120.506 155.005 120.506 154.547V152.853L120.744 153.105C120.482 153.619 120.104 154.011 119.61 154.281C119.124 154.552 118.588 154.687 118 154.687C117.29 154.687 116.656 154.524 116.096 154.197C115.536 153.861 115.097 153.409 114.78 152.839C114.462 152.261 114.304 151.621 114.304 150.921C114.304 150.212 114.462 149.573 114.78 149.003C115.097 148.434 115.531 147.986 116.082 147.659C116.642 147.323 117.276 147.155 117.986 147.155C118.574 147.155 119.106 147.291 119.582 147.561C120.067 147.823 120.454 148.187 120.744 148.653L120.548 149.003V147.323H121.822V154.547C121.822 155.201 121.668 155.784 121.36 156.297C121.052 156.811 120.622 157.212 120.072 157.501C119.53 157.8 118.91 157.949 118.21 157.949ZM118.112 153.427C118.56 153.427 118.961 153.315 119.316 153.091C119.68 152.867 119.969 152.569 120.184 152.195C120.398 151.813 120.506 151.388 120.506 150.921C120.506 150.464 120.398 150.044 120.184 149.661C119.969 149.279 119.68 148.975 119.316 148.751C118.961 148.527 118.56 148.415 118.112 148.415C117.654 148.415 117.239 148.527 116.866 148.751C116.492 148.975 116.198 149.279 115.984 149.661C115.778 150.035 115.676 150.455 115.676 150.921C115.676 151.388 115.778 151.813 115.984 152.195C116.198 152.569 116.488 152.867 116.852 153.091C117.225 153.315 117.645 153.427 118.112 153.427ZM127.424 155.037C126.696 155.037 126.038 154.869 125.45 154.533C124.862 154.188 124.395 153.717 124.05 153.119C123.705 152.522 123.532 151.845 123.532 151.089C123.532 150.333 123.7 149.661 124.036 149.073C124.381 148.485 124.848 148.019 125.436 147.673C126.024 147.328 126.687 147.155 127.424 147.155C128.152 147.155 128.81 147.328 129.398 147.673C129.986 148.009 130.448 148.471 130.784 149.059C131.129 149.647 131.302 150.324 131.302 151.089C131.302 151.855 131.125 152.536 130.77 153.133C130.415 153.721 129.944 154.188 129.356 154.533C128.777 154.869 128.133 155.037 127.424 155.037ZM127.424 153.777C127.891 153.777 128.311 153.661 128.684 153.427C129.067 153.194 129.365 152.872 129.58 152.461C129.804 152.051 129.916 151.593 129.916 151.089C129.916 150.576 129.804 150.123 129.58 149.731C129.365 149.33 129.067 149.013 128.684 148.779C128.311 148.537 127.891 148.415 127.424 148.415C126.948 148.415 126.519 148.537 126.136 148.779C125.763 149.013 125.464 149.33 125.24 149.731C125.016 150.123 124.904 150.576 124.904 151.089C124.904 151.593 125.016 152.051 125.24 152.461C125.464 152.872 125.763 153.194 126.136 153.427C126.519 153.661 126.948 153.777 127.424 153.777ZM133 154.869V147.323H134.274V148.709L134.134 148.513C134.312 148.084 134.582 147.767 134.946 147.561C135.31 147.347 135.754 147.239 136.276 147.239H136.738V148.471H136.08C135.548 148.471 135.119 148.639 134.792 148.975C134.466 149.302 134.302 149.769 134.302 150.375V154.869H133ZM137.895 154.869V147.323H139.197V154.869H137.895ZM137.895 146.119V144.439H139.197V146.119H137.895ZM144.689 155.037C143.961 155.037 143.312 154.865 142.743 154.519C142.174 154.174 141.726 153.703 141.399 153.105C141.072 152.499 140.909 151.822 140.909 151.075C140.909 150.319 141.068 149.647 141.385 149.059C141.712 148.471 142.15 148.009 142.701 147.673C143.261 147.328 143.886 147.155 144.577 147.155C145.137 147.155 145.632 147.258 146.061 147.463C146.5 147.659 146.868 147.93 147.167 148.275C147.475 148.611 147.708 148.999 147.867 149.437C148.035 149.867 148.119 150.315 148.119 150.781C148.119 150.884 148.11 151.001 148.091 151.131C148.082 151.253 148.068 151.369 148.049 151.481H141.861V150.361H147.293L146.677 150.865C146.761 150.38 146.714 149.946 146.537 149.563C146.36 149.181 146.098 148.877 145.753 148.653C145.408 148.429 145.016 148.317 144.577 148.317C144.138 148.317 143.737 148.429 143.373 148.653C143.009 148.877 142.724 149.199 142.519 149.619C142.323 150.03 142.244 150.52 142.281 151.089C142.244 151.64 142.328 152.125 142.533 152.545C142.748 152.956 143.046 153.278 143.429 153.511C143.821 153.735 144.246 153.847 144.703 153.847C145.207 153.847 145.632 153.731 145.977 153.497C146.322 153.264 146.602 152.965 146.817 152.601L147.909 153.161C147.76 153.507 147.526 153.824 147.209 154.113C146.901 154.393 146.532 154.617 146.103 154.785C145.683 154.953 145.212 155.037 144.689 155.037ZM152.519 155.037C151.763 155.037 151.105 154.851 150.545 154.477C149.985 154.104 149.588 153.6 149.355 152.965L150.391 152.461C150.605 152.909 150.899 153.264 151.273 153.525C151.646 153.787 152.061 153.917 152.519 153.917C152.929 153.917 153.27 153.819 153.541 153.623C153.811 153.427 153.947 153.171 153.947 152.853C153.947 152.629 153.881 152.452 153.751 152.321C153.629 152.181 153.48 152.074 153.303 151.999C153.125 151.915 152.962 151.855 152.813 151.817L151.679 151.495C150.997 151.299 150.498 151.019 150.181 150.655C149.873 150.291 149.719 149.867 149.719 149.381C149.719 148.933 149.831 148.546 150.055 148.219C150.288 147.883 150.601 147.622 150.993 147.435C151.394 147.249 151.842 147.155 152.337 147.155C152.999 147.155 153.592 147.323 154.115 147.659C154.647 147.995 155.025 148.467 155.249 149.073L154.185 149.563C154.017 149.171 153.765 148.863 153.429 148.639C153.093 148.406 152.715 148.289 152.295 148.289C151.912 148.289 151.609 148.387 151.385 148.583C151.161 148.77 151.049 149.008 151.049 149.297C151.049 149.512 151.105 149.689 151.217 149.829C151.329 149.96 151.464 150.063 151.623 150.137C151.781 150.203 151.935 150.259 152.085 150.305L153.317 150.669C153.933 150.847 154.409 151.122 154.745 151.495C155.09 151.869 155.263 152.317 155.263 152.839C155.263 153.259 155.146 153.637 154.913 153.973C154.679 154.309 154.357 154.571 153.947 154.757C153.536 154.944 153.06 155.037 152.519 155.037Z" fill="#191717"/>
<path d="M5.026 229.037C4.19533 229.037 3.46733 228.813 2.842 228.365C2.21667 227.908 1.72667 227.278 1.372 226.475C1.02667 225.663 0.854 224.721 0.854 223.647C0.854 222.565 1.02667 221.622 1.372 220.819C1.72667 220.017 2.212 219.391 2.828 218.943C3.45333 218.495 4.18133 218.271 5.012 218.271C5.84267 218.271 6.566 218.495 7.182 218.943C7.80733 219.391 8.29267 220.021 8.638 220.833C8.99267 221.636 9.17 222.574 9.17 223.647C9.17 224.721 8.99733 225.663 8.652 226.475C8.30667 227.278 7.82133 227.908 7.196 228.365C6.58 228.813 5.85667 229.037 5.026 229.037ZM5.026 227.525C5.53933 227.525 5.98267 227.367 6.356 227.049C6.72933 226.732 7.01867 226.284 7.224 225.705C7.42933 225.127 7.532 224.441 7.532 223.647C7.532 222.854 7.42933 222.168 7.224 221.589C7.01867 221.011 6.72933 220.563 6.356 220.245C5.98267 219.928 5.53467 219.769 5.012 219.769C4.49867 219.769 4.05533 219.928 3.682 220.245C3.30867 220.563 3.01933 221.011 2.814 221.589C2.60867 222.168 2.506 222.854 2.506 223.647C2.506 224.431 2.60867 225.117 2.814 225.705C3.01933 226.284 3.30867 226.732 3.682 227.049C4.06467 227.367 4.51267 227.525 5.026 227.525ZM14.1235 229.037C13.5635 229.037 13.0362 228.935 12.5415 228.729C12.0562 228.524 11.6362 228.235 11.2815 227.861C10.9362 227.488 10.6888 227.049 10.5395 226.545L11.9395 226.013C12.1262 226.508 12.4108 226.891 12.7935 227.161C13.1762 227.432 13.6195 227.567 14.1235 227.567C14.5342 227.567 14.8888 227.488 15.1875 227.329C15.4955 227.171 15.7335 226.947 15.9015 226.657C16.0788 226.368 16.1675 226.018 16.1675 225.607C16.1675 225.206 16.0788 224.861 15.9015 224.571C15.7335 224.282 15.4955 224.063 15.1875 223.913C14.8888 223.764 14.5342 223.689 14.1235 223.689C13.9555 223.689 13.7828 223.703 13.6055 223.731C13.4375 223.759 13.2882 223.797 13.1575 223.843L12.7935 223.073L15.5375 219.839H11.0995V218.439H17.3855V219.769L14.6975 222.989L14.6555 222.457C15.2808 222.467 15.8315 222.607 16.3075 222.877C16.7835 223.139 17.1522 223.503 17.4135 223.969C17.6842 224.427 17.8195 224.959 17.8195 225.565C17.8195 226.219 17.6608 226.811 17.3435 227.343C17.0262 227.866 16.5875 228.281 16.0275 228.589C15.4768 228.888 14.8422 229.037 14.1235 229.037Z" fill="#298A5A"/>
<path d="M31.078 228.869V218.439H34.872C35.572 218.439 36.188 218.57 36.72 218.831C37.2613 219.083 37.6813 219.457 37.98 219.951C38.2787 220.437 38.428 221.02 38.428 221.701C38.428 222.373 38.274 222.952 37.966 223.437C37.6673 223.923 37.252 224.296 36.72 224.557C36.188 224.819 35.572 224.949 34.872 224.949H32.73V228.869H31.078ZM32.73 223.479H34.914C35.2873 223.479 35.614 223.405 35.894 223.255C36.174 223.106 36.3933 222.901 36.552 222.639C36.7107 222.369 36.79 222.051 36.79 221.687C36.79 221.323 36.7107 221.011 36.552 220.749C36.3933 220.479 36.174 220.273 35.894 220.133C35.614 219.984 35.2873 219.909 34.914 219.909H32.73V223.479ZM39.9748 228.869V218.271H41.5568V228.869H39.9748ZM45.6744 229.037C45.1611 229.037 44.7084 228.949 44.3164 228.771C43.9338 228.585 43.6351 228.333 43.4204 228.015C43.2058 227.689 43.0984 227.306 43.0984 226.867C43.0984 226.457 43.1871 226.088 43.3644 225.761C43.5511 225.435 43.8358 225.159 44.2184 224.935C44.6011 224.711 45.0818 224.553 45.6604 224.459L48.2924 224.025V225.271L45.9684 225.677C45.5484 225.752 45.2404 225.887 45.0444 226.083C44.8484 226.27 44.7504 226.513 44.7504 226.811C44.7504 227.101 44.8578 227.339 45.0724 227.525C45.2964 227.703 45.5811 227.791 45.9264 227.791C46.3558 227.791 46.7291 227.698 47.0464 227.511C47.3731 227.325 47.6251 227.077 47.8024 226.769C47.9798 226.452 48.0684 226.102 48.0684 225.719V223.773C48.0684 223.4 47.9284 223.097 47.6484 222.863C47.3778 222.621 47.0138 222.499 46.5564 222.499C46.1364 222.499 45.7678 222.611 45.4504 222.835C45.1424 223.05 44.9138 223.33 44.7644 223.675L43.4484 223.017C43.5884 222.644 43.8171 222.317 44.1344 222.037C44.4518 221.748 44.8204 221.524 45.2404 221.365C45.6698 221.207 46.1224 221.127 46.5984 221.127C47.1958 221.127 47.7231 221.239 48.1804 221.463C48.6471 221.687 49.0064 222 49.2584 222.401C49.5198 222.793 49.6504 223.251 49.6504 223.773V228.869H48.1384V227.497L48.4604 227.539C48.2831 227.847 48.0544 228.113 47.7744 228.337C47.5038 228.561 47.1911 228.734 46.8364 228.855C46.4911 228.977 46.1038 229.037 45.6744 229.037ZM55.0982 229.037C54.3422 229.037 53.6702 228.865 53.0822 228.519C52.5035 228.165 52.0415 227.689 51.6962 227.091C51.3602 226.494 51.1922 225.817 51.1922 225.061C51.1922 224.315 51.3602 223.643 51.6962 223.045C52.0322 222.448 52.4942 221.981 53.0822 221.645C53.6702 221.3 54.3422 221.127 55.0982 221.127C55.6115 221.127 56.0922 221.221 56.5402 221.407C56.9882 221.585 57.3755 221.832 57.7022 222.149C58.0382 222.467 58.2855 222.835 58.4442 223.255L57.0582 223.899C56.8995 223.507 56.6428 223.195 56.2882 222.961C55.9428 222.719 55.5462 222.597 55.0982 222.597C54.6688 222.597 54.2815 222.705 53.9362 222.919C53.6002 223.125 53.3342 223.419 53.1382 223.801C52.9422 224.175 52.8442 224.599 52.8442 225.075C52.8442 225.551 52.9422 225.981 53.1382 226.363C53.3342 226.737 53.6002 227.031 53.9362 227.245C54.2815 227.46 54.6688 227.567 55.0982 227.567C55.5555 227.567 55.9522 227.451 56.2882 227.217C56.6335 226.975 56.8902 226.653 57.0582 226.251L58.4442 226.909C58.2948 227.311 58.0522 227.675 57.7162 228.001C57.3895 228.319 57.0022 228.571 56.5542 228.757C56.1062 228.944 55.6208 229.037 55.0982 229.037ZM63.5464 229.037C62.7904 229.037 62.1184 228.865 61.5304 228.519C60.9517 228.165 60.4991 227.689 60.1724 227.091C59.8457 226.485 59.6824 225.808 59.6824 225.061C59.6824 224.296 59.8457 223.619 60.1724 223.031C60.5084 222.443 60.9564 221.981 61.5164 221.645C62.0764 221.3 62.7111 221.127 63.4204 221.127C63.9897 221.127 64.4984 221.225 64.9464 221.421C65.3944 221.617 65.7724 221.888 66.0804 222.233C66.3884 222.569 66.6217 222.957 66.7804 223.395C66.9484 223.834 67.0324 224.301 67.0324 224.795C67.0324 224.917 67.0277 225.043 67.0184 225.173C67.0091 225.304 66.9904 225.425 66.9624 225.537H60.9284V224.277H66.0664L65.3104 224.851C65.4037 224.394 65.3711 223.988 65.2124 223.633C65.0631 223.269 64.8297 222.985 64.5124 222.779C64.2044 222.565 63.8404 222.457 63.4204 222.457C63.0004 222.457 62.6271 222.565 62.3004 222.779C61.9737 222.985 61.7217 223.283 61.5444 223.675C61.3671 224.058 61.2971 224.525 61.3344 225.075C61.2877 225.589 61.3577 226.037 61.5444 226.419C61.7404 226.802 62.0111 227.101 62.3564 227.315C62.7111 227.53 63.1124 227.637 63.5604 227.637C64.0177 227.637 64.4051 227.535 64.7224 227.329C65.0491 227.124 65.3057 226.858 65.4924 226.531L66.7804 227.161C66.6311 227.516 66.3977 227.838 66.0804 228.127C65.7724 228.407 65.3991 228.631 64.9604 228.799C64.5311 228.958 64.0597 229.037 63.5464 229.037ZM71.6956 231.949C71.5089 231.949 71.3223 231.931 71.1356 231.893C70.9583 231.865 70.7949 231.819 70.6456 231.753V230.395C70.7576 230.423 70.8929 230.447 71.0516 230.465C71.2103 230.493 71.3643 230.507 71.5136 230.507C71.9523 230.507 72.2743 230.409 72.4796 230.213C72.6943 230.027 72.8856 229.737 73.0536 229.345L73.5576 228.197L73.5296 229.527L70.2536 221.295H71.9476L74.3696 227.609H73.7956L76.2036 221.295H77.9116L74.5656 229.695C74.3883 230.143 74.1643 230.535 73.8936 230.871C73.6323 231.217 73.3196 231.483 72.9556 231.669C72.6009 231.856 72.1809 231.949 71.6956 231.949ZM82.5116 229.037C81.7836 229.037 81.1163 228.865 80.5096 228.519C79.9123 228.174 79.4363 227.703 79.0816 227.105C78.7269 226.508 78.5496 225.831 78.5496 225.075C78.5496 224.31 78.7269 223.633 79.0816 223.045C79.4363 222.448 79.9123 221.981 80.5096 221.645C81.1069 221.3 81.7743 221.127 82.5116 221.127C83.2583 221.127 83.9256 221.3 84.5136 221.645C85.1109 221.981 85.5823 222.448 85.9276 223.045C86.2823 223.633 86.4596 224.31 86.4596 225.075C86.4596 225.841 86.2823 226.522 85.9276 227.119C85.5729 227.717 85.0969 228.188 84.4996 228.533C83.9023 228.869 83.2396 229.037 82.5116 229.037ZM82.5116 227.567C82.9596 227.567 83.3563 227.46 83.7016 227.245C84.0469 227.031 84.3176 226.737 84.5136 226.363C84.7189 225.981 84.8216 225.551 84.8216 225.075C84.8216 224.599 84.7189 224.175 84.5136 223.801C84.3176 223.428 84.0469 223.134 83.7016 222.919C83.3563 222.705 82.9596 222.597 82.5116 222.597C82.0729 222.597 81.6763 222.705 81.3216 222.919C80.9763 223.134 80.7009 223.428 80.4956 223.801C80.2996 224.175 80.2016 224.599 80.2016 225.075C80.2016 225.551 80.2996 225.981 80.4956 226.363C80.7009 226.737 80.9763 227.031 81.3216 227.245C81.6763 227.46 82.0729 227.567 82.5116 227.567ZM90.7061 229.037C90.1367 229.037 89.6374 228.911 89.2081 228.659C88.7787 228.398 88.4427 228.039 88.2001 227.581C87.9667 227.115 87.8501 226.578 87.8501 225.971V221.295H89.4321V225.831C89.4321 226.177 89.5021 226.48 89.6421 226.741C89.7821 227.003 89.9781 227.208 90.2301 227.357C90.4821 227.497 90.7714 227.567 91.0981 227.567C91.4341 227.567 91.7281 227.493 91.9801 227.343C92.2321 227.194 92.4281 226.984 92.5681 226.713C92.7174 226.443 92.7921 226.125 92.7921 225.761V221.295H94.3601V228.869H92.8621V227.385L93.0301 227.581C92.8527 228.048 92.5587 228.407 92.1481 228.659C91.7374 228.911 91.2567 229.037 90.7061 229.037ZM96.2072 228.869V221.295H97.7192V222.821L97.5792 222.597C97.7472 222.103 98.0179 221.748 98.3912 221.533C98.7645 221.309 99.2125 221.197 99.7352 221.197H100.197V222.639H99.5392C99.0165 222.639 98.5919 222.803 98.2652 223.129C97.9479 223.447 97.7892 223.904 97.7892 224.501V228.869H96.2072ZM107.381 229.037C106.653 229.037 105.985 228.865 105.379 228.519C104.781 228.174 104.305 227.703 103.951 227.105C103.596 226.508 103.419 225.831 103.419 225.075C103.419 224.31 103.596 223.633 103.951 223.045C104.305 222.448 104.781 221.981 105.379 221.645C105.976 221.3 106.643 221.127 107.381 221.127C108.127 221.127 108.795 221.3 109.383 221.645C109.98 221.981 110.451 222.448 110.797 223.045C111.151 223.633 111.329 224.31 111.329 225.075C111.329 225.841 111.151 226.522 110.797 227.119C110.442 227.717 109.966 228.188 109.369 228.533C108.771 228.869 108.109 229.037 107.381 229.037ZM107.381 227.567C107.829 227.567 108.225 227.46 108.571 227.245C108.916 227.031 109.187 226.737 109.383 226.363C109.588 225.981 109.691 225.551 109.691 225.075C109.691 224.599 109.588 224.175 109.383 223.801C109.187 223.428 108.916 223.134 108.571 222.919C108.225 222.705 107.829 222.597 107.381 222.597C106.942 222.597 106.545 222.705 106.191 222.919C105.845 223.134 105.57 223.428 105.365 223.801C105.169 224.175 105.071 224.599 105.071 225.075C105.071 225.551 105.169 225.981 105.365 226.363C105.57 226.737 105.845 227.031 106.191 227.245C106.545 227.46 106.942 227.567 107.381 227.567ZM112.873 228.869V221.295H114.385V222.821L114.245 222.597C114.413 222.103 114.684 221.748 115.057 221.533C115.431 221.309 115.879 221.197 116.401 221.197H116.863V222.639H116.205C115.683 222.639 115.258 222.803 114.931 223.129C114.614 223.447 114.455 223.904 114.455 224.501V228.869H112.873ZM121.445 229.037C120.717 229.037 120.064 228.865 119.485 228.519C118.916 228.165 118.463 227.689 118.127 227.091C117.801 226.494 117.637 225.822 117.637 225.075C117.637 224.329 117.805 223.657 118.141 223.059C118.477 222.462 118.93 221.991 119.499 221.645C120.069 221.3 120.713 221.127 121.431 221.127C122.038 221.127 122.575 221.249 123.041 221.491C123.508 221.734 123.877 222.07 124.147 222.499L123.909 222.863V218.271H125.477V228.869H123.979V227.329L124.161 227.623C123.9 228.081 123.527 228.431 123.041 228.673C122.556 228.916 122.024 229.037 121.445 229.037ZM121.599 227.567C122.038 227.567 122.43 227.46 122.775 227.245C123.13 227.031 123.405 226.737 123.601 226.363C123.807 225.981 123.909 225.551 123.909 225.075C123.909 224.599 123.807 224.175 123.601 223.801C123.405 223.428 123.13 223.134 122.775 222.919C122.43 222.705 122.038 222.597 121.599 222.597C121.161 222.597 120.764 222.705 120.409 222.919C120.055 223.134 119.779 223.428 119.583 223.801C119.387 224.175 119.289 224.599 119.289 225.075C119.289 225.551 119.387 225.981 119.583 226.363C119.779 226.737 120.05 227.031 120.395 227.245C120.75 227.46 121.151 227.567 121.599 227.567ZM130.88 229.037C130.124 229.037 129.452 228.865 128.864 228.519C128.286 228.165 127.833 227.689 127.506 227.091C127.18 226.485 127.016 225.808 127.016 225.061C127.016 224.296 127.18 223.619 127.506 223.031C127.842 222.443 128.29 221.981 128.85 221.645C129.41 221.3 130.045 221.127 130.754 221.127C131.324 221.127 131.832 221.225 132.28 221.421C132.728 221.617 133.106 221.888 133.414 222.233C133.722 222.569 133.956 222.957 134.114 223.395C134.282 223.834 134.366 224.301 134.366 224.795C134.366 224.917 134.362 225.043 134.352 225.173C134.343 225.304 134.324 225.425 134.296 225.537H128.262V224.277H133.4L132.644 224.851C132.738 224.394 132.705 223.988 132.546 223.633C132.397 223.269 132.164 222.985 131.846 222.779C131.538 222.565 131.174 222.457 130.754 222.457C130.334 222.457 129.961 222.565 129.634 222.779C129.308 222.985 129.056 223.283 128.878 223.675C128.701 224.058 128.631 224.525 128.668 225.075C128.622 225.589 128.692 226.037 128.878 226.419C129.074 226.802 129.345 227.101 129.69 227.315C130.045 227.53 130.446 227.637 130.894 227.637C131.352 227.637 131.739 227.535 132.056 227.329C132.383 227.124 132.64 226.858 132.826 226.531L134.114 227.161C133.965 227.516 133.732 227.838 133.414 228.127C133.106 228.407 132.733 228.631 132.294 228.799C131.865 228.958 131.394 229.037 130.88 229.037ZM135.91 228.869V221.295H137.422V222.821L137.282 222.597C137.45 222.103 137.721 221.748 138.094 221.533C138.468 221.309 138.916 221.197 139.438 221.197H139.9V222.639H139.242C138.72 222.639 138.295 222.803 137.968 223.129C137.651 223.447 137.492 223.904 137.492 224.501V228.869H135.91ZM143.783 229.037C143.008 229.037 142.327 228.846 141.739 228.463C141.16 228.081 140.754 227.567 140.521 226.923L141.739 226.349C141.944 226.779 142.224 227.119 142.579 227.371C142.943 227.623 143.344 227.749 143.783 227.749C144.156 227.749 144.459 227.665 144.693 227.497C144.926 227.329 145.043 227.101 145.043 226.811C145.043 226.625 144.991 226.475 144.889 226.363C144.786 226.242 144.655 226.144 144.497 226.069C144.347 225.995 144.193 225.939 144.035 225.901L142.845 225.565C142.191 225.379 141.701 225.099 141.375 224.725C141.057 224.343 140.899 223.899 140.899 223.395C140.899 222.938 141.015 222.541 141.249 222.205C141.482 221.86 141.804 221.594 142.215 221.407C142.625 221.221 143.087 221.127 143.601 221.127C144.291 221.127 144.907 221.3 145.449 221.645C145.99 221.981 146.373 222.453 146.597 223.059L145.379 223.633C145.229 223.269 144.991 222.98 144.665 222.765C144.347 222.551 143.988 222.443 143.587 222.443C143.241 222.443 142.966 222.527 142.761 222.695C142.555 222.854 142.453 223.064 142.453 223.325C142.453 223.503 142.499 223.652 142.593 223.773C142.686 223.885 142.807 223.979 142.957 224.053C143.106 224.119 143.26 224.175 143.419 224.221L144.651 224.585C145.276 224.763 145.757 225.043 146.093 225.425C146.429 225.799 146.597 226.247 146.597 226.769C146.597 227.217 146.475 227.614 146.233 227.959C145.999 228.295 145.673 228.561 145.253 228.757C144.833 228.944 144.343 229.037 143.783 229.037Z" fill="#298A5A"/>
<rect y="264.06" width="36" height="38" rx="8" fill="#054425"/>
<path d="M12.241 276.736C12.0883 276.892 12 277.135 12 277.45V288.67C12 288.985 12.0883 289.227 12.241 289.383L12.2787 289.418L18.7185 283.133V282.984L12.2787 276.699L12.241 276.736Z" fill="url(#paint0_linear_3116_2729)"/>
<path d="M20.863 285.229L18.7188 283.133V282.984L20.8656 280.888L20.9136 280.916L23.4561 282.328C24.1816 282.729 24.1816 283.388 23.4561 283.792L20.9136 285.201L20.863 285.229Z" fill="url(#paint1_linear_3116_2729)"/>
<path d="M20.9136 285.201L18.7187 283.058L12.2412 289.383C12.4822 289.631 12.8752 289.661 13.3221 289.413L20.9136 285.201Z" fill="url(#paint2_linear_3116_2729)"/>
<path d="M20.9136 280.916L13.3221 276.704C12.8752 276.459 12.4822 276.489 12.2412 276.736L18.7187 283.059L20.9136 280.916Z" fill="url(#paint3_linear_3116_2729)"/>
<rect x="44" y="263.869" width="36" height="38.3806" rx="8" fill="#054425"/>
<path d="M66.0227 283.517C66.006 281.7 67.5485 280.816 67.619 280.775C66.7454 279.533 65.3914 279.364 64.9156 279.35C63.7784 279.233 62.6753 280.014 62.096 280.014C61.5051 280.014 60.6131 279.361 59.6516 279.381C58.4144 279.399 57.2569 280.098 56.6221 281.182C55.3121 283.394 56.2891 286.643 57.5443 288.431C58.1721 289.306 58.9058 290.283 59.8661 290.249C60.8056 290.211 61.1565 289.665 62.2903 289.665C63.4136 289.665 63.7431 290.249 64.7225 290.227C65.7308 290.211 66.3656 289.348 66.9715 288.464C67.6971 287.461 67.9884 286.473 68 286.422C67.9763 286.414 66.0418 285.694 66.0227 283.517Z" fill="white"/>
<path d="M64.1727 278.174C64.678 277.558 65.0237 276.72 64.9277 275.869C64.1964 275.901 63.2818 276.363 62.7551 276.965C62.2891 277.496 61.8728 278.367 61.9804 279.185C62.8019 279.245 63.6454 278.781 64.1727 278.174Z" fill="white"/>
<defs>
<linearGradient id="paint0_linear_3116_2729" x1="18.1467" y1="288.787" x2="9.63441" y2="280.068" gradientUnits="userSpaceOnUse">
<stop stop-color="#00A0FF"/>
<stop offset="0.0066" stop-color="#00A1FF"/>
<stop offset="0.2601" stop-color="#00BEFF"/>
<stop offset="0.5122" stop-color="#00D2FF"/>
<stop offset="0.7604" stop-color="#00DFFF"/>
<stop offset="1" stop-color="#00E3FF"/>
</linearGradient>
<linearGradient id="paint1_linear_3116_2729" x1="24.4009" y1="283.058" x2="11.8268" y2="283.058" gradientUnits="userSpaceOnUse">
<stop stop-color="#FFE000"/>
<stop offset="0.4087" stop-color="#FFBD00"/>
<stop offset="0.7754" stop-color="#FFA500"/>
<stop offset="1" stop-color="#FF9C00"/>
</linearGradient>
<linearGradient id="paint2_linear_3116_2729" x1="19.7201" y1="281.894" x2="8.17671" y2="270.07" gradientUnits="userSpaceOnUse">
<stop stop-color="#FF3A44"/>
<stop offset="1" stop-color="#C31162"/>
</linearGradient>
<linearGradient id="paint3_linear_3116_2729" x1="10.6107" y1="293.116" x2="15.7653" y2="287.837" gradientUnits="userSpaceOnUse">
<stop stop-color="#32A071"/>
<stop offset="0.0685" stop-color="#2DA771"/>
<stop offset="0.4762" stop-color="#15CF74"/>
<stop offset="0.8009" stop-color="#06E775"/>
<stop offset="1" stop-color="#00F076"/>
</linearGradient>
</defs>
</svg>
