<svg width="608" height="301" viewBox="0 0 608 301" fill="none" xmlns="http://www.w3.org/2000/svg">
<path d="M3.456 50V14.24H9.984V50H3.456ZM28.2383 50.288C25.2943 50.288 23.0063 49.488 21.3743 47.888C19.7743 46.256 18.9743 43.968 18.9743 41.024V29.504H14.4623V23.888H14.9423C16.2223 23.888 17.2143 23.552 17.9183 22.88C18.6223 22.208 18.9743 21.232 18.9743 19.952V17.936H25.2623V23.888H31.2623V29.504H25.2623V40.688C25.2623 41.552 25.4063 42.288 25.6943 42.896C26.0143 43.504 26.4943 43.968 27.1343 44.288C27.8063 44.608 28.6543 44.768 29.6783 44.768C29.9023 44.768 30.1583 44.752 30.4463 44.72C30.7663 44.688 31.0703 44.656 31.3583 44.624V50C30.9103 50.064 30.3983 50.128 29.8223 50.192C29.2463 50.256 28.7183 50.288 28.2383 50.288ZM56.5976 50.288C53.6536 50.288 51.3656 49.488 49.7336 47.888C48.1336 46.256 47.3336 43.968 47.3336 41.024V29.504H42.8216V23.888H43.3016C44.5816 23.888 45.5736 23.552 46.2776 22.88C46.9816 22.208 47.3336 21.232 47.3336 19.952V17.936H53.6216V23.888H59.6216V29.504H53.6216V40.688C53.6216 41.552 53.7656 42.288 54.0536 42.896C54.3736 43.504 54.8536 43.968 55.4936 44.288C56.1656 44.608 57.0136 44.768 58.0376 44.768C58.2616 44.768 58.5176 44.752 58.8056 44.72C59.1256 44.688 59.4296 44.656 59.7176 44.624V50C59.2696 50.064 58.7576 50.128 58.1816 50.192C57.6056 50.256 57.0776 50.288 56.5976 50.288ZM72.348 50.576C70.524 50.576 68.94 50.272 67.596 49.664C66.252 49.056 65.212 48.192 64.476 47.072C63.74 45.92 63.372 44.592 63.372 43.088C63.372 41.648 63.692 40.368 64.332 39.248C64.972 38.096 65.964 37.136 67.308 36.368C68.652 35.6 70.348 35.056 72.396 34.736L80.94 33.344V38.144L73.596 39.392C72.348 39.616 71.42 40.016 70.812 40.592C70.204 41.168 69.9 41.92 69.9 42.848C69.9 43.744 70.236 44.464 70.908 45.008C71.612 45.52 72.476 45.776 73.5 45.776C74.812 45.776 75.964 45.504 76.956 44.96C77.98 44.384 78.764 43.6 79.308 42.608C79.884 41.616 80.172 40.528 80.172 39.344V32.624C80.172 31.504 79.724 30.576 78.828 29.84C77.964 29.072 76.812 28.688 75.372 28.688C74.028 28.688 72.828 29.056 71.772 29.792C70.748 30.496 69.996 31.44 69.516 32.624L64.38 30.128C64.892 28.752 65.692 27.568 66.78 26.576C67.9 25.552 69.212 24.752 70.716 24.176C72.22 23.6 73.852 23.312 75.612 23.312C77.756 23.312 79.644 23.712 81.276 24.512C82.908 25.28 84.172 26.368 85.068 27.776C85.996 29.152 86.46 30.768 86.46 32.624V50H80.508V45.536L81.852 45.44C81.18 46.56 80.38 47.504 79.452 48.272C78.524 49.008 77.468 49.584 76.284 50C75.1 50.384 73.788 50.576 72.348 50.576ZM92.2718 50V13.664H98.5598V37.472L96.1598 36.752L108.448 23.888H116.272L106.624 34.4L116.464 50H109.264L100.72 36.464L104.464 35.696L96.5918 44.144L98.5598 40.304V50H92.2718ZM131.89 50.576C129.202 50.576 126.85 49.968 124.834 48.752C122.818 47.536 121.25 45.888 120.13 43.808C119.01 41.728 118.45 39.424 118.45 36.896C118.45 34.272 119.01 31.952 120.13 29.936C121.282 27.888 122.834 26.272 124.786 25.088C126.77 23.904 128.978 23.312 131.41 23.312C133.458 23.312 135.25 23.648 136.786 24.32C138.354 24.992 139.682 25.92 140.77 27.104C141.858 28.288 142.69 29.648 143.266 31.184C143.842 32.688 144.13 34.32 144.13 36.08C144.13 36.528 144.098 36.992 144.034 37.472C144.002 37.952 143.922 38.368 143.794 38.72H123.634V33.92H140.242L137.266 36.176C137.554 34.704 137.474 33.392 137.026 32.24C136.61 31.088 135.906 30.176 134.914 29.504C133.954 28.832 132.786 28.496 131.41 28.496C130.098 28.496 128.93 28.832 127.906 29.504C126.882 30.144 126.098 31.104 125.554 32.384C125.042 33.632 124.85 35.152 124.978 36.944C124.85 38.544 125.058 39.968 125.602 41.216C126.178 42.432 127.01 43.376 128.098 44.048C129.218 44.72 130.498 45.056 131.938 45.056C133.378 45.056 134.594 44.752 135.586 44.144C136.61 43.536 137.41 42.72 137.986 41.696L143.074 44.192C142.562 45.44 141.762 46.544 140.674 47.504C139.586 48.464 138.29 49.216 136.786 49.76C135.314 50.304 133.682 50.576 131.89 50.576ZM158.833 50.576C156.049 50.576 153.617 49.92 151.537 48.608C149.489 47.264 148.081 45.456 147.313 43.184L152.017 40.928C152.689 42.4 153.617 43.552 154.801 44.384C156.017 45.216 157.361 45.632 158.833 45.632C159.985 45.632 160.897 45.376 161.569 44.864C162.241 44.352 162.577 43.68 162.577 42.848C162.577 42.336 162.433 41.92 162.145 41.6C161.889 41.248 161.521 40.96 161.041 40.736C160.593 40.48 160.097 40.272 159.553 40.112L155.281 38.912C153.073 38.272 151.393 37.296 150.241 35.984C149.121 34.672 148.561 33.12 148.561 31.328C148.561 29.728 148.961 28.336 149.761 27.152C150.593 25.936 151.729 24.992 153.169 24.32C154.641 23.648 156.321 23.312 158.209 23.312C160.673 23.312 162.849 23.904 164.737 25.088C166.625 26.272 167.969 27.936 168.769 30.08L163.969 32.336C163.521 31.152 162.769 30.208 161.713 29.504C160.657 28.8 159.473 28.448 158.161 28.448C157.105 28.448 156.273 28.688 155.665 29.168C155.057 29.648 154.753 30.272 154.753 31.04C154.753 31.52 154.881 31.936 155.137 32.288C155.393 32.64 155.745 32.928 156.193 33.152C156.673 33.376 157.217 33.584 157.825 33.776L162.001 35.024C164.145 35.664 165.793 36.624 166.945 37.904C168.129 39.184 168.721 40.752 168.721 42.608C168.721 44.176 168.305 45.568 167.473 46.784C166.641 47.968 165.489 48.896 164.017 49.568C162.545 50.24 160.817 50.576 158.833 50.576ZM178.484 60.608C178.068 60.608 177.636 60.592 177.188 60.56C176.74 60.528 176.372 60.48 176.084 60.416V54.944C176.66 55.04 177.236 55.088 177.812 55.088C179.156 55.088 180.196 54.768 180.932 54.128C181.7 53.52 182.084 52.576 182.084 51.296V23.888H188.372V51.296C188.372 53.28 187.972 54.96 187.172 56.336C186.372 57.744 185.22 58.8 183.716 59.504C182.244 60.24 180.5 60.608 178.484 60.608ZM182.084 20.96V14.24H188.372V20.96H182.084ZM203.49 50.576C201.474 50.576 199.714 50.128 198.21 49.232C196.738 48.336 195.602 47.088 194.802 45.488C194.034 43.888 193.65 42.016 193.65 39.872V23.888H199.938V39.344C199.938 40.432 200.146 41.392 200.562 42.224C201.01 43.024 201.634 43.664 202.434 44.144C203.266 44.592 204.194 44.816 205.218 44.816C206.242 44.816 207.154 44.592 207.954 44.144C208.754 43.664 209.378 43.008 209.826 42.176C210.274 41.344 210.498 40.352 210.498 39.2V23.888H216.786V50H210.834V44.864L211.362 45.776C210.754 47.376 209.746 48.576 208.338 49.376C206.962 50.176 205.346 50.576 203.49 50.576ZM232.567 50.576C229.783 50.576 227.351 49.92 225.271 48.608C223.223 47.264 221.815 45.456 221.047 43.184L225.751 40.928C226.423 42.4 227.351 43.552 228.535 44.384C229.751 45.216 231.095 45.632 232.567 45.632C233.719 45.632 234.631 45.376 235.303 44.864C235.975 44.352 236.311 43.68 236.311 42.848C236.311 42.336 236.167 41.92 235.879 41.6C235.623 41.248 235.255 40.96 234.775 40.736C234.327 40.48 233.831 40.272 233.287 40.112L229.015 38.912C226.807 38.272 225.127 37.296 223.975 35.984C222.855 34.672 222.295 33.12 222.295 31.328C222.295 29.728 222.695 28.336 223.495 27.152C224.327 25.936 225.463 24.992 226.903 24.32C228.375 23.648 230.055 23.312 231.943 23.312C234.407 23.312 236.583 23.904 238.471 25.088C240.359 26.272 241.703 27.936 242.503 30.08L237.703 32.336C237.255 31.152 236.503 30.208 235.447 29.504C234.391 28.8 233.207 28.448 231.895 28.448C230.839 28.448 230.007 28.688 229.399 29.168C228.791 29.648 228.487 30.272 228.487 31.04C228.487 31.52 228.615 31.936 228.871 32.288C229.127 32.64 229.479 32.928 229.927 33.152C230.407 33.376 230.951 33.584 231.559 33.776L235.735 35.024C237.879 35.664 239.527 36.624 240.679 37.904C241.863 39.184 242.455 40.752 242.455 42.608C242.455 44.176 242.039 45.568 241.207 46.784C240.375 47.968 239.223 48.896 237.751 49.568C236.279 50.24 234.551 50.576 232.567 50.576ZM259.191 50.288C256.247 50.288 253.959 49.488 252.327 47.888C250.727 46.256 249.927 43.968 249.927 41.024V29.504H245.415V23.888H245.895C247.175 23.888 248.167 23.552 248.871 22.88C249.575 22.208 249.927 21.232 249.927 19.952V17.936H256.215V23.888H262.215V29.504H256.215V40.688C256.215 41.552 256.359 42.288 256.647 42.896C256.967 43.504 257.447 43.968 258.087 44.288C258.759 44.608 259.607 44.768 260.631 44.768C260.855 44.768 261.111 44.752 261.399 44.72C261.719 44.688 262.023 44.656 262.311 44.624V50C261.863 50.064 261.351 50.128 260.775 50.192C260.199 50.256 259.671 50.288 259.191 50.288ZM286.783 50.576C284.831 50.576 282.975 50.224 281.215 49.52C279.487 48.784 277.999 47.76 276.751 46.448C275.535 45.104 274.703 43.52 274.255 41.696L279.967 39.68C280.543 41.312 281.423 42.56 282.607 43.424C283.791 44.256 285.183 44.672 286.783 44.672C288.063 44.672 289.167 44.432 290.095 43.952C291.055 43.472 291.807 42.784 292.351 41.888C292.895 40.96 293.167 39.872 293.167 38.624C293.167 37.376 292.895 36.32 292.351 35.456C291.839 34.56 291.103 33.872 290.143 33.392C289.183 32.912 288.047 32.672 286.735 32.672C286.127 32.672 285.487 32.736 284.815 32.864C284.175 32.992 283.599 33.184 283.087 33.44L281.599 30.32L290.863 19.76H276.271V14.24H298.207V19.376L288.895 30.272L288.991 27.824C291.135 27.856 293.007 28.32 294.607 29.216C296.207 30.112 297.455 31.344 298.351 32.912C299.247 34.48 299.695 36.32 299.695 38.432C299.695 40.736 299.135 42.816 298.015 44.672C296.895 46.496 295.359 47.936 293.407 48.992C291.455 50.048 289.247 50.576 286.783 50.576ZM323.458 50.576C320.674 50.576 318.242 49.92 316.162 48.608C314.114 47.264 312.706 45.456 311.938 43.184L316.642 40.928C317.314 42.4 318.242 43.552 319.426 44.384C320.642 45.216 321.986 45.632 323.458 45.632C324.61 45.632 325.522 45.376 326.194 44.864C326.866 44.352 327.202 43.68 327.202 42.848C327.202 42.336 327.058 41.92 326.77 41.6C326.514 41.248 326.146 40.96 325.666 40.736C325.218 40.48 324.722 40.272 324.178 40.112L319.906 38.912C317.698 38.272 316.018 37.296 314.866 35.984C313.746 34.672 313.186 33.12 313.186 31.328C313.186 29.728 313.586 28.336 314.386 27.152C315.218 25.936 316.354 24.992 317.794 24.32C319.266 23.648 320.946 23.312 322.834 23.312C325.298 23.312 327.474 23.904 329.362 25.088C331.25 26.272 332.594 27.936 333.394 30.08L328.594 32.336C328.146 31.152 327.394 30.208 326.338 29.504C325.282 28.8 324.098 28.448 322.786 28.448C321.73 28.448 320.898 28.688 320.29 29.168C319.682 29.648 319.378 30.272 319.378 31.04C319.378 31.52 319.506 31.936 319.762 32.288C320.018 32.64 320.37 32.928 320.818 33.152C321.298 33.376 321.842 33.584 322.45 33.776L326.626 35.024C328.77 35.664 330.418 36.624 331.57 37.904C332.754 39.184 333.346 40.752 333.346 42.608C333.346 44.176 332.93 45.568 332.098 46.784C331.266 47.968 330.114 48.896 328.642 49.568C327.17 50.24 325.442 50.576 323.458 50.576ZM338.178 50V23.888H344.466V50H338.178ZM338.178 20.96V14.24H344.466V20.96H338.178ZM350.272 50V23.888H356.176V29.936L355.504 28.928C355.984 27.04 356.944 25.632 358.384 24.704C359.824 23.776 361.52 23.312 363.472 23.312C365.616 23.312 367.504 23.872 369.136 24.992C370.768 26.112 371.824 27.584 372.304 29.408L370.528 29.552C371.328 27.472 372.528 25.92 374.128 24.896C375.728 23.84 377.568 23.312 379.648 23.312C381.504 23.312 383.152 23.728 384.592 24.56C386.064 25.392 387.216 26.56 388.048 28.064C388.88 29.536 389.296 31.248 389.296 33.2V50H383.008V34.688C383.008 33.536 382.8 32.544 382.384 31.712C381.968 30.88 381.392 30.24 380.656 29.792C379.92 29.312 379.024 29.072 377.968 29.072C376.976 29.072 376.096 29.312 375.328 29.792C374.56 30.24 373.968 30.88 373.552 31.712C373.136 32.544 372.928 33.536 372.928 34.688V50H366.64V34.688C366.64 33.536 366.432 32.544 366.016 31.712C365.6 30.88 365.008 30.24 364.24 29.792C363.504 29.312 362.624 29.072 361.6 29.072C360.608 29.072 359.728 29.312 358.96 29.792C358.192 30.24 357.6 30.88 357.184 31.712C356.768 32.544 356.56 33.536 356.56 34.688V50H350.272ZM394.616 59.6V23.888H400.52V29.072L399.944 27.776C400.84 26.368 402.056 25.28 403.592 24.512C405.128 23.712 406.904 23.312 408.92 23.312C411.384 23.312 413.608 23.92 415.592 25.136C417.576 26.352 419.144 27.984 420.296 30.032C421.48 32.08 422.072 34.384 422.072 36.944C422.072 39.472 421.496 41.776 420.344 43.856C419.192 45.936 417.624 47.584 415.64 48.8C413.656 49.984 411.4 50.576 408.872 50.576C406.984 50.576 405.24 50.208 403.64 49.472C402.072 48.704 400.824 47.616 399.896 46.208L400.904 44.96V59.6H394.616ZM408.152 44.816C409.592 44.816 410.872 44.48 411.992 43.808C413.112 43.136 413.976 42.208 414.584 41.024C415.224 39.84 415.544 38.48 415.544 36.944C415.544 35.408 415.224 34.064 414.584 32.912C413.976 31.728 413.112 30.8 411.992 30.128C410.872 29.424 409.592 29.072 408.152 29.072C406.776 29.072 405.528 29.408 404.408 30.08C403.32 30.752 402.456 31.696 401.816 32.912C401.208 34.096 400.904 35.44 400.904 36.944C400.904 38.48 401.208 39.84 401.816 41.024C402.456 42.208 403.32 43.136 404.408 43.808C405.528 44.48 406.776 44.816 408.152 44.816ZM426.866 50V13.664H433.154V50H426.866ZM451.343 50.576C448.655 50.576 446.303 49.968 444.287 48.752C442.271 47.536 440.703 45.888 439.583 43.808C438.463 41.728 437.903 39.424 437.903 36.896C437.903 34.272 438.463 31.952 439.583 29.936C440.735 27.888 442.287 26.272 444.239 25.088C446.223 23.904 448.431 23.312 450.863 23.312C452.911 23.312 454.703 23.648 456.239 24.32C457.807 24.992 459.135 25.92 460.223 27.104C461.311 28.288 462.143 29.648 462.719 31.184C463.295 32.688 463.583 34.32 463.583 36.08C463.583 36.528 463.551 36.992 463.487 37.472C463.455 37.952 463.375 38.368 463.247 38.72H443.087V33.92H459.695L456.719 36.176C457.007 34.704 456.927 33.392 456.479 32.24C456.063 31.088 455.359 30.176 454.367 29.504C453.407 28.832 452.239 28.496 450.863 28.496C449.551 28.496 448.383 28.832 447.359 29.504C446.335 30.144 445.551 31.104 445.007 32.384C444.495 33.632 444.303 35.152 444.431 36.944C444.303 38.544 444.511 39.968 445.055 41.216C445.631 42.432 446.463 43.376 447.551 44.048C448.671 44.72 449.951 45.056 451.391 45.056C452.831 45.056 454.047 44.752 455.039 44.144C456.063 43.536 456.863 42.72 457.439 41.696L462.527 44.192C462.015 45.44 461.215 46.544 460.127 47.504C459.039 48.464 457.743 49.216 456.239 49.76C454.767 50.304 453.135 50.576 451.343 50.576ZM486.817 50.576C484.033 50.576 481.601 49.92 479.521 48.608C477.473 47.264 476.065 45.456 475.297 43.184L480.001 40.928C480.673 42.4 481.601 43.552 482.785 44.384C484.001 45.216 485.345 45.632 486.817 45.632C487.969 45.632 488.881 45.376 489.553 44.864C490.225 44.352 490.561 43.68 490.561 42.848C490.561 42.336 490.417 41.92 490.129 41.6C489.873 41.248 489.505 40.96 489.025 40.736C488.577 40.48 488.081 40.272 487.537 40.112L483.265 38.912C481.057 38.272 479.377 37.296 478.225 35.984C477.105 34.672 476.545 33.12 476.545 31.328C476.545 29.728 476.945 28.336 477.745 27.152C478.577 25.936 479.713 24.992 481.153 24.32C482.625 23.648 484.305 23.312 486.193 23.312C488.657 23.312 490.833 23.904 492.721 25.088C494.609 26.272 495.953 27.936 496.753 30.08L491.953 32.336C491.505 31.152 490.753 30.208 489.697 29.504C488.641 28.8 487.457 28.448 486.145 28.448C485.089 28.448 484.257 28.688 483.649 29.168C483.041 29.648 482.737 30.272 482.737 31.04C482.737 31.52 482.865 31.936 483.121 32.288C483.377 32.64 483.729 32.928 484.177 33.152C484.657 33.376 485.201 33.584 485.809 33.776L489.985 35.024C492.129 35.664 493.777 36.624 494.929 37.904C496.113 39.184 496.705 40.752 496.705 42.608C496.705 44.176 496.289 45.568 495.457 46.784C494.625 47.968 493.473 48.896 492.001 49.568C490.529 50.24 488.801 50.576 486.817 50.576ZM513.441 50.288C510.497 50.288 508.209 49.488 506.577 47.888C504.977 46.256 504.177 43.968 504.177 41.024V29.504H499.665V23.888H500.145C501.425 23.888 502.417 23.552 503.121 22.88C503.825 22.208 504.177 21.232 504.177 19.952V17.936H510.465V23.888H516.465V29.504H510.465V40.688C510.465 41.552 510.609 42.288 510.897 42.896C511.217 43.504 511.697 43.968 512.337 44.288C513.009 44.608 513.857 44.768 514.881 44.768C515.105 44.768 515.361 44.752 515.649 44.72C515.969 44.688 516.273 44.656 516.561 44.624V50C516.113 50.064 515.601 50.128 515.025 50.192C514.449 50.256 513.921 50.288 513.441 50.288ZM533.515 50.576C530.827 50.576 528.475 49.968 526.459 48.752C524.443 47.536 522.875 45.888 521.755 43.808C520.635 41.728 520.075 39.424 520.075 36.896C520.075 34.272 520.635 31.952 521.755 29.936C522.907 27.888 524.459 26.272 526.411 25.088C528.395 23.904 530.603 23.312 533.035 23.312C535.083 23.312 536.875 23.648 538.411 24.32C539.979 24.992 541.307 25.92 542.395 27.104C543.483 28.288 544.315 29.648 544.891 31.184C545.467 32.688 545.755 34.32 545.755 36.08C545.755 36.528 545.723 36.992 545.659 37.472C545.627 37.952 545.547 38.368 545.419 38.72H525.259V33.92H541.867L538.891 36.176C539.179 34.704 539.099 33.392 538.651 32.24C538.235 31.088 537.531 30.176 536.539 29.504C535.579 28.832 534.411 28.496 533.035 28.496C531.723 28.496 530.555 28.832 529.531 29.504C528.507 30.144 527.723 31.104 527.179 32.384C526.667 33.632 526.475 35.152 526.603 36.944C526.475 38.544 526.683 39.968 527.227 41.216C527.803 42.432 528.635 43.376 529.723 44.048C530.843 44.72 532.123 45.056 533.563 45.056C535.003 45.056 536.219 44.752 537.211 44.144C538.235 43.536 539.035 42.72 539.611 41.696L544.699 44.192C544.187 45.44 543.387 46.544 542.299 47.504C541.211 48.464 539.915 49.216 538.411 49.76C536.939 50.304 535.307 50.576 533.515 50.576ZM550.522 59.6V23.888H556.426V29.072L555.85 27.776C556.746 26.368 557.962 25.28 559.498 24.512C561.034 23.712 562.81 23.312 564.826 23.312C567.29 23.312 569.514 23.92 571.498 25.136C573.482 26.352 575.05 27.984 576.202 30.032C577.386 32.08 577.978 34.384 577.978 36.944C577.978 39.472 577.402 41.776 576.25 43.856C575.098 45.936 573.53 47.584 571.546 48.8C569.562 49.984 567.306 50.576 564.778 50.576C562.89 50.576 561.146 50.208 559.546 49.472C557.978 48.704 556.73 47.616 555.802 46.208L556.81 44.96V59.6H550.522ZM564.058 44.816C565.498 44.816 566.778 44.48 567.898 43.808C569.018 43.136 569.882 42.208 570.49 41.024C571.13 39.84 571.45 38.48 571.45 36.944C571.45 35.408 571.13 34.064 570.49 32.912C569.882 31.728 569.018 30.8 567.898 30.128C566.778 29.424 565.498 29.072 564.058 29.072C562.682 29.072 561.434 29.408 560.314 30.08C559.226 30.752 558.362 31.696 557.722 32.912C557.114 34.096 556.81 35.44 556.81 36.944C556.81 38.48 557.114 39.84 557.722 41.024C558.362 42.208 559.226 43.136 560.314 43.808C561.434 44.48 562.682 44.816 564.058 44.816ZM592.708 50.576C589.924 50.576 587.492 49.92 585.412 48.608C583.364 47.264 581.956 45.456 581.188 43.184L585.892 40.928C586.564 42.4 587.492 43.552 588.676 44.384C589.892 45.216 591.236 45.632 592.708 45.632C593.86 45.632 594.772 45.376 595.444 44.864C596.116 44.352 596.452 43.68 596.452 42.848C596.452 42.336 596.308 41.92 596.02 41.6C595.764 41.248 595.396 40.96 594.916 40.736C594.468 40.48 593.972 40.272 593.428 40.112L589.156 38.912C586.948 38.272 585.268 37.296 584.116 35.984C582.996 34.672 582.436 33.12 582.436 31.328C582.436 29.728 582.836 28.336 583.636 27.152C584.468 25.936 585.604 24.992 587.044 24.32C588.516 23.648 590.196 23.312 592.084 23.312C594.548 23.312 596.724 23.904 598.612 25.088C600.5 26.272 601.844 27.936 602.644 30.08L597.844 32.336C597.396 31.152 596.644 30.208 595.588 29.504C594.532 28.8 593.348 28.448 592.036 28.448C590.98 28.448 590.148 28.688 589.54 29.168C588.932 29.648 588.628 30.272 588.628 31.04C588.628 31.52 588.756 31.936 589.012 32.288C589.268 32.64 589.62 32.928 590.068 33.152C590.548 33.376 591.092 33.584 591.7 33.776L595.876 35.024C598.02 35.664 599.668 36.624 600.82 37.904C602.004 39.184 602.596 40.752 602.596 42.608C602.596 44.176 602.18 45.568 601.348 46.784C600.516 47.968 599.364 48.896 597.892 49.568C596.42 50.24 594.692 50.576 592.708 50.576Z" fill="#191717"/>
<path d="M13.4285 125.384C11.5298 125.384 9.86583 124.872 8.4365 123.848C7.0285 122.803 5.92983 121.363 5.1405 119.528C4.35117 117.672 3.9565 115.517 3.9565 113.064C3.9565 110.611 4.35117 108.467 5.1405 106.632C5.92983 104.776 7.0285 103.336 8.4365 102.312C9.8445 101.288 11.4978 100.776 13.3965 100.776C15.2952 100.776 16.9485 101.288 18.3565 102.312C19.7645 103.336 20.8632 104.776 21.6525 106.632C22.4632 108.467 22.8685 110.611 22.8685 113.064C22.8685 115.517 22.4738 117.672 21.6845 119.528C20.8952 121.384 19.7858 122.824 18.3565 123.848C16.9485 124.872 15.3058 125.384 13.4285 125.384ZM13.4285 122.472C14.7085 122.472 15.8178 122.088 16.7565 121.32C17.6952 120.531 18.4205 119.432 18.9325 118.024C19.4658 116.616 19.7325 114.963 19.7325 113.064C19.7325 111.165 19.4658 109.512 18.9325 108.104C18.4205 106.696 17.6845 105.608 16.7245 104.84C15.7858 104.072 14.6765 103.688 13.3965 103.688C12.1165 103.688 11.0072 104.072 10.0685 104.84C9.12983 105.608 8.39383 106.696 7.8605 108.104C7.3485 109.512 7.0925 111.165 7.0925 113.064C7.0925 114.941 7.3485 116.584 7.8605 117.992C8.39383 119.4 9.12983 120.499 10.0685 121.288C11.0285 122.077 12.1485 122.472 13.4285 122.472ZM30.6648 125V103.88H26.1528V101.16H33.8328V125H30.6648Z" fill="#191717"/>
<path d="M61.656 125V101.16H69.464C71.8747 101.16 73.976 101.651 75.768 102.632C77.56 103.613 78.9467 105 79.928 106.792C80.9093 108.563 81.4 110.653 81.4 113.064C81.4 115.453 80.9093 117.544 79.928 119.336C78.9467 121.128 77.56 122.525 75.768 123.528C73.976 124.509 71.8747 125 69.464 125H61.656ZM64.792 122.12H69.496C71.2667 122.12 72.792 121.747 74.072 121C75.3733 120.253 76.376 119.208 77.08 117.864C77.784 116.499 78.136 114.899 78.136 113.064C78.136 111.208 77.7733 109.608 77.048 108.264C76.344 106.92 75.3413 105.885 74.04 105.16C72.76 104.413 71.2453 104.04 69.496 104.04H64.792V122.12ZM93.2148 125.384C91.5508 125.384 90.0468 125 88.7028 124.232C87.3588 123.443 86.2921 122.365 85.5028 121C84.7134 119.635 84.3188 118.088 84.3188 116.36C84.3188 114.632 84.7028 113.096 85.4708 111.752C86.2601 110.408 87.3268 109.341 88.6708 108.552C90.0148 107.763 91.5294 107.368 93.2148 107.368C94.8788 107.368 96.3828 107.763 97.7268 108.552C99.0708 109.32 100.127 110.376 100.895 111.72C101.684 113.064 102.079 114.611 102.079 116.36C102.079 118.109 101.673 119.667 100.863 121.032C100.052 122.376 98.9748 123.443 97.6308 124.232C96.3081 125 94.8361 125.384 93.2148 125.384ZM93.2148 122.504C94.2814 122.504 95.2414 122.237 96.0948 121.704C96.9694 121.171 97.6521 120.435 98.1428 119.496C98.6548 118.557 98.9108 117.512 98.9108 116.36C98.9108 115.187 98.6548 114.152 98.1428 113.256C97.6521 112.339 96.9694 111.613 96.0948 111.08C95.2414 110.525 94.2814 110.248 93.2148 110.248C92.1268 110.248 91.1454 110.525 90.2708 111.08C89.4174 111.613 88.7348 112.339 88.2228 113.256C87.7108 114.152 87.4548 115.187 87.4548 116.36C87.4548 117.512 87.7108 118.557 88.2228 119.496C88.7348 120.435 89.4174 121.171 90.2708 121.704C91.1454 122.237 92.1268 122.504 93.2148 122.504ZM109.616 125L103.696 107.752H106.992L111.696 122.184L110.544 122.152L115.152 107.752H117.968L122.576 122.152L121.424 122.184L126.16 107.752H129.424L123.504 125H120.656L116.112 110.6H117.008L112.464 125H109.616ZM132.085 125V107.752H134.997V111.112L134.517 110.824C134.944 109.736 135.627 108.893 136.565 108.296C137.525 107.677 138.645 107.368 139.925 107.368C141.163 107.368 142.261 107.645 143.221 108.2C144.203 108.755 144.971 109.523 145.525 110.504C146.101 111.485 146.389 112.595 146.389 113.832V125H143.381V114.792C143.381 113.832 143.211 113.021 142.869 112.36C142.528 111.699 142.037 111.187 141.397 110.824C140.779 110.44 140.064 110.248 139.253 110.248C138.443 110.248 137.717 110.44 137.077 110.824C136.459 111.187 135.968 111.709 135.605 112.392C135.243 113.053 135.061 113.853 135.061 114.792V125H132.085ZM150.648 125V100.776H153.624V125H150.648ZM166.434 125.384C164.77 125.384 163.266 125 161.922 124.232C160.578 123.443 159.511 122.365 158.722 121C157.932 119.635 157.538 118.088 157.538 116.36C157.538 114.632 157.922 113.096 158.69 111.752C159.479 110.408 160.546 109.341 161.89 108.552C163.234 107.763 164.748 107.368 166.434 107.368C168.098 107.368 169.602 107.763 170.946 108.552C172.29 109.32 173.346 110.376 174.114 111.72C174.903 113.064 175.298 114.611 175.298 116.36C175.298 118.109 174.892 119.667 174.082 121.032C173.271 122.376 172.194 123.443 170.85 124.232C169.527 125 168.055 125.384 166.434 125.384ZM166.434 122.504C167.5 122.504 168.46 122.237 169.314 121.704C170.188 121.171 170.871 120.435 171.362 119.496C171.874 118.557 172.13 117.512 172.13 116.36C172.13 115.187 171.874 114.152 171.362 113.256C170.871 112.339 170.188 111.613 169.314 111.08C168.46 110.525 167.5 110.248 166.434 110.248C165.346 110.248 164.364 110.525 163.49 111.08C162.636 111.613 161.954 112.339 161.442 113.256C160.93 114.152 160.674 115.187 160.674 116.36C160.674 117.512 160.93 118.557 161.442 119.496C161.954 120.435 162.636 121.171 163.49 121.704C164.364 122.237 165.346 122.504 166.434 122.504ZM184.235 125.384C183.104 125.384 182.102 125.181 181.227 124.776C180.374 124.349 179.702 123.773 179.211 123.048C178.72 122.301 178.475 121.448 178.475 120.488C178.475 119.571 178.667 118.749 179.051 118.024C179.456 117.277 180.075 116.648 180.907 116.136C181.76 115.624 182.827 115.261 184.107 115.048L190.507 113.992V116.488L184.779 117.448C183.67 117.64 182.859 117.992 182.347 118.504C181.856 119.016 181.611 119.645 181.611 120.392C181.611 121.096 181.888 121.683 182.443 122.152C183.019 122.621 183.734 122.856 184.587 122.856C185.675 122.856 186.614 122.632 187.403 122.184C188.214 121.715 188.843 121.085 189.291 120.296C189.76 119.507 189.995 118.632 189.995 117.672V113.288C189.995 112.349 189.643 111.592 188.939 111.016C188.256 110.419 187.35 110.12 186.219 110.12C185.238 110.12 184.363 110.376 183.595 110.888C182.848 111.379 182.294 112.04 181.931 112.872L179.339 111.528C179.659 110.739 180.171 110.035 180.875 109.416C181.579 108.776 182.4 108.275 183.339 107.912C184.278 107.549 185.259 107.368 186.283 107.368C187.606 107.368 188.768 107.624 189.771 108.136C190.774 108.627 191.552 109.32 192.107 110.216C192.683 111.091 192.971 112.115 192.971 113.288V125H190.059V121.736L190.603 121.928C190.24 122.611 189.75 123.208 189.131 123.72C188.512 124.232 187.787 124.637 186.955 124.936C186.123 125.235 185.216 125.384 184.235 125.384ZM205.425 125.384C203.804 125.384 202.343 124.989 201.041 124.2C199.761 123.411 198.748 122.333 198.001 120.968C197.255 119.603 196.881 118.077 196.881 116.392C196.881 114.664 197.255 113.128 198.001 111.784C198.748 110.419 199.761 109.341 201.041 108.552C202.343 107.763 203.804 107.368 205.425 107.368C206.855 107.368 208.124 107.677 209.233 108.296C210.343 108.893 211.217 109.704 211.857 110.728L211.377 111.464V100.776H214.385V125H211.473V121.32L211.857 121.832C211.26 122.963 210.385 123.837 209.233 124.456C208.103 125.075 206.833 125.384 205.425 125.384ZM205.681 122.504C206.769 122.504 207.74 122.237 208.593 121.704C209.447 121.171 210.119 120.445 210.609 119.528C211.121 118.589 211.377 117.544 211.377 116.392C211.377 115.219 211.121 114.173 210.609 113.256C210.119 112.317 209.447 111.581 208.593 111.048C207.74 110.515 206.769 110.248 205.681 110.248C204.615 110.248 203.644 110.525 202.769 111.08C201.916 111.613 201.244 112.339 200.753 113.256C200.263 114.152 200.017 115.197 200.017 116.392C200.017 117.544 200.263 118.589 200.753 119.528C201.244 120.445 201.916 121.171 202.769 121.704C203.623 122.237 204.593 122.504 205.681 122.504ZM231.531 125.192C229.845 125.192 228.544 124.712 227.627 123.752C226.731 122.792 226.283 121.437 226.283 119.688V110.6H223.147V107.752H223.787C224.555 107.752 225.163 107.517 225.611 107.048C226.059 106.579 226.283 105.96 226.283 105.192V103.784H229.259V107.752H233.131V110.6H229.259V119.592C229.259 120.168 229.344 120.669 229.515 121.096C229.707 121.523 230.016 121.864 230.443 122.12C230.869 122.355 231.435 122.472 232.139 122.472C232.288 122.472 232.469 122.461 232.683 122.44C232.917 122.419 233.131 122.397 233.323 122.376V125C233.045 125.064 232.736 125.107 232.395 125.128C232.053 125.171 231.765 125.192 231.531 125.192ZM237.21 125V100.776H240.186V111.112L239.642 110.824C240.069 109.736 240.752 108.893 241.69 108.296C242.65 107.677 243.77 107.368 245.05 107.368C246.288 107.368 247.386 107.645 248.346 108.2C249.328 108.755 250.096 109.523 250.65 110.504C251.226 111.485 251.514 112.595 251.514 113.832V125H248.506V114.792C248.506 113.832 248.325 113.021 247.962 112.36C247.621 111.699 247.141 111.187 246.522 110.824C245.904 110.44 245.189 110.248 244.378 110.248C243.589 110.248 242.874 110.44 242.234 110.824C241.594 111.187 241.093 111.709 240.73 112.392C240.368 113.053 240.186 113.853 240.186 114.792V125H237.21ZM263.709 125.384C262.045 125.384 260.562 124.989 259.261 124.2C257.959 123.411 256.935 122.333 256.189 120.968C255.442 119.581 255.069 118.035 255.069 116.328C255.069 114.6 255.431 113.064 256.157 111.72C256.903 110.376 257.906 109.32 259.165 108.552C260.445 107.763 261.874 107.368 263.453 107.368C264.733 107.368 265.863 107.603 266.845 108.072C267.847 108.52 268.69 109.139 269.373 109.928C270.077 110.696 270.61 111.581 270.973 112.584C271.357 113.565 271.549 114.589 271.549 115.656C271.549 115.891 271.527 116.157 271.485 116.456C271.463 116.733 271.431 117 271.389 117.256H257.245V114.696H269.661L268.253 115.848C268.445 114.739 268.338 113.747 267.933 112.872C267.527 111.997 266.93 111.304 266.141 110.792C265.351 110.28 264.455 110.024 263.453 110.024C262.45 110.024 261.533 110.28 260.701 110.792C259.869 111.304 259.218 112.04 258.749 113C258.301 113.939 258.119 115.059 258.205 116.36C258.119 117.619 258.311 118.728 258.781 119.688C259.271 120.627 259.954 121.363 260.829 121.896C261.725 122.408 262.695 122.664 263.741 122.664C264.893 122.664 265.863 122.397 266.653 121.864C267.442 121.331 268.082 120.648 268.573 119.816L271.069 121.096C270.727 121.885 270.194 122.611 269.469 123.272C268.765 123.912 267.922 124.424 266.941 124.808C265.981 125.192 264.903 125.384 263.709 125.384ZM281.312 125V101.16H296.832V104.04H284.448V111.592H296.192V114.472H284.448V122.12H296.832V125H281.312ZM305.423 125.384C304.292 125.384 303.289 125.181 302.415 124.776C301.561 124.349 300.889 123.773 300.399 123.048C299.908 122.301 299.663 121.448 299.663 120.488C299.663 119.571 299.855 118.749 300.239 118.024C300.644 117.277 301.263 116.648 302.095 116.136C302.948 115.624 304.015 115.261 305.295 115.048L311.695 113.992V116.488L305.967 117.448C304.857 117.64 304.047 117.992 303.535 118.504C303.044 119.016 302.799 119.645 302.799 120.392C302.799 121.096 303.076 121.683 303.631 122.152C304.207 122.621 304.921 122.856 305.775 122.856C306.863 122.856 307.801 122.632 308.591 122.184C309.401 121.715 310.031 121.085 310.479 120.296C310.948 119.507 311.183 118.632 311.183 117.672V113.288C311.183 112.349 310.831 111.592 310.127 111.016C309.444 110.419 308.537 110.12 307.407 110.12C306.425 110.12 305.551 110.376 304.783 110.888C304.036 111.379 303.481 112.04 303.119 112.872L300.527 111.528C300.847 110.739 301.359 110.035 302.062 109.416C302.767 108.776 303.588 108.275 304.527 107.912C305.465 107.549 306.447 107.368 307.47 107.368C308.793 107.368 309.956 107.624 310.959 108.136C311.961 108.627 312.74 109.32 313.295 110.216C313.871 111.091 314.159 112.115 314.159 113.288V125H311.247V121.736L311.791 121.928C311.428 122.611 310.937 123.208 310.319 123.72C309.7 124.232 308.975 124.637 308.143 124.936C307.311 125.235 306.404 125.384 305.423 125.384ZM325.468 125.192C323.783 125.192 322.482 124.712 321.564 123.752C320.668 122.792 320.22 121.437 320.22 119.688V110.6H317.084V107.752H317.724C318.492 107.752 319.1 107.517 319.548 107.048C319.996 106.579 320.22 105.96 320.22 105.192V103.784H323.196V107.752H327.068V110.6H323.196V119.592C323.196 120.168 323.282 120.669 323.452 121.096C323.644 121.523 323.954 121.864 324.38 122.12C324.807 122.355 325.372 122.472 326.076 122.472C326.226 122.472 326.407 122.461 326.62 122.44C326.855 122.419 327.068 122.397 327.26 122.376V125C326.983 125.064 326.674 125.107 326.332 125.128C325.991 125.171 325.703 125.192 325.468 125.192ZM335.985 125.384C334.854 125.384 333.852 125.181 332.977 124.776C332.124 124.349 331.452 123.773 330.961 123.048C330.47 122.301 330.225 121.448 330.225 120.488C330.225 119.571 330.417 118.749 330.801 118.024C331.206 117.277 331.825 116.648 332.657 116.136C333.51 115.624 334.577 115.261 335.857 115.048L342.257 113.992V116.488L336.529 117.448C335.42 117.64 334.609 117.992 334.097 118.504C333.606 119.016 333.361 119.645 333.361 120.392C333.361 121.096 333.638 121.683 334.193 122.152C334.769 122.621 335.484 122.856 336.337 122.856C337.425 122.856 338.364 122.632 339.153 122.184C339.964 121.715 340.593 121.085 341.041 120.296C341.51 119.507 341.745 118.632 341.745 117.672V113.288C341.745 112.349 341.393 111.592 340.689 111.016C340.006 110.419 339.1 110.12 337.969 110.12C336.988 110.12 336.113 110.376 335.345 110.888C334.598 111.379 334.044 112.04 333.681 112.872L331.089 111.528C331.409 110.739 331.921 110.035 332.625 109.416C333.329 108.776 334.15 108.275 335.089 107.912C336.028 107.549 337.009 107.368 338.033 107.368C339.356 107.368 340.518 107.624 341.521 108.136C342.524 108.627 343.302 109.32 343.857 110.216C344.433 111.091 344.721 112.115 344.721 113.288V125H341.809V121.736L342.353 121.928C341.99 122.611 341.5 123.208 340.881 123.72C340.262 124.232 339.537 124.637 338.705 124.936C337.873 125.235 336.966 125.384 335.985 125.384ZM358.263 125.384C356.877 125.384 355.607 125.075 354.455 124.456C353.325 123.837 352.45 122.963 351.831 121.832L352.247 121.32V125H349.335V100.776H352.311V111.464L351.863 110.728C352.503 109.704 353.378 108.893 354.487 108.296C355.597 107.677 356.866 107.368 358.295 107.368C359.917 107.368 361.367 107.763 362.647 108.552C363.949 109.341 364.973 110.419 365.719 111.784C366.466 113.128 366.839 114.664 366.839 116.392C366.839 118.077 366.466 119.603 365.719 120.968C364.973 122.333 363.949 123.411 362.647 124.2C361.367 124.989 359.906 125.384 358.263 125.384ZM358.039 122.504C359.127 122.504 360.098 122.237 360.951 121.704C361.805 121.171 362.466 120.445 362.935 119.528C363.426 118.589 363.671 117.544 363.671 116.392C363.671 115.197 363.426 114.152 362.935 113.256C362.466 112.339 361.805 111.613 360.951 111.08C360.098 110.525 359.127 110.248 358.039 110.248C356.951 110.248 355.97 110.515 355.095 111.048C354.242 111.581 353.559 112.317 353.047 113.256C352.557 114.173 352.311 115.219 352.311 116.392C352.311 117.544 352.557 118.589 353.047 119.528C353.559 120.445 354.242 121.171 355.095 121.704C355.97 122.237 356.951 122.504 358.039 122.504ZM370.742 125V100.776H373.718V125H370.742ZM386.271 125.384C384.607 125.384 383.125 124.989 381.823 124.2C380.522 123.411 379.498 122.333 378.751 120.968C378.005 119.581 377.631 118.035 377.631 116.328C377.631 114.6 377.994 113.064 378.719 111.72C379.466 110.376 380.469 109.32 381.727 108.552C383.007 107.763 384.437 107.368 386.015 107.368C387.295 107.368 388.426 107.603 389.407 108.072C390.41 108.52 391.253 109.139 391.935 109.928C392.639 110.696 393.173 111.581 393.535 112.584C393.919 113.565 394.111 114.589 394.111 115.656C394.111 115.891 394.09 116.157 394.047 116.456C394.026 116.733 393.994 117 393.951 117.256H379.807V114.696H392.223L390.815 115.848C391.007 114.739 390.901 113.747 390.495 112.872C390.09 111.997 389.493 111.304 388.703 110.792C387.914 110.28 387.018 110.024 386.015 110.024C385.013 110.024 384.095 110.28 383.263 110.792C382.431 111.304 381.781 112.04 381.311 113C380.863 113.939 380.682 115.059 380.767 116.36C380.682 117.619 380.874 118.728 381.343 119.688C381.834 120.627 382.517 121.363 383.391 121.896C384.287 122.408 385.258 122.664 386.303 122.664C387.455 122.664 388.426 122.397 389.215 121.864C390.005 121.331 390.645 120.648 391.135 119.816L393.631 121.096C393.29 121.885 392.757 122.611 392.031 123.272C391.327 123.912 390.485 124.424 389.503 124.808C388.543 125.192 387.466 125.384 386.271 125.384ZM404.168 125.384C402.44 125.384 400.936 124.957 399.656 124.104C398.376 123.251 397.469 122.099 396.936 120.648L399.304 119.496C399.794 120.52 400.466 121.331 401.32 121.928C402.173 122.525 403.122 122.824 404.168 122.824C405.106 122.824 405.885 122.6 406.504 122.152C407.122 121.704 407.432 121.117 407.432 120.392C407.432 119.88 407.282 119.475 406.984 119.176C406.706 118.856 406.365 118.611 405.96 118.44C405.554 118.248 405.181 118.109 404.84 118.024L402.248 117.288C400.69 116.84 399.549 116.2 398.824 115.368C398.12 114.536 397.768 113.565 397.768 112.456C397.768 111.432 398.024 110.547 398.536 109.8C399.069 109.032 399.784 108.435 400.68 108.008C401.597 107.581 402.621 107.368 403.752 107.368C405.266 107.368 406.621 107.752 407.816 108.52C409.032 109.288 409.896 110.365 410.408 111.752L407.976 112.872C407.592 111.976 407.016 111.272 406.248 110.76C405.48 110.227 404.616 109.96 403.656 109.96C402.781 109.96 402.088 110.184 401.576 110.632C401.064 111.059 400.808 111.603 400.808 112.264C400.808 112.755 400.936 113.16 401.192 113.48C401.448 113.779 401.757 114.013 402.12 114.184C402.482 114.333 402.834 114.461 403.176 114.568L405.992 115.4C407.4 115.805 408.488 116.435 409.256 117.288C410.045 118.141 410.44 119.165 410.44 120.36C410.44 121.32 410.173 122.184 409.64 122.952C409.106 123.72 408.37 124.317 407.432 124.744C406.493 125.171 405.405 125.384 404.168 125.384ZM420.219 125V101.16H428.635C430.213 101.16 431.6 101.459 432.795 102.056C433.989 102.653 434.917 103.507 435.579 104.616C436.261 105.725 436.603 107.027 436.603 108.52C436.603 110.205 436.176 111.635 435.323 112.808C434.469 113.981 433.317 114.824 431.867 115.336L437.403 125H433.755L427.931 114.664L430.011 115.88H423.355V125H420.219ZM423.355 113H428.731C429.669 113 430.491 112.819 431.195 112.456C431.899 112.093 432.443 111.571 432.827 110.888C433.232 110.205 433.435 109.416 433.435 108.52C433.435 107.603 433.232 106.813 432.827 106.152C432.443 105.469 431.899 104.947 431.195 104.584C430.491 104.221 429.669 104.04 428.731 104.04H423.355V113ZM440.617 125V107.752H443.593V125H440.617ZM440.617 105V101.16H443.593V105H440.617ZM456.05 125.384C454.429 125.384 452.968 124.989 451.666 124.2C450.386 123.411 449.373 122.333 448.626 120.968C447.88 119.603 447.506 118.077 447.506 116.392C447.506 114.664 447.88 113.128 448.626 111.784C449.373 110.419 450.386 109.341 451.666 108.552C452.968 107.763 454.429 107.368 456.05 107.368C457.48 107.368 458.749 107.677 459.858 108.296C460.968 108.893 461.842 109.704 462.482 110.728L462.002 111.464V100.776H465.01V125H462.098V121.32L462.482 121.832C461.885 122.963 461.01 123.837 459.858 124.456C458.728 125.075 457.458 125.384 456.05 125.384ZM456.306 122.504C457.394 122.504 458.365 122.237 459.218 121.704C460.072 121.171 460.744 120.445 461.234 119.528C461.746 118.589 462.002 117.544 462.002 116.392C462.002 115.219 461.746 114.173 461.234 113.256C460.744 112.317 460.072 111.581 459.218 111.048C458.365 110.515 457.394 110.248 456.306 110.248C455.24 110.248 454.269 110.525 453.394 111.08C452.541 111.613 451.869 112.339 451.378 113.256C450.888 114.152 450.642 115.197 450.642 116.392C450.642 117.544 450.888 118.589 451.378 119.528C451.869 120.445 452.541 121.171 453.394 121.704C454.248 122.237 455.218 122.504 456.306 122.504ZM477.553 125.384C475.889 125.384 474.406 124.989 473.105 124.2C471.803 123.411 470.779 122.333 470.033 120.968C469.286 119.581 468.913 118.035 468.913 116.328C468.913 114.6 469.275 113.064 470.001 111.72C470.747 110.376 471.75 109.32 473.009 108.552C474.289 107.763 475.718 107.368 477.297 107.368C478.577 107.368 479.707 107.603 480.689 108.072C481.691 108.52 482.534 109.139 483.217 109.928C483.921 110.696 484.454 111.581 484.817 112.584C485.201 113.565 485.392 114.589 485.392 115.656C485.392 115.891 485.371 116.157 485.329 116.456C485.307 116.733 485.275 117 485.233 117.256H471.089V114.696H483.505L482.097 115.848C482.289 114.739 482.182 113.747 481.777 112.872C481.371 111.997 480.774 111.304 479.985 110.792C479.195 110.28 478.299 110.024 477.297 110.024C476.294 110.024 475.377 110.28 474.545 110.792C473.713 111.304 473.062 112.04 472.593 113C472.145 113.939 471.963 115.059 472.049 116.36C471.963 117.619 472.155 118.728 472.625 119.688C473.115 120.627 473.798 121.363 474.673 121.896C475.569 122.408 476.539 122.664 477.585 122.664C478.737 122.664 479.707 122.397 480.497 121.864C481.286 121.331 481.926 120.648 482.417 119.816L484.913 121.096C484.571 121.885 484.038 122.611 483.312 123.272C482.609 123.912 481.766 124.424 480.785 124.808C479.825 125.192 478.747 125.384 477.553 125.384ZM489.273 125V107.752H492.185V110.92L491.865 110.472C492.27 109.491 492.889 108.765 493.721 108.296C494.553 107.805 495.566 107.56 496.761 107.56H497.817V110.376H496.313C495.097 110.376 494.115 110.76 493.369 111.528C492.622 112.275 492.249 113.341 492.249 114.728V125H489.273ZM511.048 125.384C509.917 125.384 508.914 125.181 508.04 124.776C507.186 124.349 506.514 123.773 506.024 123.048C505.533 122.301 505.288 121.448 505.288 120.488C505.288 119.571 505.48 118.749 505.864 118.024C506.269 117.277 506.888 116.648 507.72 116.136C508.573 115.624 509.64 115.261 510.92 115.048L517.32 113.992V116.488L511.592 117.448C510.482 117.64 509.672 117.992 509.16 118.504C508.669 119.016 508.424 119.645 508.424 120.392C508.424 121.096 508.701 121.683 509.256 122.152C509.832 122.621 510.546 122.856 511.4 122.856C512.488 122.856 513.426 122.632 514.216 122.184C515.026 121.715 515.656 121.085 516.104 120.296C516.573 119.507 516.808 118.632 516.808 117.672V113.288C516.808 112.349 516.456 111.592 515.752 111.016C515.069 110.419 514.162 110.12 513.032 110.12C512.05 110.12 511.176 110.376 510.408 110.888C509.661 111.379 509.106 112.04 508.744 112.872L506.152 111.528C506.472 110.739 506.984 110.035 507.688 109.416C508.392 108.776 509.213 108.275 510.152 107.912C511.09 107.549 512.072 107.368 513.095 107.368C514.418 107.368 515.581 107.624 516.584 108.136C517.586 108.627 518.365 109.32 518.92 110.216C519.496 111.091 519.784 112.115 519.784 113.288V125H516.872V121.736L517.416 121.928C517.053 122.611 516.562 123.208 515.944 123.72C515.325 124.232 514.6 124.637 513.768 124.936C512.936 125.235 512.029 125.384 511.048 125.384ZM524.398 131.4V107.752H527.31V111.464L526.926 110.728C527.566 109.704 528.44 108.893 529.55 108.296C530.659 107.677 531.928 107.368 533.358 107.368C534.979 107.368 536.43 107.763 537.71 108.552C539.011 109.341 540.035 110.419 540.782 111.784C541.528 113.128 541.902 114.664 541.902 116.392C541.902 118.077 541.528 119.603 540.782 120.968C540.035 122.333 539.011 123.411 537.71 124.2C536.43 124.989 534.968 125.384 533.326 125.384C531.939 125.384 530.67 125.075 529.518 124.456C528.387 123.837 527.512 122.963 526.894 121.832L527.374 121.32V131.4H524.398ZM533.102 122.504C534.19 122.504 535.16 122.237 536.014 121.704C536.867 121.171 537.528 120.445 537.998 119.528C538.488 118.589 538.734 117.544 538.734 116.392C538.734 115.197 538.488 114.152 537.998 113.256C537.528 112.339 536.867 111.613 536.014 111.08C535.16 110.525 534.19 110.248 533.102 110.248C532.014 110.248 531.032 110.515 530.158 111.048C529.304 111.581 528.622 112.317 528.11 113.256C527.619 114.173 527.374 115.219 527.374 116.392C527.374 117.544 527.619 118.589 528.11 119.528C528.622 120.445 529.304 121.171 530.158 121.704C531.032 122.237 532.014 122.504 533.102 122.504ZM545.804 131.4V107.752H548.716V111.464L548.332 110.728C548.972 109.704 549.847 108.893 550.956 108.296C552.065 107.677 553.335 107.368 554.764 107.368C556.385 107.368 557.836 107.763 559.116 108.552C560.417 109.341 561.441 110.419 562.188 111.784C562.935 113.128 563.308 114.664 563.308 116.392C563.308 118.077 562.935 119.603 562.188 120.968C561.441 122.333 560.417 123.411 559.116 124.2C557.836 124.989 556.375 125.384 554.732 125.384C553.345 125.384 552.076 125.075 550.924 124.456C549.793 123.837 548.919 122.963 548.3 121.832L548.78 121.32V131.4H545.804ZM554.508 122.504C555.596 122.504 556.567 122.237 557.42 121.704C558.273 121.171 558.935 120.445 559.404 119.528C559.895 118.589 560.14 117.544 560.14 116.392C560.14 115.197 559.895 114.152 559.404 113.256C558.935 112.339 558.273 111.613 557.42 111.08C556.567 110.525 555.596 110.248 554.508 110.248C553.42 110.248 552.439 110.515 551.564 111.048C550.711 111.581 550.028 112.317 549.516 113.256C549.025 114.173 548.78 115.219 548.78 116.392C548.78 117.544 549.025 118.589 549.516 119.528C550.028 120.445 550.711 121.171 551.564 121.704C552.439 122.237 553.42 122.504 554.508 122.504Z" fill="#191717"/>
<line x1="21" y1="156.005" x2="20.5789" y2="236.004" stroke="#298A5A" stroke-width="2"/>
<path d="M12.9724 293.383C11.0737 293.383 9.40971 292.871 7.98038 291.847C6.55104 290.802 5.43104 289.362 4.62038 287.527C3.83104 285.671 3.43638 283.516 3.43638 281.063C3.43638 278.588 3.83104 276.434 4.62038 274.599C5.43104 272.764 6.54038 271.335 7.94838 270.311C9.37771 269.287 11.0417 268.775 12.9404 268.775C14.839 268.775 16.4924 269.287 17.9004 270.311C19.3297 271.335 20.439 272.775 21.2284 274.631C22.039 276.466 22.4444 278.61 22.4444 281.063C22.4444 283.516 22.0497 285.671 21.2604 287.527C20.471 289.362 19.3617 290.802 17.9324 291.847C16.5244 292.871 14.871 293.383 12.9724 293.383ZM12.9724 289.927C14.1457 289.927 15.159 289.564 16.0124 288.839C16.8657 288.114 17.527 287.09 17.9964 285.767C18.4657 284.444 18.7004 282.876 18.7004 281.063C18.7004 279.25 18.4657 277.682 17.9964 276.359C17.527 275.036 16.8657 274.012 16.0124 273.287C15.159 272.562 14.135 272.199 12.9404 272.199C11.767 272.199 10.7537 272.562 9.90038 273.287C9.04704 274.012 8.38571 275.036 7.91638 276.359C7.44704 277.682 7.21238 279.25 7.21238 281.063C7.21238 282.855 7.44704 284.423 7.91638 285.767C8.38571 287.09 9.04704 288.114 9.90038 288.839C10.775 289.564 11.799 289.927 12.9724 289.927ZM25.9906 292.999V290.279L32.5186 283.303C33.7986 281.938 34.8013 280.839 35.5266 280.007C36.2733 279.154 36.8066 278.407 37.1266 277.767C37.468 277.127 37.6386 276.455 37.6386 275.751C37.6386 274.599 37.2866 273.714 36.5826 273.095C35.8786 272.455 34.972 272.135 33.8626 272.135C32.7106 272.135 31.7186 272.466 30.8866 273.127C30.0546 273.767 29.4786 274.706 29.1586 275.943L25.8306 274.983C26.0866 273.724 26.5986 272.636 27.3666 271.719C28.1346 270.78 29.0733 270.055 30.1826 269.543C31.3133 269.031 32.5293 268.775 33.8306 268.775C35.3453 268.775 36.668 269.063 37.7986 269.639C38.9293 270.194 39.804 270.972 40.4226 271.975C41.0626 272.978 41.3826 274.14 41.3826 275.463C41.3826 276.338 41.212 277.191 40.8706 278.023C40.5506 278.834 40.0493 279.698 39.3666 280.615C38.684 281.511 37.8093 282.524 36.7426 283.655L30.9826 289.799H41.8306V292.999H25.9906Z" fill="#298A5A"/>
<path d="M71.688 292.999V272.519H65.352V269.159H81.672V272.519H75.432V292.999H71.688ZM82.237 292.999V275.687H85.693V279.175L85.373 278.663C85.757 277.532 86.3757 276.722 87.229 276.231C88.0823 275.719 89.1063 275.463 90.301 275.463H91.357V278.759H89.853C88.6583 278.759 87.6877 279.132 86.941 279.879C86.2157 280.604 85.853 281.65 85.853 283.015V292.999H82.237ZM99.0148 293.383C97.8414 293.383 96.8068 293.18 95.9108 292.775C95.0361 292.348 94.3534 291.772 93.8628 291.047C93.3721 290.3 93.1268 289.426 93.1268 288.423C93.1268 287.484 93.3294 286.642 93.7348 285.895C94.1614 285.148 94.8121 284.519 95.6868 284.007C96.5614 283.495 97.6601 283.132 98.9828 282.919L104.999 281.927V284.775L99.6868 285.703C98.7268 285.874 98.0228 286.183 97.5748 286.631C97.1268 287.058 96.9028 287.612 96.9028 288.295C96.9028 288.956 97.1481 289.5 97.6388 289.927C98.1508 290.332 98.8014 290.535 99.5908 290.535C100.572 290.535 101.425 290.322 102.151 289.895C102.897 289.468 103.473 288.903 103.879 288.199C104.284 287.474 104.487 286.674 104.487 285.799V281.351C104.487 280.498 104.167 279.804 103.527 279.271C102.908 278.716 102.076 278.439 101.031 278.439C100.071 278.439 99.2281 278.695 98.5028 279.207C97.7988 279.698 97.2761 280.338 96.9348 281.127L93.9268 279.623C94.2468 278.77 94.7694 278.023 95.4948 277.383C96.2201 276.722 97.0628 276.21 98.0228 275.847C99.0041 275.484 100.039 275.303 101.127 275.303C102.492 275.303 103.697 275.559 104.743 276.071C105.809 276.583 106.631 277.298 107.207 278.215C107.804 279.111 108.103 280.156 108.103 281.351V292.999H104.647V289.863L105.383 289.959C104.977 290.663 104.455 291.271 103.815 291.783C103.196 292.295 102.481 292.69 101.671 292.967C100.881 293.244 99.9961 293.383 99.0148 293.383ZM120.555 293.383C118.827 293.383 117.291 292.988 115.947 292.199C114.624 291.388 113.568 290.3 112.779 288.935C112.011 287.57 111.627 286.023 111.627 284.295C111.627 282.588 112.011 281.052 112.779 279.687C113.547 278.322 114.603 277.255 115.947 276.487C117.291 275.698 118.827 275.303 120.555 275.303C121.728 275.303 122.827 275.516 123.851 275.943C124.875 276.348 125.76 276.914 126.507 277.639C127.275 278.364 127.84 279.207 128.203 280.167L125.035 281.639C124.672 280.743 124.085 280.028 123.275 279.495C122.485 278.94 121.579 278.663 120.555 278.663C119.573 278.663 118.688 278.908 117.899 279.399C117.131 279.868 116.523 280.54 116.075 281.415C115.627 282.268 115.403 283.239 115.403 284.327C115.403 285.415 115.627 286.396 116.075 287.271C116.523 288.124 117.131 288.796 117.899 289.287C118.688 289.778 119.573 290.023 120.555 290.023C121.6 290.023 122.507 289.756 123.275 289.223C124.064 288.668 124.651 287.932 125.035 287.015L128.203 288.519C127.861 289.436 127.307 290.268 126.539 291.015C125.792 291.74 124.907 292.316 123.883 292.743C122.859 293.17 121.749 293.383 120.555 293.383ZM131.737 292.999V268.775H135.353V284.999L133.945 284.647L142.617 275.687H147.129L140.601 282.631L147.417 292.999H143.257L137.177 283.815L139.321 283.527L134.201 288.967L135.353 286.567V292.999H131.737ZM157.023 300.039C156.596 300.039 156.17 299.996 155.743 299.911C155.338 299.847 154.964 299.74 154.623 299.591V296.487C154.879 296.551 155.188 296.604 155.551 296.647C155.914 296.711 156.266 296.743 156.607 296.743C157.61 296.743 158.346 296.519 158.815 296.071C159.306 295.644 159.743 294.983 160.127 294.087L161.279 291.463L161.215 294.503L153.727 275.687H157.599L163.135 290.119H161.823L167.327 275.687H171.231L163.583 294.887C163.178 295.911 162.666 296.807 162.047 297.575C161.45 298.364 160.735 298.972 159.903 299.399C159.092 299.826 158.132 300.039 157.023 300.039ZM181.745 293.383C180.081 293.383 178.556 292.988 177.169 292.199C175.804 291.41 174.716 290.332 173.905 288.967C173.095 287.602 172.689 286.055 172.689 284.327C172.689 282.578 173.095 281.031 173.905 279.687C174.716 278.322 175.804 277.255 177.169 276.487C178.535 275.698 180.06 275.303 181.745 275.303C183.452 275.303 184.977 275.698 186.321 276.487C187.687 277.255 188.764 278.322 189.553 279.687C190.364 281.031 190.769 282.578 190.769 284.327C190.769 286.076 190.364 287.634 189.553 288.999C188.743 290.364 187.655 291.442 186.289 292.231C184.924 292.999 183.409 293.383 181.745 293.383ZM181.745 290.023C182.769 290.023 183.676 289.778 184.465 289.287C185.255 288.796 185.873 288.124 186.321 287.271C186.791 286.396 187.025 285.415 187.025 284.327C187.025 283.239 186.791 282.268 186.321 281.415C185.873 280.562 185.255 279.89 184.465 279.399C183.676 278.908 182.769 278.663 181.745 278.663C180.743 278.663 179.836 278.908 179.025 279.399C178.236 279.89 177.607 280.562 177.137 281.415C176.689 282.268 176.465 283.239 176.465 284.327C176.465 285.415 176.689 286.396 177.137 287.271C177.607 288.124 178.236 288.796 179.025 289.287C179.836 289.778 180.743 290.023 181.745 290.023ZM200.476 293.383C199.174 293.383 198.033 293.095 197.052 292.519C196.07 291.922 195.302 291.1 194.748 290.055C194.214 288.988 193.948 287.762 193.948 286.375V275.687H197.564V286.055C197.564 286.844 197.724 287.538 198.044 288.135C198.364 288.732 198.812 289.202 199.388 289.543C199.964 289.863 200.625 290.023 201.372 290.023C202.14 290.023 202.812 289.852 203.388 289.511C203.964 289.17 204.412 288.69 204.732 288.071C205.073 287.452 205.244 286.727 205.244 285.895V275.687H208.828V292.999H205.404V289.607L205.788 290.055C205.382 291.122 204.71 291.943 203.772 292.519C202.833 293.095 201.734 293.383 200.476 293.383ZM213.049 292.999V275.687H216.506V279.175L216.186 278.663C216.57 277.532 217.188 276.722 218.042 276.231C218.895 275.719 219.919 275.463 221.114 275.463H222.17V278.759H220.666C219.471 278.759 218.5 279.132 217.754 279.879C217.028 280.604 216.666 281.65 216.666 283.015V292.999H213.049ZM230.237 292.999V275.687H233.693V279.431L233.245 278.855C233.608 277.682 234.269 276.796 235.229 276.199C236.189 275.602 237.288 275.303 238.525 275.303C239.912 275.303 241.138 275.676 242.205 276.423C243.293 277.148 244.018 278.119 244.381 279.335L243.357 279.431C243.869 278.044 244.648 277.01 245.693 276.327C246.76 275.644 247.976 275.303 249.341 275.303C250.536 275.303 251.613 275.58 252.573 276.135C253.554 276.69 254.333 277.458 254.909 278.439C255.485 279.42 255.773 280.54 255.773 281.799V292.999H252.157V282.791C252.157 281.916 251.997 281.18 251.677 280.583C251.378 279.964 250.952 279.495 250.397 279.175C249.864 278.834 249.234 278.663 248.509 278.663C247.784 278.663 247.144 278.834 246.589 279.175C246.034 279.495 245.597 279.964 245.277 280.583C244.957 281.202 244.797 281.938 244.797 282.791V292.999H241.213V282.791C241.213 281.916 241.053 281.18 240.733 280.583C240.434 279.964 240.008 279.495 239.453 279.175C238.92 278.834 238.28 278.663 237.533 278.663C236.808 278.663 236.168 278.834 235.613 279.175C235.058 279.495 234.621 279.964 234.301 280.583C234.002 281.202 233.853 281.938 233.853 282.791V292.999H230.237ZM267.771 293.383C266.043 293.383 264.507 292.988 263.163 292.199C261.841 291.388 260.806 290.3 260.059 288.935C259.313 287.548 258.939 286.002 258.939 284.295C258.939 282.546 259.313 280.999 260.059 279.655C260.827 278.311 261.851 277.255 263.131 276.487C264.411 275.698 265.862 275.303 267.483 275.303C268.785 275.303 269.947 275.527 270.971 275.975C271.995 276.423 272.859 277.042 273.563 277.831C274.267 278.599 274.801 279.484 275.163 280.487C275.547 281.49 275.739 282.556 275.739 283.687C275.739 283.964 275.729 284.252 275.707 284.551C275.686 284.85 275.643 285.127 275.579 285.383H261.787V282.503H273.531L271.803 283.815C272.017 282.77 271.942 281.842 271.579 281.031C271.238 280.199 270.705 279.548 269.979 279.079C269.275 278.588 268.443 278.343 267.483 278.343C266.523 278.343 265.67 278.588 264.923 279.079C264.177 279.548 263.601 280.231 263.195 281.127C262.79 282.002 262.63 283.068 262.715 284.327C262.609 285.5 262.769 286.524 263.195 287.399C263.643 288.274 264.262 288.956 265.051 289.447C265.862 289.938 266.779 290.183 267.803 290.183C268.849 290.183 269.734 289.948 270.459 289.479C271.206 289.01 271.793 288.402 272.219 287.655L275.163 289.095C274.822 289.906 274.289 290.642 273.563 291.303C272.859 291.943 272.006 292.455 271.003 292.839C270.022 293.202 268.945 293.383 267.771 293.383ZM286.756 293.191C284.943 293.191 283.535 292.679 282.532 291.655C281.53 290.631 281.028 289.191 281.028 287.335V278.951H277.988V275.687H278.468C279.279 275.687 279.908 275.452 280.356 274.983C280.804 274.514 281.028 273.874 281.028 273.063V271.719H284.644V275.687H288.58V278.951H284.644V287.175C284.644 287.772 284.74 288.284 284.932 288.711C285.124 289.116 285.434 289.436 285.86 289.671C286.287 289.884 286.842 289.991 287.524 289.991C287.695 289.991 287.887 289.98 288.1 289.959C288.314 289.938 288.516 289.916 288.708 289.895V292.999C288.41 293.042 288.079 293.084 287.716 293.127C287.354 293.17 287.034 293.191 286.756 293.191ZM292.237 292.999V275.687H295.693V279.175L295.373 278.663C295.757 277.532 296.376 276.722 297.229 276.231C298.082 275.719 299.106 275.463 300.301 275.463H301.357V278.759H299.853C298.658 278.759 297.688 279.132 296.941 279.879C296.216 280.604 295.853 281.65 295.853 283.015V292.999H292.237ZM303.831 292.999V275.687H307.447V292.999H303.831ZM303.831 273.319V269.159H307.447V273.319H303.831ZM319.899 293.383C318.171 293.383 316.635 292.988 315.291 292.199C313.968 291.388 312.912 290.3 312.123 288.935C311.355 287.57 310.971 286.023 310.971 284.295C310.971 282.588 311.355 281.052 312.123 279.687C312.891 278.322 313.947 277.255 315.291 276.487C316.635 275.698 318.171 275.303 319.899 275.303C321.072 275.303 322.171 275.516 323.195 275.943C324.219 276.348 325.104 276.914 325.851 277.639C326.619 278.364 327.184 279.207 327.547 280.167L324.379 281.639C324.016 280.743 323.429 280.028 322.619 279.495C321.829 278.94 320.923 278.663 319.899 278.663C318.917 278.663 318.032 278.908 317.243 279.399C316.475 279.868 315.867 280.54 315.419 281.415C314.971 282.268 314.747 283.239 314.747 284.327C314.747 285.415 314.971 286.396 315.419 287.271C315.867 288.124 316.475 288.796 317.243 289.287C318.032 289.778 318.917 290.023 319.899 290.023C320.944 290.023 321.851 289.756 322.619 289.223C323.408 288.668 323.995 287.932 324.379 287.015L327.547 288.519C327.205 289.436 326.651 290.268 325.883 291.015C325.136 291.74 324.251 292.316 323.227 292.743C322.203 293.17 321.093 293.383 319.899 293.383ZM337.481 293.383C335.71 293.383 334.153 292.946 332.809 292.071C331.486 291.196 330.558 290.023 330.025 288.551L332.809 287.239C333.278 288.22 333.918 288.999 334.729 289.575C335.561 290.151 336.478 290.439 337.481 290.439C338.334 290.439 339.027 290.247 339.561 289.863C340.094 289.479 340.361 288.956 340.361 288.295C340.361 287.868 340.243 287.527 340.009 287.271C339.774 286.994 339.475 286.77 339.113 286.599C338.771 286.428 338.419 286.3 338.057 286.215L335.337 285.447C333.843 285.02 332.723 284.38 331.977 283.527C331.251 282.652 330.889 281.639 330.889 280.487C330.889 279.442 331.155 278.535 331.689 277.767C332.222 276.978 332.958 276.37 333.897 275.943C334.835 275.516 335.891 275.303 337.065 275.303C338.643 275.303 340.051 275.698 341.289 276.487C342.526 277.255 343.401 278.332 343.913 279.719L341.129 281.031C340.787 280.199 340.243 279.538 339.497 279.047C338.771 278.556 337.95 278.311 337.033 278.311C336.243 278.311 335.614 278.503 335.145 278.887C334.675 279.25 334.441 279.73 334.441 280.327C334.441 280.732 334.547 281.074 334.761 281.351C334.974 281.607 335.251 281.82 335.593 281.991C335.934 282.14 336.286 282.268 336.649 282.375L339.465 283.207C340.894 283.612 341.993 284.252 342.761 285.127C343.529 285.98 343.913 287.004 343.913 288.199C343.913 289.223 343.635 290.13 343.081 290.919C342.547 291.687 341.801 292.295 340.841 292.743C339.881 293.17 338.761 293.383 337.481 293.383ZM358.234 293.383C357.06 293.383 356.026 293.18 355.13 292.775C354.255 292.348 353.572 291.772 353.082 291.047C352.591 290.3 352.346 289.426 352.346 288.423C352.346 287.484 352.548 286.642 352.954 285.895C353.38 285.148 354.031 284.519 354.906 284.007C355.78 283.495 356.879 283.132 358.202 282.919L364.218 281.927V284.775L358.906 285.703C357.946 285.874 357.242 286.183 356.794 286.631C356.346 287.058 356.122 287.612 356.122 288.295C356.122 288.956 356.367 289.5 356.858 289.927C357.37 290.332 358.02 290.535 358.81 290.535C359.791 290.535 360.644 290.322 361.37 289.895C362.116 289.468 362.692 288.903 363.098 288.199C363.503 287.474 363.706 286.674 363.706 285.799V281.351C363.706 280.498 363.386 279.804 362.746 279.271C362.127 278.716 361.295 278.439 360.25 278.439C359.29 278.439 358.447 278.695 357.722 279.207C357.018 279.698 356.495 280.338 356.154 281.127L353.146 279.623C353.466 278.77 353.988 278.023 354.714 277.383C355.439 276.722 356.282 276.21 357.242 275.847C358.223 275.484 359.258 275.303 360.345 275.303C361.711 275.303 362.916 275.559 363.962 276.071C365.028 276.583 365.85 277.298 366.426 278.215C367.023 279.111 367.322 280.156 367.322 281.351V292.999H363.866V289.863L364.602 289.959C364.196 290.663 363.674 291.271 363.034 291.783C362.415 292.295 361.7 292.69 360.89 292.967C360.1 293.244 359.215 293.383 358.234 293.383ZM371.549 292.999V275.687H375.006V279.079L374.59 278.631C375.016 277.543 375.699 276.722 376.638 276.167C377.576 275.591 378.664 275.303 379.902 275.303C381.182 275.303 382.312 275.58 383.294 276.135C384.275 276.69 385.043 277.458 385.597 278.439C386.152 279.42 386.43 280.551 386.43 281.831V292.999H382.846V282.791C382.846 281.916 382.686 281.18 382.366 280.583C382.046 279.964 381.587 279.495 380.99 279.175C380.414 278.834 379.752 278.663 379.006 278.663C378.259 278.663 377.587 278.834 376.99 279.175C376.414 279.495 375.966 279.964 375.646 280.583C375.326 281.202 375.166 281.938 375.166 282.791V292.999H371.549ZM398.3 293.383C396.636 293.383 395.142 292.988 393.82 292.199C392.518 291.388 391.484 290.3 390.716 288.935C389.969 287.57 389.596 286.034 389.596 284.327C389.596 282.62 389.98 281.084 390.748 279.719C391.516 278.354 392.55 277.276 393.852 276.487C395.153 275.698 396.625 275.303 398.268 275.303C399.654 275.303 400.881 275.58 401.948 276.135C403.014 276.69 403.857 277.458 404.476 278.439L403.932 279.271V268.775H407.516V292.999H404.092V289.479L404.508 290.151C403.91 291.196 403.057 291.996 401.948 292.551C400.838 293.106 399.622 293.383 398.3 293.383ZM398.652 290.023C399.654 290.023 400.55 289.778 401.34 289.287C402.15 288.796 402.78 288.124 403.228 287.271C403.697 286.396 403.932 285.415 403.932 284.327C403.932 283.239 403.697 282.268 403.228 281.415C402.78 280.562 402.15 279.89 401.34 279.399C400.55 278.908 399.654 278.663 398.652 278.663C397.649 278.663 396.742 278.908 395.932 279.399C395.121 279.89 394.492 280.562 394.044 281.415C393.596 282.268 393.372 283.239 393.372 284.327C393.372 285.415 393.596 286.396 394.044 287.271C394.492 288.124 395.11 288.796 395.9 289.287C396.71 289.778 397.628 290.023 398.652 290.023ZM425.459 293.383C423.731 293.383 422.195 292.988 420.851 292.199C419.528 291.388 418.493 290.3 417.747 288.935C417 287.548 416.627 286.002 416.627 284.295C416.627 282.546 417 280.999 417.747 279.655C418.515 278.311 419.539 277.255 420.819 276.487C422.099 275.698 423.549 275.303 425.171 275.303C426.472 275.303 427.635 275.527 428.659 275.975C429.683 276.423 430.547 277.042 431.251 277.831C431.955 278.599 432.488 279.484 432.851 280.487C433.235 281.49 433.427 282.556 433.427 283.687C433.427 283.964 433.416 284.252 433.395 284.551C433.373 284.85 433.331 285.127 433.267 285.383H419.475V282.503H431.219L429.491 283.815C429.704 282.77 429.629 281.842 429.267 281.031C428.925 280.199 428.392 279.548 427.667 279.079C426.963 278.588 426.131 278.343 425.171 278.343C424.211 278.343 423.357 278.588 422.611 279.079C421.864 279.548 421.288 280.231 420.883 281.127C420.477 282.002 420.317 283.068 420.403 284.327C420.296 285.5 420.456 286.524 420.883 287.399C421.331 288.274 421.949 288.956 422.739 289.447C423.549 289.938 424.467 290.183 425.491 290.183C426.536 290.183 427.421 289.948 428.147 289.479C428.893 289.01 429.48 288.402 429.907 287.655L432.851 289.095C432.509 289.906 431.976 290.642 431.251 291.303C430.547 291.943 429.693 292.455 428.691 292.839C427.709 293.202 426.632 293.383 425.459 293.383ZM441.984 293.383C440.81 293.383 439.776 293.18 438.88 292.775C438.005 292.348 437.322 291.772 436.832 291.047C436.341 290.3 436.096 289.426 436.096 288.423C436.096 287.484 436.298 286.642 436.704 285.895C437.13 285.148 437.781 284.519 438.656 284.007C439.53 283.495 440.629 283.132 441.952 282.919L447.968 281.927V284.775L442.656 285.703C441.696 285.874 440.992 286.183 440.544 286.631C440.096 287.058 439.872 287.612 439.872 288.295C439.872 288.956 440.117 289.5 440.608 289.927C441.12 290.332 441.77 290.535 442.56 290.535C443.541 290.535 444.394 290.322 445.12 289.895C445.866 289.468 446.442 288.903 446.848 288.199C447.253 287.474 447.456 286.674 447.456 285.799V281.351C447.456 280.498 447.136 279.804 446.496 279.271C445.877 278.716 445.045 278.439 444 278.439C443.04 278.439 442.197 278.695 441.472 279.207C440.768 279.698 440.245 280.338 439.904 281.127L436.896 279.623C437.216 278.77 437.738 278.023 438.464 277.383C439.189 276.722 440.032 276.21 440.992 275.847C441.973 275.484 443.008 275.303 444.095 275.303C445.461 275.303 446.666 275.559 447.712 276.071C448.778 276.583 449.6 277.298 450.176 278.215C450.773 279.111 451.072 280.156 451.072 281.351V292.999H447.616V289.863L448.352 289.959C447.946 290.663 447.424 291.271 446.784 291.783C446.165 292.295 445.45 292.69 444.64 292.967C443.85 293.244 442.965 293.383 441.984 293.383ZM455.299 292.999V275.687H458.756V279.175L458.436 278.663C458.82 277.532 459.438 276.722 460.292 276.231C461.145 275.719 462.169 275.463 463.364 275.463H464.42V278.759H462.916C461.721 278.759 460.75 279.132 460.004 279.879C459.278 280.604 458.916 281.65 458.916 283.015V292.999H455.299ZM466.893 292.999V275.687H470.349V279.079L469.933 278.631C470.36 277.543 471.043 276.722 471.981 276.167C472.92 275.591 474.008 275.303 475.245 275.303C476.525 275.303 477.656 275.58 478.637 276.135C479.619 276.69 480.387 277.458 480.941 278.439C481.496 279.42 481.773 280.551 481.773 281.831V292.999H478.189V282.791C478.189 281.916 478.029 281.18 477.709 280.583C477.389 279.964 476.931 279.495 476.333 279.175C475.757 278.834 475.096 278.663 474.349 278.663C473.603 278.663 472.931 278.834 472.333 279.175C471.757 279.495 471.309 279.964 470.989 280.583C470.669 281.202 470.509 281.938 470.509 282.791V292.999H466.893ZM485.643 292.999V275.687H489.259V292.999H485.643ZM485.643 273.319V269.159H489.259V273.319H485.643ZM493.487 292.999V275.687H496.943V279.079L496.527 278.631C496.954 277.543 497.636 276.722 498.575 276.167C499.514 275.591 500.602 275.303 501.839 275.303C503.119 275.303 504.25 275.58 505.231 276.135C506.212 276.69 506.98 277.458 507.535 278.439C508.09 279.42 508.367 280.551 508.367 281.831V292.999H504.783V282.791C504.783 281.916 504.623 281.18 504.303 280.583C503.983 279.964 503.524 279.495 502.927 279.175C502.351 278.834 501.69 278.663 500.943 278.663C500.196 278.663 499.524 278.834 498.927 279.175C498.351 279.495 497.903 279.964 497.583 280.583C497.263 281.202 497.103 281.938 497.103 282.791V292.999H493.487ZM520.589 300.039C519.33 300.039 518.168 299.836 517.101 299.431C516.034 299.026 515.117 298.46 514.349 297.735C513.581 297.031 513.005 296.199 512.621 295.239L515.949 293.863C516.248 294.674 516.792 295.346 517.581 295.879C518.392 296.412 519.384 296.679 520.557 296.679C521.474 296.679 522.296 296.498 523.021 296.135C523.746 295.794 524.322 295.282 524.749 294.599C525.176 293.938 525.389 293.138 525.389 292.199V288.295L526.029 289.031C525.432 290.14 524.6 290.983 523.533 291.559C522.488 292.135 521.304 292.423 519.981 292.423C518.381 292.423 516.941 292.05 515.661 291.303C514.381 290.556 513.368 289.532 512.621 288.231C511.896 286.93 511.533 285.468 511.533 283.847C511.533 282.204 511.896 280.743 512.621 279.463C513.368 278.183 514.37 277.17 515.629 276.423C516.888 275.676 518.328 275.303 519.949 275.303C521.272 275.303 522.445 275.591 523.469 276.167C524.514 276.722 525.368 277.532 526.029 278.599L525.549 279.495V275.687H528.973V292.199C528.973 293.692 528.61 295.026 527.885 296.199C527.181 297.394 526.2 298.332 524.941 299.015C523.682 299.698 522.232 300.039 520.589 300.039ZM520.397 289.063C521.357 289.063 522.21 288.839 522.957 288.391C523.704 287.922 524.29 287.303 524.717 286.535C525.165 285.746 525.389 284.86 525.389 283.879C525.389 282.898 525.165 282.012 524.717 281.223C524.269 280.434 523.672 279.815 522.925 279.367C522.178 278.898 521.336 278.663 520.397 278.663C519.416 278.663 518.541 278.898 517.773 279.367C517.005 279.815 516.397 280.434 515.949 281.223C515.522 281.991 515.309 282.876 515.309 283.879C515.309 284.839 515.522 285.714 515.949 286.503C516.397 287.292 517.005 287.922 517.773 288.391C518.541 288.839 519.416 289.063 520.397 289.063ZM539.606 293.383C537.835 293.383 536.278 292.946 534.934 292.071C533.611 291.196 532.683 290.023 532.15 288.551L534.934 287.239C535.403 288.22 536.043 288.999 536.854 289.575C537.686 290.151 538.603 290.439 539.606 290.439C540.459 290.439 541.152 290.247 541.686 289.863C542.219 289.479 542.486 288.956 542.486 288.295C542.486 287.868 542.368 287.527 542.134 287.271C541.899 286.994 541.6 286.77 541.238 286.599C540.896 286.428 540.544 286.3 540.182 286.215L537.462 285.447C535.968 285.02 534.848 284.38 534.102 283.527C533.376 282.652 533.014 281.639 533.014 280.487C533.014 279.442 533.28 278.535 533.814 277.767C534.347 276.978 535.083 276.37 536.022 275.943C536.96 275.516 538.016 275.303 539.19 275.303C540.768 275.303 542.176 275.698 543.414 276.487C544.651 277.255 545.526 278.332 546.038 279.719L543.254 281.031C542.912 280.199 542.368 279.538 541.622 279.047C540.896 278.556 540.075 278.311 539.158 278.311C538.368 278.311 537.739 278.503 537.27 278.887C536.8 279.25 536.566 279.73 536.566 280.327C536.566 280.732 536.672 281.074 536.886 281.351C537.099 281.607 537.376 281.82 537.718 281.991C538.059 282.14 538.411 282.268 538.774 282.375L541.59 283.207C543.019 283.612 544.118 284.252 544.886 285.127C545.654 285.98 546.038 287.004 546.038 288.199C546.038 289.223 545.76 290.13 545.206 290.919C544.672 291.687 543.926 292.295 542.966 292.743C542.006 293.17 540.886 293.383 539.606 293.383Z" fill="#298A5A"/>
</svg>
