<svg width="617" height="616" viewBox="0 0 617 616" fill="none" xmlns="http://www.w3.org/2000/svg">
<path d="M3.456 50V14.24H9.984V50H3.456ZM28.2383 50.288C25.2943 50.288 23.0063 49.488 21.3743 47.888C19.7743 46.256 18.9743 43.968 18.9743 41.024V29.504H14.4623V23.888H14.9423C16.2223 23.888 17.2143 23.552 17.9183 22.88C18.6223 22.208 18.9743 21.232 18.9743 19.952V17.936H25.2623V23.888H31.2623V29.504H25.2623V40.688C25.2623 41.552 25.4063 42.288 25.6943 42.896C26.0143 43.504 26.4943 43.968 27.1343 44.288C27.8063 44.608 28.6543 44.768 29.6783 44.768C29.9023 44.768 30.1583 44.752 30.4463 44.72C30.7663 44.688 31.0703 44.656 31.3583 44.624V50C30.9103 50.064 30.3983 50.128 29.8223 50.192C29.2463 50.256 28.7183 50.288 28.2383 50.288ZM56.5976 50.288C53.6536 50.288 51.3656 49.488 49.7336 47.888C48.1336 46.256 47.3336 43.968 47.3336 41.024V29.504H42.8216V23.888H43.3016C44.5816 23.888 45.5736 23.552 46.2776 22.88C46.9816 22.208 47.3336 21.232 47.3336 19.952V17.936H53.6216V23.888H59.6216V29.504H53.6216V40.688C53.6216 41.552 53.7656 42.288 54.0536 42.896C54.3736 43.504 54.8536 43.968 55.4936 44.288C56.1656 44.608 57.0136 44.768 58.0376 44.768C58.2616 44.768 58.5176 44.752 58.8056 44.72C59.1256 44.688 59.4296 44.656 59.7176 44.624V50C59.2696 50.064 58.7576 50.128 58.1816 50.192C57.6056 50.256 57.0776 50.288 56.5976 50.288ZM72.348 50.576C70.524 50.576 68.94 50.272 67.596 49.664C66.252 49.056 65.212 48.192 64.476 47.072C63.74 45.92 63.372 44.592 63.372 43.088C63.372 41.648 63.692 40.368 64.332 39.248C64.972 38.096 65.964 37.136 67.308 36.368C68.652 35.6 70.348 35.056 72.396 34.736L80.94 33.344V38.144L73.596 39.392C72.348 39.616 71.42 40.016 70.812 40.592C70.204 41.168 69.9 41.92 69.9 42.848C69.9 43.744 70.236 44.464 70.908 45.008C71.612 45.52 72.476 45.776 73.5 45.776C74.812 45.776 75.964 45.504 76.956 44.96C77.98 44.384 78.764 43.6 79.308 42.608C79.884 41.616 80.172 40.528 80.172 39.344V32.624C80.172 31.504 79.724 30.576 78.828 29.84C77.964 29.072 76.812 28.688 75.372 28.688C74.028 28.688 72.828 29.056 71.772 29.792C70.748 30.496 69.996 31.44 69.516 32.624L64.38 30.128C64.892 28.752 65.692 27.568 66.78 26.576C67.9 25.552 69.212 24.752 70.716 24.176C72.22 23.6 73.852 23.312 75.612 23.312C77.756 23.312 79.644 23.712 81.276 24.512C82.908 25.28 84.172 26.368 85.068 27.776C85.996 29.152 86.46 30.768 86.46 32.624V50H80.508V45.536L81.852 45.44C81.18 46.56 80.38 47.504 79.452 48.272C78.524 49.008 77.468 49.584 76.284 50C75.1 50.384 73.788 50.576 72.348 50.576ZM92.2718 50V13.664H98.5598V37.472L96.1598 36.752L108.448 23.888H116.272L106.624 34.4L116.464 50H109.264L100.72 36.464L104.464 35.696L96.5918 44.144L98.5598 40.304V50H92.2718ZM131.89 50.576C129.202 50.576 126.85 49.968 124.834 48.752C122.818 47.536 121.25 45.888 120.13 43.808C119.01 41.728 118.45 39.424 118.45 36.896C118.45 34.272 119.01 31.952 120.13 29.936C121.282 27.888 122.834 26.272 124.786 25.088C126.77 23.904 128.978 23.312 131.41 23.312C133.458 23.312 135.25 23.648 136.786 24.32C138.354 24.992 139.682 25.92 140.77 27.104C141.858 28.288 142.69 29.648 143.266 31.184C143.842 32.688 144.13 34.32 144.13 36.08C144.13 36.528 144.098 36.992 144.034 37.472C144.002 37.952 143.922 38.368 143.794 38.72H123.634V33.92H140.242L137.266 36.176C137.554 34.704 137.474 33.392 137.026 32.24C136.61 31.088 135.906 30.176 134.914 29.504C133.954 28.832 132.786 28.496 131.41 28.496C130.098 28.496 128.93 28.832 127.906 29.504C126.882 30.144 126.098 31.104 125.554 32.384C125.042 33.632 124.85 35.152 124.978 36.944C124.85 38.544 125.058 39.968 125.602 41.216C126.178 42.432 127.01 43.376 128.098 44.048C129.218 44.72 130.498 45.056 131.938 45.056C133.378 45.056 134.594 44.752 135.586 44.144C136.61 43.536 137.41 42.72 137.986 41.696L143.074 44.192C142.562 45.44 141.762 46.544 140.674 47.504C139.586 48.464 138.29 49.216 136.786 49.76C135.314 50.304 133.682 50.576 131.89 50.576ZM158.833 50.576C156.049 50.576 153.617 49.92 151.537 48.608C149.489 47.264 148.081 45.456 147.313 43.184L152.017 40.928C152.689 42.4 153.617 43.552 154.801 44.384C156.017 45.216 157.361 45.632 158.833 45.632C159.985 45.632 160.897 45.376 161.569 44.864C162.241 44.352 162.577 43.68 162.577 42.848C162.577 42.336 162.433 41.92 162.145 41.6C161.889 41.248 161.521 40.96 161.041 40.736C160.593 40.48 160.097 40.272 159.553 40.112L155.281 38.912C153.073 38.272 151.393 37.296 150.241 35.984C149.121 34.672 148.561 33.12 148.561 31.328C148.561 29.728 148.961 28.336 149.761 27.152C150.593 25.936 151.729 24.992 153.169 24.32C154.641 23.648 156.321 23.312 158.209 23.312C160.673 23.312 162.849 23.904 164.737 25.088C166.625 26.272 167.969 27.936 168.769 30.08L163.969 32.336C163.521 31.152 162.769 30.208 161.713 29.504C160.657 28.8 159.473 28.448 158.161 28.448C157.105 28.448 156.273 28.688 155.665 29.168C155.057 29.648 154.753 30.272 154.753 31.04C154.753 31.52 154.881 31.936 155.137 32.288C155.393 32.64 155.745 32.928 156.193 33.152C156.673 33.376 157.217 33.584 157.825 33.776L162.001 35.024C164.145 35.664 165.793 36.624 166.945 37.904C168.129 39.184 168.721 40.752 168.721 42.608C168.721 44.176 168.305 45.568 167.473 46.784C166.641 47.968 165.489 48.896 164.017 49.568C162.545 50.24 160.817 50.576 158.833 50.576ZM178.484 60.608C178.068 60.608 177.636 60.592 177.188 60.56C176.74 60.528 176.372 60.48 176.084 60.416V54.944C176.66 55.04 177.236 55.088 177.812 55.088C179.156 55.088 180.196 54.768 180.932 54.128C181.7 53.52 182.084 52.576 182.084 51.296V23.888H188.372V51.296C188.372 53.28 187.972 54.96 187.172 56.336C186.372 57.744 185.22 58.8 183.716 59.504C182.244 60.24 180.5 60.608 178.484 60.608ZM182.084 20.96V14.24H188.372V20.96H182.084ZM203.49 50.576C201.474 50.576 199.714 50.128 198.21 49.232C196.738 48.336 195.602 47.088 194.802 45.488C194.034 43.888 193.65 42.016 193.65 39.872V23.888H199.938V39.344C199.938 40.432 200.146 41.392 200.562 42.224C201.01 43.024 201.634 43.664 202.434 44.144C203.266 44.592 204.194 44.816 205.218 44.816C206.242 44.816 207.154 44.592 207.954 44.144C208.754 43.664 209.378 43.008 209.826 42.176C210.274 41.344 210.498 40.352 210.498 39.2V23.888H216.786V50H210.834V44.864L211.362 45.776C210.754 47.376 209.746 48.576 208.338 49.376C206.962 50.176 205.346 50.576 203.49 50.576ZM232.567 50.576C229.783 50.576 227.351 49.92 225.271 48.608C223.223 47.264 221.815 45.456 221.047 43.184L225.751 40.928C226.423 42.4 227.351 43.552 228.535 44.384C229.751 45.216 231.095 45.632 232.567 45.632C233.719 45.632 234.631 45.376 235.303 44.864C235.975 44.352 236.311 43.68 236.311 42.848C236.311 42.336 236.167 41.92 235.879 41.6C235.623 41.248 235.255 40.96 234.775 40.736C234.327 40.48 233.831 40.272 233.287 40.112L229.015 38.912C226.807 38.272 225.127 37.296 223.975 35.984C222.855 34.672 222.295 33.12 222.295 31.328C222.295 29.728 222.695 28.336 223.495 27.152C224.327 25.936 225.463 24.992 226.903 24.32C228.375 23.648 230.055 23.312 231.943 23.312C234.407 23.312 236.583 23.904 238.471 25.088C240.359 26.272 241.703 27.936 242.503 30.08L237.703 32.336C237.255 31.152 236.503 30.208 235.447 29.504C234.391 28.8 233.207 28.448 231.895 28.448C230.839 28.448 230.007 28.688 229.399 29.168C228.791 29.648 228.487 30.272 228.487 31.04C228.487 31.52 228.615 31.936 228.871 32.288C229.127 32.64 229.479 32.928 229.927 33.152C230.407 33.376 230.951 33.584 231.559 33.776L235.735 35.024C237.879 35.664 239.527 36.624 240.679 37.904C241.863 39.184 242.455 40.752 242.455 42.608C242.455 44.176 242.039 45.568 241.207 46.784C240.375 47.968 239.223 48.896 237.751 49.568C236.279 50.24 234.551 50.576 232.567 50.576ZM259.191 50.288C256.247 50.288 253.959 49.488 252.327 47.888C250.727 46.256 249.927 43.968 249.927 41.024V29.504H245.415V23.888H245.895C247.175 23.888 248.167 23.552 248.871 22.88C249.575 22.208 249.927 21.232 249.927 19.952V17.936H256.215V23.888H262.215V29.504H256.215V40.688C256.215 41.552 256.359 42.288 256.647 42.896C256.967 43.504 257.447 43.968 258.087 44.288C258.759 44.608 259.607 44.768 260.631 44.768C260.855 44.768 261.111 44.752 261.399 44.72C261.719 44.688 262.023 44.656 262.311 44.624V50C261.863 50.064 261.351 50.128 260.775 50.192C260.199 50.256 259.671 50.288 259.191 50.288ZM286.783 50.576C284.831 50.576 282.975 50.224 281.215 49.52C279.487 48.784 277.999 47.76 276.751 46.448C275.535 45.104 274.703 43.52 274.255 41.696L279.967 39.68C280.543 41.312 281.423 42.56 282.607 43.424C283.791 44.256 285.183 44.672 286.783 44.672C288.063 44.672 289.167 44.432 290.095 43.952C291.055 43.472 291.807 42.784 292.351 41.888C292.895 40.96 293.167 39.872 293.167 38.624C293.167 37.376 292.895 36.32 292.351 35.456C291.839 34.56 291.103 33.872 290.143 33.392C289.183 32.912 288.047 32.672 286.735 32.672C286.127 32.672 285.487 32.736 284.815 32.864C284.175 32.992 283.599 33.184 283.087 33.44L281.599 30.32L290.863 19.76H276.271V14.24H298.207V19.376L288.895 30.272L288.991 27.824C291.135 27.856 293.007 28.32 294.607 29.216C296.207 30.112 297.455 31.344 298.351 32.912C299.247 34.48 299.695 36.32 299.695 38.432C299.695 40.736 299.135 42.816 298.015 44.672C296.895 46.496 295.359 47.936 293.407 48.992C291.455 50.048 289.247 50.576 286.783 50.576ZM323.458 50.576C320.674 50.576 318.242 49.92 316.162 48.608C314.114 47.264 312.706 45.456 311.938 43.184L316.642 40.928C317.314 42.4 318.242 43.552 319.426 44.384C320.642 45.216 321.986 45.632 323.458 45.632C324.61 45.632 325.522 45.376 326.194 44.864C326.866 44.352 327.202 43.68 327.202 42.848C327.202 42.336 327.058 41.92 326.77 41.6C326.514 41.248 326.146 40.96 325.666 40.736C325.218 40.48 324.722 40.272 324.178 40.112L319.906 38.912C317.698 38.272 316.018 37.296 314.866 35.984C313.746 34.672 313.186 33.12 313.186 31.328C313.186 29.728 313.586 28.336 314.386 27.152C315.218 25.936 316.354 24.992 317.794 24.32C319.266 23.648 320.946 23.312 322.834 23.312C325.298 23.312 327.474 23.904 329.362 25.088C331.25 26.272 332.594 27.936 333.394 30.08L328.594 32.336C328.146 31.152 327.394 30.208 326.338 29.504C325.282 28.8 324.098 28.448 322.786 28.448C321.73 28.448 320.898 28.688 320.29 29.168C319.682 29.648 319.378 30.272 319.378 31.04C319.378 31.52 319.506 31.936 319.762 32.288C320.018 32.64 320.37 32.928 320.818 33.152C321.298 33.376 321.842 33.584 322.45 33.776L326.626 35.024C328.77 35.664 330.418 36.624 331.57 37.904C332.754 39.184 333.346 40.752 333.346 42.608C333.346 44.176 332.93 45.568 332.098 46.784C331.266 47.968 330.114 48.896 328.642 49.568C327.17 50.24 325.442 50.576 323.458 50.576ZM338.178 50V23.888H344.466V50H338.178ZM338.178 20.96V14.24H344.466V20.96H338.178ZM350.272 50V23.888H356.176V29.936L355.504 28.928C355.984 27.04 356.944 25.632 358.384 24.704C359.824 23.776 361.52 23.312 363.472 23.312C365.616 23.312 367.504 23.872 369.136 24.992C370.768 26.112 371.824 27.584 372.304 29.408L370.528 29.552C371.328 27.472 372.528 25.92 374.128 24.896C375.728 23.84 377.568 23.312 379.648 23.312C381.504 23.312 383.152 23.728 384.592 24.56C386.064 25.392 387.216 26.56 388.048 28.064C388.88 29.536 389.296 31.248 389.296 33.2V50H383.008V34.688C383.008 33.536 382.8 32.544 382.384 31.712C381.968 30.88 381.392 30.24 380.656 29.792C379.92 29.312 379.024 29.072 377.968 29.072C376.976 29.072 376.096 29.312 375.328 29.792C374.56 30.24 373.968 30.88 373.552 31.712C373.136 32.544 372.928 33.536 372.928 34.688V50H366.64V34.688C366.64 33.536 366.432 32.544 366.016 31.712C365.6 30.88 365.008 30.24 364.24 29.792C363.504 29.312 362.624 29.072 361.6 29.072C360.608 29.072 359.728 29.312 358.96 29.792C358.192 30.24 357.6 30.88 357.184 31.712C356.768 32.544 356.56 33.536 356.56 34.688V50H350.272ZM394.616 59.6V23.888H400.52V29.072L399.944 27.776C400.84 26.368 402.056 25.28 403.592 24.512C405.128 23.712 406.904 23.312 408.92 23.312C411.384 23.312 413.608 23.92 415.592 25.136C417.576 26.352 419.144 27.984 420.296 30.032C421.48 32.08 422.072 34.384 422.072 36.944C422.072 39.472 421.496 41.776 420.344 43.856C419.192 45.936 417.624 47.584 415.64 48.8C413.656 49.984 411.4 50.576 408.872 50.576C406.984 50.576 405.24 50.208 403.64 49.472C402.072 48.704 400.824 47.616 399.896 46.208L400.904 44.96V59.6H394.616ZM408.152 44.816C409.592 44.816 410.872 44.48 411.992 43.808C413.112 43.136 413.976 42.208 414.584 41.024C415.224 39.84 415.544 38.48 415.544 36.944C415.544 35.408 415.224 34.064 414.584 32.912C413.976 31.728 413.112 30.8 411.992 30.128C410.872 29.424 409.592 29.072 408.152 29.072C406.776 29.072 405.528 29.408 404.408 30.08C403.32 30.752 402.456 31.696 401.816 32.912C401.208 34.096 400.904 35.44 400.904 36.944C400.904 38.48 401.208 39.84 401.816 41.024C402.456 42.208 403.32 43.136 404.408 43.808C405.528 44.48 406.776 44.816 408.152 44.816ZM426.866 50V13.664H433.154V50H426.866ZM451.343 50.576C448.655 50.576 446.303 49.968 444.287 48.752C442.271 47.536 440.703 45.888 439.583 43.808C438.463 41.728 437.903 39.424 437.903 36.896C437.903 34.272 438.463 31.952 439.583 29.936C440.735 27.888 442.287 26.272 444.239 25.088C446.223 23.904 448.431 23.312 450.863 23.312C452.911 23.312 454.703 23.648 456.239 24.32C457.807 24.992 459.135 25.92 460.223 27.104C461.311 28.288 462.143 29.648 462.719 31.184C463.295 32.688 463.583 34.32 463.583 36.08C463.583 36.528 463.551 36.992 463.487 37.472C463.455 37.952 463.375 38.368 463.247 38.72H443.087V33.92H459.695L456.719 36.176C457.007 34.704 456.927 33.392 456.479 32.24C456.063 31.088 455.359 30.176 454.367 29.504C453.407 28.832 452.239 28.496 450.863 28.496C449.551 28.496 448.383 28.832 447.359 29.504C446.335 30.144 445.551 31.104 445.007 32.384C444.495 33.632 444.303 35.152 444.431 36.944C444.303 38.544 444.511 39.968 445.055 41.216C445.631 42.432 446.463 43.376 447.551 44.048C448.671 44.72 449.951 45.056 451.391 45.056C452.831 45.056 454.047 44.752 455.039 44.144C456.063 43.536 456.863 42.72 457.439 41.696L462.527 44.192C462.015 45.44 461.215 46.544 460.127 47.504C459.039 48.464 457.743 49.216 456.239 49.76C454.767 50.304 453.135 50.576 451.343 50.576ZM486.817 50.576C484.033 50.576 481.601 49.92 479.521 48.608C477.473 47.264 476.065 45.456 475.297 43.184L480.001 40.928C480.673 42.4 481.601 43.552 482.785 44.384C484.001 45.216 485.345 45.632 486.817 45.632C487.969 45.632 488.881 45.376 489.553 44.864C490.225 44.352 490.561 43.68 490.561 42.848C490.561 42.336 490.417 41.92 490.129 41.6C489.873 41.248 489.505 40.96 489.025 40.736C488.577 40.48 488.081 40.272 487.537 40.112L483.265 38.912C481.057 38.272 479.377 37.296 478.225 35.984C477.105 34.672 476.545 33.12 476.545 31.328C476.545 29.728 476.945 28.336 477.745 27.152C478.577 25.936 479.713 24.992 481.153 24.32C482.625 23.648 484.305 23.312 486.193 23.312C488.657 23.312 490.833 23.904 492.721 25.088C494.609 26.272 495.953 27.936 496.753 30.08L491.953 32.336C491.505 31.152 490.753 30.208 489.697 29.504C488.641 28.8 487.457 28.448 486.145 28.448C485.089 28.448 484.257 28.688 483.649 29.168C483.041 29.648 482.737 30.272 482.737 31.04C482.737 31.52 482.865 31.936 483.121 32.288C483.377 32.64 483.729 32.928 484.177 33.152C484.657 33.376 485.201 33.584 485.809 33.776L489.985 35.024C492.129 35.664 493.777 36.624 494.929 37.904C496.113 39.184 496.705 40.752 496.705 42.608C496.705 44.176 496.289 45.568 495.457 46.784C494.625 47.968 493.473 48.896 492.001 49.568C490.529 50.24 488.801 50.576 486.817 50.576ZM513.441 50.288C510.497 50.288 508.209 49.488 506.577 47.888C504.977 46.256 504.177 43.968 504.177 41.024V29.504H499.665V23.888H500.145C501.425 23.888 502.417 23.552 503.121 22.88C503.825 22.208 504.177 21.232 504.177 19.952V17.936H510.465V23.888H516.465V29.504H510.465V40.688C510.465 41.552 510.609 42.288 510.897 42.896C511.217 43.504 511.697 43.968 512.337 44.288C513.009 44.608 513.857 44.768 514.881 44.768C515.105 44.768 515.361 44.752 515.649 44.72C515.969 44.688 516.273 44.656 516.561 44.624V50C516.113 50.064 515.601 50.128 515.025 50.192C514.449 50.256 513.921 50.288 513.441 50.288ZM533.515 50.576C530.827 50.576 528.475 49.968 526.459 48.752C524.443 47.536 522.875 45.888 521.755 43.808C520.635 41.728 520.075 39.424 520.075 36.896C520.075 34.272 520.635 31.952 521.755 29.936C522.907 27.888 524.459 26.272 526.411 25.088C528.395 23.904 530.603 23.312 533.035 23.312C535.083 23.312 536.875 23.648 538.411 24.32C539.979 24.992 541.307 25.92 542.395 27.104C543.483 28.288 544.315 29.648 544.891 31.184C545.467 32.688 545.755 34.32 545.755 36.08C545.755 36.528 545.723 36.992 545.659 37.472C545.627 37.952 545.547 38.368 545.419 38.72H525.259V33.92H541.867L538.891 36.176C539.179 34.704 539.099 33.392 538.651 32.24C538.235 31.088 537.531 30.176 536.539 29.504C535.579 28.832 534.411 28.496 533.035 28.496C531.723 28.496 530.555 28.832 529.531 29.504C528.507 30.144 527.723 31.104 527.179 32.384C526.667 33.632 526.475 35.152 526.603 36.944C526.475 38.544 526.683 39.968 527.227 41.216C527.803 42.432 528.635 43.376 529.723 44.048C530.843 44.72 532.123 45.056 533.563 45.056C535.003 45.056 536.219 44.752 537.211 44.144C538.235 43.536 539.035 42.72 539.611 41.696L544.699 44.192C544.187 45.44 543.387 46.544 542.299 47.504C541.211 48.464 539.915 49.216 538.411 49.76C536.939 50.304 535.307 50.576 533.515 50.576ZM550.522 59.6V23.888H556.426V29.072L555.85 27.776C556.746 26.368 557.962 25.28 559.498 24.512C561.034 23.712 562.81 23.312 564.826 23.312C567.29 23.312 569.514 23.92 571.498 25.136C573.482 26.352 575.05 27.984 576.202 30.032C577.386 32.08 577.978 34.384 577.978 36.944C577.978 39.472 577.402 41.776 576.25 43.856C575.098 45.936 573.53 47.584 571.546 48.8C569.562 49.984 567.306 50.576 564.778 50.576C562.89 50.576 561.146 50.208 559.546 49.472C557.978 48.704 556.73 47.616 555.802 46.208L556.81 44.96V59.6H550.522ZM564.058 44.816C565.498 44.816 566.778 44.48 567.898 43.808C569.018 43.136 569.882 42.208 570.49 41.024C571.13 39.84 571.45 38.48 571.45 36.944C571.45 35.408 571.13 34.064 570.49 32.912C569.882 31.728 569.018 30.8 567.898 30.128C566.778 29.424 565.498 29.072 564.058 29.072C562.682 29.072 561.434 29.408 560.314 30.08C559.226 30.752 558.362 31.696 557.722 32.912C557.114 34.096 556.81 35.44 556.81 36.944C556.81 38.48 557.114 39.84 557.722 41.024C558.362 42.208 559.226 43.136 560.314 43.808C561.434 44.48 562.682 44.816 564.058 44.816ZM592.708 50.576C589.924 50.576 587.492 49.92 585.412 48.608C583.364 47.264 581.956 45.456 581.188 43.184L585.892 40.928C586.564 42.4 587.492 43.552 588.676 44.384C589.892 45.216 591.236 45.632 592.708 45.632C593.86 45.632 594.772 45.376 595.444 44.864C596.116 44.352 596.452 43.68 596.452 42.848C596.452 42.336 596.308 41.92 596.02 41.6C595.764 41.248 595.396 40.96 594.916 40.736C594.468 40.48 593.972 40.272 593.428 40.112L589.156 38.912C586.948 38.272 585.268 37.296 584.116 35.984C582.996 34.672 582.436 33.12 582.436 31.328C582.436 29.728 582.836 28.336 583.636 27.152C584.468 25.936 585.604 24.992 587.044 24.32C588.516 23.648 590.196 23.312 592.084 23.312C594.548 23.312 596.724 23.904 598.612 25.088C600.5 26.272 601.844 27.936 602.644 30.08L597.844 32.336C597.396 31.152 596.644 30.208 595.588 29.504C594.532 28.8 593.348 28.448 592.036 28.448C590.98 28.448 590.148 28.688 589.54 29.168C588.932 29.648 588.628 30.272 588.628 31.04C588.628 31.52 588.756 31.936 589.012 32.288C589.268 32.64 589.62 32.928 590.068 33.152C590.548 33.376 591.092 33.584 591.7 33.776L595.876 35.024C598.02 35.664 599.668 36.624 600.82 37.904C602.004 39.184 602.596 40.752 602.596 42.608C602.596 44.176 602.18 45.568 601.348 46.784C600.516 47.968 599.364 48.896 597.892 49.568C596.42 50.24 594.692 50.576 592.708 50.576Z" fill="#191717"/>
<path d="M13.4285 125.384C11.5298 125.384 9.86583 124.872 8.4365 123.848C7.0285 122.803 5.92983 121.363 5.1405 119.528C4.35117 117.672 3.9565 115.517 3.9565 113.064C3.9565 110.611 4.35117 108.467 5.1405 106.632C5.92983 104.776 7.0285 103.336 8.4365 102.312C9.8445 101.288 11.4978 100.776 13.3965 100.776C15.2952 100.776 16.9485 101.288 18.3565 102.312C19.7645 103.336 20.8632 104.776 21.6525 106.632C22.4632 108.467 22.8685 110.611 22.8685 113.064C22.8685 115.517 22.4738 117.672 21.6845 119.528C20.8952 121.384 19.7858 122.824 18.3565 123.848C16.9485 124.872 15.3058 125.384 13.4285 125.384ZM13.4285 122.472C14.7085 122.472 15.8178 122.088 16.7565 121.32C17.6952 120.531 18.4205 119.432 18.9325 118.024C19.4658 116.616 19.7325 114.963 19.7325 113.064C19.7325 111.165 19.4658 109.512 18.9325 108.104C18.4205 106.696 17.6845 105.608 16.7245 104.84C15.7858 104.072 14.6765 103.688 13.3965 103.688C12.1165 103.688 11.0072 104.072 10.0685 104.84C9.12983 105.608 8.39383 106.696 7.8605 108.104C7.3485 109.512 7.0925 111.165 7.0925 113.064C7.0925 114.941 7.3485 116.584 7.8605 117.992C8.39383 119.4 9.12983 120.499 10.0685 121.288C11.0285 122.077 12.1485 122.472 13.4285 122.472ZM30.6648 125V103.88H26.1528V101.16H33.8328V125H30.6648Z" fill="#191717"/>
<path d="M61.656 125V101.16H69.464C71.8747 101.16 73.976 101.651 75.768 102.632C77.56 103.613 78.9467 105 79.928 106.792C80.9093 108.563 81.4 110.653 81.4 113.064C81.4 115.453 80.9093 117.544 79.928 119.336C78.9467 121.128 77.56 122.525 75.768 123.528C73.976 124.509 71.8747 125 69.464 125H61.656ZM64.792 122.12H69.496C71.2667 122.12 72.792 121.747 74.072 121C75.3733 120.253 76.376 119.208 77.08 117.864C77.784 116.499 78.136 114.899 78.136 113.064C78.136 111.208 77.7733 109.608 77.048 108.264C76.344 106.92 75.3413 105.885 74.04 105.16C72.76 104.413 71.2453 104.04 69.496 104.04H64.792V122.12ZM93.2148 125.384C91.5508 125.384 90.0468 125 88.7028 124.232C87.3588 123.443 86.2921 122.365 85.5028 121C84.7134 119.635 84.3188 118.088 84.3188 116.36C84.3188 114.632 84.7028 113.096 85.4708 111.752C86.2601 110.408 87.3268 109.341 88.6708 108.552C90.0148 107.763 91.5294 107.368 93.2148 107.368C94.8788 107.368 96.3828 107.763 97.7268 108.552C99.0708 109.32 100.127 110.376 100.895 111.72C101.684 113.064 102.079 114.611 102.079 116.36C102.079 118.109 101.673 119.667 100.863 121.032C100.052 122.376 98.9748 123.443 97.6308 124.232C96.3081 125 94.8361 125.384 93.2148 125.384ZM93.2148 122.504C94.2814 122.504 95.2414 122.237 96.0948 121.704C96.9694 121.171 97.6521 120.435 98.1428 119.496C98.6548 118.557 98.9108 117.512 98.9108 116.36C98.9108 115.187 98.6548 114.152 98.1428 113.256C97.6521 112.339 96.9694 111.613 96.0948 111.08C95.2414 110.525 94.2814 110.248 93.2148 110.248C92.1268 110.248 91.1454 110.525 90.2708 111.08C89.4174 111.613 88.7348 112.339 88.2228 113.256C87.7108 114.152 87.4548 115.187 87.4548 116.36C87.4548 117.512 87.7108 118.557 88.2228 119.496C88.7348 120.435 89.4174 121.171 90.2708 121.704C91.1454 122.237 92.1268 122.504 93.2148 122.504ZM109.616 125L103.696 107.752H106.992L111.696 122.184L110.544 122.152L115.152 107.752H117.968L122.576 122.152L121.424 122.184L126.16 107.752H129.424L123.504 125H120.656L116.112 110.6H117.008L112.464 125H109.616ZM132.085 125V107.752H134.997V111.112L134.517 110.824C134.944 109.736 135.627 108.893 136.565 108.296C137.525 107.677 138.645 107.368 139.925 107.368C141.163 107.368 142.261 107.645 143.221 108.2C144.203 108.755 144.971 109.523 145.525 110.504C146.101 111.485 146.389 112.595 146.389 113.832V125H143.381V114.792C143.381 113.832 143.211 113.021 142.869 112.36C142.528 111.699 142.037 111.187 141.397 110.824C140.779 110.44 140.064 110.248 139.253 110.248C138.443 110.248 137.717 110.44 137.077 110.824C136.459 111.187 135.968 111.709 135.605 112.392C135.243 113.053 135.061 113.853 135.061 114.792V125H132.085ZM150.648 125V100.776H153.624V125H150.648ZM166.434 125.384C164.77 125.384 163.266 125 161.922 124.232C160.578 123.443 159.511 122.365 158.722 121C157.932 119.635 157.538 118.088 157.538 116.36C157.538 114.632 157.922 113.096 158.69 111.752C159.479 110.408 160.546 109.341 161.89 108.552C163.234 107.763 164.748 107.368 166.434 107.368C168.098 107.368 169.602 107.763 170.946 108.552C172.29 109.32 173.346 110.376 174.114 111.72C174.903 113.064 175.298 114.611 175.298 116.36C175.298 118.109 174.892 119.667 174.082 121.032C173.271 122.376 172.194 123.443 170.85 124.232C169.527 125 168.055 125.384 166.434 125.384ZM166.434 122.504C167.5 122.504 168.46 122.237 169.314 121.704C170.188 121.171 170.871 120.435 171.362 119.496C171.874 118.557 172.13 117.512 172.13 116.36C172.13 115.187 171.874 114.152 171.362 113.256C170.871 112.339 170.188 111.613 169.314 111.08C168.46 110.525 167.5 110.248 166.434 110.248C165.346 110.248 164.364 110.525 163.49 111.08C162.636 111.613 161.954 112.339 161.442 113.256C160.93 114.152 160.674 115.187 160.674 116.36C160.674 117.512 160.93 118.557 161.442 119.496C161.954 120.435 162.636 121.171 163.49 121.704C164.364 122.237 165.346 122.504 166.434 122.504ZM184.235 125.384C183.104 125.384 182.102 125.181 181.227 124.776C180.374 124.349 179.702 123.773 179.211 123.048C178.72 122.301 178.475 121.448 178.475 120.488C178.475 119.571 178.667 118.749 179.051 118.024C179.456 117.277 180.075 116.648 180.907 116.136C181.76 115.624 182.827 115.261 184.107 115.048L190.507 113.992V116.488L184.779 117.448C183.67 117.64 182.859 117.992 182.347 118.504C181.856 119.016 181.611 119.645 181.611 120.392C181.611 121.096 181.888 121.683 182.443 122.152C183.019 122.621 183.734 122.856 184.587 122.856C185.675 122.856 186.614 122.632 187.403 122.184C188.214 121.715 188.843 121.085 189.291 120.296C189.76 119.507 189.995 118.632 189.995 117.672V113.288C189.995 112.349 189.643 111.592 188.939 111.016C188.256 110.419 187.35 110.12 186.219 110.12C185.238 110.12 184.363 110.376 183.595 110.888C182.848 111.379 182.294 112.04 181.931 112.872L179.339 111.528C179.659 110.739 180.171 110.035 180.875 109.416C181.579 108.776 182.4 108.275 183.339 107.912C184.278 107.549 185.259 107.368 186.283 107.368C187.606 107.368 188.768 107.624 189.771 108.136C190.774 108.627 191.552 109.32 192.107 110.216C192.683 111.091 192.971 112.115 192.971 113.288V125H190.059V121.736L190.603 121.928C190.24 122.611 189.75 123.208 189.131 123.72C188.512 124.232 187.787 124.637 186.955 124.936C186.123 125.235 185.216 125.384 184.235 125.384ZM205.425 125.384C203.804 125.384 202.343 124.989 201.041 124.2C199.761 123.411 198.748 122.333 198.001 120.968C197.255 119.603 196.881 118.077 196.881 116.392C196.881 114.664 197.255 113.128 198.001 111.784C198.748 110.419 199.761 109.341 201.041 108.552C202.343 107.763 203.804 107.368 205.425 107.368C206.855 107.368 208.124 107.677 209.233 108.296C210.343 108.893 211.217 109.704 211.857 110.728L211.377 111.464V100.776H214.385V125H211.473V121.32L211.857 121.832C211.26 122.963 210.385 123.837 209.233 124.456C208.103 125.075 206.833 125.384 205.425 125.384ZM205.681 122.504C206.769 122.504 207.74 122.237 208.593 121.704C209.447 121.171 210.119 120.445 210.609 119.528C211.121 118.589 211.377 117.544 211.377 116.392C211.377 115.219 211.121 114.173 210.609 113.256C210.119 112.317 209.447 111.581 208.593 111.048C207.74 110.515 206.769 110.248 205.681 110.248C204.615 110.248 203.644 110.525 202.769 111.08C201.916 111.613 201.244 112.339 200.753 113.256C200.263 114.152 200.017 115.197 200.017 116.392C200.017 117.544 200.263 118.589 200.753 119.528C201.244 120.445 201.916 121.171 202.769 121.704C203.623 122.237 204.593 122.504 205.681 122.504ZM231.531 125.192C229.845 125.192 228.544 124.712 227.627 123.752C226.731 122.792 226.283 121.437 226.283 119.688V110.6H223.147V107.752H223.787C224.555 107.752 225.163 107.517 225.611 107.048C226.059 106.579 226.283 105.96 226.283 105.192V103.784H229.259V107.752H233.131V110.6H229.259V119.592C229.259 120.168 229.344 120.669 229.515 121.096C229.707 121.523 230.016 121.864 230.443 122.12C230.869 122.355 231.435 122.472 232.139 122.472C232.288 122.472 232.469 122.461 232.683 122.44C232.917 122.419 233.131 122.397 233.323 122.376V125C233.045 125.064 232.736 125.107 232.395 125.128C232.053 125.171 231.765 125.192 231.531 125.192ZM237.21 125V100.776H240.186V111.112L239.642 110.824C240.069 109.736 240.752 108.893 241.69 108.296C242.65 107.677 243.77 107.368 245.05 107.368C246.288 107.368 247.386 107.645 248.346 108.2C249.328 108.755 250.096 109.523 250.65 110.504C251.226 111.485 251.514 112.595 251.514 113.832V125H248.506V114.792C248.506 113.832 248.325 113.021 247.962 112.36C247.621 111.699 247.141 111.187 246.522 110.824C245.904 110.44 245.189 110.248 244.378 110.248C243.589 110.248 242.874 110.44 242.234 110.824C241.594 111.187 241.093 111.709 240.73 112.392C240.368 113.053 240.186 113.853 240.186 114.792V125H237.21ZM263.709 125.384C262.045 125.384 260.562 124.989 259.261 124.2C257.959 123.411 256.935 122.333 256.189 120.968C255.442 119.581 255.069 118.035 255.069 116.328C255.069 114.6 255.431 113.064 256.157 111.72C256.903 110.376 257.906 109.32 259.165 108.552C260.445 107.763 261.874 107.368 263.453 107.368C264.733 107.368 265.863 107.603 266.845 108.072C267.847 108.52 268.69 109.139 269.373 109.928C270.077 110.696 270.61 111.581 270.973 112.584C271.357 113.565 271.549 114.589 271.549 115.656C271.549 115.891 271.527 116.157 271.485 116.456C271.463 116.733 271.431 117 271.389 117.256H257.245V114.696H269.661L268.253 115.848C268.445 114.739 268.338 113.747 267.933 112.872C267.527 111.997 266.93 111.304 266.141 110.792C265.351 110.28 264.455 110.024 263.453 110.024C262.45 110.024 261.533 110.28 260.701 110.792C259.869 111.304 259.218 112.04 258.749 113C258.301 113.939 258.119 115.059 258.205 116.36C258.119 117.619 258.311 118.728 258.781 119.688C259.271 120.627 259.954 121.363 260.829 121.896C261.725 122.408 262.695 122.664 263.741 122.664C264.893 122.664 265.863 122.397 266.653 121.864C267.442 121.331 268.082 120.648 268.573 119.816L271.069 121.096C270.727 121.885 270.194 122.611 269.469 123.272C268.765 123.912 267.922 124.424 266.941 124.808C265.981 125.192 264.903 125.384 263.709 125.384ZM281.312 125V101.16H296.832V104.04H284.448V111.592H296.192V114.472H284.448V122.12H296.832V125H281.312ZM305.423 125.384C304.292 125.384 303.289 125.181 302.415 124.776C301.561 124.349 300.889 123.773 300.399 123.048C299.908 122.301 299.663 121.448 299.663 120.488C299.663 119.571 299.855 118.749 300.239 118.024C300.644 117.277 301.263 116.648 302.095 116.136C302.948 115.624 304.015 115.261 305.295 115.048L311.695 113.992V116.488L305.967 117.448C304.857 117.64 304.047 117.992 303.535 118.504C303.044 119.016 302.799 119.645 302.799 120.392C302.799 121.096 303.076 121.683 303.631 122.152C304.207 122.621 304.921 122.856 305.775 122.856C306.863 122.856 307.801 122.632 308.591 122.184C309.401 121.715 310.031 121.085 310.479 120.296C310.948 119.507 311.183 118.632 311.183 117.672V113.288C311.183 112.349 310.831 111.592 310.127 111.016C309.444 110.419 308.537 110.12 307.407 110.12C306.425 110.12 305.551 110.376 304.783 110.888C304.036 111.379 303.481 112.04 303.119 112.872L300.527 111.528C300.847 110.739 301.359 110.035 302.062 109.416C302.767 108.776 303.588 108.275 304.527 107.912C305.465 107.549 306.447 107.368 307.47 107.368C308.793 107.368 309.956 107.624 310.959 108.136C311.961 108.627 312.74 109.32 313.295 110.216C313.871 111.091 314.159 112.115 314.159 113.288V125H311.247V121.736L311.791 121.928C311.428 122.611 310.937 123.208 310.319 123.72C309.7 124.232 308.975 124.637 308.143 124.936C307.311 125.235 306.404 125.384 305.423 125.384ZM325.468 125.192C323.783 125.192 322.482 124.712 321.564 123.752C320.668 122.792 320.22 121.437 320.22 119.688V110.6H317.084V107.752H317.724C318.492 107.752 319.1 107.517 319.548 107.048C319.996 106.579 320.22 105.96 320.22 105.192V103.784H323.196V107.752H327.068V110.6H323.196V119.592C323.196 120.168 323.282 120.669 323.452 121.096C323.644 121.523 323.954 121.864 324.38 122.12C324.807 122.355 325.372 122.472 326.076 122.472C326.226 122.472 326.407 122.461 326.62 122.44C326.855 122.419 327.068 122.397 327.26 122.376V125C326.983 125.064 326.674 125.107 326.332 125.128C325.991 125.171 325.703 125.192 325.468 125.192ZM335.985 125.384C334.854 125.384 333.852 125.181 332.977 124.776C332.124 124.349 331.452 123.773 330.961 123.048C330.47 122.301 330.225 121.448 330.225 120.488C330.225 119.571 330.417 118.749 330.801 118.024C331.206 117.277 331.825 116.648 332.657 116.136C333.51 115.624 334.577 115.261 335.857 115.048L342.257 113.992V116.488L336.529 117.448C335.42 117.64 334.609 117.992 334.097 118.504C333.606 119.016 333.361 119.645 333.361 120.392C333.361 121.096 333.638 121.683 334.193 122.152C334.769 122.621 335.484 122.856 336.337 122.856C337.425 122.856 338.364 122.632 339.153 122.184C339.964 121.715 340.593 121.085 341.041 120.296C341.51 119.507 341.745 118.632 341.745 117.672V113.288C341.745 112.349 341.393 111.592 340.689 111.016C340.006 110.419 339.1 110.12 337.969 110.12C336.988 110.12 336.113 110.376 335.345 110.888C334.598 111.379 334.044 112.04 333.681 112.872L331.089 111.528C331.409 110.739 331.921 110.035 332.625 109.416C333.329 108.776 334.15 108.275 335.089 107.912C336.028 107.549 337.009 107.368 338.033 107.368C339.356 107.368 340.518 107.624 341.521 108.136C342.524 108.627 343.302 109.32 343.857 110.216C344.433 111.091 344.721 112.115 344.721 113.288V125H341.809V121.736L342.353 121.928C341.99 122.611 341.5 123.208 340.881 123.72C340.262 124.232 339.537 124.637 338.705 124.936C337.873 125.235 336.966 125.384 335.985 125.384ZM358.263 125.384C356.877 125.384 355.607 125.075 354.455 124.456C353.325 123.837 352.45 122.963 351.831 121.832L352.247 121.32V125H349.335V100.776H352.311V111.464L351.863 110.728C352.503 109.704 353.378 108.893 354.487 108.296C355.597 107.677 356.866 107.368 358.295 107.368C359.917 107.368 361.367 107.763 362.647 108.552C363.949 109.341 364.973 110.419 365.719 111.784C366.466 113.128 366.839 114.664 366.839 116.392C366.839 118.077 366.466 119.603 365.719 120.968C364.973 122.333 363.949 123.411 362.647 124.2C361.367 124.989 359.906 125.384 358.263 125.384ZM358.039 122.504C359.127 122.504 360.098 122.237 360.951 121.704C361.805 121.171 362.466 120.445 362.935 119.528C363.426 118.589 363.671 117.544 363.671 116.392C363.671 115.197 363.426 114.152 362.935 113.256C362.466 112.339 361.805 111.613 360.951 111.08C360.098 110.525 359.127 110.248 358.039 110.248C356.951 110.248 355.97 110.515 355.095 111.048C354.242 111.581 353.559 112.317 353.047 113.256C352.557 114.173 352.311 115.219 352.311 116.392C352.311 117.544 352.557 118.589 353.047 119.528C353.559 120.445 354.242 121.171 355.095 121.704C355.97 122.237 356.951 122.504 358.039 122.504ZM370.742 125V100.776H373.718V125H370.742ZM386.271 125.384C384.607 125.384 383.125 124.989 381.823 124.2C380.522 123.411 379.498 122.333 378.751 120.968C378.005 119.581 377.631 118.035 377.631 116.328C377.631 114.6 377.994 113.064 378.719 111.72C379.466 110.376 380.469 109.32 381.727 108.552C383.007 107.763 384.437 107.368 386.015 107.368C387.295 107.368 388.426 107.603 389.407 108.072C390.41 108.52 391.253 109.139 391.935 109.928C392.639 110.696 393.173 111.581 393.535 112.584C393.919 113.565 394.111 114.589 394.111 115.656C394.111 115.891 394.09 116.157 394.047 116.456C394.026 116.733 393.994 117 393.951 117.256H379.807V114.696H392.223L390.815 115.848C391.007 114.739 390.901 113.747 390.495 112.872C390.09 111.997 389.493 111.304 388.703 110.792C387.914 110.28 387.018 110.024 386.015 110.024C385.013 110.024 384.095 110.28 383.263 110.792C382.431 111.304 381.781 112.04 381.311 113C380.863 113.939 380.682 115.059 380.767 116.36C380.682 117.619 380.874 118.728 381.343 119.688C381.834 120.627 382.517 121.363 383.391 121.896C384.287 122.408 385.258 122.664 386.303 122.664C387.455 122.664 388.426 122.397 389.215 121.864C390.005 121.331 390.645 120.648 391.135 119.816L393.631 121.096C393.29 121.885 392.757 122.611 392.031 123.272C391.327 123.912 390.485 124.424 389.503 124.808C388.543 125.192 387.466 125.384 386.271 125.384ZM404.168 125.384C402.44 125.384 400.936 124.957 399.656 124.104C398.376 123.251 397.469 122.099 396.936 120.648L399.304 119.496C399.794 120.52 400.466 121.331 401.32 121.928C402.173 122.525 403.122 122.824 404.168 122.824C405.106 122.824 405.885 122.6 406.504 122.152C407.122 121.704 407.432 121.117 407.432 120.392C407.432 119.88 407.282 119.475 406.984 119.176C406.706 118.856 406.365 118.611 405.96 118.44C405.554 118.248 405.181 118.109 404.84 118.024L402.248 117.288C400.69 116.84 399.549 116.2 398.824 115.368C398.12 114.536 397.768 113.565 397.768 112.456C397.768 111.432 398.024 110.547 398.536 109.8C399.069 109.032 399.784 108.435 400.68 108.008C401.597 107.581 402.621 107.368 403.752 107.368C405.266 107.368 406.621 107.752 407.816 108.52C409.032 109.288 409.896 110.365 410.408 111.752L407.976 112.872C407.592 111.976 407.016 111.272 406.248 110.76C405.48 110.227 404.616 109.96 403.656 109.96C402.781 109.96 402.088 110.184 401.576 110.632C401.064 111.059 400.808 111.603 400.808 112.264C400.808 112.755 400.936 113.16 401.192 113.48C401.448 113.779 401.757 114.013 402.12 114.184C402.482 114.333 402.834 114.461 403.176 114.568L405.992 115.4C407.4 115.805 408.488 116.435 409.256 117.288C410.045 118.141 410.44 119.165 410.44 120.36C410.44 121.32 410.173 122.184 409.64 122.952C409.106 123.72 408.37 124.317 407.432 124.744C406.493 125.171 405.405 125.384 404.168 125.384ZM420.219 125V101.16H428.635C430.213 101.16 431.6 101.459 432.795 102.056C433.989 102.653 434.917 103.507 435.579 104.616C436.261 105.725 436.603 107.027 436.603 108.52C436.603 110.205 436.176 111.635 435.323 112.808C434.469 113.981 433.317 114.824 431.867 115.336L437.403 125H433.755L427.931 114.664L430.011 115.88H423.355V125H420.219ZM423.355 113H428.731C429.669 113 430.491 112.819 431.195 112.456C431.899 112.093 432.443 111.571 432.827 110.888C433.232 110.205 433.435 109.416 433.435 108.52C433.435 107.603 433.232 106.813 432.827 106.152C432.443 105.469 431.899 104.947 431.195 104.584C430.491 104.221 429.669 104.04 428.731 104.04H423.355V113ZM440.617 125V107.752H443.593V125H440.617ZM440.617 105V101.16H443.593V105H440.617ZM456.05 125.384C454.429 125.384 452.968 124.989 451.666 124.2C450.386 123.411 449.373 122.333 448.626 120.968C447.88 119.603 447.506 118.077 447.506 116.392C447.506 114.664 447.88 113.128 448.626 111.784C449.373 110.419 450.386 109.341 451.666 108.552C452.968 107.763 454.429 107.368 456.05 107.368C457.48 107.368 458.749 107.677 459.858 108.296C460.968 108.893 461.842 109.704 462.482 110.728L462.002 111.464V100.776H465.01V125H462.098V121.32L462.482 121.832C461.885 122.963 461.01 123.837 459.858 124.456C458.728 125.075 457.458 125.384 456.05 125.384ZM456.306 122.504C457.394 122.504 458.365 122.237 459.218 121.704C460.072 121.171 460.744 120.445 461.234 119.528C461.746 118.589 462.002 117.544 462.002 116.392C462.002 115.219 461.746 114.173 461.234 113.256C460.744 112.317 460.072 111.581 459.218 111.048C458.365 110.515 457.394 110.248 456.306 110.248C455.24 110.248 454.269 110.525 453.394 111.08C452.541 111.613 451.869 112.339 451.378 113.256C450.888 114.152 450.642 115.197 450.642 116.392C450.642 117.544 450.888 118.589 451.378 119.528C451.869 120.445 452.541 121.171 453.394 121.704C454.248 122.237 455.218 122.504 456.306 122.504ZM477.553 125.384C475.889 125.384 474.406 124.989 473.105 124.2C471.803 123.411 470.779 122.333 470.033 120.968C469.286 119.581 468.913 118.035 468.913 116.328C468.913 114.6 469.275 113.064 470.001 111.72C470.747 110.376 471.75 109.32 473.009 108.552C474.289 107.763 475.718 107.368 477.297 107.368C478.577 107.368 479.707 107.603 480.689 108.072C481.691 108.52 482.534 109.139 483.217 109.928C483.921 110.696 484.454 111.581 484.817 112.584C485.201 113.565 485.392 114.589 485.392 115.656C485.392 115.891 485.371 116.157 485.329 116.456C485.307 116.733 485.275 117 485.233 117.256H471.089V114.696H483.505L482.097 115.848C482.289 114.739 482.182 113.747 481.777 112.872C481.371 111.997 480.774 111.304 479.985 110.792C479.195 110.28 478.299 110.024 477.297 110.024C476.294 110.024 475.377 110.28 474.545 110.792C473.713 111.304 473.062 112.04 472.593 113C472.145 113.939 471.963 115.059 472.049 116.36C471.963 117.619 472.155 118.728 472.625 119.688C473.115 120.627 473.798 121.363 474.673 121.896C475.569 122.408 476.539 122.664 477.585 122.664C478.737 122.664 479.707 122.397 480.497 121.864C481.286 121.331 481.926 120.648 482.417 119.816L484.913 121.096C484.571 121.885 484.038 122.611 483.312 123.272C482.609 123.912 481.766 124.424 480.785 124.808C479.825 125.192 478.747 125.384 477.553 125.384ZM489.273 125V107.752H492.185V110.92L491.865 110.472C492.27 109.491 492.889 108.765 493.721 108.296C494.553 107.805 495.566 107.56 496.761 107.56H497.817V110.376H496.313C495.097 110.376 494.115 110.76 493.369 111.528C492.622 112.275 492.249 113.341 492.249 114.728V125H489.273ZM511.048 125.384C509.917 125.384 508.914 125.181 508.04 124.776C507.186 124.349 506.514 123.773 506.024 123.048C505.533 122.301 505.288 121.448 505.288 120.488C505.288 119.571 505.48 118.749 505.864 118.024C506.269 117.277 506.888 116.648 507.72 116.136C508.573 115.624 509.64 115.261 510.92 115.048L517.32 113.992V116.488L511.592 117.448C510.482 117.64 509.672 117.992 509.16 118.504C508.669 119.016 508.424 119.645 508.424 120.392C508.424 121.096 508.701 121.683 509.256 122.152C509.832 122.621 510.546 122.856 511.4 122.856C512.488 122.856 513.426 122.632 514.216 122.184C515.026 121.715 515.656 121.085 516.104 120.296C516.573 119.507 516.808 118.632 516.808 117.672V113.288C516.808 112.349 516.456 111.592 515.752 111.016C515.069 110.419 514.162 110.12 513.032 110.12C512.05 110.12 511.176 110.376 510.408 110.888C509.661 111.379 509.106 112.04 508.744 112.872L506.152 111.528C506.472 110.739 506.984 110.035 507.688 109.416C508.392 108.776 509.213 108.275 510.152 107.912C511.09 107.549 512.072 107.368 513.095 107.368C514.418 107.368 515.581 107.624 516.584 108.136C517.586 108.627 518.365 109.32 518.92 110.216C519.496 111.091 519.784 112.115 519.784 113.288V125H516.872V121.736L517.416 121.928C517.053 122.611 516.562 123.208 515.944 123.72C515.325 124.232 514.6 124.637 513.768 124.936C512.936 125.235 512.029 125.384 511.048 125.384ZM524.398 131.4V107.752H527.31V111.464L526.926 110.728C527.566 109.704 528.44 108.893 529.55 108.296C530.659 107.677 531.928 107.368 533.358 107.368C534.979 107.368 536.43 107.763 537.71 108.552C539.011 109.341 540.035 110.419 540.782 111.784C541.528 113.128 541.902 114.664 541.902 116.392C541.902 118.077 541.528 119.603 540.782 120.968C540.035 122.333 539.011 123.411 537.71 124.2C536.43 124.989 534.968 125.384 533.326 125.384C531.939 125.384 530.67 125.075 529.518 124.456C528.387 123.837 527.512 122.963 526.894 121.832L527.374 121.32V131.4H524.398ZM533.102 122.504C534.19 122.504 535.16 122.237 536.014 121.704C536.867 121.171 537.528 120.445 537.998 119.528C538.488 118.589 538.734 117.544 538.734 116.392C538.734 115.197 538.488 114.152 537.998 113.256C537.528 112.339 536.867 111.613 536.014 111.08C535.16 110.525 534.19 110.248 533.102 110.248C532.014 110.248 531.032 110.515 530.158 111.048C529.304 111.581 528.622 112.317 528.11 113.256C527.619 114.173 527.374 115.219 527.374 116.392C527.374 117.544 527.619 118.589 528.11 119.528C528.622 120.445 529.304 121.171 530.158 121.704C531.032 122.237 532.014 122.504 533.102 122.504ZM545.804 131.4V107.752H548.716V111.464L548.332 110.728C548.972 109.704 549.847 108.893 550.956 108.296C552.065 107.677 553.335 107.368 554.764 107.368C556.385 107.368 557.836 107.763 559.116 108.552C560.417 109.341 561.441 110.419 562.188 111.784C562.935 113.128 563.308 114.664 563.308 116.392C563.308 118.077 562.935 119.603 562.188 120.968C561.441 122.333 560.417 123.411 559.116 124.2C557.836 124.989 556.375 125.384 554.732 125.384C553.345 125.384 552.076 125.075 550.924 124.456C549.793 123.837 548.919 122.963 548.3 121.832L548.78 121.32V131.4H545.804ZM554.508 122.504C555.596 122.504 556.567 122.237 557.42 121.704C558.273 121.171 558.935 120.445 559.404 119.528C559.895 118.589 560.14 117.544 560.14 116.392C560.14 115.197 559.895 114.152 559.404 113.256C558.935 112.339 558.273 111.613 557.42 111.08C556.567 110.525 555.596 110.248 554.508 110.248C553.42 110.248 552.439 110.515 551.564 111.048C550.711 111.581 550.028 112.317 549.516 113.256C549.025 114.173 548.78 115.219 548.78 116.392C548.78 117.544 549.025 118.589 549.516 119.528C550.028 120.445 550.711 121.171 551.564 121.704C552.439 122.237 553.42 122.504 554.508 122.504Z" fill="#191717"/>
<line x1="20.5" y1="156.003" x2="20.0789" y2="236.002" stroke="#191717"/>
<line x1="20" y1="324.005" x2="19.5789" y2="404.004" stroke="#298A5A" stroke-width="2"/>
<path d="M12.7536 461.383C10.855 461.383 9.19096 460.871 7.76163 459.847C6.33229 458.802 5.21229 457.362 4.40163 455.527C3.61229 453.671 3.21763 451.516 3.21763 449.063C3.21763 446.588 3.61229 444.434 4.40163 442.599C5.21229 440.764 6.32163 439.335 7.72963 438.311C9.15896 437.287 10.823 436.775 12.7216 436.775C14.6203 436.775 16.2736 437.287 17.6816 438.311C19.111 439.335 20.2203 440.775 21.0096 442.631C21.8203 444.466 22.2256 446.61 22.2256 449.063C22.2256 451.516 21.831 453.671 21.0416 455.527C20.2523 457.362 19.143 458.802 17.7136 459.847C16.3056 460.871 14.6523 461.383 12.7536 461.383ZM12.7536 457.927C13.927 457.927 14.9403 457.564 15.7936 456.839C16.647 456.114 17.3083 455.09 17.7776 453.767C18.247 452.444 18.4816 450.876 18.4816 449.063C18.4816 447.25 18.247 445.682 17.7776 444.359C17.3083 443.036 16.647 442.012 15.7936 441.287C14.9403 440.562 13.9163 440.199 12.7216 440.199C11.5483 440.199 10.535 440.562 9.68163 441.287C8.82829 442.012 8.16696 443.036 7.69763 444.359C7.22829 445.682 6.99363 447.25 6.99363 449.063C6.99363 450.855 7.22829 452.423 7.69763 453.767C8.16696 455.09 8.82829 456.114 9.68163 456.839C10.5563 457.564 11.5803 457.927 12.7536 457.927ZM33.5479 461.383C32.2679 461.383 31.0625 461.148 29.9319 460.679C28.8225 460.21 27.8625 459.548 27.0519 458.695C26.2625 457.842 25.6972 456.839 25.3559 455.687L28.5559 454.471C28.9825 455.602 29.6332 456.476 30.5079 457.095C31.3825 457.714 32.3959 458.023 33.5479 458.023C34.4865 458.023 35.2972 457.842 35.9799 457.479C36.6839 457.116 37.2279 456.604 37.6119 455.943C38.0172 455.282 38.2199 454.482 38.2199 453.543C38.2199 452.626 38.0172 451.836 37.6119 451.175C37.2279 450.514 36.6839 450.012 35.9799 449.671C35.2972 449.33 34.4865 449.159 33.5479 449.159C33.1639 449.159 32.7692 449.191 32.3639 449.255C31.9799 449.319 31.6385 449.404 31.3399 449.511L30.5079 447.751L36.7799 440.359H26.6359V437.159H41.0039V440.199L34.8599 447.559L34.7639 446.343C36.1932 446.364 37.4519 446.684 38.5399 447.303C39.6279 447.9 40.4705 448.732 41.0679 449.799C41.6865 450.844 41.9959 452.06 41.9959 453.447C41.9959 454.94 41.6332 456.295 40.9079 457.511C40.1825 458.706 39.1799 459.655 37.8999 460.359C36.6412 461.042 35.1905 461.383 33.5479 461.383Z" fill="#298A5A"/>
<path d="M71.912 460.999L65.352 437.159H69.352L74.664 457.799H73.672L79.176 437.159H83.112L88.616 457.799H87.592L92.936 437.159H96.904L90.376 460.999H86.12L80.584 440.679H81.704L76.136 460.999H71.912ZM99.362 460.999V443.687H102.978V460.999H99.362ZM99.362 441.319V437.159H102.978V441.319H99.362ZM114.694 461.191C112.88 461.191 111.472 460.679 110.47 459.655C109.467 458.631 108.966 457.191 108.966 455.335V446.951H105.926V443.687H106.406C107.216 443.687 107.846 443.452 108.294 442.983C108.742 442.514 108.966 441.874 108.966 441.063V439.719H112.582V443.687H116.518V446.951H112.582V455.175C112.582 455.772 112.678 456.284 112.87 456.711C113.062 457.116 113.371 457.436 113.798 457.671C114.224 457.884 114.779 457.991 115.462 457.991C115.632 457.991 115.824 457.98 116.038 457.959C116.251 457.938 116.454 457.916 116.646 457.895V460.999C116.347 461.042 116.016 461.084 115.654 461.127C115.291 461.17 114.971 461.191 114.694 461.191ZM120.174 460.999V436.775H123.791V447.079L123.215 446.631C123.641 445.543 124.324 444.722 125.263 444.167C126.201 443.591 127.289 443.303 128.527 443.303C129.807 443.303 130.937 443.58 131.919 444.135C132.9 444.69 133.668 445.458 134.222 446.439C134.777 447.42 135.055 448.54 135.055 449.799V460.999H131.471V450.791C131.471 449.916 131.3 449.18 130.959 448.583C130.639 447.964 130.191 447.495 129.615 447.175C129.039 446.834 128.377 446.663 127.631 446.663C126.905 446.663 126.244 446.834 125.647 447.175C125.071 447.495 124.612 447.964 124.271 448.583C123.951 449.202 123.791 449.938 123.791 450.791V460.999H120.174ZM146.925 461.383C145.261 461.383 143.767 460.988 142.445 460.199C141.143 459.388 140.109 458.3 139.341 456.935C138.594 455.57 138.221 454.034 138.221 452.327C138.221 450.62 138.605 449.084 139.373 447.719C140.141 446.354 141.175 445.276 142.477 444.487C143.778 443.698 145.25 443.303 146.893 443.303C148.279 443.303 149.506 443.58 150.573 444.135C151.639 444.69 152.482 445.458 153.101 446.439L152.557 447.271V436.775H156.141V460.999H152.717V457.479L153.133 458.151C152.535 459.196 151.682 459.996 150.573 460.551C149.463 461.106 148.247 461.383 146.925 461.383ZM147.277 458.023C148.279 458.023 149.175 457.778 149.965 457.287C150.775 456.796 151.405 456.124 151.853 455.271C152.322 454.396 152.557 453.415 152.557 452.327C152.557 451.239 152.322 450.268 151.853 449.415C151.405 448.562 150.775 447.89 149.965 447.399C149.175 446.908 148.279 446.663 147.277 446.663C146.274 446.663 145.367 446.908 144.557 447.399C143.746 447.89 143.117 448.562 142.669 449.415C142.221 450.268 141.997 451.239 141.997 452.327C141.997 453.415 142.221 454.396 142.669 455.271C143.117 456.124 143.735 456.796 144.525 457.287C145.335 457.778 146.253 458.023 147.277 458.023ZM160.362 460.999V443.687H163.818V447.175L163.498 446.663C163.882 445.532 164.501 444.722 165.354 444.231C166.207 443.719 167.231 443.463 168.426 443.463H169.482V446.759H167.978C166.783 446.759 165.813 447.132 165.066 447.879C164.341 448.604 163.978 449.65 163.978 451.015V460.999H160.362ZM177.14 461.383C175.966 461.383 174.932 461.18 174.036 460.775C173.161 460.348 172.478 459.772 171.988 459.047C171.497 458.3 171.252 457.426 171.252 456.423C171.252 455.484 171.454 454.642 171.86 453.895C172.286 453.148 172.937 452.519 173.812 452.007C174.686 451.495 175.785 451.132 177.108 450.919L183.124 449.927V452.775L177.812 453.703C176.852 453.874 176.148 454.183 175.7 454.631C175.252 455.058 175.028 455.612 175.028 456.295C175.028 456.956 175.273 457.5 175.764 457.927C176.276 458.332 176.926 458.535 177.716 458.535C178.697 458.535 179.55 458.322 180.276 457.895C181.022 457.468 181.598 456.903 182.004 456.199C182.409 455.474 182.612 454.674 182.612 453.799V449.351C182.612 448.498 182.292 447.804 181.652 447.271C181.033 446.716 180.201 446.439 179.156 446.439C178.196 446.439 177.353 446.695 176.628 447.207C175.924 447.698 175.401 448.338 175.06 449.127L172.052 447.623C172.372 446.77 172.894 446.023 173.62 445.383C174.345 444.722 175.188 444.21 176.148 443.847C177.129 443.484 178.164 443.303 179.252 443.303C180.617 443.303 181.822 443.559 182.868 444.071C183.934 444.583 184.756 445.298 185.332 446.215C185.929 447.111 186.228 448.156 186.228 449.351V460.999H182.772V457.863L183.508 457.959C183.102 458.663 182.58 459.271 181.94 459.783C181.321 460.295 180.606 460.69 179.796 460.967C179.006 461.244 178.121 461.383 177.14 461.383ZM194.648 460.999L188.696 443.687H192.536L197.08 457.479H195.736L200.376 443.687H203.672L208.28 457.479H206.936L211.512 443.687H215.352L209.368 460.999H206.104L201.432 446.887H202.616L197.944 460.999H194.648ZM229.825 461.383C228.054 461.383 226.497 460.946 225.153 460.071C223.83 459.196 222.902 458.023 222.368 456.551L225.153 455.239C225.622 456.22 226.262 456.999 227.073 457.575C227.905 458.151 228.822 458.439 229.825 458.439C230.678 458.439 231.371 458.247 231.905 457.863C232.438 457.479 232.705 456.956 232.705 456.295C232.705 455.868 232.587 455.527 232.353 455.271C232.118 454.994 231.819 454.77 231.457 454.599C231.115 454.428 230.763 454.3 230.401 454.215L227.681 453.447C226.187 453.02 225.067 452.38 224.321 451.527C223.595 450.652 223.233 449.639 223.233 448.487C223.233 447.442 223.499 446.535 224.033 445.767C224.566 444.978 225.302 444.37 226.241 443.943C227.179 443.516 228.235 443.303 229.409 443.303C230.987 443.303 232.395 443.698 233.633 444.487C234.87 445.255 235.745 446.332 236.257 447.719L233.473 449.031C233.131 448.199 232.587 447.538 231.841 447.047C231.115 446.556 230.294 446.311 229.377 446.311C228.587 446.311 227.958 446.503 227.489 446.887C227.019 447.25 226.785 447.73 226.785 448.327C226.785 448.732 226.891 449.074 227.105 449.351C227.318 449.607 227.595 449.82 227.937 449.991C228.278 450.14 228.63 450.268 228.993 450.375L231.809 451.207C233.238 451.612 234.337 452.252 235.105 453.127C235.873 453.98 236.257 455.004 236.257 456.199C236.257 457.223 235.979 458.13 235.425 458.919C234.891 459.687 234.145 460.295 233.185 460.743C232.225 461.17 231.105 461.383 229.825 461.383ZM247.288 461.191C245.474 461.191 244.066 460.679 243.064 459.655C242.061 458.631 241.56 457.191 241.56 455.335V446.951H238.52V443.687H239C239.81 443.687 240.44 443.452 240.888 442.983C241.336 442.514 241.56 441.874 241.56 441.063V439.719H245.176V443.687H249.112V446.951H245.176V455.175C245.176 455.772 245.272 456.284 245.464 456.711C245.656 457.116 245.965 457.436 246.392 457.671C246.818 457.884 247.373 457.991 248.056 457.991C248.226 457.991 248.418 457.98 248.632 457.959C248.845 457.938 249.048 457.916 249.24 457.895V460.999C248.941 461.042 248.61 461.084 248.248 461.127C247.885 461.17 247.565 461.191 247.288 461.191ZM252.768 460.999V443.687H256.224V447.175L255.904 446.663C256.288 445.532 256.907 444.722 257.76 444.231C258.614 443.719 259.638 443.463 260.832 443.463H261.888V446.759H260.384C259.19 446.759 258.219 447.132 257.472 447.879C256.747 448.604 256.384 449.65 256.384 451.015V460.999H252.768ZM269.546 461.383C268.373 461.383 267.338 461.18 266.442 460.775C265.567 460.348 264.885 459.772 264.394 459.047C263.903 458.3 263.658 457.426 263.658 456.423C263.658 455.484 263.861 454.642 264.266 453.895C264.693 453.148 265.343 452.519 266.218 452.007C267.093 451.495 268.191 451.132 269.514 450.919L275.53 449.927V452.775L270.218 453.703C269.258 453.874 268.554 454.183 268.106 454.631C267.658 455.058 267.434 455.612 267.434 456.295C267.434 456.956 267.679 457.5 268.17 457.927C268.682 458.332 269.333 458.535 270.122 458.535C271.103 458.535 271.957 458.322 272.682 457.895C273.429 457.468 274.005 456.903 274.41 456.199C274.815 455.474 275.018 454.674 275.018 453.799V449.351C275.018 448.498 274.698 447.804 274.058 447.271C273.439 446.716 272.607 446.439 271.562 446.439C270.602 446.439 269.759 446.695 269.034 447.207C268.33 447.698 267.807 448.338 267.466 449.127L264.458 447.623C264.778 446.77 265.301 446.023 266.026 445.383C266.751 444.722 267.594 444.21 268.554 443.847C269.535 443.484 270.57 443.303 271.658 443.303C273.023 443.303 274.229 443.559 275.274 444.071C276.341 444.583 277.162 445.298 277.738 446.215C278.335 447.111 278.634 448.156 278.634 449.351V460.999H275.178V457.863L275.914 457.959C275.509 458.663 274.986 459.271 274.346 459.783C273.727 460.295 273.013 460.69 272.202 460.967C271.413 461.244 270.527 461.383 269.546 461.383ZM282.862 460.999V443.687H286.478V460.999H282.862ZM282.862 441.319V437.159H286.478V441.319H282.862ZM299.058 468.039C297.799 468.039 296.636 467.836 295.57 467.431C294.503 467.026 293.586 466.46 292.818 465.735C292.05 465.031 291.474 464.199 291.09 463.239L294.418 461.863C294.716 462.674 295.26 463.346 296.05 463.879C296.86 464.412 297.852 464.679 299.026 464.679C299.943 464.679 300.764 464.498 301.49 464.135C302.215 463.794 302.791 463.282 303.218 462.599C303.644 461.938 303.858 461.138 303.858 460.199V456.295L304.498 457.031C303.9 458.14 303.068 458.983 302.002 459.559C300.956 460.135 299.772 460.423 298.45 460.423C296.85 460.423 295.41 460.05 294.13 459.303C292.85 458.556 291.836 457.532 291.09 456.231C290.364 454.93 290.002 453.468 290.002 451.847C290.002 450.204 290.364 448.743 291.09 447.463C291.836 446.183 292.839 445.17 294.098 444.423C295.356 443.676 296.796 443.303 298.418 443.303C299.74 443.303 300.914 443.591 301.938 444.167C302.983 444.722 303.836 445.532 304.498 446.599L304.018 447.495V443.687H307.442V460.199C307.442 461.692 307.079 463.026 306.354 464.199C305.65 465.394 304.668 466.332 303.41 467.015C302.151 467.698 300.7 468.039 299.058 468.039ZM298.866 457.063C299.826 457.063 300.679 456.839 301.426 456.391C302.172 455.922 302.759 455.303 303.186 454.535C303.634 453.746 303.858 452.86 303.858 451.879C303.858 450.898 303.634 450.012 303.186 449.223C302.738 448.434 302.14 447.815 301.394 447.367C300.647 446.898 299.804 446.663 298.866 446.663C297.884 446.663 297.01 446.898 296.242 447.367C295.474 447.815 294.866 448.434 294.418 449.223C293.991 449.991 293.778 450.876 293.778 451.879C293.778 452.839 293.991 453.714 294.418 454.503C294.866 455.292 295.474 455.922 296.242 456.391C297.01 456.839 297.884 457.063 298.866 457.063ZM311.674 460.999V436.775H315.291V447.079L314.715 446.631C315.141 445.543 315.824 444.722 316.763 444.167C317.701 443.591 318.789 443.303 320.027 443.303C321.307 443.303 322.437 443.58 323.419 444.135C324.4 444.69 325.168 445.458 325.722 446.439C326.277 447.42 326.555 448.54 326.555 449.799V460.999H322.971V450.791C322.971 449.916 322.8 449.18 322.459 448.583C322.139 447.964 321.691 447.495 321.115 447.175C320.539 446.834 319.877 446.663 319.131 446.663C318.405 446.663 317.744 446.834 317.147 447.175C316.571 447.495 316.112 447.964 315.771 448.583C315.451 449.202 315.291 449.938 315.291 450.791V460.999H311.674ZM337.913 461.191C336.099 461.191 334.691 460.679 333.689 459.655C332.686 458.631 332.185 457.191 332.185 455.335V446.951H329.145V443.687H329.625C330.435 443.687 331.065 443.452 331.513 442.983C331.961 442.514 332.185 441.874 332.185 441.063V439.719H335.801V443.687H339.737V446.951H335.801V455.175C335.801 455.772 335.897 456.284 336.089 456.711C336.281 457.116 336.59 457.436 337.017 457.671C337.443 457.884 337.998 457.991 338.681 457.991C338.851 457.991 339.043 457.98 339.257 457.959C339.47 457.938 339.673 457.916 339.865 457.895V460.999C339.566 461.042 339.235 461.084 338.873 461.127C338.51 461.17 338.19 461.191 337.913 461.191ZM356.475 461.191C354.662 461.191 353.254 460.679 352.251 459.655C351.248 458.631 350.747 457.191 350.747 455.335V446.951H347.707V443.687H348.187C348.998 443.687 349.627 443.452 350.075 442.983C350.523 442.514 350.747 441.874 350.747 441.063V439.719H354.363V443.687H358.299V446.951H354.363V455.175C354.363 455.772 354.459 456.284 354.651 456.711C354.843 457.116 355.152 457.436 355.579 457.671C356.006 457.884 356.56 457.991 357.243 457.991C357.414 457.991 357.606 457.98 357.819 457.959C358.032 457.938 358.235 457.916 358.427 457.895V460.999C358.128 461.042 357.798 461.084 357.435 461.127C357.072 461.17 356.752 461.191 356.475 461.191ZM369.995 461.383C368.331 461.383 366.806 460.988 365.419 460.199C364.054 459.41 362.966 458.332 362.155 456.967C361.345 455.602 360.939 454.055 360.939 452.327C360.939 450.578 361.345 449.031 362.155 447.687C362.966 446.322 364.054 445.255 365.419 444.487C366.785 443.698 368.31 443.303 369.995 443.303C371.702 443.303 373.227 443.698 374.571 444.487C375.937 445.255 377.014 446.322 377.803 447.687C378.614 449.031 379.019 450.578 379.019 452.327C379.019 454.076 378.614 455.634 377.803 456.999C376.993 458.364 375.905 459.442 374.539 460.231C373.174 460.999 371.659 461.383 369.995 461.383ZM369.995 458.023C371.019 458.023 371.926 457.778 372.715 457.287C373.505 456.796 374.123 456.124 374.571 455.271C375.041 454.396 375.275 453.415 375.275 452.327C375.275 451.239 375.041 450.268 374.571 449.415C374.123 448.562 373.505 447.89 372.715 447.399C371.926 446.908 371.019 446.663 369.995 446.663C368.993 446.663 368.086 446.908 367.275 447.399C366.486 447.89 365.857 448.562 365.387 449.415C364.939 450.268 364.715 451.239 364.715 452.327C364.715 453.415 364.939 454.396 365.387 455.271C365.857 456.124 366.486 456.796 367.275 457.287C368.086 457.778 368.993 458.023 369.995 458.023ZM389.679 468.039C389.253 468.039 388.826 467.996 388.399 467.911C387.994 467.847 387.621 467.74 387.279 467.591V464.487C387.535 464.551 387.845 464.604 388.207 464.647C388.57 464.711 388.922 464.743 389.263 464.743C390.266 464.743 391.002 464.519 391.471 464.071C391.962 463.644 392.399 462.983 392.783 462.087L393.935 459.463L393.871 462.503L386.383 443.687H390.255L395.791 458.119H394.479L399.983 443.687H403.887L396.239 462.887C395.834 463.911 395.322 464.807 394.703 465.575C394.106 466.364 393.391 466.972 392.559 467.399C391.749 467.826 390.789 468.039 389.679 468.039ZM414.402 461.383C412.738 461.383 411.212 460.988 409.826 460.199C408.46 459.41 407.372 458.332 406.562 456.967C405.751 455.602 405.346 454.055 405.346 452.327C405.346 450.578 405.751 449.031 406.562 447.687C407.372 446.322 408.46 445.255 409.826 444.487C411.191 443.698 412.716 443.303 414.402 443.303C416.108 443.303 417.634 443.698 418.978 444.487C420.343 445.255 421.42 446.322 422.21 447.687C423.02 449.031 423.426 450.578 423.426 452.327C423.426 454.076 423.02 455.634 422.21 456.999C421.399 458.364 420.311 459.442 418.946 460.231C417.58 460.999 416.066 461.383 414.402 461.383ZM414.402 458.023C415.426 458.023 416.332 457.778 417.122 457.287C417.911 456.796 418.53 456.124 418.978 455.271C419.447 454.396 419.682 453.415 419.682 452.327C419.682 451.239 419.447 450.268 418.978 449.415C418.53 448.562 417.911 447.89 417.122 447.399C416.332 446.908 415.426 446.663 414.402 446.663C413.399 446.663 412.492 446.908 411.682 447.399C410.892 447.89 410.263 448.562 409.794 449.415C409.346 450.268 409.122 451.239 409.122 452.327C409.122 453.415 409.346 454.396 409.794 455.271C410.263 456.124 410.892 456.796 411.682 457.287C412.492 457.778 413.399 458.023 414.402 458.023ZM433.132 461.383C431.83 461.383 430.689 461.095 429.708 460.519C428.726 459.922 427.958 459.1 427.404 458.055C426.87 456.988 426.604 455.762 426.604 454.375V443.687H430.22V454.055C430.22 454.844 430.38 455.538 430.7 456.135C431.02 456.732 431.468 457.202 432.044 457.543C432.62 457.863 433.281 458.023 434.028 458.023C434.796 458.023 435.468 457.852 436.044 457.511C436.62 457.17 437.068 456.69 437.388 456.071C437.729 455.452 437.9 454.727 437.9 453.895V443.687H441.484V460.999H438.06V457.607L438.444 458.055C438.038 459.122 437.366 459.943 436.428 460.519C435.489 461.095 434.39 461.383 433.132 461.383ZM445.706 460.999V443.687H449.162V447.175L448.842 446.663C449.226 445.532 449.844 444.722 450.698 444.231C451.551 443.719 452.575 443.463 453.77 443.463H454.826V446.759H453.322C452.127 446.759 451.156 447.132 450.41 447.879C449.684 448.604 449.322 449.65 449.322 451.015V460.999H445.706ZM468.077 461.383C466.904 461.383 465.869 461.18 464.973 460.775C464.099 460.348 463.416 459.772 462.925 459.047C462.435 458.3 462.189 457.426 462.189 456.423C462.189 455.484 462.392 454.642 462.797 453.895C463.224 453.148 463.875 452.519 464.749 452.007C465.624 451.495 466.723 451.132 468.045 450.919L474.061 449.927V452.775L468.749 453.703C467.789 453.874 467.085 454.183 466.637 454.631C466.189 455.058 465.965 455.612 465.965 456.295C465.965 456.956 466.211 457.5 466.701 457.927C467.213 458.332 467.864 458.535 468.653 458.535C469.635 458.535 470.488 458.322 471.213 457.895C471.96 457.468 472.536 456.903 472.941 456.199C473.347 455.474 473.549 454.674 473.549 453.799V449.351C473.549 448.498 473.229 447.804 472.589 447.271C471.971 446.716 471.139 446.439 470.093 446.439C469.133 446.439 468.291 446.695 467.565 447.207C466.861 447.698 466.339 448.338 465.997 449.127L462.989 447.623C463.309 446.77 463.832 446.023 464.557 445.383C465.283 444.722 466.125 444.21 467.085 443.847C468.067 443.484 469.101 443.303 470.189 443.303C471.555 443.303 472.76 443.559 473.805 444.071C474.872 444.583 475.693 445.298 476.269 446.215C476.867 447.111 477.165 448.156 477.165 449.351V460.999H473.709V457.863L474.445 457.959C474.04 458.663 473.517 459.271 472.877 459.783C472.259 460.295 471.544 460.69 470.733 460.967C469.944 461.244 469.059 461.383 468.077 461.383ZM489.617 461.383C487.889 461.383 486.353 460.988 485.009 460.199C483.687 459.388 482.631 458.3 481.841 456.935C481.073 455.57 480.689 454.023 480.689 452.295C480.689 450.588 481.073 449.052 481.841 447.687C482.609 446.322 483.665 445.255 485.009 444.487C486.353 443.698 487.889 443.303 489.617 443.303C490.791 443.303 491.889 443.516 492.913 443.943C493.937 444.348 494.823 444.914 495.569 445.639C496.337 446.364 496.903 447.207 497.265 448.167L494.097 449.639C493.735 448.743 493.148 448.028 492.337 447.495C491.548 446.94 490.641 446.663 489.617 446.663C488.636 446.663 487.751 446.908 486.961 447.399C486.193 447.868 485.585 448.54 485.137 449.415C484.689 450.268 484.465 451.239 484.465 452.327C484.465 453.415 484.689 454.396 485.137 455.271C485.585 456.124 486.193 456.796 486.961 457.287C487.751 457.778 488.636 458.023 489.617 458.023C490.663 458.023 491.569 457.756 492.337 457.223C493.127 456.668 493.713 455.932 494.097 455.015L497.265 456.519C496.924 457.436 496.369 458.268 495.601 459.015C494.855 459.74 493.969 460.316 492.945 460.743C491.921 461.17 490.812 461.383 489.617 461.383ZM509.024 461.383C507.296 461.383 505.76 460.988 504.416 460.199C503.093 459.388 502.037 458.3 501.248 456.935C500.48 455.57 500.096 454.023 500.096 452.295C500.096 450.588 500.48 449.052 501.248 447.687C502.016 446.322 503.072 445.255 504.416 444.487C505.76 443.698 507.296 443.303 509.024 443.303C510.197 443.303 511.296 443.516 512.32 443.943C513.344 444.348 514.229 444.914 514.976 445.639C515.744 446.364 516.309 447.207 516.672 448.167L513.504 449.639C513.141 448.743 512.554 448.028 511.744 447.495C510.954 446.94 510.048 446.663 509.024 446.663C508.042 446.663 507.157 446.908 506.368 447.399C505.6 447.868 504.992 448.54 504.544 449.415C504.096 450.268 503.872 451.239 503.872 452.327C503.872 453.415 504.096 454.396 504.544 455.271C504.992 456.124 505.6 456.796 506.368 457.287C507.157 457.778 508.042 458.023 509.024 458.023C510.069 458.023 510.976 457.756 511.744 457.223C512.533 456.668 513.12 455.932 513.504 455.015L516.672 456.519C516.33 457.436 515.776 458.268 515.008 459.015C514.261 459.74 513.376 460.316 512.352 460.743C511.328 461.17 510.218 461.383 509.024 461.383ZM528.558 461.383C526.894 461.383 525.368 460.988 523.982 460.199C522.616 459.41 521.528 458.332 520.718 456.967C519.907 455.602 519.502 454.055 519.502 452.327C519.502 450.578 519.907 449.031 520.718 447.687C521.528 446.322 522.616 445.255 523.982 444.487C525.347 443.698 526.872 443.303 528.558 443.303C530.264 443.303 531.79 443.698 533.134 444.487C534.499 445.255 535.576 446.322 536.366 447.687C537.176 449.031 537.582 450.578 537.582 452.327C537.582 454.076 537.176 455.634 536.366 456.999C535.555 458.364 534.467 459.442 533.102 460.231C531.736 460.999 530.222 461.383 528.558 461.383ZM528.558 458.023C529.582 458.023 530.488 457.778 531.278 457.287C532.067 456.796 532.686 456.124 533.134 455.271C533.603 454.396 533.838 453.415 533.838 452.327C533.838 451.239 533.603 450.268 533.134 449.415C532.686 448.562 532.067 447.89 531.278 447.399C530.488 446.908 529.582 446.663 528.558 446.663C527.555 446.663 526.648 446.908 525.838 447.399C525.048 447.89 524.419 448.562 523.95 449.415C523.502 450.268 523.278 451.239 523.278 452.327C523.278 453.415 523.502 454.396 523.95 455.271C524.419 456.124 525.048 456.796 525.838 457.287C526.648 457.778 527.555 458.023 528.558 458.023ZM547.288 461.383C545.987 461.383 544.845 461.095 543.864 460.519C542.883 459.922 542.115 459.1 541.56 458.055C541.027 456.988 540.76 455.762 540.76 454.375V443.687H544.376V454.055C544.376 454.844 544.536 455.538 544.856 456.135C545.176 456.732 545.624 457.202 546.2 457.543C546.776 457.863 547.437 458.023 548.184 458.023C548.952 458.023 549.624 457.852 550.2 457.511C550.776 457.17 551.224 456.69 551.544 456.071C551.885 455.452 552.056 454.727 552.056 453.895V443.687H555.64V460.999H552.216V457.607L552.6 458.055C552.195 459.122 551.523 459.943 550.584 460.519C549.645 461.095 548.547 461.383 547.288 461.383ZM559.862 460.999V443.687H563.318V447.079L562.902 446.631C563.329 445.543 564.011 444.722 564.95 444.167C565.889 443.591 566.977 443.303 568.214 443.303C569.494 443.303 570.625 443.58 571.606 444.135C572.587 444.69 573.355 445.458 573.91 446.439C574.465 447.42 574.742 448.551 574.742 449.831V460.999H571.158V450.791C571.158 449.916 570.998 449.18 570.678 448.583C570.358 447.964 569.899 447.495 569.302 447.175C568.726 446.834 568.065 446.663 567.318 446.663C566.571 446.663 565.899 446.834 565.302 447.175C564.726 447.495 564.278 447.964 563.958 448.583C563.638 449.202 563.478 449.938 563.478 450.791V460.999H559.862ZM586.1 461.191C584.287 461.191 582.879 460.679 581.876 459.655C580.873 458.631 580.372 457.191 580.372 455.335V446.951H577.332V443.687H577.812C578.623 443.687 579.252 443.452 579.7 442.983C580.148 442.514 580.372 441.874 580.372 441.063V439.719H583.988V443.687H587.924V446.951H583.988V455.175C583.988 455.772 584.084 456.284 584.276 456.711C584.468 457.116 584.777 457.436 585.204 457.671C585.631 457.884 586.185 457.991 586.868 457.991C587.039 457.991 587.231 457.98 587.444 457.959C587.657 457.938 587.86 457.916 588.052 457.895V460.999C587.753 461.042 587.423 461.084 587.06 461.127C586.697 461.17 586.377 461.191 586.1 461.191Z" fill="#298A5A"/>
<rect y="547.999" width="68" height="68" rx="16" fill="#054425"/>
<path d="M18.5858 565.105C18.1787 565.521 17.9431 566.169 17.9431 567.008V596.929C17.9431 597.768 18.1787 598.415 18.5858 598.832L18.6863 598.923L35.8592 582.163V581.767L18.6863 565.007L18.5858 565.105Z" fill="url(#paint0_linear_3126_2736)"/>
<path d="M41.5771 587.753L35.8592 582.163V581.768L41.584 576.178L41.7122 576.251L48.492 580.017C50.4269 581.086 50.4269 582.845 48.492 583.921L41.7122 587.68L41.5771 587.753Z" fill="url(#paint1_linear_3126_2736)"/>
<path d="M41.7122 587.68L35.8591 581.966L18.5858 598.832C19.2284 599.492 20.2764 599.571 21.4681 598.911L41.7122 587.68Z" fill="url(#paint2_linear_3126_2736)"/>
<path d="M41.7122 576.25L21.4681 565.019C20.2764 564.366 19.2284 564.446 18.5858 565.105L35.8591 581.965L41.7122 576.25Z" fill="url(#paint3_linear_3126_2736)"/>
<rect x="88" y="547.999" width="68" height="68" rx="16" fill="#054425"/>
<path d="M130.587 582.88C130.547 578.641 134.147 576.579 134.311 576.483C132.273 573.585 129.113 573.19 128.003 573.158C125.35 572.886 122.776 574.706 121.424 574.706C120.045 574.706 117.964 573.184 115.721 573.229C112.834 573.272 110.133 574.902 108.652 577.433C105.595 582.592 107.875 590.175 110.803 594.346C112.268 596.388 113.98 598.669 116.221 598.589C118.413 598.501 119.232 597.226 121.877 597.226C124.499 597.226 125.267 598.589 127.553 598.538C129.905 598.501 131.387 596.486 132.8 594.425C134.493 592.083 135.173 589.778 135.2 589.659C135.145 589.641 130.631 587.961 130.587 582.88Z" fill="white"/>
<path d="M126.27 570.414C127.449 568.977 128.255 567.021 128.032 565.036C126.325 565.11 124.191 566.187 122.962 567.593C121.875 568.832 120.903 570.863 121.154 572.773C123.071 572.912 125.039 571.83 126.27 570.414Z" fill="white"/>
<path d="M12.9598 293.384C11.0611 293.384 9.39708 292.872 7.96775 291.848C6.55975 290.803 5.46108 289.363 4.67175 287.528C3.88242 285.672 3.48775 283.517 3.48775 281.064C3.48775 278.611 3.88242 276.467 4.67175 274.632C5.46108 272.776 6.55975 271.336 7.96775 270.312C9.37575 269.288 11.0291 268.776 12.9278 268.776C14.8264 268.776 16.4798 269.288 17.8878 270.312C19.2958 271.336 20.3944 272.776 21.1838 274.632C21.9944 276.467 22.3998 278.611 22.3998 281.064C22.3998 283.517 22.0051 285.672 21.2158 287.528C20.4264 289.384 19.3171 290.824 17.8878 291.848C16.4798 292.872 14.8371 293.384 12.9598 293.384ZM12.9598 290.472C14.2398 290.472 15.3491 290.088 16.2878 289.32C17.2264 288.531 17.9518 287.432 18.4638 286.024C18.9971 284.616 19.2638 282.963 19.2638 281.064C19.2638 279.165 18.9971 277.512 18.4638 276.104C17.9518 274.696 17.2158 273.608 16.2558 272.84C15.3171 272.072 14.2078 271.688 12.9278 271.688C11.6478 271.688 10.5384 272.072 9.59975 272.84C8.66108 273.608 7.92508 274.696 7.39175 276.104C6.87975 277.512 6.62375 279.165 6.62375 281.064C6.62375 282.941 6.87975 284.584 7.39175 285.992C7.92508 287.4 8.66108 288.499 9.59975 289.288C10.5598 290.077 11.6798 290.472 12.9598 290.472ZM26.228 293V290.824L32.82 283.688C34.1213 282.301 35.156 281.16 35.924 280.264C36.7133 279.368 37.2893 278.568 37.652 277.864C38.0147 277.16 38.196 276.413 38.196 275.624C38.196 274.323 37.812 273.32 37.044 272.616C36.276 271.912 35.2627 271.56 34.004 271.56C32.724 271.56 31.636 271.933 30.74 272.68C29.844 273.405 29.2253 274.44 28.884 275.784L26.036 275.048C26.3133 273.768 26.8253 272.659 27.572 271.72C28.3187 270.781 29.2467 270.056 30.356 269.544C31.4653 269.032 32.6813 268.776 34.004 268.776C35.4547 268.776 36.724 269.064 37.812 269.64C38.9213 270.195 39.7853 270.973 40.404 271.976C41.044 272.979 41.364 274.141 41.364 275.464C41.364 276.339 41.1827 277.192 40.82 278.024C40.4573 278.856 39.924 279.741 39.22 280.68C38.516 281.597 37.5987 282.664 36.468 283.88L30.58 290.28H41.876V293H26.228Z" fill="#054425"/>
<path d="M71.816 293V272.04H65.352V269.16H81.352V272.04H74.984V293H71.816ZM82.1165 293V275.752H85.0285V278.92L84.7085 278.472C85.1138 277.491 85.7325 276.765 86.5645 276.296C87.3965 275.805 88.4098 275.56 89.6045 275.56H90.6605V278.376H89.1565C87.9405 278.376 86.9592 278.76 86.2125 279.528C85.4658 280.275 85.0925 281.341 85.0925 282.728V293H82.1165ZM98.36 293.384C97.2293 293.384 96.2267 293.181 95.352 292.776C94.4987 292.349 93.8267 291.773 93.336 291.048C92.8453 290.301 92.6 289.448 92.6 288.488C92.6 287.571 92.792 286.749 93.176 286.024C93.5813 285.277 94.2 284.648 95.032 284.136C95.8853 283.624 96.952 283.261 98.232 283.048L104.632 281.992V284.488L98.904 285.448C97.7947 285.64 96.984 285.992 96.472 286.504C95.9813 287.016 95.736 287.645 95.736 288.392C95.736 289.096 96.0133 289.683 96.568 290.152C97.144 290.621 97.8587 290.856 98.712 290.856C99.8 290.856 100.739 290.632 101.528 290.184C102.339 289.715 102.968 289.085 103.416 288.296C103.885 287.507 104.12 286.632 104.12 285.672V281.288C104.12 280.349 103.768 279.592 103.064 279.016C102.381 278.419 101.475 278.12 100.344 278.12C99.3627 278.12 98.488 278.376 97.72 278.888C96.9733 279.379 96.4187 280.04 96.056 280.872L93.464 279.528C93.784 278.739 94.296 278.035 95 277.416C95.704 276.776 96.5253 276.275 97.464 275.912C98.4027 275.549 99.384 275.368 100.408 275.368C101.731 275.368 102.893 275.624 103.896 276.136C104.899 276.627 105.677 277.32 106.232 278.216C106.808 279.091 107.096 280.115 107.096 281.288V293H104.184V289.736L104.728 289.928C104.365 290.611 103.875 291.208 103.256 291.72C102.637 292.232 101.912 292.637 101.08 292.936C100.248 293.235 99.3413 293.384 98.36 293.384ZM119.71 293.384C118.025 293.384 116.521 292.989 115.198 292.2C113.897 291.411 112.873 290.333 112.126 288.968C111.38 287.603 111.006 286.067 111.006 284.36C111.006 282.632 111.38 281.096 112.126 279.752C112.873 278.408 113.897 277.341 115.198 276.552C116.521 275.763 118.025 275.368 119.71 275.368C120.841 275.368 121.897 275.571 122.878 275.976C123.86 276.381 124.724 276.925 125.47 277.608C126.217 278.291 126.761 279.091 127.102 280.008L124.446 281.288C124.041 280.392 123.422 279.667 122.59 279.112C121.758 278.536 120.798 278.248 119.71 278.248C118.665 278.248 117.716 278.515 116.862 279.048C116.03 279.581 115.369 280.307 114.878 281.224C114.388 282.141 114.142 283.197 114.142 284.392C114.142 285.544 114.388 286.589 114.878 287.528C115.369 288.445 116.03 289.171 116.862 289.704C117.716 290.237 118.665 290.504 119.71 290.504C120.798 290.504 121.758 290.227 122.59 289.672C123.422 289.096 124.041 288.339 124.446 287.4L127.102 288.744C126.761 289.64 126.217 290.44 125.47 291.144C124.724 291.827 123.86 292.371 122.878 292.776C121.897 293.181 120.841 293.384 119.71 293.384ZM130.992 293V268.776H133.968V285.384L132.752 285.096L141.904 275.752H145.712L139.088 282.696L146.16 293H142.64L136.176 283.656L138.032 283.56L133.008 288.808L133.968 286.632V293H130.992ZM155.295 300.04C154.911 300.04 154.527 300.008 154.143 299.944C153.759 299.88 153.396 299.773 153.055 299.624V296.968C153.289 297.011 153.577 297.053 153.919 297.096C154.281 297.16 154.633 297.192 154.975 297.192C155.977 297.192 156.735 296.968 157.247 296.52C157.78 296.093 158.281 295.347 158.751 294.28L159.839 291.688L159.775 294.28L152.415 275.752H155.647L161.375 290.472H160.415L166.111 275.752H169.407L161.631 295.048C161.268 295.965 160.799 296.797 160.223 297.544C159.668 298.312 158.985 298.92 158.175 299.368C157.364 299.816 156.404 300.04 155.295 300.04ZM179.934 293.384C178.27 293.384 176.766 293 175.422 292.232C174.078 291.443 173.011 290.365 172.222 289C171.432 287.635 171.038 286.088 171.038 284.36C171.038 282.632 171.422 281.096 172.19 279.752C172.979 278.408 174.046 277.341 175.39 276.552C176.734 275.763 178.248 275.368 179.934 275.368C181.598 275.368 183.102 275.763 184.446 276.552C185.79 277.32 186.846 278.376 187.614 279.72C188.403 281.064 188.798 282.611 188.798 284.36C188.798 286.109 188.392 287.667 187.582 289.032C186.771 290.376 185.694 291.443 184.35 292.232C183.027 293 181.555 293.384 179.934 293.384ZM179.934 290.504C181 290.504 181.96 290.237 182.814 289.704C183.688 289.171 184.371 288.435 184.862 287.496C185.374 286.557 185.63 285.512 185.63 284.36C185.63 283.187 185.374 282.152 184.862 281.256C184.371 280.339 183.688 279.613 182.814 279.08C181.96 278.525 181 278.248 179.934 278.248C178.846 278.248 177.864 278.525 176.99 279.08C176.136 279.613 175.454 280.339 174.942 281.256C174.43 282.152 174.174 283.187 174.174 284.36C174.174 285.512 174.43 286.557 174.942 287.496C175.454 288.435 176.136 289.171 176.99 289.704C177.864 290.237 178.846 290.504 179.934 290.504ZM198.791 293.384C197.554 293.384 196.434 293.096 195.431 292.52C194.45 291.944 193.682 291.144 193.127 290.12C192.594 289.075 192.327 287.88 192.327 286.536V275.752H195.303V286.216C195.303 287.069 195.474 287.816 195.815 288.456C196.178 289.096 196.668 289.597 197.287 289.96C197.927 290.323 198.652 290.504 199.463 290.504C200.274 290.504 200.988 290.323 201.607 289.96C202.247 289.597 202.738 289.075 203.079 288.392C203.442 287.709 203.623 286.899 203.623 285.96V275.752H206.631V293H203.719V289.64L204.199 289.928C203.794 291.016 203.1 291.869 202.119 292.488C201.159 293.085 200.05 293.384 198.791 293.384ZM211.242 293V275.752H214.154V278.92L213.834 278.472C214.239 277.491 214.858 276.765 215.69 276.296C216.522 275.805 217.535 275.56 218.73 275.56H219.786V278.376H218.282C217.066 278.376 216.084 278.76 215.338 279.528C214.591 280.275 214.218 281.341 214.218 282.728V293H211.242ZM227.96 293V275.752H230.872V279.272L230.456 278.728C230.883 277.64 231.566 276.808 232.504 276.232C233.443 275.656 234.499 275.368 235.672 275.368C237.016 275.368 238.222 275.741 239.288 276.488C240.376 277.235 241.123 278.216 241.528 279.432L240.696 279.464C241.144 278.12 241.902 277.107 242.968 276.424C244.035 275.72 245.219 275.368 246.52 275.368C247.715 275.368 248.792 275.645 249.752 276.2C250.734 276.755 251.512 277.523 252.088 278.504C252.664 279.485 252.952 280.595 252.952 281.832V293H249.944V282.792C249.944 281.832 249.774 281.021 249.432 280.36C249.091 279.699 248.622 279.187 248.024 278.824C247.448 278.44 246.766 278.248 245.976 278.248C245.208 278.248 244.515 278.44 243.896 278.824C243.299 279.187 242.819 279.709 242.456 280.392C242.115 281.053 241.944 281.853 241.944 282.792V293H238.936V282.792C238.936 281.832 238.766 281.021 238.424 280.36C238.083 279.699 237.614 279.187 237.016 278.824C236.44 278.44 235.758 278.248 234.968 278.248C234.2 278.248 233.507 278.44 232.888 278.824C232.291 279.187 231.811 279.709 231.448 280.392C231.107 281.053 230.936 281.853 230.936 282.792V293H227.96ZM265.115 293.384C263.451 293.384 261.968 292.989 260.667 292.2C259.366 291.411 258.342 290.333 257.595 288.968C256.848 287.581 256.475 286.035 256.475 284.328C256.475 282.6 256.838 281.064 257.563 279.72C258.31 278.376 259.312 277.32 260.571 276.552C261.851 275.763 263.28 275.368 264.859 275.368C266.139 275.368 267.27 275.603 268.251 276.072C269.254 276.52 270.096 277.139 270.779 277.928C271.483 278.696 272.016 279.581 272.379 280.584C272.763 281.565 272.955 282.589 272.955 283.656C272.955 283.891 272.934 284.157 272.891 284.456C272.87 284.733 272.838 285 272.795 285.256H258.651V282.696H271.067L269.659 283.848C269.851 282.739 269.744 281.747 269.339 280.872C268.934 279.997 268.336 279.304 267.547 278.792C266.758 278.28 265.862 278.024 264.859 278.024C263.856 278.024 262.939 278.28 262.107 278.792C261.275 279.304 260.624 280.04 260.155 281C259.707 281.939 259.526 283.059 259.611 284.36C259.526 285.619 259.718 286.728 260.187 287.688C260.678 288.627 261.36 289.363 262.235 289.896C263.131 290.408 264.102 290.664 265.147 290.664C266.299 290.664 267.27 290.397 268.059 289.864C268.848 289.331 269.488 288.648 269.979 287.816L272.475 289.096C272.134 289.885 271.6 290.611 270.875 291.272C270.171 291.912 269.328 292.424 268.347 292.808C267.387 293.192 266.31 293.384 265.115 293.384ZM283.843 293.192C282.158 293.192 280.857 292.712 279.939 291.752C279.043 290.792 278.595 289.437 278.595 287.688V278.6H275.459V275.752H276.099C276.867 275.752 277.475 275.517 277.923 275.048C278.371 274.579 278.595 273.96 278.595 273.192V271.784H281.571V275.752H285.443V278.6H281.571V287.592C281.571 288.168 281.657 288.669 281.827 289.096C282.019 289.523 282.329 289.864 282.755 290.12C283.182 290.355 283.747 290.472 284.451 290.472C284.601 290.472 284.782 290.461 284.995 290.44C285.23 290.419 285.443 290.397 285.635 290.376V293C285.358 293.064 285.049 293.107 284.707 293.128C284.366 293.171 284.078 293.192 283.843 293.192ZM289.523 293V275.752H292.435V278.92L292.115 278.472C292.52 277.491 293.139 276.765 293.971 276.296C294.803 275.805 295.816 275.56 297.011 275.56H298.067V278.376H296.563C295.347 278.376 294.365 278.76 293.619 279.528C292.872 280.275 292.499 281.341 292.499 282.728V293H289.523ZM300.71 293V275.752H303.686V293H300.71ZM300.71 273V269.16H303.686V273H300.71ZM316.304 293.384C314.619 293.384 313.115 292.989 311.792 292.2C310.491 291.411 309.467 290.333 308.72 288.968C307.973 287.603 307.6 286.067 307.6 284.36C307.6 282.632 307.973 281.096 308.72 279.752C309.467 278.408 310.491 277.341 311.792 276.552C313.115 275.763 314.619 275.368 316.304 275.368C317.435 275.368 318.491 275.571 319.472 275.976C320.453 276.381 321.317 276.925 322.064 277.608C322.811 278.291 323.355 279.091 323.696 280.008L321.04 281.288C320.635 280.392 320.016 279.667 319.184 279.112C318.352 278.536 317.392 278.248 316.304 278.248C315.259 278.248 314.309 278.515 313.456 279.048C312.624 279.581 311.963 280.307 311.472 281.224C310.981 282.141 310.736 283.197 310.736 284.392C310.736 285.544 310.981 286.589 311.472 287.528C311.963 288.445 312.624 289.171 313.456 289.704C314.309 290.237 315.259 290.504 316.304 290.504C317.392 290.504 318.352 290.227 319.184 289.672C320.016 289.096 320.635 288.339 321.04 287.4L323.696 288.744C323.355 289.64 322.811 290.44 322.064 291.144C321.317 291.827 320.453 292.371 319.472 292.776C318.491 293.181 317.435 293.384 316.304 293.384ZM333.761 293.384C332.033 293.384 330.529 292.957 329.249 292.104C327.969 291.251 327.063 290.099 326.529 288.648L328.897 287.496C329.388 288.52 330.06 289.331 330.913 289.928C331.767 290.525 332.716 290.824 333.761 290.824C334.7 290.824 335.479 290.6 336.097 290.152C336.716 289.704 337.025 289.117 337.025 288.392C337.025 287.88 336.876 287.475 336.577 287.176C336.3 286.856 335.959 286.611 335.553 286.44C335.148 286.248 334.775 286.109 334.433 286.024L331.841 285.288C330.284 284.84 329.143 284.2 328.417 283.368C327.713 282.536 327.361 281.565 327.361 280.456C327.361 279.432 327.617 278.547 328.129 277.8C328.663 277.032 329.377 276.435 330.273 276.008C331.191 275.581 332.215 275.368 333.345 275.368C334.86 275.368 336.215 275.752 337.409 276.52C338.625 277.288 339.489 278.365 340.001 279.752L337.569 280.872C337.185 279.976 336.609 279.272 335.841 278.76C335.073 278.227 334.209 277.96 333.249 277.96C332.375 277.96 331.681 278.184 331.169 278.632C330.657 279.059 330.401 279.603 330.401 280.264C330.401 280.755 330.529 281.16 330.785 281.48C331.041 281.779 331.351 282.013 331.713 282.184C332.076 282.333 332.428 282.461 332.769 282.568L335.585 283.4C336.993 283.805 338.081 284.435 338.849 285.288C339.639 286.141 340.033 287.165 340.033 288.36C340.033 289.32 339.767 290.184 339.233 290.952C338.7 291.72 337.964 292.317 337.025 292.744C336.087 293.171 334.999 293.384 333.761 293.384ZM354.516 293.384C353.386 293.384 352.383 293.181 351.508 292.776C350.655 292.349 349.983 291.773 349.492 291.048C349.002 290.301 348.756 289.448 348.756 288.488C348.756 287.571 348.948 286.749 349.332 286.024C349.738 285.277 350.356 284.648 351.188 284.136C352.042 283.624 353.108 283.261 354.388 283.048L360.788 281.992V284.488L355.06 285.448C353.951 285.64 353.14 285.992 352.628 286.504C352.138 287.016 351.892 287.645 351.892 288.392C351.892 289.096 352.17 289.683 352.724 290.152C353.3 290.621 354.015 290.856 354.868 290.856C355.956 290.856 356.895 290.632 357.684 290.184C358.495 289.715 359.124 289.085 359.572 288.296C360.042 287.507 360.276 286.632 360.276 285.672V281.288C360.276 280.349 359.924 279.592 359.22 279.016C358.538 278.419 357.631 278.12 356.5 278.12C355.519 278.12 354.644 278.376 353.876 278.888C353.13 279.379 352.575 280.04 352.212 280.872L349.62 279.528C349.94 278.739 350.452 278.035 351.156 277.416C351.86 276.776 352.682 276.275 353.62 275.912C354.559 275.549 355.54 275.368 356.564 275.368C357.887 275.368 359.05 275.624 360.052 276.136C361.055 276.627 361.834 277.32 362.388 278.216C362.964 279.091 363.252 280.115 363.252 281.288V293H360.34V289.736L360.884 289.928C360.522 290.611 360.031 291.208 359.412 291.72C358.794 292.232 358.068 292.637 357.236 292.936C356.404 293.235 355.498 293.384 354.516 293.384ZM367.867 293V275.752H370.779V279.112L370.299 278.824C370.725 277.736 371.408 276.893 372.347 276.296C373.307 275.677 374.427 275.368 375.707 275.368C376.944 275.368 378.043 275.645 379.003 276.2C379.984 276.755 380.752 277.523 381.307 278.504C381.883 279.485 382.171 280.595 382.171 281.832V293H379.163V282.792C379.163 281.832 378.992 281.021 378.651 280.36C378.309 279.699 377.819 279.187 377.179 278.824C376.56 278.44 375.845 278.248 375.035 278.248C374.224 278.248 373.499 278.44 372.859 278.824C372.24 279.187 371.749 279.709 371.387 280.392C371.024 281.053 370.843 281.853 370.843 282.792V293H367.867ZM394.269 293.384C392.648 293.384 391.186 292.989 389.885 292.2C388.605 291.411 387.592 290.333 386.845 288.968C386.098 287.603 385.725 286.077 385.725 284.392C385.725 282.664 386.098 281.128 386.845 279.784C387.592 278.419 388.605 277.341 389.885 276.552C391.186 275.763 392.648 275.368 394.269 275.368C395.698 275.368 396.968 275.677 398.077 276.296C399.186 276.893 400.061 277.704 400.701 278.728L400.221 279.464V268.776H403.229V293H400.317V289.32L400.701 289.832C400.104 290.963 399.229 291.837 398.077 292.456C396.946 293.075 395.677 293.384 394.269 293.384ZM394.525 290.504C395.613 290.504 396.584 290.237 397.437 289.704C398.29 289.171 398.962 288.445 399.453 287.528C399.965 286.589 400.221 285.544 400.221 284.392C400.221 283.219 399.965 282.173 399.453 281.256C398.962 280.317 398.29 279.581 397.437 279.048C396.584 278.515 395.613 278.248 394.525 278.248C393.458 278.248 392.488 278.525 391.613 279.08C390.76 279.613 390.088 280.339 389.597 281.256C389.106 282.152 388.861 283.197 388.861 284.392C388.861 285.544 389.106 286.589 389.597 287.528C390.088 288.445 390.76 289.171 391.613 289.704C392.466 290.237 393.437 290.504 394.525 290.504ZM421.303 293.384C419.639 293.384 418.156 292.989 416.855 292.2C415.553 291.411 414.529 290.333 413.783 288.968C413.036 287.581 412.663 286.035 412.663 284.328C412.663 282.6 413.025 281.064 413.751 279.72C414.497 278.376 415.5 277.32 416.759 276.552C418.039 275.763 419.468 275.368 421.047 275.368C422.327 275.368 423.457 275.603 424.439 276.072C425.441 276.52 426.284 277.139 426.967 277.928C427.671 278.696 428.204 279.581 428.567 280.584C428.951 281.565 429.142 282.589 429.142 283.656C429.142 283.891 429.121 284.157 429.079 284.456C429.057 284.733 429.025 285 428.983 285.256H414.839V282.696H427.255L425.847 283.848C426.039 282.739 425.932 281.747 425.527 280.872C425.121 279.997 424.524 279.304 423.735 278.792C422.945 278.28 422.049 278.024 421.047 278.024C420.044 278.024 419.127 278.28 418.295 278.792C417.463 279.304 416.812 280.04 416.343 281C415.895 281.939 415.713 283.059 415.799 284.36C415.713 285.619 415.905 286.728 416.375 287.688C416.865 288.627 417.548 289.363 418.423 289.896C419.319 290.408 420.289 290.664 421.335 290.664C422.487 290.664 423.457 290.397 424.247 289.864C425.036 289.331 425.676 288.648 426.167 287.816L428.663 289.096C428.321 289.885 427.788 290.611 427.062 291.272C426.359 291.912 425.516 292.424 424.535 292.808C423.575 293.192 422.497 293.384 421.303 293.384ZM437.86 293.384C436.729 293.384 435.727 293.181 434.852 292.776C433.999 292.349 433.327 291.773 432.836 291.048C432.345 290.301 432.1 289.448 432.1 288.488C432.1 287.571 432.292 286.749 432.676 286.024C433.081 285.277 433.7 284.648 434.532 284.136C435.385 283.624 436.452 283.261 437.732 283.048L444.132 281.992V284.488L438.404 285.448C437.295 285.64 436.484 285.992 435.972 286.504C435.481 287.016 435.236 287.645 435.236 288.392C435.236 289.096 435.513 289.683 436.068 290.152C436.644 290.621 437.359 290.856 438.212 290.856C439.3 290.856 440.239 290.632 441.028 290.184C441.839 289.715 442.468 289.085 442.916 288.296C443.385 287.507 443.62 286.632 443.62 285.672V281.288C443.62 280.349 443.268 279.592 442.564 279.016C441.881 278.419 440.975 278.12 439.844 278.12C438.863 278.12 437.988 278.376 437.22 278.888C436.473 279.379 435.919 280.04 435.556 280.872L432.964 279.528C433.284 278.739 433.796 278.035 434.5 277.416C435.204 276.776 436.025 276.275 436.964 275.912C437.903 275.549 438.884 275.368 439.908 275.368C441.231 275.368 442.393 275.624 443.396 276.136C444.399 276.627 445.177 277.32 445.732 278.216C446.308 279.091 446.596 280.115 446.596 281.288V293H443.684V289.736L444.228 289.928C443.865 290.611 443.375 291.208 442.756 291.72C442.137 292.232 441.412 292.637 440.58 292.936C439.748 293.235 438.841 293.384 437.86 293.384ZM451.21 293V275.752H454.122V278.92L453.802 278.472C454.208 277.491 454.826 276.765 455.658 276.296C456.49 275.805 457.504 275.56 458.698 275.56H459.754V278.376H458.25C457.034 278.376 456.053 278.76 455.306 279.528C454.56 280.275 454.186 281.341 454.186 282.728V293H451.21ZM462.398 293V275.752H465.31V279.112L464.83 278.824C465.256 277.736 465.939 276.893 466.878 276.296C467.838 275.677 468.958 275.368 470.238 275.368C471.475 275.368 472.574 275.645 473.534 276.2C474.515 276.755 475.283 277.523 475.838 278.504C476.414 279.485 476.702 280.595 476.702 281.832V293H473.694V282.792C473.694 281.832 473.523 281.021 473.182 280.36C472.84 279.699 472.35 279.187 471.71 278.824C471.091 278.44 470.376 278.248 469.566 278.248C468.755 278.248 468.03 278.44 467.39 278.824C466.771 279.187 466.28 279.709 465.918 280.392C465.555 281.053 465.374 281.853 465.374 282.792V293H462.398ZM480.96 293V275.752H483.936V293H480.96ZM480.96 273V269.16H483.936V273H480.96ZM488.554 293V275.752H491.466V279.112L490.986 278.824C491.413 277.736 492.095 276.893 493.034 276.296C493.994 275.677 495.114 275.368 496.394 275.368C497.631 275.368 498.73 275.645 499.69 276.2C500.671 276.755 501.439 277.523 501.994 278.504C502.57 279.485 502.858 280.595 502.858 281.832V293H499.85V282.792C499.85 281.832 499.679 281.021 499.338 280.36C498.997 279.699 498.506 279.187 497.866 278.824C497.247 278.44 496.533 278.248 495.722 278.248C494.911 278.248 494.186 278.44 493.546 278.824C492.927 279.187 492.437 279.709 492.074 280.392C491.711 281.053 491.53 281.853 491.53 282.792V293H488.554ZM515.341 300.04C514.125 300.04 512.994 299.848 511.949 299.464C510.925 299.08 510.039 298.547 509.293 297.864C508.567 297.203 508.013 296.424 507.629 295.528L510.413 294.248C510.711 295.059 511.277 295.741 512.109 296.296C512.962 296.872 514.029 297.16 515.309 297.16C516.29 297.16 517.175 296.968 517.965 296.584C518.775 296.221 519.415 295.667 519.885 294.92C520.354 294.195 520.589 293.309 520.589 292.264V288.392L521.133 288.968C520.535 290.141 519.671 291.037 518.541 291.656C517.431 292.275 516.205 292.584 514.861 292.584C513.239 292.584 511.789 292.211 510.509 291.464C509.229 290.696 508.226 289.661 507.501 288.36C506.775 287.037 506.413 285.576 506.413 283.976C506.413 282.355 506.775 280.893 507.501 279.592C508.226 278.291 509.218 277.267 510.477 276.52C511.757 275.752 513.207 275.368 514.829 275.368C516.173 275.368 517.389 275.677 518.477 276.296C519.586 276.893 520.471 277.725 521.133 278.792L520.685 279.592V275.752H523.597V292.264C523.597 293.757 523.245 295.091 522.541 296.264C521.837 297.437 520.855 298.355 519.597 299.016C518.359 299.699 516.941 300.04 515.341 300.04ZM515.117 289.704C516.141 289.704 517.058 289.448 517.869 288.936C518.701 288.424 519.362 287.741 519.853 286.888C520.343 286.013 520.589 285.043 520.589 283.976C520.589 282.931 520.343 281.971 519.853 281.096C519.362 280.221 518.701 279.528 517.869 279.016C517.058 278.504 516.141 278.248 515.117 278.248C514.071 278.248 513.122 278.504 512.269 279.016C511.415 279.528 510.743 280.221 510.253 281.096C509.783 281.949 509.549 282.909 509.549 283.976C509.549 285.043 509.783 286.013 510.253 286.888C510.743 287.741 511.405 288.424 512.237 288.936C513.09 289.448 514.05 289.704 515.117 289.704ZM534.386 293.384C532.658 293.384 531.154 292.957 529.874 292.104C528.594 291.251 527.688 290.099 527.154 288.648L529.522 287.496C530.013 288.52 530.685 289.331 531.538 289.928C532.392 290.525 533.341 290.824 534.386 290.824C535.325 290.824 536.104 290.6 536.722 290.152C537.341 289.704 537.65 289.117 537.65 288.392C537.65 287.88 537.501 287.475 537.202 287.176C536.925 286.856 536.584 286.611 536.178 286.44C535.773 286.248 535.4 286.109 535.058 286.024L532.466 285.288C530.909 284.84 529.768 284.2 529.042 283.368C528.338 282.536 527.986 281.565 527.986 280.456C527.986 279.432 528.242 278.547 528.754 277.8C529.288 277.032 530.002 276.435 530.898 276.008C531.816 275.581 532.84 275.368 533.97 275.368C535.485 275.368 536.84 275.752 538.034 276.52C539.25 277.288 540.114 278.365 540.626 279.752L538.194 280.872C537.81 279.976 537.234 279.272 536.466 278.76C535.698 278.227 534.834 277.96 533.874 277.96C533 277.96 532.306 278.184 531.794 278.632C531.282 279.059 531.026 279.603 531.026 280.264C531.026 280.755 531.154 281.16 531.41 281.48C531.666 281.779 531.976 282.013 532.338 282.184C532.701 282.333 533.053 282.461 533.394 282.568L536.21 283.4C537.618 283.805 538.706 284.435 539.474 285.288C540.264 286.141 540.658 287.165 540.658 288.36C540.658 289.32 540.392 290.184 539.858 290.952C539.325 291.72 538.589 292.317 537.65 292.744C536.712 293.171 535.624 293.384 534.386 293.384Z" fill="#054425"/>
<defs>
<linearGradient id="paint0_linear_3126_2736" x1="34.3344" y1="597.241" x2="11.6349" y2="573.991" gradientUnits="userSpaceOnUse">
<stop stop-color="#00A0FF"/>
<stop offset="0.0066" stop-color="#00A1FF"/>
<stop offset="0.2601" stop-color="#00BEFF"/>
<stop offset="0.5122" stop-color="#00D2FF"/>
<stop offset="0.7604" stop-color="#00DFFF"/>
<stop offset="1" stop-color="#00E3FF"/>
</linearGradient>
<linearGradient id="paint1_linear_3126_2736" x1="51.0115" y1="581.964" x2="17.4806" y2="581.964" gradientUnits="userSpaceOnUse">
<stop stop-color="#FFE000"/>
<stop offset="0.4087" stop-color="#FFBD00"/>
<stop offset="0.7754" stop-color="#FFA500"/>
<stop offset="1" stop-color="#FF9C00"/>
</linearGradient>
<linearGradient id="paint2_linear_3126_2736" x1="38.5295" y1="578.859" x2="7.74708" y2="547.331" gradientUnits="userSpaceOnUse">
<stop stop-color="#FF3A44"/>
<stop offset="1" stop-color="#C31162"/>
</linearGradient>
<linearGradient id="paint3_linear_3126_2736" x1="14.2377" y1="608.786" x2="27.9834" y2="594.707" gradientUnits="userSpaceOnUse">
<stop stop-color="#32A071"/>
<stop offset="0.0685" stop-color="#2DA771"/>
<stop offset="0.4762" stop-color="#15CF74"/>
<stop offset="0.8009" stop-color="#06E775"/>
<stop offset="1" stop-color="#00F076"/>
</linearGradient>
</defs>
</svg>
