<svg width="608" height="132" viewBox="0 0 608 132" fill="none" xmlns="http://www.w3.org/2000/svg">
<path d="M3.456 50V14.24H9.984V50H3.456ZM28.2383 50.288C25.2943 50.288 23.0063 49.488 21.3743 47.888C19.7743 46.256 18.9743 43.968 18.9743 41.024V29.504H14.4623V23.888H14.9423C16.2223 23.888 17.2143 23.552 17.9183 22.88C18.6223 22.208 18.9743 21.232 18.9743 19.952V17.936H25.2623V23.888H31.2623V29.504H25.2623V40.688C25.2623 41.552 25.4063 42.288 25.6943 42.896C26.0143 43.504 26.4943 43.968 27.1343 44.288C27.8063 44.608 28.6543 44.768 29.6783 44.768C29.9023 44.768 30.1583 44.752 30.4463 44.72C30.7663 44.688 31.0703 44.656 31.3583 44.624V50C30.9103 50.064 30.3983 50.128 29.8223 50.192C29.2463 50.256 28.7183 50.288 28.2383 50.288ZM56.5976 50.288C53.6536 50.288 51.3656 49.488 49.7336 47.888C48.1336 46.256 47.3336 43.968 47.3336 41.024V29.504H42.8216V23.888H43.3016C44.5816 23.888 45.5736 23.552 46.2776 22.88C46.9816 22.208 47.3336 21.232 47.3336 19.952V17.936H53.6216V23.888H59.6216V29.504H53.6216V40.688C53.6216 41.552 53.7656 42.288 54.0536 42.896C54.3736 43.504 54.8536 43.968 55.4936 44.288C56.1656 44.608 57.0136 44.768 58.0376 44.768C58.2616 44.768 58.5176 44.752 58.8056 44.72C59.1256 44.688 59.4296 44.656 59.7176 44.624V50C59.2696 50.064 58.7576 50.128 58.1816 50.192C57.6056 50.256 57.0776 50.288 56.5976 50.288ZM72.348 50.576C70.524 50.576 68.94 50.272 67.596 49.664C66.252 49.056 65.212 48.192 64.476 47.072C63.74 45.92 63.372 44.592 63.372 43.088C63.372 41.648 63.692 40.368 64.332 39.248C64.972 38.096 65.964 37.136 67.308 36.368C68.652 35.6 70.348 35.056 72.396 34.736L80.94 33.344V38.144L73.596 39.392C72.348 39.616 71.42 40.016 70.812 40.592C70.204 41.168 69.9 41.92 69.9 42.848C69.9 43.744 70.236 44.464 70.908 45.008C71.612 45.52 72.476 45.776 73.5 45.776C74.812 45.776 75.964 45.504 76.956 44.96C77.98 44.384 78.764 43.6 79.308 42.608C79.884 41.616 80.172 40.528 80.172 39.344V32.624C80.172 31.504 79.724 30.576 78.828 29.84C77.964 29.072 76.812 28.688 75.372 28.688C74.028 28.688 72.828 29.056 71.772 29.792C70.748 30.496 69.996 31.44 69.516 32.624L64.38 30.128C64.892 28.752 65.692 27.568 66.78 26.576C67.9 25.552 69.212 24.752 70.716 24.176C72.22 23.6 73.852 23.312 75.612 23.312C77.756 23.312 79.644 23.712 81.276 24.512C82.908 25.28 84.172 26.368 85.068 27.776C85.996 29.152 86.46 30.768 86.46 32.624V50H80.508V45.536L81.852 45.44C81.18 46.56 80.38 47.504 79.452 48.272C78.524 49.008 77.468 49.584 76.284 50C75.1 50.384 73.788 50.576 72.348 50.576ZM92.2718 50V13.664H98.5598V37.472L96.1598 36.752L108.448 23.888H116.272L106.624 34.4L116.464 50H109.264L100.72 36.464L104.464 35.696L96.5918 44.144L98.5598 40.304V50H92.2718ZM131.89 50.576C129.202 50.576 126.85 49.968 124.834 48.752C122.818 47.536 121.25 45.888 120.13 43.808C119.01 41.728 118.45 39.424 118.45 36.896C118.45 34.272 119.01 31.952 120.13 29.936C121.282 27.888 122.834 26.272 124.786 25.088C126.77 23.904 128.978 23.312 131.41 23.312C133.458 23.312 135.25 23.648 136.786 24.32C138.354 24.992 139.682 25.92 140.77 27.104C141.858 28.288 142.69 29.648 143.266 31.184C143.842 32.688 144.13 34.32 144.13 36.08C144.13 36.528 144.098 36.992 144.034 37.472C144.002 37.952 143.922 38.368 143.794 38.72H123.634V33.92H140.242L137.266 36.176C137.554 34.704 137.474 33.392 137.026 32.24C136.61 31.088 135.906 30.176 134.914 29.504C133.954 28.832 132.786 28.496 131.41 28.496C130.098 28.496 128.93 28.832 127.906 29.504C126.882 30.144 126.098 31.104 125.554 32.384C125.042 33.632 124.85 35.152 124.978 36.944C124.85 38.544 125.058 39.968 125.602 41.216C126.178 42.432 127.01 43.376 128.098 44.048C129.218 44.72 130.498 45.056 131.938 45.056C133.378 45.056 134.594 44.752 135.586 44.144C136.61 43.536 137.41 42.72 137.986 41.696L143.074 44.192C142.562 45.44 141.762 46.544 140.674 47.504C139.586 48.464 138.29 49.216 136.786 49.76C135.314 50.304 133.682 50.576 131.89 50.576ZM158.833 50.576C156.049 50.576 153.617 49.92 151.537 48.608C149.489 47.264 148.081 45.456 147.313 43.184L152.017 40.928C152.689 42.4 153.617 43.552 154.801 44.384C156.017 45.216 157.361 45.632 158.833 45.632C159.985 45.632 160.897 45.376 161.569 44.864C162.241 44.352 162.577 43.68 162.577 42.848C162.577 42.336 162.433 41.92 162.145 41.6C161.889 41.248 161.521 40.96 161.041 40.736C160.593 40.48 160.097 40.272 159.553 40.112L155.281 38.912C153.073 38.272 151.393 37.296 150.241 35.984C149.121 34.672 148.561 33.12 148.561 31.328C148.561 29.728 148.961 28.336 149.761 27.152C150.593 25.936 151.729 24.992 153.169 24.32C154.641 23.648 156.321 23.312 158.209 23.312C160.673 23.312 162.849 23.904 164.737 25.088C166.625 26.272 167.969 27.936 168.769 30.08L163.969 32.336C163.521 31.152 162.769 30.208 161.713 29.504C160.657 28.8 159.473 28.448 158.161 28.448C157.105 28.448 156.273 28.688 155.665 29.168C155.057 29.648 154.753 30.272 154.753 31.04C154.753 31.52 154.881 31.936 155.137 32.288C155.393 32.64 155.745 32.928 156.193 33.152C156.673 33.376 157.217 33.584 157.825 33.776L162.001 35.024C164.145 35.664 165.793 36.624 166.945 37.904C168.129 39.184 168.721 40.752 168.721 42.608C168.721 44.176 168.305 45.568 167.473 46.784C166.641 47.968 165.489 48.896 164.017 49.568C162.545 50.24 160.817 50.576 158.833 50.576ZM178.484 60.608C178.068 60.608 177.636 60.592 177.188 60.56C176.74 60.528 176.372 60.48 176.084 60.416V54.944C176.66 55.04 177.236 55.088 177.812 55.088C179.156 55.088 180.196 54.768 180.932 54.128C181.7 53.52 182.084 52.576 182.084 51.296V23.888H188.372V51.296C188.372 53.28 187.972 54.96 187.172 56.336C186.372 57.744 185.22 58.8 183.716 59.504C182.244 60.24 180.5 60.608 178.484 60.608ZM182.084 20.96V14.24H188.372V20.96H182.084ZM203.49 50.576C201.474 50.576 199.714 50.128 198.21 49.232C196.738 48.336 195.602 47.088 194.802 45.488C194.034 43.888 193.65 42.016 193.65 39.872V23.888H199.938V39.344C199.938 40.432 200.146 41.392 200.562 42.224C201.01 43.024 201.634 43.664 202.434 44.144C203.266 44.592 204.194 44.816 205.218 44.816C206.242 44.816 207.154 44.592 207.954 44.144C208.754 43.664 209.378 43.008 209.826 42.176C210.274 41.344 210.498 40.352 210.498 39.2V23.888H216.786V50H210.834V44.864L211.362 45.776C210.754 47.376 209.746 48.576 208.338 49.376C206.962 50.176 205.346 50.576 203.49 50.576ZM232.567 50.576C229.783 50.576 227.351 49.92 225.271 48.608C223.223 47.264 221.815 45.456 221.047 43.184L225.751 40.928C226.423 42.4 227.351 43.552 228.535 44.384C229.751 45.216 231.095 45.632 232.567 45.632C233.719 45.632 234.631 45.376 235.303 44.864C235.975 44.352 236.311 43.68 236.311 42.848C236.311 42.336 236.167 41.92 235.879 41.6C235.623 41.248 235.255 40.96 234.775 40.736C234.327 40.48 233.831 40.272 233.287 40.112L229.015 38.912C226.807 38.272 225.127 37.296 223.975 35.984C222.855 34.672 222.295 33.12 222.295 31.328C222.295 29.728 222.695 28.336 223.495 27.152C224.327 25.936 225.463 24.992 226.903 24.32C228.375 23.648 230.055 23.312 231.943 23.312C234.407 23.312 236.583 23.904 238.471 25.088C240.359 26.272 241.703 27.936 242.503 30.08L237.703 32.336C237.255 31.152 236.503 30.208 235.447 29.504C234.391 28.8 233.207 28.448 231.895 28.448C230.839 28.448 230.007 28.688 229.399 29.168C228.791 29.648 228.487 30.272 228.487 31.04C228.487 31.52 228.615 31.936 228.871 32.288C229.127 32.64 229.479 32.928 229.927 33.152C230.407 33.376 230.951 33.584 231.559 33.776L235.735 35.024C237.879 35.664 239.527 36.624 240.679 37.904C241.863 39.184 242.455 40.752 242.455 42.608C242.455 44.176 242.039 45.568 241.207 46.784C240.375 47.968 239.223 48.896 237.751 49.568C236.279 50.24 234.551 50.576 232.567 50.576ZM259.191 50.288C256.247 50.288 253.959 49.488 252.327 47.888C250.727 46.256 249.927 43.968 249.927 41.024V29.504H245.415V23.888H245.895C247.175 23.888 248.167 23.552 248.871 22.88C249.575 22.208 249.927 21.232 249.927 19.952V17.936H256.215V23.888H262.215V29.504H256.215V40.688C256.215 41.552 256.359 42.288 256.647 42.896C256.967 43.504 257.447 43.968 258.087 44.288C258.759 44.608 259.607 44.768 260.631 44.768C260.855 44.768 261.111 44.752 261.399 44.72C261.719 44.688 262.023 44.656 262.311 44.624V50C261.863 50.064 261.351 50.128 260.775 50.192C260.199 50.256 259.671 50.288 259.191 50.288ZM286.783 50.576C284.831 50.576 282.975 50.224 281.215 49.52C279.487 48.784 277.999 47.76 276.751 46.448C275.535 45.104 274.703 43.52 274.255 41.696L279.967 39.68C280.543 41.312 281.423 42.56 282.607 43.424C283.791 44.256 285.183 44.672 286.783 44.672C288.063 44.672 289.167 44.432 290.095 43.952C291.055 43.472 291.807 42.784 292.351 41.888C292.895 40.96 293.167 39.872 293.167 38.624C293.167 37.376 292.895 36.32 292.351 35.456C291.839 34.56 291.103 33.872 290.143 33.392C289.183 32.912 288.047 32.672 286.735 32.672C286.127 32.672 285.487 32.736 284.815 32.864C284.175 32.992 283.599 33.184 283.087 33.44L281.599 30.32L290.863 19.76H276.271V14.24H298.207V19.376L288.895 30.272L288.991 27.824C291.135 27.856 293.007 28.32 294.607 29.216C296.207 30.112 297.455 31.344 298.351 32.912C299.247 34.48 299.695 36.32 299.695 38.432C299.695 40.736 299.135 42.816 298.015 44.672C296.895 46.496 295.359 47.936 293.407 48.992C291.455 50.048 289.247 50.576 286.783 50.576ZM323.458 50.576C320.674 50.576 318.242 49.92 316.162 48.608C314.114 47.264 312.706 45.456 311.938 43.184L316.642 40.928C317.314 42.4 318.242 43.552 319.426 44.384C320.642 45.216 321.986 45.632 323.458 45.632C324.61 45.632 325.522 45.376 326.194 44.864C326.866 44.352 327.202 43.68 327.202 42.848C327.202 42.336 327.058 41.92 326.77 41.6C326.514 41.248 326.146 40.96 325.666 40.736C325.218 40.48 324.722 40.272 324.178 40.112L319.906 38.912C317.698 38.272 316.018 37.296 314.866 35.984C313.746 34.672 313.186 33.12 313.186 31.328C313.186 29.728 313.586 28.336 314.386 27.152C315.218 25.936 316.354 24.992 317.794 24.32C319.266 23.648 320.946 23.312 322.834 23.312C325.298 23.312 327.474 23.904 329.362 25.088C331.25 26.272 332.594 27.936 333.394 30.08L328.594 32.336C328.146 31.152 327.394 30.208 326.338 29.504C325.282 28.8 324.098 28.448 322.786 28.448C321.73 28.448 320.898 28.688 320.29 29.168C319.682 29.648 319.378 30.272 319.378 31.04C319.378 31.52 319.506 31.936 319.762 32.288C320.018 32.64 320.37 32.928 320.818 33.152C321.298 33.376 321.842 33.584 322.45 33.776L326.626 35.024C328.77 35.664 330.418 36.624 331.57 37.904C332.754 39.184 333.346 40.752 333.346 42.608C333.346 44.176 332.93 45.568 332.098 46.784C331.266 47.968 330.114 48.896 328.642 49.568C327.17 50.24 325.442 50.576 323.458 50.576ZM338.178 50V23.888H344.466V50H338.178ZM338.178 20.96V14.24H344.466V20.96H338.178ZM350.272 50V23.888H356.176V29.936L355.504 28.928C355.984 27.04 356.944 25.632 358.384 24.704C359.824 23.776 361.52 23.312 363.472 23.312C365.616 23.312 367.504 23.872 369.136 24.992C370.768 26.112 371.824 27.584 372.304 29.408L370.528 29.552C371.328 27.472 372.528 25.92 374.128 24.896C375.728 23.84 377.568 23.312 379.648 23.312C381.504 23.312 383.152 23.728 384.592 24.56C386.064 25.392 387.216 26.56 388.048 28.064C388.88 29.536 389.296 31.248 389.296 33.2V50H383.008V34.688C383.008 33.536 382.8 32.544 382.384 31.712C381.968 30.88 381.392 30.24 380.656 29.792C379.92 29.312 379.024 29.072 377.968 29.072C376.976 29.072 376.096 29.312 375.328 29.792C374.56 30.24 373.968 30.88 373.552 31.712C373.136 32.544 372.928 33.536 372.928 34.688V50H366.64V34.688C366.64 33.536 366.432 32.544 366.016 31.712C365.6 30.88 365.008 30.24 364.24 29.792C363.504 29.312 362.624 29.072 361.6 29.072C360.608 29.072 359.728 29.312 358.96 29.792C358.192 30.24 357.6 30.88 357.184 31.712C356.768 32.544 356.56 33.536 356.56 34.688V50H350.272ZM394.616 59.6V23.888H400.52V29.072L399.944 27.776C400.84 26.368 402.056 25.28 403.592 24.512C405.128 23.712 406.904 23.312 408.92 23.312C411.384 23.312 413.608 23.92 415.592 25.136C417.576 26.352 419.144 27.984 420.296 30.032C421.48 32.08 422.072 34.384 422.072 36.944C422.072 39.472 421.496 41.776 420.344 43.856C419.192 45.936 417.624 47.584 415.64 48.8C413.656 49.984 411.4 50.576 408.872 50.576C406.984 50.576 405.24 50.208 403.64 49.472C402.072 48.704 400.824 47.616 399.896 46.208L400.904 44.96V59.6H394.616ZM408.152 44.816C409.592 44.816 410.872 44.48 411.992 43.808C413.112 43.136 413.976 42.208 414.584 41.024C415.224 39.84 415.544 38.48 415.544 36.944C415.544 35.408 415.224 34.064 414.584 32.912C413.976 31.728 413.112 30.8 411.992 30.128C410.872 29.424 409.592 29.072 408.152 29.072C406.776 29.072 405.528 29.408 404.408 30.08C403.32 30.752 402.456 31.696 401.816 32.912C401.208 34.096 400.904 35.44 400.904 36.944C400.904 38.48 401.208 39.84 401.816 41.024C402.456 42.208 403.32 43.136 404.408 43.808C405.528 44.48 406.776 44.816 408.152 44.816ZM426.866 50V13.664H433.154V50H426.866ZM451.343 50.576C448.655 50.576 446.303 49.968 444.287 48.752C442.271 47.536 440.703 45.888 439.583 43.808C438.463 41.728 437.903 39.424 437.903 36.896C437.903 34.272 438.463 31.952 439.583 29.936C440.735 27.888 442.287 26.272 444.239 25.088C446.223 23.904 448.431 23.312 450.863 23.312C452.911 23.312 454.703 23.648 456.239 24.32C457.807 24.992 459.135 25.92 460.223 27.104C461.311 28.288 462.143 29.648 462.719 31.184C463.295 32.688 463.583 34.32 463.583 36.08C463.583 36.528 463.551 36.992 463.487 37.472C463.455 37.952 463.375 38.368 463.247 38.72H443.087V33.92H459.695L456.719 36.176C457.007 34.704 456.927 33.392 456.479 32.24C456.063 31.088 455.359 30.176 454.367 29.504C453.407 28.832 452.239 28.496 450.863 28.496C449.551 28.496 448.383 28.832 447.359 29.504C446.335 30.144 445.551 31.104 445.007 32.384C444.495 33.632 444.303 35.152 444.431 36.944C444.303 38.544 444.511 39.968 445.055 41.216C445.631 42.432 446.463 43.376 447.551 44.048C448.671 44.72 449.951 45.056 451.391 45.056C452.831 45.056 454.047 44.752 455.039 44.144C456.063 43.536 456.863 42.72 457.439 41.696L462.527 44.192C462.015 45.44 461.215 46.544 460.127 47.504C459.039 48.464 457.743 49.216 456.239 49.76C454.767 50.304 453.135 50.576 451.343 50.576ZM486.817 50.576C484.033 50.576 481.601 49.92 479.521 48.608C477.473 47.264 476.065 45.456 475.297 43.184L480.001 40.928C480.673 42.4 481.601 43.552 482.785 44.384C484.001 45.216 485.345 45.632 486.817 45.632C487.969 45.632 488.881 45.376 489.553 44.864C490.225 44.352 490.561 43.68 490.561 42.848C490.561 42.336 490.417 41.92 490.129 41.6C489.873 41.248 489.505 40.96 489.025 40.736C488.577 40.48 488.081 40.272 487.537 40.112L483.265 38.912C481.057 38.272 479.377 37.296 478.225 35.984C477.105 34.672 476.545 33.12 476.545 31.328C476.545 29.728 476.945 28.336 477.745 27.152C478.577 25.936 479.713 24.992 481.153 24.32C482.625 23.648 484.305 23.312 486.193 23.312C488.657 23.312 490.833 23.904 492.721 25.088C494.609 26.272 495.953 27.936 496.753 30.08L491.953 32.336C491.505 31.152 490.753 30.208 489.697 29.504C488.641 28.8 487.457 28.448 486.145 28.448C485.089 28.448 484.257 28.688 483.649 29.168C483.041 29.648 482.737 30.272 482.737 31.04C482.737 31.52 482.865 31.936 483.121 32.288C483.377 32.64 483.729 32.928 484.177 33.152C484.657 33.376 485.201 33.584 485.809 33.776L489.985 35.024C492.129 35.664 493.777 36.624 494.929 37.904C496.113 39.184 496.705 40.752 496.705 42.608C496.705 44.176 496.289 45.568 495.457 46.784C494.625 47.968 493.473 48.896 492.001 49.568C490.529 50.24 488.801 50.576 486.817 50.576ZM513.441 50.288C510.497 50.288 508.209 49.488 506.577 47.888C504.977 46.256 504.177 43.968 504.177 41.024V29.504H499.665V23.888H500.145C501.425 23.888 502.417 23.552 503.121 22.88C503.825 22.208 504.177 21.232 504.177 19.952V17.936H510.465V23.888H516.465V29.504H510.465V40.688C510.465 41.552 510.609 42.288 510.897 42.896C511.217 43.504 511.697 43.968 512.337 44.288C513.009 44.608 513.857 44.768 514.881 44.768C515.105 44.768 515.361 44.752 515.649 44.72C515.969 44.688 516.273 44.656 516.561 44.624V50C516.113 50.064 515.601 50.128 515.025 50.192C514.449 50.256 513.921 50.288 513.441 50.288ZM533.515 50.576C530.827 50.576 528.475 49.968 526.459 48.752C524.443 47.536 522.875 45.888 521.755 43.808C520.635 41.728 520.075 39.424 520.075 36.896C520.075 34.272 520.635 31.952 521.755 29.936C522.907 27.888 524.459 26.272 526.411 25.088C528.395 23.904 530.603 23.312 533.035 23.312C535.083 23.312 536.875 23.648 538.411 24.32C539.979 24.992 541.307 25.92 542.395 27.104C543.483 28.288 544.315 29.648 544.891 31.184C545.467 32.688 545.755 34.32 545.755 36.08C545.755 36.528 545.723 36.992 545.659 37.472C545.627 37.952 545.547 38.368 545.419 38.72H525.259V33.92H541.867L538.891 36.176C539.179 34.704 539.099 33.392 538.651 32.24C538.235 31.088 537.531 30.176 536.539 29.504C535.579 28.832 534.411 28.496 533.035 28.496C531.723 28.496 530.555 28.832 529.531 29.504C528.507 30.144 527.723 31.104 527.179 32.384C526.667 33.632 526.475 35.152 526.603 36.944C526.475 38.544 526.683 39.968 527.227 41.216C527.803 42.432 528.635 43.376 529.723 44.048C530.843 44.72 532.123 45.056 533.563 45.056C535.003 45.056 536.219 44.752 537.211 44.144C538.235 43.536 539.035 42.72 539.611 41.696L544.699 44.192C544.187 45.44 543.387 46.544 542.299 47.504C541.211 48.464 539.915 49.216 538.411 49.76C536.939 50.304 535.307 50.576 533.515 50.576ZM550.522 59.6V23.888H556.426V29.072L555.85 27.776C556.746 26.368 557.962 25.28 559.498 24.512C561.034 23.712 562.81 23.312 564.826 23.312C567.29 23.312 569.514 23.92 571.498 25.136C573.482 26.352 575.05 27.984 576.202 30.032C577.386 32.08 577.978 34.384 577.978 36.944C577.978 39.472 577.402 41.776 576.25 43.856C575.098 45.936 573.53 47.584 571.546 48.8C569.562 49.984 567.306 50.576 564.778 50.576C562.89 50.576 561.146 50.208 559.546 49.472C557.978 48.704 556.73 47.616 555.802 46.208L556.81 44.96V59.6H550.522ZM564.058 44.816C565.498 44.816 566.778 44.48 567.898 43.808C569.018 43.136 569.882 42.208 570.49 41.024C571.13 39.84 571.45 38.48 571.45 36.944C571.45 35.408 571.13 34.064 570.49 32.912C569.882 31.728 569.018 30.8 567.898 30.128C566.778 29.424 565.498 29.072 564.058 29.072C562.682 29.072 561.434 29.408 560.314 30.08C559.226 30.752 558.362 31.696 557.722 32.912C557.114 34.096 556.81 35.44 556.81 36.944C556.81 38.48 557.114 39.84 557.722 41.024C558.362 42.208 559.226 43.136 560.314 43.808C561.434 44.48 562.682 44.816 564.058 44.816ZM592.708 50.576C589.924 50.576 587.492 49.92 585.412 48.608C583.364 47.264 581.956 45.456 581.188 43.184L585.892 40.928C586.564 42.4 587.492 43.552 588.676 44.384C589.892 45.216 591.236 45.632 592.708 45.632C593.86 45.632 594.772 45.376 595.444 44.864C596.116 44.352 596.452 43.68 596.452 42.848C596.452 42.336 596.308 41.92 596.02 41.6C595.764 41.248 595.396 40.96 594.916 40.736C594.468 40.48 593.972 40.272 593.428 40.112L589.156 38.912C586.948 38.272 585.268 37.296 584.116 35.984C582.996 34.672 582.436 33.12 582.436 31.328C582.436 29.728 582.836 28.336 583.636 27.152C584.468 25.936 585.604 24.992 587.044 24.32C588.516 23.648 590.196 23.312 592.084 23.312C594.548 23.312 596.724 23.904 598.612 25.088C600.5 26.272 601.844 27.936 602.644 30.08L597.844 32.336C597.396 31.152 596.644 30.208 595.588 29.504C594.532 28.8 593.348 28.448 592.036 28.448C590.98 28.448 590.148 28.688 589.54 29.168C588.932 29.648 588.628 30.272 588.628 31.04C588.628 31.52 588.756 31.936 589.012 32.288C589.268 32.64 589.62 32.928 590.068 33.152C590.548 33.376 591.092 33.584 591.7 33.776L595.876 35.024C598.02 35.664 599.668 36.624 600.82 37.904C602.004 39.184 602.596 40.752 602.596 42.608C602.596 44.176 602.18 45.568 601.348 46.784C600.516 47.968 599.364 48.896 597.892 49.568C596.42 50.24 594.692 50.576 592.708 50.576Z" fill="#191717"/>
<path d="M13.2693 125.384C11.3706 125.384 9.70658 124.872 8.27725 123.848C6.84792 122.803 5.72792 121.363 4.91725 119.528C4.12792 117.672 3.73325 115.517 3.73325 113.064C3.73325 110.589 4.12792 108.435 4.91725 106.6C5.72792 104.765 6.83725 103.336 8.24525 102.312C9.67458 101.288 11.3386 100.776 13.2373 100.776C15.1359 100.776 16.7893 101.288 18.1973 102.312C19.6266 103.336 20.7359 104.776 21.5253 106.632C22.3359 108.467 22.7413 110.611 22.7413 113.064C22.7413 115.517 22.3466 117.672 21.5573 119.528C20.7679 121.363 19.6586 122.803 18.2292 123.848C16.8213 124.872 15.1679 125.384 13.2693 125.384ZM13.2693 121.928C14.4426 121.928 15.4559 121.565 16.3093 120.84C17.1626 120.115 17.8239 119.091 18.2933 117.768C18.7626 116.445 18.9973 114.877 18.9973 113.064C18.9973 111.251 18.7626 109.683 18.2933 108.36C17.8239 107.037 17.1626 106.013 16.3093 105.288C15.4559 104.563 14.4319 104.2 13.2373 104.2C12.0639 104.2 11.0506 104.563 10.1973 105.288C9.34392 106.013 8.68258 107.037 8.21325 108.36C7.74392 109.683 7.50925 111.251 7.50925 113.064C7.50925 114.856 7.74392 116.424 8.21325 117.768C8.68258 119.091 9.34392 120.115 10.1973 120.84C11.0719 121.565 12.0959 121.928 13.2693 121.928ZM30.3195 125V104.36H25.7435V101.16H34.0635V125H30.3195Z" fill="#298A5A"/>
<path d="M61.464 125V101.16H69.272C71.7467 101.16 73.8907 101.661 75.704 102.664C77.5387 103.645 78.9573 105.032 79.96 106.824C80.9627 108.616 81.464 110.696 81.464 113.064C81.464 115.411 80.9627 117.491 79.96 119.304C78.9573 121.096 77.5387 122.493 75.704 123.496C73.8907 124.499 71.7467 125 69.272 125H61.464ZM65.24 121.64H69.336C71.0213 121.64 72.4827 121.288 73.72 120.584C74.9787 119.88 75.9493 118.888 76.632 117.608C77.3147 116.328 77.656 114.813 77.656 113.064C77.656 111.315 77.304 109.811 76.6 108.552C75.9173 107.272 74.9573 106.28 73.72 105.576C72.4827 104.872 71.0213 104.52 69.336 104.52H65.24V121.64ZM93.1828 125.384C91.5188 125.384 89.9934 124.989 88.6068 124.2C87.2414 123.411 86.1534 122.333 85.3428 120.968C84.5321 119.603 84.1268 118.056 84.1268 116.328C84.1268 114.579 84.5321 113.032 85.3428 111.688C86.1534 110.323 87.2414 109.256 88.6068 108.488C89.9721 107.699 91.4974 107.304 93.1828 107.304C94.8894 107.304 96.4148 107.699 97.7588 108.488C99.1241 109.256 100.201 110.323 100.991 111.688C101.801 113.032 102.207 114.579 102.207 116.328C102.207 118.077 101.801 119.635 100.991 121C100.18 122.365 99.0921 123.443 97.7268 124.232C96.3614 125 94.8468 125.384 93.1828 125.384ZM93.1828 122.024C94.2068 122.024 95.1134 121.779 95.9028 121.288C96.6921 120.797 97.3108 120.125 97.7588 119.272C98.2281 118.397 98.4628 117.416 98.4628 116.328C98.4628 115.24 98.2281 114.269 97.7588 113.416C97.3108 112.563 96.6921 111.891 95.9028 111.4C95.1134 110.909 94.2068 110.664 93.1828 110.664C92.1801 110.664 91.2734 110.909 90.4628 111.4C89.6734 111.891 89.0441 112.563 88.5748 113.416C88.1268 114.269 87.9028 115.24 87.9028 116.328C87.9028 117.416 88.1268 118.397 88.5748 119.272C89.0441 120.125 89.6734 120.797 90.4628 121.288C91.2734 121.779 92.1801 122.024 93.1828 122.024ZM109.617 125L103.665 107.688H107.505L112.049 121.48H110.705L115.345 107.688H118.641L123.249 121.48H121.905L126.481 107.688H130.321L124.337 125H121.073L116.401 110.888H117.585L112.913 125H109.617ZM132.799 125V107.688H136.256V111.08L135.84 110.632C136.266 109.544 136.949 108.723 137.888 108.168C138.826 107.592 139.914 107.304 141.152 107.304C142.432 107.304 143.562 107.581 144.544 108.136C145.525 108.691 146.293 109.459 146.847 110.44C147.402 111.421 147.68 112.552 147.68 113.832V125H144.096V114.792C144.096 113.917 143.936 113.181 143.616 112.584C143.296 111.965 142.837 111.496 142.24 111.176C141.664 110.835 141.002 110.664 140.256 110.664C139.509 110.664 138.837 110.835 138.24 111.176C137.664 111.496 137.216 111.965 136.896 112.584C136.576 113.203 136.416 113.939 136.416 114.792V125H132.799ZM151.549 125V100.776H155.166V125H151.549ZM167.745 125.384C166.081 125.384 164.556 124.989 163.169 124.2C161.804 123.411 160.716 122.333 159.905 120.968C159.095 119.603 158.689 118.056 158.689 116.328C158.689 114.579 159.095 113.032 159.905 111.688C160.716 110.323 161.804 109.256 163.169 108.488C164.535 107.699 166.06 107.304 167.745 107.304C169.452 107.304 170.977 107.699 172.321 108.488C173.687 109.256 174.764 110.323 175.553 111.688C176.364 113.032 176.769 114.579 176.769 116.328C176.769 118.077 176.364 119.635 175.553 121C174.743 122.365 173.655 123.443 172.289 124.232C170.924 125 169.409 125.384 167.745 125.384ZM167.745 122.024C168.769 122.024 169.676 121.779 170.465 121.288C171.255 120.797 171.873 120.125 172.321 119.272C172.791 118.397 173.025 117.416 173.025 116.328C173.025 115.24 172.791 114.269 172.321 113.416C171.873 112.563 171.255 111.891 170.465 111.4C169.676 110.909 168.769 110.664 167.745 110.664C166.743 110.664 165.836 110.909 165.025 111.4C164.236 111.891 163.607 112.563 163.137 113.416C162.689 114.269 162.465 115.24 162.465 116.328C162.465 117.416 162.689 118.397 163.137 119.272C163.607 120.125 164.236 120.797 165.025 121.288C165.836 121.779 166.743 122.024 167.745 122.024ZM185.484 125.384C184.31 125.384 183.276 125.181 182.38 124.776C181.505 124.349 180.822 123.773 180.332 123.048C179.841 122.301 179.596 121.427 179.596 120.424C179.596 119.485 179.798 118.643 180.204 117.896C180.63 117.149 181.281 116.52 182.156 116.008C183.03 115.496 184.129 115.133 185.452 114.92L191.468 113.928V116.776L186.156 117.704C185.196 117.875 184.492 118.184 184.044 118.632C183.596 119.059 183.372 119.613 183.372 120.296C183.372 120.957 183.617 121.501 184.108 121.928C184.62 122.333 185.27 122.536 186.06 122.536C187.041 122.536 187.894 122.323 188.62 121.896C189.366 121.469 189.942 120.904 190.348 120.2C190.753 119.475 190.956 118.675 190.956 117.8V113.352C190.956 112.499 190.636 111.805 189.996 111.272C189.377 110.717 188.545 110.44 187.5 110.44C186.54 110.44 185.697 110.696 184.972 111.208C184.268 111.699 183.745 112.339 183.404 113.128L180.396 111.624C180.716 110.771 181.238 110.024 181.964 109.384C182.689 108.723 183.532 108.211 184.492 107.848C185.473 107.485 186.508 107.304 187.595 107.304C188.961 107.304 190.166 107.56 191.212 108.072C192.278 108.584 193.1 109.299 193.676 110.216C194.273 111.112 194.572 112.157 194.572 113.352V125H191.116V121.864L191.852 121.96C191.446 122.664 190.924 123.272 190.284 123.784C189.665 124.296 188.95 124.691 188.14 124.968C187.35 125.245 186.465 125.384 185.484 125.384ZM206.8 125.384C205.136 125.384 203.642 124.989 202.32 124.2C201.018 123.389 199.984 122.301 199.216 120.936C198.469 119.571 198.096 118.035 198.096 116.328C198.096 114.621 198.48 113.085 199.248 111.72C200.016 110.355 201.05 109.277 202.352 108.488C203.653 107.699 205.125 107.304 206.768 107.304C208.154 107.304 209.381 107.581 210.448 108.136C211.514 108.691 212.357 109.459 212.976 110.44L212.432 111.272V100.776H216.016V125H212.592V121.48L213.008 122.152C212.41 123.197 211.557 123.997 210.448 124.552C209.338 125.107 208.122 125.384 206.8 125.384ZM207.152 122.024C208.154 122.024 209.05 121.779 209.84 121.288C210.65 120.797 211.28 120.125 211.728 119.272C212.197 118.397 212.432 117.416 212.432 116.328C212.432 115.24 212.197 114.269 211.728 113.416C211.28 112.563 210.65 111.891 209.84 111.4C209.05 110.909 208.154 110.664 207.152 110.664C206.149 110.664 205.242 110.909 204.432 111.4C203.621 111.891 202.992 112.563 202.544 113.416C202.096 114.269 201.872 115.24 201.872 116.328C201.872 117.416 202.096 118.397 202.544 119.272C202.992 120.125 203.61 120.797 204.4 121.288C205.21 121.779 206.128 122.024 207.152 122.024ZM233.319 125.192C231.505 125.192 230.097 124.68 229.095 123.656C228.092 122.632 227.591 121.192 227.591 119.336V110.952H224.551V107.688H225.031C225.841 107.688 226.471 107.453 226.919 106.984C227.367 106.515 227.591 105.875 227.591 105.064V103.72H231.207V107.688H235.143V110.952H231.207V119.176C231.207 119.773 231.303 120.285 231.495 120.712C231.687 121.117 231.996 121.437 232.423 121.672C232.849 121.885 233.404 121.992 234.087 121.992C234.257 121.992 234.449 121.981 234.663 121.96C234.876 121.939 235.079 121.917 235.271 121.896V125C234.972 125.043 234.641 125.085 234.279 125.128C233.916 125.171 233.596 125.192 233.319 125.192ZM238.799 125V100.776H242.416V111.08L241.84 110.632C242.266 109.544 242.949 108.723 243.888 108.168C244.826 107.592 245.914 107.304 247.152 107.304C248.432 107.304 249.562 107.581 250.544 108.136C251.525 108.691 252.293 109.459 252.847 110.44C253.402 111.421 253.68 112.541 253.68 113.8V125H250.096V114.792C250.096 113.917 249.925 113.181 249.584 112.584C249.264 111.965 248.816 111.496 248.24 111.176C247.664 110.835 247.002 110.664 246.256 110.664C245.53 110.664 244.869 110.835 244.272 111.176C243.696 111.496 243.237 111.965 242.896 112.584C242.576 113.203 242.416 113.939 242.416 114.792V125H238.799ZM265.678 125.384C263.95 125.384 262.414 124.989 261.07 124.2C259.747 123.389 258.712 122.301 257.966 120.936C257.219 119.549 256.846 118.003 256.846 116.296C256.846 114.547 257.219 113 257.966 111.656C258.734 110.312 259.758 109.256 261.038 108.488C262.318 107.699 263.768 107.304 265.39 107.304C266.691 107.304 267.854 107.528 268.878 107.976C269.902 108.424 270.766 109.043 271.47 109.832C272.174 110.6 272.707 111.485 273.069 112.488C273.454 113.491 273.646 114.557 273.646 115.688C273.646 115.965 273.635 116.253 273.614 116.552C273.592 116.851 273.55 117.128 273.486 117.384H259.694V114.504H271.438L269.71 115.816C269.923 114.771 269.848 113.843 269.486 113.032C269.144 112.2 268.611 111.549 267.886 111.08C267.182 110.589 266.35 110.344 265.39 110.344C264.43 110.344 263.576 110.589 262.83 111.08C262.083 111.549 261.507 112.232 261.102 113.128C260.696 114.003 260.536 115.069 260.622 116.328C260.515 117.501 260.675 118.525 261.102 119.4C261.55 120.275 262.168 120.957 262.958 121.448C263.768 121.939 264.686 122.184 265.71 122.184C266.755 122.184 267.64 121.949 268.366 121.48C269.112 121.011 269.699 120.403 270.126 119.656L273.069 121.096C272.728 121.907 272.195 122.643 271.47 123.304C270.766 123.944 269.912 124.456 268.91 124.84C267.928 125.203 266.851 125.384 265.678 125.384ZM283.12 125V101.16H298.832V104.52H286.896V111.368H298.192V114.728H286.896V121.64H298.832V125H283.12ZM307.171 125.384C305.998 125.384 304.963 125.181 304.067 124.776C303.192 124.349 302.51 123.773 302.019 123.048C301.528 122.301 301.283 121.427 301.283 120.424C301.283 119.485 301.486 118.643 301.891 117.896C302.318 117.149 302.968 116.52 303.843 116.008C304.718 115.496 305.816 115.133 307.139 114.92L313.155 113.928V116.776L307.843 117.704C306.883 117.875 306.179 118.184 305.731 118.632C305.283 119.059 305.059 119.613 305.059 120.296C305.059 120.957 305.304 121.501 305.795 121.928C306.307 122.333 306.958 122.536 307.747 122.536C308.728 122.536 309.582 122.323 310.307 121.896C311.054 121.469 311.63 120.904 312.035 120.2C312.44 119.475 312.643 118.675 312.643 117.8V113.352C312.643 112.499 312.323 111.805 311.683 111.272C311.064 110.717 310.232 110.44 309.187 110.44C308.227 110.44 307.384 110.696 306.659 111.208C305.955 111.699 305.432 112.339 305.091 113.128L302.083 111.624C302.403 110.771 302.926 110.024 303.651 109.384C304.376 108.723 305.219 108.211 306.179 107.848C307.16 107.485 308.195 107.304 309.283 107.304C310.648 107.304 311.854 107.56 312.899 108.072C313.966 108.584 314.787 109.299 315.363 110.216C315.96 111.112 316.259 112.157 316.259 113.352V125H312.803V121.864L313.539 121.96C313.134 122.664 312.611 123.272 311.971 123.784C311.352 124.296 310.638 124.691 309.827 124.968C309.038 125.245 308.152 125.384 307.171 125.384ZM327.663 125.192C325.849 125.192 324.441 124.68 323.439 123.656C322.436 122.632 321.935 121.192 321.935 119.336V110.952H318.895V107.688H319.375C320.185 107.688 320.815 107.453 321.263 106.984C321.711 106.515 321.935 105.875 321.935 105.064V103.72H325.551V107.688H329.487V110.952H325.551V119.176C325.551 119.773 325.647 120.285 325.839 120.712C326.031 121.117 326.34 121.437 326.767 121.672C327.193 121.885 327.748 121.992 328.431 121.992C328.601 121.992 328.793 121.981 329.007 121.96C329.22 121.939 329.423 121.917 329.615 121.896V125C329.316 125.043 328.985 125.085 328.623 125.128C328.26 125.171 327.94 125.192 327.663 125.192ZM338.171 125.384C336.998 125.384 335.963 125.181 335.067 124.776C334.192 124.349 333.51 123.773 333.019 123.048C332.528 122.301 332.283 121.427 332.283 120.424C332.283 119.485 332.486 118.643 332.891 117.896C333.318 117.149 333.968 116.52 334.843 116.008C335.718 115.496 336.816 115.133 338.139 114.92L344.155 113.928V116.776L338.843 117.704C337.883 117.875 337.179 118.184 336.731 118.632C336.283 119.059 336.059 119.613 336.059 120.296C336.059 120.957 336.304 121.501 336.795 121.928C337.307 122.333 337.958 122.536 338.747 122.536C339.728 122.536 340.582 122.323 341.307 121.896C342.054 121.469 342.63 120.904 343.035 120.2C343.44 119.475 343.643 118.675 343.643 117.8V113.352C343.643 112.499 343.323 111.805 342.683 111.272C342.064 110.717 341.232 110.44 340.187 110.44C339.227 110.44 338.384 110.696 337.659 111.208C336.955 111.699 336.432 112.339 336.091 113.128L333.083 111.624C333.403 110.771 333.926 110.024 334.651 109.384C335.376 108.723 336.219 108.211 337.179 107.848C338.16 107.485 339.195 107.304 340.283 107.304C341.648 107.304 342.854 107.56 343.899 108.072C344.966 108.584 345.787 109.299 346.363 110.216C346.96 111.112 347.259 112.157 347.259 113.352V125H343.803V121.864L344.539 121.96C344.134 122.664 343.611 123.272 342.971 123.784C342.352 124.296 341.638 124.691 340.827 124.968C340.038 125.245 339.152 125.384 338.171 125.384ZM360.735 125.384C359.391 125.384 358.164 125.107 357.055 124.552C355.967 123.997 355.124 123.197 354.527 122.152L354.943 121.48V125H351.487V100.776H355.103V111.272L354.527 110.44C355.167 109.459 356.02 108.691 357.087 108.136C358.154 107.581 359.37 107.304 360.735 107.304C362.378 107.304 363.85 107.699 365.151 108.488C366.474 109.277 367.508 110.355 368.255 111.72C369.023 113.085 369.407 114.621 369.407 116.328C369.407 118.035 369.023 119.571 368.255 120.936C367.508 122.301 366.484 123.389 365.183 124.2C363.882 124.989 362.399 125.384 360.735 125.384ZM360.383 122.024C361.407 122.024 362.314 121.779 363.103 121.288C363.892 120.797 364.511 120.125 364.959 119.272C365.428 118.397 365.663 117.416 365.663 116.328C365.663 115.24 365.428 114.269 364.959 113.416C364.511 112.563 363.892 111.891 363.103 111.4C362.314 110.909 361.407 110.664 360.383 110.664C359.38 110.664 358.474 110.909 357.663 111.4C356.874 111.891 356.244 112.563 355.775 113.416C355.327 114.269 355.103 115.24 355.103 116.328C355.103 117.416 355.327 118.397 355.775 119.272C356.244 120.125 356.874 120.797 357.663 121.288C358.474 121.779 359.38 122.024 360.383 122.024ZM372.924 125V100.776H376.541V125H372.924ZM388.896 125.384C387.168 125.384 385.632 124.989 384.288 124.2C382.966 123.389 381.931 122.301 381.184 120.936C380.438 119.549 380.064 118.003 380.064 116.296C380.064 114.547 380.438 113 381.184 111.656C381.952 110.312 382.976 109.256 384.256 108.488C385.536 107.699 386.987 107.304 388.608 107.304C389.91 107.304 391.072 107.528 392.096 107.976C393.12 108.424 393.984 109.043 394.688 109.832C395.392 110.6 395.926 111.485 396.288 112.488C396.672 113.491 396.864 114.557 396.864 115.688C396.864 115.965 396.854 116.253 396.832 116.552C396.811 116.851 396.768 117.128 396.704 117.384H382.912V114.504H394.656L392.928 115.816C393.142 114.771 393.067 113.843 392.704 113.032C392.363 112.2 391.83 111.549 391.104 111.08C390.4 110.589 389.568 110.344 388.608 110.344C387.648 110.344 386.795 110.589 386.048 111.08C385.302 111.549 384.726 112.232 384.32 113.128C383.915 114.003 383.755 115.069 383.84 116.328C383.734 117.501 383.894 118.525 384.32 119.4C384.768 120.275 385.387 120.957 386.176 121.448C386.987 121.939 387.904 122.184 388.928 122.184C389.974 122.184 390.859 121.949 391.584 121.48C392.331 121.011 392.918 120.403 393.344 119.656L396.288 121.096C395.947 121.907 395.414 122.643 394.688 123.304C393.984 123.944 393.131 124.456 392.128 124.84C391.147 125.203 390.07 125.384 388.896 125.384ZM406.793 125.384C405.023 125.384 403.465 124.947 402.121 124.072C400.799 123.197 399.871 122.024 399.337 120.552L402.121 119.24C402.591 120.221 403.231 121 404.041 121.576C404.873 122.152 405.791 122.44 406.793 122.44C407.647 122.44 408.34 122.248 408.873 121.864C409.407 121.48 409.673 120.957 409.673 120.296C409.673 119.869 409.556 119.528 409.321 119.272C409.087 118.995 408.788 118.771 408.425 118.6C408.084 118.429 407.732 118.301 407.369 118.216L404.649 117.448C403.156 117.021 402.036 116.381 401.289 115.528C400.564 114.653 400.201 113.64 400.201 112.488C400.201 111.443 400.468 110.536 401.001 109.768C401.535 108.979 402.271 108.371 403.209 107.944C404.148 107.517 405.204 107.304 406.377 107.304C407.956 107.304 409.364 107.699 410.601 108.488C411.839 109.256 412.713 110.333 413.225 111.72L410.441 113.032C410.1 112.2 409.556 111.539 408.809 111.048C408.084 110.557 407.263 110.312 406.345 110.312C405.556 110.312 404.927 110.504 404.457 110.888C403.988 111.251 403.753 111.731 403.753 112.328C403.753 112.733 403.86 113.075 404.073 113.352C404.287 113.608 404.564 113.821 404.905 113.992C405.247 114.141 405.599 114.269 405.961 114.376L408.777 115.208C410.207 115.613 411.305 116.253 412.073 117.128C412.841 117.981 413.225 119.005 413.225 120.2C413.225 121.224 412.948 122.131 412.393 122.92C411.86 123.688 411.113 124.296 410.153 124.744C409.193 125.171 408.073 125.384 406.793 125.384ZM429.05 125L420.602 101.16H424.666L431.578 121.512H430.778L437.658 101.16H441.722L433.274 125H429.05ZM450.709 125.384C448.981 125.384 447.445 124.989 446.101 124.2C444.778 123.389 443.743 122.301 442.997 120.936C442.25 119.549 441.877 118.003 441.877 116.296C441.877 114.547 442.25 113 442.997 111.656C443.765 110.312 444.789 109.256 446.069 108.488C447.349 107.699 448.799 107.304 450.421 107.304C451.722 107.304 452.885 107.528 453.909 107.976C454.933 108.424 455.797 109.043 456.501 109.832C457.205 110.6 457.738 111.485 458.101 112.488C458.485 113.491 458.677 114.557 458.677 115.688C458.677 115.965 458.666 116.253 458.645 116.552C458.623 116.851 458.581 117.128 458.517 117.384H444.725V114.504H456.469L454.741 115.816C454.954 114.771 454.879 113.843 454.517 113.032C454.175 112.2 453.642 111.549 452.917 111.08C452.213 110.589 451.381 110.344 450.421 110.344C449.461 110.344 448.607 110.589 447.861 111.08C447.114 111.549 446.538 112.232 446.133 113.128C445.727 114.003 445.567 115.069 445.653 116.328C445.546 117.501 445.706 118.525 446.133 119.4C446.581 120.275 447.199 120.957 447.989 121.448C448.799 121.939 449.717 122.184 450.741 122.184C451.786 122.184 452.671 121.949 453.397 121.48C454.143 121.011 454.73 120.403 455.157 119.656L458.101 121.096C457.759 121.907 457.226 122.643 456.501 123.304C455.797 123.944 454.943 124.456 453.941 124.84C452.959 125.203 451.882 125.384 450.709 125.384ZM462.206 125V107.688H465.662V111.08L465.246 110.632C465.672 109.544 466.355 108.723 467.294 108.168C468.232 107.592 469.32 107.304 470.558 107.304C471.838 107.304 472.968 107.581 473.95 108.136C474.931 108.691 475.699 109.459 476.254 110.44C476.808 111.421 477.086 112.552 477.086 113.832V125H473.502V114.792C473.502 113.917 473.342 113.181 473.022 112.584C472.702 111.965 472.243 111.496 471.646 111.176C471.07 110.835 470.408 110.664 469.662 110.664C468.915 110.664 468.243 110.835 467.646 111.176C467.07 111.496 466.622 111.965 466.302 112.584C465.982 113.203 465.822 113.939 465.822 114.792V125H462.206ZM488.956 125.384C487.292 125.384 485.798 124.989 484.476 124.2C483.174 123.389 482.14 122.301 481.372 120.936C480.625 119.571 480.252 118.035 480.252 116.328C480.252 114.621 480.636 113.085 481.404 111.72C482.172 110.355 483.206 109.277 484.508 108.488C485.809 107.699 487.281 107.304 488.924 107.304C490.31 107.304 491.537 107.581 492.604 108.136C493.67 108.691 494.513 109.459 495.132 110.44L494.588 111.272V100.776H498.172V125H494.748V121.48L495.164 122.152C494.566 123.197 493.713 123.997 492.604 124.552C491.494 125.107 490.278 125.384 488.956 125.384ZM489.308 122.024C490.31 122.024 491.206 121.779 491.996 121.288C492.806 120.797 493.436 120.125 493.884 119.272C494.353 118.397 494.588 117.416 494.588 116.328C494.588 115.24 494.353 114.269 493.884 113.416C493.436 112.563 492.806 111.891 491.996 111.4C491.206 110.909 490.31 110.664 489.308 110.664C488.305 110.664 487.398 110.909 486.588 111.4C485.777 111.891 485.148 112.563 484.7 113.416C484.252 114.269 484.028 115.24 484.028 116.328C484.028 117.416 484.252 118.397 484.7 119.272C485.148 120.125 485.766 120.797 486.556 121.288C487.366 121.779 488.284 122.024 489.308 122.024ZM510.745 125.384C509.081 125.384 507.556 124.989 506.169 124.2C504.804 123.411 503.716 122.333 502.905 120.968C502.095 119.603 501.689 118.056 501.689 116.328C501.689 114.579 502.095 113.032 502.905 111.688C503.716 110.323 504.804 109.256 506.169 108.488C507.535 107.699 509.06 107.304 510.745 107.304C512.452 107.304 513.977 107.699 515.321 108.488C516.687 109.256 517.764 110.323 518.553 111.688C519.364 113.032 519.769 114.579 519.769 116.328C519.769 118.077 519.364 119.635 518.553 121C517.743 122.365 516.655 123.443 515.289 124.232C513.924 125 512.409 125.384 510.745 125.384ZM510.745 122.024C511.769 122.024 512.676 121.779 513.465 121.288C514.255 120.797 514.873 120.125 515.321 119.272C515.791 118.397 516.025 117.416 516.025 116.328C516.025 115.24 515.791 114.269 515.321 113.416C514.873 112.563 514.255 111.891 513.465 111.4C512.676 110.909 511.769 110.664 510.745 110.664C509.743 110.664 508.836 110.909 508.025 111.4C507.236 111.891 506.607 112.563 506.137 113.416C505.689 114.269 505.465 115.24 505.465 116.328C505.465 117.416 505.689 118.397 506.137 119.272C506.607 120.125 507.236 120.797 508.025 121.288C508.836 121.779 509.743 122.024 510.745 122.024ZM523.299 125V107.688H526.756V111.176L526.436 110.664C526.82 109.533 527.438 108.723 528.292 108.232C529.145 107.72 530.169 107.464 531.364 107.464H532.42V110.76H530.916C529.721 110.76 528.75 111.133 528.004 111.88C527.278 112.605 526.916 113.651 526.916 115.016V125H523.299ZM545.671 125.384C544.498 125.384 543.463 125.181 542.567 124.776C541.692 124.349 541.01 123.773 540.519 123.048C540.028 122.301 539.783 121.427 539.783 120.424C539.783 119.485 539.986 118.643 540.391 117.896C540.818 117.149 541.468 116.52 542.343 116.008C543.218 115.496 544.316 115.133 545.639 114.92L551.655 113.928V116.776L546.343 117.704C545.383 117.875 544.679 118.184 544.231 118.632C543.783 119.059 543.559 119.613 543.559 120.296C543.559 120.957 543.804 121.501 544.295 121.928C544.807 122.333 545.458 122.536 546.247 122.536C547.228 122.536 548.082 122.323 548.807 121.896C549.554 121.469 550.13 120.904 550.535 120.2C550.94 119.475 551.143 118.675 551.143 117.8V113.352C551.143 112.499 550.823 111.805 550.183 111.272C549.564 110.717 548.732 110.44 547.687 110.44C546.727 110.44 545.884 110.696 545.159 111.208C544.455 111.699 543.932 112.339 543.591 113.128L540.583 111.624C540.903 110.771 541.426 110.024 542.151 109.384C542.876 108.723 543.719 108.211 544.679 107.848C545.66 107.485 546.695 107.304 547.783 107.304C549.148 107.304 550.354 107.56 551.399 108.072C552.466 108.584 553.287 109.299 553.863 110.216C554.46 111.112 554.759 112.157 554.759 113.352V125H551.303V121.864L552.039 121.96C551.634 122.664 551.111 123.272 550.471 123.784C549.852 124.296 549.138 124.691 548.327 124.968C547.538 125.245 546.652 125.384 545.671 125.384ZM558.987 131.4V107.688H562.443V111.272L562.027 110.44C562.667 109.459 563.52 108.691 564.587 108.136C565.654 107.581 566.87 107.304 568.235 107.304C569.878 107.304 571.35 107.699 572.651 108.488C573.974 109.277 575.008 110.355 575.755 111.72C576.523 113.085 576.907 114.621 576.907 116.328C576.907 118.035 576.523 119.571 575.755 120.936C575.008 122.301 573.984 123.389 572.683 124.2C571.382 124.989 569.899 125.384 568.235 125.384C566.891 125.384 565.664 125.107 564.555 124.552C563.467 123.997 562.624 123.197 562.027 122.152L562.603 121.48V131.4H558.987ZM567.883 122.024C568.907 122.024 569.814 121.779 570.603 121.288C571.392 120.797 572.011 120.125 572.459 119.272C572.928 118.397 573.163 117.416 573.163 116.328C573.163 115.24 572.928 114.269 572.459 113.416C572.011 112.563 571.392 111.891 570.603 111.4C569.814 110.909 568.907 110.664 567.883 110.664C566.88 110.664 565.974 110.909 565.163 111.4C564.374 111.891 563.744 112.563 563.275 113.416C562.827 114.269 562.603 115.24 562.603 116.328C562.603 117.416 562.827 118.397 563.275 119.272C563.744 120.125 564.374 120.797 565.163 121.288C565.974 121.779 566.88 122.024 567.883 122.024ZM580.424 131.4V107.688H583.881V111.272L583.465 110.44C584.105 109.459 584.958 108.691 586.025 108.136C587.091 107.581 588.307 107.304 589.673 107.304C591.315 107.304 592.787 107.699 594.089 108.488C595.411 109.277 596.446 110.355 597.193 111.72C597.961 113.085 598.345 114.621 598.345 116.328C598.345 118.035 597.961 119.571 597.193 120.936C596.446 122.301 595.422 123.389 594.121 124.2C592.819 124.989 591.337 125.384 589.673 125.384C588.329 125.384 587.102 125.107 585.993 124.552C584.905 123.997 584.062 123.197 583.465 122.152L584.041 121.48V131.4H580.424ZM589.321 122.024C590.345 122.024 591.251 121.779 592.041 121.288C592.83 120.797 593.449 120.125 593.897 119.272C594.366 118.397 594.601 117.416 594.601 116.328C594.601 115.24 594.366 114.269 593.897 113.416C593.449 112.563 592.83 111.891 592.041 111.4C591.251 110.909 590.345 110.664 589.321 110.664C588.318 110.664 587.411 110.909 586.601 111.4C585.811 111.891 585.182 112.563 584.713 113.416C584.265 114.269 584.041 115.24 584.041 116.328C584.041 117.416 584.265 118.397 584.713 119.272C585.182 120.125 585.811 120.797 586.601 121.288C587.411 121.779 588.318 122.024 589.321 122.024Z" fill="#298A5A"/>
</svg>
