<svg width="361" height="62" viewBox="0 0 361 62" fill="none" xmlns="http://www.w3.org/2000/svg">
<g filter="url(#filter0_d_2684_42)">
<rect x="4" width="353" height="54" rx="8" fill="#298A5A" shape-rendering="crispEdges"/>
<rect x="4.5" y="0.5" width="352" height="53" rx="7.5" stroke="#298A5A" shape-rendering="crispEdges"/>
<path d="M30.4999 37.6667H37.4999C43.3333 37.6667 45.6666 35.3333 45.6666 29.5V22.5C45.6666 16.6667 43.3333 14.3333 37.4999 14.3333H30.4999C24.6666 14.3333 22.3333 16.6667 22.3333 22.5V29.5C22.3333 35.3333 24.6666 37.6667 30.4999 37.6667Z" stroke="white" stroke-width="2" stroke-linecap="round" stroke-linejoin="round"/>
<path d="M29.0417 26L32.3434 29.3017L38.9584 22.6983" stroke="white" stroke-width="2" stroke-linecap="round" stroke-linejoin="round"/>
<path d="M57.992 37V19.12H64.304C65.488 19.12 66.528 19.344 67.424 19.792C68.32 20.24 69.016 20.88 69.512 21.712C70.024 22.544 70.28 23.52 70.28 24.64C70.28 25.904 69.96 26.976 69.32 27.856C68.68 28.736 67.816 29.368 66.728 29.752L70.88 37H68.144L63.776 29.248L65.336 30.16H60.344V37H57.992ZM60.344 28H64.376C65.08 28 65.696 27.864 66.224 27.592C66.752 27.32 67.16 26.928 67.448 26.416C67.752 25.904 67.904 25.312 67.904 24.64C67.904 23.952 67.752 23.36 67.448 22.864C67.16 22.352 66.752 21.96 66.224 21.688C65.696 21.416 65.08 21.28 64.376 21.28H60.344V28ZM78.5159 37.288C77.2679 37.288 76.1559 36.992 75.1799 36.4C74.2039 35.808 73.4359 35 72.8759 33.976C72.3159 32.936 72.0359 31.776 72.0359 30.496C72.0359 29.2 72.3079 28.048 72.8519 27.04C73.4119 26.032 74.1639 25.24 75.1079 24.664C76.0679 24.072 77.1399 23.776 78.3239 23.776C79.2839 23.776 80.1319 23.952 80.8679 24.304C81.6199 24.64 82.2519 25.104 82.7639 25.696C83.2919 26.272 83.6919 26.936 83.9639 27.688C84.2519 28.424 84.3959 29.192 84.3959 29.992C84.3959 30.168 84.3799 30.368 84.3479 30.592C84.3319 30.8 84.3079 31 84.2759 31.192H73.6679V29.272H82.9799L81.9239 30.136C82.0679 29.304 81.9879 28.56 81.6839 27.904C81.3799 27.248 80.9319 26.728 80.3399 26.344C79.7479 25.96 79.0759 25.768 78.3239 25.768C77.5719 25.768 76.8839 25.96 76.2599 26.344C75.6359 26.728 75.1479 27.28 74.7959 28C74.4599 28.704 74.3239 29.544 74.3879 30.52C74.3239 31.464 74.4679 32.296 74.8199 33.016C75.1879 33.72 75.6999 34.272 76.3559 34.672C77.0279 35.056 77.7559 35.248 78.5399 35.248C79.4039 35.248 80.1319 35.048 80.7239 34.648C81.3159 34.248 81.7959 33.736 82.1639 33.112L84.0359 34.072C83.7799 34.664 83.3799 35.208 82.8359 35.704C82.3079 36.184 81.6759 36.568 80.9399 36.856C80.2199 37.144 79.4119 37.288 78.5159 37.288ZM91.9381 37.288C90.6421 37.288 89.5141 36.968 88.5541 36.328C87.5941 35.688 86.9141 34.824 86.5141 33.736L88.2901 32.872C88.6581 33.64 89.1621 34.248 89.8021 34.696C90.4421 35.144 91.1541 35.368 91.9381 35.368C92.6421 35.368 93.2261 35.2 93.6901 34.864C94.1541 34.528 94.3861 34.088 94.3861 33.544C94.3861 33.16 94.2741 32.856 94.0501 32.632C93.8421 32.392 93.5861 32.208 93.2821 32.08C92.9781 31.936 92.6981 31.832 92.4421 31.768L90.4981 31.216C89.3301 30.88 88.4741 30.4 87.9301 29.776C87.4021 29.152 87.1381 28.424 87.1381 27.592C87.1381 26.824 87.3301 26.16 87.7141 25.6C88.1141 25.024 88.6501 24.576 89.3221 24.256C90.0101 23.936 90.7781 23.776 91.6261 23.776C92.7621 23.776 93.7781 24.064 94.6741 24.64C95.5861 25.216 96.2341 26.024 96.6181 27.064L94.7941 27.904C94.5061 27.232 94.0741 26.704 93.4981 26.32C92.9221 25.92 92.2741 25.72 91.5541 25.72C90.8981 25.72 90.3781 25.888 89.9941 26.224C89.6101 26.544 89.4181 26.952 89.4181 27.448C89.4181 27.816 89.5141 28.12 89.7061 28.36C89.8981 28.584 90.1301 28.76 90.4021 28.888C90.6741 29 90.9381 29.096 91.1941 29.176L93.3061 29.8C94.3621 30.104 95.1781 30.576 95.7541 31.216C96.3461 31.856 96.6421 32.624 96.6421 33.52C96.6421 34.24 96.4421 34.888 96.0421 35.464C95.6421 36.04 95.0901 36.488 94.3861 36.808C93.6821 37.128 92.8661 37.288 91.9381 37.288ZM104.82 37.144C103.556 37.144 102.58 36.784 101.892 36.064C101.22 35.344 100.884 34.328 100.884 33.016V26.2H98.5319V24.064H99.0119C99.5879 24.064 100.044 23.888 100.38 23.536C100.716 23.184 100.884 22.72 100.884 22.144V21.088H103.116V24.064H106.02V26.2H103.116V32.944C103.116 33.376 103.18 33.752 103.308 34.072C103.452 34.392 103.684 34.648 104.004 34.84C104.324 35.016 104.748 35.104 105.276 35.104C105.388 35.104 105.524 35.096 105.684 35.08C105.86 35.064 106.02 35.048 106.164 35.032V37C105.956 37.048 105.724 37.08 105.468 37.096C105.212 37.128 104.996 37.144 104.82 37.144ZM112.708 37.288C111.86 37.288 111.108 37.136 110.452 36.832C109.812 36.512 109.308 36.08 108.94 35.536C108.572 34.976 108.388 34.336 108.388 33.616C108.388 32.928 108.532 32.312 108.82 31.768C109.124 31.208 109.588 30.736 110.212 30.352C110.852 29.968 111.652 29.696 112.612 29.536L117.412 28.744V30.616L113.116 31.336C112.284 31.48 111.676 31.744 111.292 32.128C110.924 32.512 110.74 32.984 110.74 33.544C110.74 34.072 110.948 34.512 111.364 34.864C111.796 35.216 112.332 35.392 112.972 35.392C113.788 35.392 114.492 35.224 115.084 34.888C115.692 34.536 116.164 34.064 116.5 33.472C116.852 32.88 117.028 32.224 117.028 31.504V28.216C117.028 27.512 116.764 26.944 116.236 26.512C115.724 26.064 115.044 25.84 114.196 25.84C113.46 25.84 112.804 26.032 112.228 26.416C111.668 26.784 111.252 27.28 110.98 27.904L109.036 26.896C109.276 26.304 109.66 25.776 110.188 25.312C110.716 24.832 111.332 24.456 112.036 24.184C112.74 23.912 113.476 23.776 114.243 23.776C115.236 23.776 116.108 23.968 116.86 24.352C117.612 24.72 118.196 25.24 118.612 25.912C119.044 26.568 119.26 27.336 119.26 28.216V37H117.076V34.552L117.484 34.696C117.212 35.208 116.844 35.656 116.38 36.04C115.916 36.424 115.372 36.728 114.748 36.952C114.124 37.176 113.444 37.288 112.708 37.288ZM127.304 37.288C126.376 37.288 125.536 37.072 124.784 36.64C124.048 36.208 123.472 35.608 123.056 34.84C122.656 34.056 122.456 33.16 122.456 32.152V24.064H124.688V31.912C124.688 32.552 124.816 33.112 125.072 33.592C125.344 34.072 125.712 34.448 126.176 34.72C126.656 34.992 127.2 35.128 127.808 35.128C128.416 35.128 128.952 34.992 129.416 34.72C129.896 34.448 130.264 34.056 130.52 33.544C130.792 33.032 130.928 32.424 130.928 31.72V24.064H133.184V37H131V34.48L131.36 34.696C131.056 35.512 130.536 36.152 129.8 36.616C129.08 37.064 128.248 37.288 127.304 37.288ZM136.642 37V24.064H138.826V26.44L138.586 26.104C138.89 25.368 139.354 24.824 139.978 24.472C140.602 24.104 141.362 23.92 142.258 23.92H143.05V26.032H141.922C141.01 26.032 140.274 26.32 139.714 26.896C139.154 27.456 138.874 28.256 138.874 29.296V37H136.642ZM148.825 37.288C147.977 37.288 147.225 37.136 146.569 36.832C145.929 36.512 145.425 36.08 145.057 35.536C144.689 34.976 144.505 34.336 144.505 33.616C144.505 32.928 144.649 32.312 144.937 31.768C145.241 31.208 145.705 30.736 146.329 30.352C146.969 29.968 147.769 29.696 148.729 29.536L153.529 28.744V30.616L149.233 31.336C148.401 31.48 147.793 31.744 147.409 32.128C147.041 32.512 146.857 32.984 146.857 33.544C146.857 34.072 147.065 34.512 147.481 34.864C147.913 35.216 148.449 35.392 149.089 35.392C149.905 35.392 150.609 35.224 151.201 34.888C151.809 34.536 152.281 34.064 152.617 33.472C152.969 32.88 153.145 32.224 153.145 31.504V28.216C153.145 27.512 152.881 26.944 152.353 26.512C151.841 26.064 151.161 25.84 150.313 25.84C149.577 25.84 148.921 26.032 148.345 26.416C147.785 26.784 147.369 27.28 147.097 27.904L145.153 26.896C145.393 26.304 145.777 25.776 146.305 25.312C146.833 24.832 147.449 24.456 148.153 24.184C148.857 23.912 149.593 23.776 150.361 23.776C151.353 23.776 152.225 23.968 152.977 24.352C153.729 24.72 154.313 25.24 154.729 25.912C155.161 26.568 155.377 27.336 155.377 28.216V37H153.193V34.552L153.601 34.696C153.329 35.208 152.961 35.656 152.497 36.04C152.033 36.424 151.489 36.728 150.865 36.952C150.241 37.176 149.561 37.288 148.825 37.288ZM158.837 37V24.064H161.021V26.584L160.661 26.368C160.981 25.552 161.493 24.92 162.197 24.472C162.917 24.008 163.757 23.776 164.717 23.776C165.645 23.776 166.469 23.984 167.189 24.4C167.925 24.816 168.501 25.392 168.917 26.128C169.349 26.864 169.565 27.696 169.565 28.624V37H167.309V29.344C167.309 28.624 167.181 28.016 166.925 27.52C166.669 27.024 166.301 26.64 165.821 26.368C165.357 26.08 164.821 25.936 164.213 25.936C163.605 25.936 163.061 26.08 162.581 26.368C162.117 26.64 161.749 27.032 161.477 27.544C161.205 28.04 161.069 28.64 161.069 29.344V37H158.837ZM178.015 37.144C176.751 37.144 175.775 36.784 175.087 36.064C174.415 35.344 174.079 34.328 174.079 33.016V26.2H171.727V24.064H172.207C172.783 24.064 173.239 23.888 173.575 23.536C173.911 23.184 174.079 22.72 174.079 22.144V21.088H176.311V24.064H179.215V26.2H176.311V32.944C176.311 33.376 176.375 33.752 176.503 34.072C176.647 34.392 176.879 34.648 177.199 34.84C177.519 35.016 177.943 35.104 178.471 35.104C178.583 35.104 178.719 35.096 178.879 35.08C179.055 35.064 179.215 35.048 179.359 35.032V37C179.151 37.048 178.919 37.08 178.663 37.096C178.407 37.128 178.191 37.144 178.015 37.144ZM186.907 37.288C185.611 37.288 184.483 36.968 183.523 36.328C182.563 35.688 181.883 34.824 181.483 33.736L183.259 32.872C183.627 33.64 184.131 34.248 184.771 34.696C185.411 35.144 186.123 35.368 186.907 35.368C187.611 35.368 188.195 35.2 188.659 34.864C189.123 34.528 189.355 34.088 189.355 33.544C189.355 33.16 189.243 32.856 189.019 32.632C188.811 32.392 188.555 32.208 188.251 32.08C187.947 31.936 187.667 31.832 187.411 31.768L185.467 31.216C184.299 30.88 183.443 30.4 182.899 29.776C182.371 29.152 182.107 28.424 182.107 27.592C182.107 26.824 182.299 26.16 182.683 25.6C183.083 25.024 183.619 24.576 184.291 24.256C184.979 23.936 185.747 23.776 186.595 23.776C187.731 23.776 188.747 24.064 189.643 24.64C190.555 25.216 191.203 26.024 191.587 27.064L189.763 27.904C189.475 27.232 189.043 26.704 188.467 26.32C187.891 25.92 187.243 25.72 186.523 25.72C185.867 25.72 185.347 25.888 184.963 26.224C184.579 26.544 184.387 26.952 184.387 27.448C184.387 27.816 184.483 28.12 184.675 28.36C184.867 28.584 185.099 28.76 185.371 28.888C185.643 29 185.907 29.096 186.163 29.176L188.275 29.8C189.331 30.104 190.147 30.576 190.723 31.216C191.315 31.856 191.611 32.624 191.611 33.52C191.611 34.24 191.411 34.888 191.011 35.464C190.611 36.04 190.059 36.488 189.355 36.808C188.651 37.128 187.835 37.288 186.907 37.288ZM203.649 37.288C202.641 37.288 201.745 37.104 200.961 36.736C200.177 36.352 199.561 35.816 199.113 35.128C198.681 34.424 198.465 33.616 198.465 32.704C198.465 31.92 198.609 31.232 198.897 30.64C199.185 30.032 199.537 29.512 199.953 29.08C200.385 28.648 200.817 28.288 201.249 28C201.697 27.696 202.065 27.456 202.353 27.28L203.721 26.488C204.185 26.216 204.633 25.92 205.065 25.6C205.497 25.28 205.857 24.912 206.145 24.496C206.433 24.064 206.577 23.584 206.577 23.056C206.577 22.432 206.369 21.912 205.953 21.496C205.537 21.08 205.017 20.872 204.393 20.872C203.769 20.872 203.249 21.08 202.833 21.496C202.417 21.912 202.209 22.44 202.209 23.08C202.209 23.512 202.313 23.936 202.521 24.352C202.729 24.768 202.985 25.168 203.289 25.552C203.593 25.92 203.897 26.264 204.201 26.584L213.921 37H210.969L202.449 28.024C202.065 27.624 201.681 27.184 201.297 26.704C200.913 26.224 200.585 25.696 200.313 25.12C200.057 24.528 199.929 23.88 199.929 23.176C199.929 22.312 200.129 21.56 200.529 20.92C200.945 20.264 201.489 19.752 202.161 19.384C202.833 19.016 203.577 18.832 204.393 18.832C205.193 18.832 205.921 19.016 206.577 19.384C207.249 19.736 207.785 20.232 208.185 20.872C208.585 21.512 208.785 22.248 208.785 23.08C208.785 23.928 208.585 24.672 208.185 25.312C207.785 25.936 207.305 26.472 206.745 26.92C206.185 27.352 205.657 27.712 205.161 28L203.817 28.816C203.417 29.072 202.993 29.376 202.545 29.728C202.097 30.064 201.713 30.472 201.393 30.952C201.073 31.416 200.913 31.984 200.913 32.656C200.913 33.456 201.169 34.08 201.681 34.528C202.209 34.976 202.889 35.2 203.721 35.2C204.249 35.2 204.721 35.112 205.137 34.936C205.553 34.76 205.921 34.528 206.241 34.24C206.577 33.952 206.873 33.64 207.129 33.304C207.385 32.952 207.625 32.608 207.849 32.272L210.609 28.168H213.177L209.937 33.112C209.697 33.512 209.393 33.952 209.025 34.432C208.657 34.912 208.225 35.368 207.729 35.8C207.233 36.232 206.649 36.592 205.977 36.88C205.321 37.152 204.545 37.288 203.649 37.288ZM221.187 37V19.12H232.515V21.28H223.539V27.064H231.675V29.224H223.539V37H221.187ZM238.051 37.288C237.203 37.288 236.451 37.136 235.795 36.832C235.155 36.512 234.651 36.08 234.283 35.536C233.915 34.976 233.731 34.336 233.731 33.616C233.731 32.928 233.875 32.312 234.163 31.768C234.467 31.208 234.931 30.736 235.555 30.352C236.195 29.968 236.995 29.696 237.955 29.536L242.755 28.744V30.616L238.459 31.336C237.627 31.48 237.019 31.744 236.635 32.128C236.267 32.512 236.083 32.984 236.083 33.544C236.083 34.072 236.291 34.512 236.707 34.864C237.139 35.216 237.675 35.392 238.315 35.392C239.131 35.392 239.835 35.224 240.427 34.888C241.035 34.536 241.507 34.064 241.843 33.472C242.195 32.88 242.371 32.224 242.371 31.504V28.216C242.371 27.512 242.107 26.944 241.579 26.512C241.067 26.064 240.387 25.84 239.539 25.84C238.803 25.84 238.147 26.032 237.571 26.416C237.011 26.784 236.595 27.28 236.323 27.904L234.379 26.896C234.619 26.304 235.003 25.776 235.531 25.312C236.059 24.832 236.675 24.456 237.379 24.184C238.083 23.912 238.819 23.776 239.587 23.776C240.579 23.776 241.451 23.968 242.203 24.352C242.955 24.72 243.539 25.24 243.955 25.912C244.387 26.568 244.603 27.336 244.603 28.216V37H242.419V34.552L242.827 34.696C242.555 35.208 242.187 35.656 241.723 36.04C241.259 36.424 240.715 36.728 240.091 36.952C239.467 37.176 238.787 37.288 238.051 37.288ZM252.696 37.288C251.4 37.288 250.272 36.968 249.312 36.328C248.352 35.688 247.672 34.824 247.272 33.736L249.048 32.872C249.416 33.64 249.92 34.248 250.56 34.696C251.2 35.144 251.912 35.368 252.696 35.368C253.4 35.368 253.984 35.2 254.448 34.864C254.912 34.528 255.144 34.088 255.144 33.544C255.144 33.16 255.032 32.856 254.808 32.632C254.6 32.392 254.344 32.208 254.04 32.08C253.736 31.936 253.456 31.832 253.2 31.768L251.256 31.216C250.088 30.88 249.232 30.4 248.688 29.776C248.16 29.152 247.896 28.424 247.896 27.592C247.896 26.824 248.088 26.16 248.472 25.6C248.872 25.024 249.408 24.576 250.08 24.256C250.768 23.936 251.536 23.776 252.384 23.776C253.52 23.776 254.536 24.064 255.432 24.64C256.344 25.216 256.992 26.024 257.376 27.064L255.552 27.904C255.264 27.232 254.832 26.704 254.256 26.32C253.68 25.92 253.032 25.72 252.312 25.72C251.656 25.72 251.136 25.888 250.752 26.224C250.368 26.544 250.176 26.952 250.176 27.448C250.176 27.816 250.272 28.12 250.464 28.36C250.656 28.584 250.888 28.76 251.16 28.888C251.432 29 251.696 29.096 251.952 29.176L254.064 29.8C255.12 30.104 255.936 30.576 256.512 31.216C257.104 31.856 257.4 32.624 257.4 33.52C257.4 34.24 257.2 34.888 256.8 35.464C256.4 36.04 255.848 36.488 255.144 36.808C254.44 37.128 253.624 37.288 252.696 37.288ZM265.578 37.144C264.314 37.144 263.338 36.784 262.65 36.064C261.978 35.344 261.642 34.328 261.642 33.016V26.2H259.29V24.064H259.77C260.346 24.064 260.802 23.888 261.138 23.536C261.474 23.184 261.642 22.72 261.642 22.144V21.088H263.874V24.064H266.778V26.2H263.874V32.944C263.874 33.376 263.938 33.752 264.066 34.072C264.21 34.392 264.442 34.648 264.762 34.84C265.082 35.016 265.506 35.104 266.034 35.104C266.146 35.104 266.282 35.096 266.442 35.08C266.618 35.064 266.778 35.048 266.922 35.032V37C266.714 37.048 266.482 37.08 266.226 37.096C265.97 37.128 265.754 37.144 265.578 37.144ZM275.354 37V26.2H272.882V24.064H275.354V23.152C275.354 22.224 275.554 21.44 275.954 20.8C276.37 20.16 276.914 19.672 277.586 19.336C278.274 19 279.034 18.832 279.866 18.832C280.042 18.832 280.234 18.848 280.442 18.88C280.666 18.896 280.85 18.92 280.994 18.952V20.944C280.866 20.912 280.714 20.896 280.538 20.896C280.362 20.88 280.226 20.872 280.13 20.872C279.394 20.872 278.786 21.048 278.306 21.4C277.842 21.752 277.61 22.336 277.61 23.152V24.064H280.682V26.2H277.61V37H275.354ZM289.06 37.288C287.812 37.288 286.684 37 285.676 36.424C284.668 35.832 283.868 35.024 283.276 34C282.684 32.976 282.388 31.816 282.388 30.52C282.388 29.224 282.676 28.072 283.252 27.064C283.844 26.056 284.644 25.256 285.652 24.664C286.66 24.072 287.796 23.776 289.06 23.776C290.308 23.776 291.436 24.072 292.444 24.664C293.452 25.24 294.244 26.032 294.82 27.04C295.412 28.048 295.708 29.208 295.708 30.52C295.708 31.832 295.404 33 294.796 34.024C294.188 35.032 293.38 35.832 292.372 36.424C291.38 37 290.276 37.288 289.06 37.288ZM289.06 35.128C289.86 35.128 290.58 34.928 291.22 34.528C291.876 34.128 292.388 33.576 292.756 32.872C293.14 32.168 293.332 31.384 293.332 30.52C293.332 29.64 293.14 28.864 292.756 28.192C292.388 27.504 291.876 26.96 291.22 26.56C290.58 26.144 289.86 25.936 289.06 25.936C288.244 25.936 287.508 26.144 286.852 26.56C286.212 26.96 285.7 27.504 285.316 28.192C284.932 28.864 284.74 29.64 284.74 30.52C284.74 31.384 284.932 32.168 285.316 32.872C285.7 33.576 286.212 34.128 286.852 34.528C287.508 34.928 288.244 35.128 289.06 35.128ZM304.763 37.288C303.515 37.288 302.387 37 301.379 36.424C300.371 35.832 299.571 35.024 298.979 34C298.387 32.976 298.091 31.816 298.091 30.52C298.091 29.224 298.379 28.072 298.955 27.064C299.547 26.056 300.347 25.256 301.355 24.664C302.363 24.072 303.499 23.776 304.763 23.776C306.011 23.776 307.139 24.072 308.147 24.664C309.155 25.24 309.947 26.032 310.523 27.04C311.115 28.048 311.411 29.208 311.411 30.52C311.411 31.832 311.107 33 310.499 34.024C309.891 35.032 309.083 35.832 308.075 36.424C307.083 37 305.979 37.288 304.763 37.288ZM304.763 35.128C305.563 35.128 306.283 34.928 306.923 34.528C307.579 34.128 308.091 33.576 308.459 32.872C308.843 32.168 309.035 31.384 309.035 30.52C309.035 29.64 308.843 28.864 308.459 28.192C308.091 27.504 307.579 26.96 306.923 26.56C306.283 26.144 305.563 25.936 304.763 25.936C303.947 25.936 303.211 26.144 302.555 26.56C301.915 26.96 301.403 27.504 301.019 28.192C300.635 28.864 300.443 29.64 300.443 30.52C300.443 31.384 300.635 32.168 301.019 32.872C301.403 33.576 301.915 34.128 302.555 34.528C303.211 34.928 303.947 35.128 304.763 35.128ZM320.202 37.288C318.986 37.288 317.89 36.992 316.914 36.4C315.954 35.808 315.194 35 314.634 33.976C314.074 32.952 313.794 31.808 313.794 30.544C313.794 29.248 314.074 28.096 314.634 27.088C315.194 26.064 315.954 25.256 316.914 24.664C317.89 24.072 318.986 23.776 320.202 23.776C321.274 23.776 322.226 24.008 323.058 24.472C323.89 24.92 324.546 25.528 325.026 26.296L324.666 26.848V18.832H326.922V37H324.738V34.24L325.026 34.624C324.578 35.472 323.922 36.128 323.058 36.592C322.21 37.056 321.258 37.288 320.202 37.288ZM320.394 35.128C321.21 35.128 321.938 34.928 322.578 34.528C323.218 34.128 323.722 33.584 324.09 32.896C324.474 32.192 324.666 31.408 324.666 30.544C324.666 29.664 324.474 28.88 324.09 28.192C323.722 27.488 323.218 26.936 322.578 26.536C321.938 26.136 321.21 25.936 320.394 25.936C319.594 25.936 318.866 26.144 318.21 26.56C317.57 26.96 317.066 27.504 316.698 28.192C316.33 28.864 316.146 29.648 316.146 30.544C316.146 31.408 316.33 32.192 316.698 32.896C317.066 33.584 317.57 34.128 318.21 34.528C318.85 34.928 319.578 35.128 320.394 35.128ZM335.008 37.288C333.712 37.288 332.584 36.968 331.624 36.328C330.664 35.688 329.984 34.824 329.584 33.736L331.36 32.872C331.728 33.64 332.232 34.248 332.872 34.696C333.512 35.144 334.224 35.368 335.008 35.368C335.712 35.368 336.296 35.2 336.76 34.864C337.224 34.528 337.456 34.088 337.456 33.544C337.456 33.16 337.344 32.856 337.12 32.632C336.912 32.392 336.656 32.208 336.352 32.08C336.048 31.936 335.768 31.832 335.512 31.768L333.568 31.216C332.4 30.88 331.544 30.4 331 29.776C330.472 29.152 330.208 28.424 330.208 27.592C330.208 26.824 330.4 26.16 330.784 25.6C331.184 25.024 331.72 24.576 332.392 24.256C333.08 23.936 333.848 23.776 334.696 23.776C335.832 23.776 336.848 24.064 337.744 24.64C338.656 25.216 339.304 26.024 339.688 27.064L337.864 27.904C337.576 27.232 337.144 26.704 336.568 26.32C335.992 25.92 335.344 25.72 334.624 25.72C333.968 25.72 333.448 25.888 333.064 26.224C332.68 26.544 332.488 26.952 332.488 27.448C332.488 27.816 332.584 28.12 332.776 28.36C332.968 28.584 333.2 28.76 333.472 28.888C333.744 29 334.008 29.096 334.264 29.176L336.376 29.8C337.432 30.104 338.248 30.576 338.824 31.216C339.416 31.856 339.712 32.624 339.712 33.52C339.712 34.24 339.512 34.888 339.112 35.464C338.712 36.04 338.16 36.488 337.456 36.808C336.752 37.128 335.936 37.288 335.008 37.288Z" fill="white"/>
</g>
<defs>
<filter id="filter0_d_2684_42" x="0" y="0" width="361" height="62" filterUnits="userSpaceOnUse" color-interpolation-filters="sRGB">
<feFlood flood-opacity="0" result="BackgroundImageFix"/>
<feColorMatrix in="SourceAlpha" type="matrix" values="0 0 0 0 0 0 0 0 0 0 0 0 0 0 0 0 0 0 127 0" result="hardAlpha"/>
<feOffset dy="4"/>
<feGaussianBlur stdDeviation="2"/>
<feComposite in2="hardAlpha" operator="out"/>
<feColorMatrix type="matrix" values="0 0 0 0 0 0 0 0 0 0 0 0 0 0 0 0 0 0 0.25 0"/>
<feBlend mode="normal" in2="BackgroundImageFix" result="effect1_dropShadow_2684_42"/>
<feBlend mode="normal" in="SourceGraphic" in2="effect1_dropShadow_2684_42" result="shape"/>
</filter>
</defs>
</svg>
