<svg width="239" height="62" viewBox="0 0 239 62" fill="none" xmlns="http://www.w3.org/2000/svg">
<g filter="url(#filter0_d_2684_51)">
<rect x="4" width="231" height="54" rx="8" fill="#298A5A" shape-rendering="crispEdges"/>
<rect x="4.5" y="0.5" width="230" height="53" rx="7.5" stroke="#298A5A" shape-rendering="crispEdges"/>
<path d="M30.4999 37.6666H37.4999C43.3333 37.6666 45.6666 35.3333 45.6666 29.5V22.5C45.6666 16.6666 43.3333 14.3333 37.4999 14.3333H30.4999C24.6666 14.3333 22.3333 16.6666 22.3333 22.5V29.5C22.3333 35.3333 24.6666 37.6666 30.4999 37.6666Z" stroke="white" stroke-width="2" stroke-linecap="round" stroke-linejoin="round"/>
<path d="M29.0417 26L32.3434 29.3017L38.9584 22.6984" stroke="white" stroke-width="2" stroke-linecap="round" stroke-linejoin="round"/>
<path d="M64.136 37.288C63 37.288 61.96 37.08 61.016 36.664C60.072 36.232 59.272 35.648 58.616 34.912C57.96 34.176 57.488 33.352 57.2 32.44L59.24 31.6C59.672 32.752 60.312 33.64 61.16 34.264C62.024 34.872 63.032 35.176 64.184 35.176C64.888 35.176 65.504 35.064 66.032 34.84C66.56 34.616 66.968 34.304 67.256 33.904C67.56 33.488 67.712 33.008 67.712 32.464C67.712 31.712 67.496 31.12 67.064 30.688C66.648 30.24 66.032 29.904 65.216 29.68L61.928 28.672C60.632 28.272 59.64 27.64 58.952 26.776C58.264 25.912 57.92 24.92 57.92 23.8C57.92 22.824 58.152 21.968 58.616 21.232C59.096 20.48 59.752 19.896 60.584 19.48C61.432 19.048 62.392 18.832 63.464 18.832C64.536 18.832 65.504 19.024 66.368 19.408C67.248 19.792 67.992 20.312 68.6 20.968C69.208 21.608 69.656 22.344 69.944 23.176L67.928 24.016C67.544 23.008 66.968 22.248 66.2 21.736C65.432 21.208 64.528 20.944 63.488 20.944C62.848 20.944 62.28 21.056 61.784 21.28C61.304 21.488 60.928 21.8 60.656 22.216C60.4 22.616 60.272 23.096 60.272 23.656C60.272 24.312 60.48 24.896 60.896 25.408C61.312 25.92 61.944 26.312 62.792 26.584L65.792 27.472C67.2 27.904 68.264 28.52 68.984 29.32C69.704 30.12 70.064 31.112 70.064 32.296C70.064 33.272 69.808 34.136 69.296 34.888C68.8 35.64 68.104 36.232 67.208 36.664C66.328 37.08 65.304 37.288 64.136 37.288ZM77.8276 37.288C76.8996 37.288 76.0596 37.072 75.3076 36.64C74.5716 36.208 73.9956 35.608 73.5796 34.84C73.1796 34.056 72.9796 33.16 72.9796 32.152V24.064H75.2116V31.912C75.2116 32.552 75.3396 33.112 75.5956 33.592C75.8676 34.072 76.2356 34.448 76.6996 34.72C77.1796 34.992 77.7236 35.128 78.3316 35.128C78.9396 35.128 79.4756 34.992 79.9396 34.72C80.4196 34.448 80.7876 34.056 81.0436 33.544C81.3156 33.032 81.4516 32.424 81.4516 31.72V24.064H83.7076V37H81.5236V34.48L81.8836 34.696C81.5796 35.512 81.0596 36.152 80.3236 36.616C79.6036 37.064 78.7716 37.288 77.8276 37.288ZM87.1655 41.8V24.064H89.3495V26.848L89.0615 26.296C89.5415 25.528 90.1975 24.92 91.0295 24.472C91.8615 24.008 92.8135 23.776 93.8855 23.776C95.1015 23.776 96.1895 24.072 97.1495 24.664C98.1255 25.256 98.8935 26.064 99.4535 27.088C100.014 28.096 100.294 29.248 100.294 30.544C100.294 31.808 100.014 32.952 99.4535 33.976C98.8935 35 98.1255 35.808 97.1495 36.4C96.1895 36.992 95.0935 37.288 93.8615 37.288C92.8215 37.288 91.8695 37.056 91.0055 36.592C90.1575 36.128 89.5015 35.472 89.0375 34.624L89.3975 34.24V41.8H87.1655ZM93.6935 35.128C94.5095 35.128 95.2375 34.928 95.8775 34.528C96.5175 34.128 97.0135 33.584 97.3655 32.896C97.7335 32.192 97.9175 31.408 97.9175 30.544C97.9175 29.648 97.7335 28.864 97.3655 28.192C97.0135 27.504 96.5175 26.96 95.8775 26.56C95.2375 26.144 94.5095 25.936 93.6935 25.936C92.8775 25.936 92.1415 26.136 91.4855 26.536C90.8455 26.936 90.3335 27.488 89.9495 28.192C89.5815 28.88 89.3975 29.664 89.3975 30.544C89.3975 31.408 89.5815 32.192 89.9495 32.896C90.3335 33.584 90.8455 34.128 91.4855 34.528C92.1415 34.928 92.8775 35.128 93.6935 35.128ZM109.172 37.288C107.924 37.288 106.812 36.992 105.836 36.4C104.86 35.808 104.092 35 103.532 33.976C102.972 32.936 102.692 31.776 102.692 30.496C102.692 29.2 102.964 28.048 103.508 27.04C104.068 26.032 104.82 25.24 105.764 24.664C106.724 24.072 107.796 23.776 108.98 23.776C109.94 23.776 110.788 23.952 111.524 24.304C112.276 24.64 112.908 25.104 113.42 25.696C113.948 26.272 114.348 26.936 114.62 27.688C114.908 28.424 115.052 29.192 115.052 29.992C115.052 30.168 115.036 30.368 115.004 30.592C114.988 30.8 114.964 31 114.932 31.192H104.324V29.272H113.636L112.58 30.136C112.724 29.304 112.644 28.56 112.34 27.904C112.036 27.248 111.588 26.728 110.996 26.344C110.404 25.96 109.732 25.768 108.98 25.768C108.228 25.768 107.54 25.96 106.916 26.344C106.292 26.728 105.804 27.28 105.452 28C105.116 28.704 104.98 29.544 105.044 30.52C104.98 31.464 105.124 32.296 105.476 33.016C105.844 33.72 106.356 34.272 107.012 34.672C107.684 35.056 108.412 35.248 109.196 35.248C110.06 35.248 110.788 35.048 111.38 34.648C111.972 34.248 112.452 33.736 112.82 33.112L114.692 34.072C114.436 34.664 114.036 35.208 113.492 35.704C112.964 36.184 112.332 36.568 111.596 36.856C110.876 37.144 110.068 37.288 109.172 37.288ZM117.962 37V24.064H120.146V26.44L119.906 26.104C120.21 25.368 120.674 24.824 121.298 24.472C121.922 24.104 122.682 23.92 123.578 23.92H124.37V26.032H123.242C122.33 26.032 121.594 26.32 121.034 26.896C120.474 27.456 120.194 28.256 120.194 29.296V37H117.962ZM126.353 37V24.064H128.537V26.704L128.225 26.296C128.545 25.48 129.057 24.856 129.761 24.424C130.465 23.992 131.257 23.776 132.137 23.776C133.145 23.776 134.049 24.056 134.849 24.616C135.665 25.176 136.225 25.912 136.529 26.824L135.905 26.848C136.241 25.84 136.809 25.08 137.609 24.568C138.409 24.04 139.297 23.776 140.273 23.776C141.169 23.776 141.977 23.984 142.697 24.4C143.433 24.816 144.017 25.392 144.449 26.128C144.881 26.864 145.097 27.696 145.097 28.624V37H142.841V29.344C142.841 28.624 142.713 28.016 142.457 27.52C142.201 27.024 141.849 26.64 141.401 26.368C140.969 26.08 140.457 25.936 139.865 25.936C139.289 25.936 138.769 26.08 138.305 26.368C137.857 26.64 137.497 27.032 137.225 27.544C136.969 28.04 136.841 28.64 136.841 29.344V37H134.585V29.344C134.585 28.624 134.457 28.016 134.201 27.52C133.945 27.024 133.593 26.64 133.145 26.368C132.713 26.08 132.201 25.936 131.609 25.936C131.033 25.936 130.513 26.08 130.049 26.368C129.601 26.64 129.241 27.032 128.969 27.544C128.713 28.04 128.585 28.64 128.585 29.344V37H126.353ZM152.059 37.288C151.211 37.288 150.459 37.136 149.803 36.832C149.163 36.512 148.659 36.08 148.291 35.536C147.923 34.976 147.739 34.336 147.739 33.616C147.739 32.928 147.883 32.312 148.171 31.768C148.475 31.208 148.939 30.736 149.563 30.352C150.203 29.968 151.003 29.696 151.963 29.536L156.763 28.744V30.616L152.467 31.336C151.635 31.48 151.027 31.744 150.643 32.128C150.275 32.512 150.091 32.984 150.091 33.544C150.091 34.072 150.299 34.512 150.715 34.864C151.147 35.216 151.683 35.392 152.323 35.392C153.139 35.392 153.843 35.224 154.435 34.888C155.043 34.536 155.515 34.064 155.851 33.472C156.203 32.88 156.379 32.224 156.379 31.504V28.216C156.379 27.512 156.115 26.944 155.587 26.512C155.075 26.064 154.395 25.84 153.547 25.84C152.811 25.84 152.155 26.032 151.579 26.416C151.019 26.784 150.603 27.28 150.331 27.904L148.387 26.896C148.627 26.304 149.011 25.776 149.539 25.312C150.067 24.832 150.683 24.456 151.387 24.184C152.091 23.912 152.827 23.776 153.595 23.776C154.587 23.776 155.459 23.968 156.211 24.352C156.963 24.72 157.547 25.24 157.963 25.912C158.395 26.568 158.611 27.336 158.611 28.216V37H156.427V34.552L156.835 34.696C156.563 35.208 156.195 35.656 155.731 36.04C155.267 36.424 154.723 36.728 154.099 36.952C153.475 37.176 152.795 37.288 152.059 37.288ZM162.072 37V24.064H164.256V26.44L164.016 26.104C164.32 25.368 164.784 24.824 165.408 24.472C166.032 24.104 166.792 23.92 167.688 23.92H168.48V26.032H167.352C166.44 26.032 165.704 26.32 165.144 26.896C164.584 27.456 164.304 28.256 164.304 29.296V37H162.072ZM170.462 37V18.832H172.694V31.288L171.782 31.072L178.646 24.064H181.502L176.534 29.272L181.838 37H179.198L174.35 29.992L175.742 29.92L171.974 33.856L172.694 32.224V37H170.462ZM189.563 37.288C188.315 37.288 187.203 36.992 186.227 36.4C185.251 35.808 184.483 35 183.923 33.976C183.363 32.936 183.083 31.776 183.083 30.496C183.083 29.2 183.355 28.048 183.899 27.04C184.459 26.032 185.211 25.24 186.155 24.664C187.115 24.072 188.187 23.776 189.371 23.776C190.331 23.776 191.179 23.952 191.915 24.304C192.667 24.64 193.299 25.104 193.811 25.696C194.339 26.272 194.739 26.936 195.011 27.688C195.299 28.424 195.443 29.192 195.443 29.992C195.443 30.168 195.427 30.368 195.395 30.592C195.379 30.8 195.355 31 195.323 31.192H184.715V29.272H194.027L192.971 30.136C193.115 29.304 193.035 28.56 192.731 27.904C192.427 27.248 191.979 26.728 191.387 26.344C190.795 25.96 190.123 25.768 189.371 25.768C188.619 25.768 187.931 25.96 187.307 26.344C186.683 26.728 186.195 27.28 185.843 28C185.507 28.704 185.371 29.544 185.435 30.52C185.371 31.464 185.515 32.296 185.867 33.016C186.235 33.72 186.747 34.272 187.403 34.672C188.075 35.056 188.803 35.248 189.587 35.248C190.451 35.248 191.179 35.048 191.771 34.648C192.363 34.248 192.843 33.736 193.211 33.112L195.083 34.072C194.827 34.664 194.427 35.208 193.883 35.704C193.355 36.184 192.723 36.568 191.987 36.856C191.267 37.144 190.459 37.288 189.563 37.288ZM203.609 37.144C202.345 37.144 201.369 36.784 200.681 36.064C200.009 35.344 199.673 34.328 199.673 33.016V26.2H197.321V24.064H197.801C198.377 24.064 198.833 23.888 199.169 23.536C199.505 23.184 199.673 22.72 199.673 22.144V21.088H201.905V24.064H204.809V26.2H201.905V32.944C201.905 33.376 201.969 33.752 202.097 34.072C202.241 34.392 202.473 34.648 202.793 34.84C203.113 35.016 203.537 35.104 204.065 35.104C204.177 35.104 204.313 35.096 204.473 35.08C204.649 35.064 204.809 35.048 204.953 35.032V37C204.745 37.048 204.513 37.08 204.257 37.096C204.001 37.128 203.785 37.144 203.609 37.144ZM212.501 37.288C211.205 37.288 210.077 36.968 209.117 36.328C208.157 35.688 207.477 34.824 207.077 33.736L208.853 32.872C209.221 33.64 209.725 34.248 210.365 34.696C211.005 35.144 211.717 35.368 212.501 35.368C213.205 35.368 213.789 35.2 214.253 34.864C214.717 34.528 214.949 34.088 214.949 33.544C214.949 33.16 214.837 32.856 214.613 32.632C214.405 32.392 214.149 32.208 213.845 32.08C213.541 31.936 213.261 31.832 213.005 31.768L211.061 31.216C209.893 30.88 209.037 30.4 208.493 29.776C207.965 29.152 207.701 28.424 207.701 27.592C207.701 26.824 207.893 26.16 208.277 25.6C208.677 25.024 209.213 24.576 209.885 24.256C210.573 23.936 211.341 23.776 212.189 23.776C213.325 23.776 214.341 24.064 215.237 24.64C216.149 25.216 216.797 26.024 217.181 27.064L215.357 27.904C215.069 27.232 214.637 26.704 214.061 26.32C213.485 25.92 212.837 25.72 212.117 25.72C211.461 25.72 210.941 25.888 210.557 26.224C210.173 26.544 209.981 26.952 209.981 27.448C209.981 27.816 210.077 28.12 210.269 28.36C210.461 28.584 210.693 28.76 210.965 28.888C211.237 29 211.501 29.096 211.757 29.176L213.869 29.8C214.925 30.104 215.741 30.576 216.317 31.216C216.909 31.856 217.205 32.624 217.205 33.52C217.205 34.24 217.005 34.888 216.605 35.464C216.205 36.04 215.653 36.488 214.949 36.808C214.245 37.128 213.429 37.288 212.501 37.288Z" fill="white"/>
</g>
<defs>
<filter id="filter0_d_2684_51" x="0" y="0" width="239" height="62" filterUnits="userSpaceOnUse" color-interpolation-filters="sRGB">
<feFlood flood-opacity="0" result="BackgroundImageFix"/>
<feColorMatrix in="SourceAlpha" type="matrix" values="0 0 0 0 0 0 0 0 0 0 0 0 0 0 0 0 0 0 127 0" result="hardAlpha"/>
<feOffset dy="4"/>
<feGaussianBlur stdDeviation="2"/>
<feComposite in2="hardAlpha" operator="out"/>
<feColorMatrix type="matrix" values="0 0 0 0 0 0 0 0 0 0 0 0 0 0 0 0 0 0 0.25 0"/>
<feBlend mode="normal" in2="BackgroundImageFix" result="effect1_dropShadow_2684_51"/>
<feBlend mode="normal" in="SourceGraphic" in2="effect1_dropShadow_2684_51" result="shape"/>
</filter>
</defs>
</svg>
