<svg width="199" height="62" viewBox="0 0 199 62" fill="none" xmlns="http://www.w3.org/2000/svg">
<g filter="url(#filter0_d_2683_41)">
<rect x="4" width="191" height="54" rx="8" fill="#298A5A" shape-rendering="crispEdges"/>
<rect x="4.5" y="0.5" width="190" height="53" rx="7.5" stroke="#298A5A" shape-rendering="crispEdges"/>
<path d="M30.4999 37.6666H37.4999C43.3333 37.6666 45.6666 35.3333 45.6666 29.5V22.5C45.6666 16.6666 43.3333 14.3333 37.4999 14.3333H30.4999C24.6666 14.3333 22.3333 16.6666 22.3333 22.5V29.5C22.3333 35.3333 24.6666 37.6666 30.4999 37.6666Z" stroke="white" stroke-width="2" stroke-linecap="round" stroke-linejoin="round"/>
<path d="M29.0417 26L32.3434 29.3017L38.9584 22.6984" stroke="white" stroke-width="2" stroke-linecap="round" stroke-linejoin="round"/>
<path d="M61.28 37L56.264 19.12H58.736L62.936 34.864H62.36L66.728 19.12H69.2L73.544 34.864H72.944L77.168 19.12H79.64L74.624 37H72.008L67.64 21.328H68.264L63.896 37H61.28ZM81.6343 37V24.064H83.8663V37H81.6343ZM81.6343 22V19.12H83.8663V22H81.6343ZM87.3296 37V24.064H89.5136V26.584L89.1536 26.368C89.4736 25.552 89.9856 24.92 90.6896 24.472C91.4096 24.008 92.2496 23.776 93.2096 23.776C94.1376 23.776 94.9616 23.984 95.6816 24.4C96.4176 24.816 96.9936 25.392 97.4096 26.128C97.8416 26.864 98.0576 27.696 98.0576 28.624V37H95.8016V29.344C95.8016 28.624 95.6736 28.016 95.4176 27.52C95.1616 27.024 94.7936 26.64 94.3136 26.368C93.8496 26.08 93.3136 25.936 92.7056 25.936C92.0976 25.936 91.5536 26.08 91.0736 26.368C90.6096 26.64 90.2416 27.032 89.9696 27.544C89.6976 28.04 89.5616 28.64 89.5616 29.344V37H87.3296ZM107.203 37.288C105.955 37.288 104.843 36.992 103.867 36.4C102.891 35.808 102.123 35 101.563 33.976C101.003 32.936 100.723 31.776 100.723 30.496C100.723 29.2 100.995 28.048 101.539 27.04C102.099 26.032 102.851 25.24 103.795 24.664C104.755 24.072 105.827 23.776 107.011 23.776C107.971 23.776 108.819 23.952 109.555 24.304C110.307 24.64 110.939 25.104 111.451 25.696C111.979 26.272 112.379 26.936 112.651 27.688C112.939 28.424 113.083 29.192 113.083 29.992C113.083 30.168 113.067 30.368 113.035 30.592C113.019 30.8 112.995 31 112.963 31.192H102.355V29.272H111.667L110.611 30.136C110.755 29.304 110.675 28.56 110.371 27.904C110.067 27.248 109.619 26.728 109.027 26.344C108.435 25.96 107.763 25.768 107.011 25.768C106.259 25.768 105.571 25.96 104.947 26.344C104.323 26.728 103.835 27.28 103.483 28C103.147 28.704 103.011 29.544 103.075 30.52C103.011 31.464 103.155 32.296 103.507 33.016C103.875 33.72 104.387 34.272 105.043 34.672C105.715 35.056 106.443 35.248 107.227 35.248C108.091 35.248 108.819 35.048 109.411 34.648C110.003 34.248 110.483 33.736 110.851 33.112L112.723 34.072C112.467 34.664 112.067 35.208 111.523 35.704C110.995 36.184 110.363 36.568 109.627 36.856C108.907 37.144 108.099 37.288 107.203 37.288ZM124.774 37.288C123.478 37.288 122.35 36.968 121.39 36.328C120.43 35.688 119.75 34.824 119.35 33.736L121.126 32.872C121.494 33.64 121.998 34.248 122.638 34.696C123.278 35.144 123.99 35.368 124.774 35.368C125.478 35.368 126.062 35.2 126.526 34.864C126.99 34.528 127.222 34.088 127.222 33.544C127.222 33.16 127.11 32.856 126.886 32.632C126.678 32.392 126.422 32.208 126.118 32.08C125.814 31.936 125.534 31.832 125.278 31.768L123.334 31.216C122.166 30.88 121.31 30.4 120.766 29.776C120.238 29.152 119.974 28.424 119.974 27.592C119.974 26.824 120.166 26.16 120.55 25.6C120.95 25.024 121.486 24.576 122.158 24.256C122.846 23.936 123.614 23.776 124.462 23.776C125.598 23.776 126.614 24.064 127.51 24.64C128.422 25.216 129.07 26.024 129.454 27.064L127.63 27.904C127.342 27.232 126.91 26.704 126.334 26.32C125.758 25.92 125.11 25.72 124.39 25.72C123.734 25.72 123.214 25.888 122.83 26.224C122.446 26.544 122.254 26.952 122.254 27.448C122.254 27.816 122.35 28.12 122.542 28.36C122.734 28.584 122.966 28.76 123.238 28.888C123.51 29 123.774 29.096 124.03 29.176L126.142 29.8C127.198 30.104 128.014 30.576 128.59 31.216C129.182 31.856 129.478 32.624 129.478 33.52C129.478 34.24 129.278 34.888 128.878 35.464C128.478 36.04 127.926 36.488 127.222 36.808C126.518 37.128 125.702 37.288 124.774 37.288ZM137.656 37.144C136.392 37.144 135.416 36.784 134.728 36.064C134.056 35.344 133.72 34.328 133.72 33.016V26.2H131.368V24.064H131.848C132.424 24.064 132.88 23.888 133.216 23.536C133.552 23.184 133.72 22.72 133.72 22.144V21.088H135.952V24.064H138.856V26.2H135.952V32.944C135.952 33.376 136.016 33.752 136.144 34.072C136.288 34.392 136.52 34.648 136.84 34.84C137.16 35.016 137.584 35.104 138.112 35.104C138.224 35.104 138.36 35.096 138.52 35.08C138.696 35.064 138.856 35.048 139 35.032V37C138.792 37.048 138.56 37.08 138.304 37.096C138.048 37.128 137.832 37.144 137.656 37.144ZM147.708 37.288C146.46 37.288 145.332 37 144.324 36.424C143.316 35.832 142.516 35.024 141.924 34C141.332 32.976 141.036 31.816 141.036 30.52C141.036 29.224 141.324 28.072 141.9 27.064C142.492 26.056 143.292 25.256 144.3 24.664C145.308 24.072 146.444 23.776 147.708 23.776C148.956 23.776 150.084 24.072 151.092 24.664C152.1 25.24 152.892 26.032 153.468 27.04C154.06 28.048 154.356 29.208 154.356 30.52C154.356 31.832 154.052 33 153.444 34.024C152.836 35.032 152.028 35.832 151.02 36.424C150.028 37 148.924 37.288 147.708 37.288ZM147.708 35.128C148.508 35.128 149.228 34.928 149.868 34.528C150.524 34.128 151.036 33.576 151.404 32.872C151.788 32.168 151.98 31.384 151.98 30.52C151.98 29.64 151.788 28.864 151.404 28.192C151.036 27.504 150.524 26.96 149.868 26.56C149.228 26.144 148.508 25.936 147.708 25.936C146.892 25.936 146.156 26.144 145.5 26.56C144.86 26.96 144.348 27.504 143.964 28.192C143.58 28.864 143.388 29.64 143.388 30.52C143.388 31.384 143.58 32.168 143.964 32.872C144.348 33.576 144.86 34.128 145.5 34.528C146.156 34.928 146.892 35.128 147.708 35.128ZM157.267 37V24.064H159.451V26.44L159.211 26.104C159.515 25.368 159.979 24.824 160.603 24.472C161.227 24.104 161.987 23.92 162.883 23.92H163.675V26.032H162.547C161.635 26.032 160.899 26.32 160.339 26.896C159.779 27.456 159.499 28.256 159.499 29.296V37H157.267ZM171.61 37.288C170.362 37.288 169.25 36.992 168.274 36.4C167.298 35.808 166.53 35 165.97 33.976C165.41 32.936 165.13 31.776 165.13 30.496C165.13 29.2 165.402 28.048 165.946 27.04C166.506 26.032 167.258 25.24 168.202 24.664C169.162 24.072 170.234 23.776 171.418 23.776C172.378 23.776 173.226 23.952 173.962 24.304C174.714 24.64 175.346 25.104 175.858 25.696C176.386 26.272 176.786 26.936 177.058 27.688C177.346 28.424 177.49 29.192 177.49 29.992C177.49 30.168 177.474 30.368 177.442 30.592C177.426 30.8 177.402 31 177.37 31.192H166.762V29.272H176.074L175.018 30.136C175.162 29.304 175.082 28.56 174.778 27.904C174.474 27.248 174.026 26.728 173.434 26.344C172.842 25.96 172.17 25.768 171.418 25.768C170.666 25.768 169.978 25.96 169.354 26.344C168.73 26.728 168.242 27.28 167.89 28C167.554 28.704 167.418 29.544 167.482 30.52C167.418 31.464 167.562 32.296 167.914 33.016C168.282 33.72 168.794 34.272 169.45 34.672C170.122 35.056 170.85 35.248 171.634 35.248C172.498 35.248 173.226 35.048 173.818 34.648C174.41 34.248 174.89 33.736 175.258 33.112L177.13 34.072C176.874 34.664 176.474 35.208 175.93 35.704C175.402 36.184 174.77 36.568 174.034 36.856C173.314 37.144 172.506 37.288 171.61 37.288Z" fill="white"/>
</g>
<defs>
<filter id="filter0_d_2683_41" x="0" y="0" width="199" height="62" filterUnits="userSpaceOnUse" color-interpolation-filters="sRGB">
<feFlood flood-opacity="0" result="BackgroundImageFix"/>
<feColorMatrix in="SourceAlpha" type="matrix" values="0 0 0 0 0 0 0 0 0 0 0 0 0 0 0 0 0 0 127 0" result="hardAlpha"/>
<feOffset dy="4"/>
<feGaussianBlur stdDeviation="2"/>
<feComposite in2="hardAlpha" operator="out"/>
<feColorMatrix type="matrix" values="0 0 0 0 0 0 0 0 0 0 0 0 0 0 0 0 0 0 0.25 0"/>
<feBlend mode="normal" in2="BackgroundImageFix" result="effect1_dropShadow_2683_41"/>
<feBlend mode="normal" in="SourceGraphic" in2="effect1_dropShadow_2683_41" result="shape"/>
</filter>
</defs>
</svg>
