<svg width="237" height="62" viewBox="0 0 237 62" fill="none" xmlns="http://www.w3.org/2000/svg">
<g filter="url(#filter0_d_2684_60)">
<rect x="4" width="229" height="54" rx="8" fill="#298A5A" shape-rendering="crispEdges"/>
<rect x="4.5" y="0.5" width="228" height="53" rx="7.5" stroke="#298A5A" shape-rendering="crispEdges"/>
<path d="M30.4999 37.6666H37.4999C43.3333 37.6666 45.6666 35.3333 45.6666 29.5V22.5C45.6666 16.6666 43.3333 14.3333 37.4999 14.3333H30.4999C24.6666 14.3333 22.3333 16.6666 22.3333 22.5V29.5C22.3333 35.3333 24.6666 37.6666 30.4999 37.6666Z" stroke="white" stroke-width="2" stroke-linecap="round" stroke-linejoin="round"/>
<path d="M29.0417 26L32.3434 29.3017L38.9584 22.6984" stroke="white" stroke-width="2" stroke-linecap="round" stroke-linejoin="round"/>
<path d="M57.992 37V19.12H60.344V34.84H68.192V37H57.992ZM76.7158 37.288C75.4678 37.288 74.3398 37 73.3318 36.424C72.3238 35.832 71.5238 35.024 70.9318 34C70.3398 32.976 70.0438 31.816 70.0438 30.52C70.0438 29.224 70.3318 28.072 70.9078 27.064C71.4998 26.056 72.2998 25.256 73.3078 24.664C74.3158 24.072 75.4518 23.776 76.7158 23.776C77.9638 23.776 79.0918 24.072 80.0998 24.664C81.1078 25.24 81.8998 26.032 82.4758 27.04C83.0678 28.048 83.3638 29.208 83.3638 30.52C83.3638 31.832 83.0598 33 82.4518 34.024C81.8438 35.032 81.0358 35.832 80.0278 36.424C79.0358 37 77.9318 37.288 76.7158 37.288ZM76.7158 35.128C77.5158 35.128 78.2358 34.928 78.8758 34.528C79.5318 34.128 80.0438 33.576 80.4118 32.872C80.7958 32.168 80.9878 31.384 80.9878 30.52C80.9878 29.64 80.7958 28.864 80.4118 28.192C80.0438 27.504 79.5318 26.96 78.8758 26.56C78.2358 26.144 77.5158 25.936 76.7158 25.936C75.8998 25.936 75.1638 26.144 74.5078 26.56C73.8678 26.96 73.3558 27.504 72.9718 28.192C72.5878 28.864 72.3958 29.64 72.3958 30.52C72.3958 31.384 72.5878 32.168 72.9718 32.872C73.3558 33.576 73.8678 34.128 74.5078 34.528C75.1638 34.928 75.8998 35.128 76.7158 35.128ZM92.2749 37.288C91.0109 37.288 89.8829 36.992 88.8909 36.4C87.9149 35.808 87.1469 35 86.5869 33.976C86.0269 32.952 85.7469 31.8 85.7469 30.52C85.7469 29.224 86.0269 28.072 86.5869 27.064C87.1469 26.056 87.9149 25.256 88.8909 24.664C89.8829 24.072 91.0109 23.776 92.2749 23.776C93.1229 23.776 93.9149 23.928 94.6509 24.232C95.3869 24.536 96.0349 24.944 96.5949 25.456C97.1549 25.968 97.5629 26.568 97.8189 27.256L95.8269 28.216C95.5229 27.544 95.0589 27 94.4349 26.584C93.8109 26.152 93.0909 25.936 92.2749 25.936C91.4909 25.936 90.7789 26.136 90.1389 26.536C89.5149 26.936 89.0189 27.48 88.6509 28.168C88.2829 28.856 88.0989 29.648 88.0989 30.544C88.0989 31.408 88.2829 32.192 88.6509 32.896C89.0189 33.584 89.5149 34.128 90.1389 34.528C90.7789 34.928 91.4909 35.128 92.2749 35.128C93.0909 35.128 93.8109 34.92 94.4349 34.504C95.0589 34.072 95.5229 33.504 95.8269 32.8L97.8189 33.808C97.5629 34.48 97.1549 35.08 96.5949 35.608C96.0349 36.12 95.3869 36.528 94.6509 36.832C93.9149 37.136 93.1229 37.288 92.2749 37.288ZM104.364 37.288C103.516 37.288 102.764 37.136 102.108 36.832C101.468 36.512 100.964 36.08 100.596 35.536C100.228 34.976 100.044 34.336 100.044 33.616C100.044 32.928 100.188 32.312 100.476 31.768C100.78 31.208 101.244 30.736 101.868 30.352C102.508 29.968 103.308 29.696 104.268 29.536L109.068 28.744V30.616L104.772 31.336C103.94 31.48 103.332 31.744 102.948 32.128C102.58 32.512 102.396 32.984 102.396 33.544C102.396 34.072 102.604 34.512 103.02 34.864C103.452 35.216 103.988 35.392 104.628 35.392C105.444 35.392 106.148 35.224 106.74 34.888C107.348 34.536 107.82 34.064 108.156 33.472C108.508 32.88 108.684 32.224 108.684 31.504V28.216C108.684 27.512 108.42 26.944 107.892 26.512C107.38 26.064 106.7 25.84 105.852 25.84C105.116 25.84 104.46 26.032 103.884 26.416C103.324 26.784 102.908 27.28 102.636 27.904L100.692 26.896C100.932 26.304 101.316 25.776 101.844 25.312C102.372 24.832 102.988 24.456 103.692 24.184C104.396 23.912 105.132 23.776 105.9 23.776C106.892 23.776 107.764 23.968 108.516 24.352C109.268 24.72 109.852 25.24 110.268 25.912C110.7 26.568 110.916 27.336 110.916 28.216V37H108.732V34.552L109.14 34.696C108.868 35.208 108.5 35.656 108.036 36.04C107.572 36.424 107.028 36.728 106.404 36.952C105.78 37.176 105.1 37.288 104.364 37.288ZM114.376 37V18.832H116.608V37H114.376ZM124.22 37V24.064H126.404V26.704L126.092 26.296C126.412 25.48 126.924 24.856 127.628 24.424C128.332 23.992 129.124 23.776 130.004 23.776C131.012 23.776 131.916 24.056 132.716 24.616C133.532 25.176 134.092 25.912 134.396 26.824L133.772 26.848C134.108 25.84 134.676 25.08 135.476 24.568C136.276 24.04 137.164 23.776 138.14 23.776C139.036 23.776 139.844 23.984 140.564 24.4C141.3 24.816 141.884 25.392 142.316 26.128C142.748 26.864 142.964 27.696 142.964 28.624V37H140.708V29.344C140.708 28.624 140.58 28.016 140.324 27.52C140.068 27.024 139.716 26.64 139.268 26.368C138.836 26.08 138.324 25.936 137.732 25.936C137.156 25.936 136.636 26.08 136.172 26.368C135.724 26.64 135.364 27.032 135.092 27.544C134.836 28.04 134.708 28.64 134.708 29.344V37H132.452V29.344C132.452 28.624 132.324 28.016 132.068 27.52C131.812 27.024 131.46 26.64 131.012 26.368C130.58 26.08 130.068 25.936 129.476 25.936C128.9 25.936 128.38 26.08 127.916 26.368C127.468 26.64 127.108 27.032 126.836 27.544C126.58 28.04 126.452 28.64 126.452 29.344V37H124.22ZM149.926 37.288C149.078 37.288 148.326 37.136 147.67 36.832C147.03 36.512 146.526 36.08 146.158 35.536C145.79 34.976 145.606 34.336 145.606 33.616C145.606 32.928 145.75 32.312 146.038 31.768C146.342 31.208 146.806 30.736 147.43 30.352C148.07 29.968 148.87 29.696 149.83 29.536L154.63 28.744V30.616L150.334 31.336C149.502 31.48 148.894 31.744 148.51 32.128C148.142 32.512 147.958 32.984 147.958 33.544C147.958 34.072 148.166 34.512 148.582 34.864C149.014 35.216 149.55 35.392 150.19 35.392C151.006 35.392 151.71 35.224 152.302 34.888C152.91 34.536 153.382 34.064 153.718 33.472C154.07 32.88 154.246 32.224 154.246 31.504V28.216C154.246 27.512 153.982 26.944 153.454 26.512C152.942 26.064 152.262 25.84 151.414 25.84C150.678 25.84 150.022 26.032 149.446 26.416C148.886 26.784 148.47 27.28 148.198 27.904L146.254 26.896C146.494 26.304 146.878 25.776 147.406 25.312C147.934 24.832 148.55 24.456 149.254 24.184C149.958 23.912 150.694 23.776 151.462 23.776C152.454 23.776 153.326 23.968 154.078 24.352C154.83 24.72 155.414 25.24 155.83 25.912C156.262 26.568 156.478 27.336 156.478 28.216V37H154.294V34.552L154.702 34.696C154.43 35.208 154.062 35.656 153.598 36.04C153.134 36.424 152.59 36.728 151.966 36.952C151.342 37.176 150.662 37.288 149.926 37.288ZM159.939 37V24.064H162.123V26.44L161.883 26.104C162.187 25.368 162.651 24.824 163.275 24.472C163.899 24.104 164.659 23.92 165.555 23.92H166.347V26.032H165.219C164.307 26.032 163.571 26.32 163.011 26.896C162.451 27.456 162.171 28.256 162.171 29.296V37H159.939ZM168.33 37V18.832H170.562V31.288L169.65 31.072L176.514 24.064H179.37L174.402 29.272L179.706 37H177.066L172.218 29.992L173.61 29.92L169.842 33.856L170.562 32.224V37H168.33ZM187.43 37.288C186.182 37.288 185.07 36.992 184.094 36.4C183.118 35.808 182.35 35 181.79 33.976C181.23 32.936 180.95 31.776 180.95 30.496C180.95 29.2 181.222 28.048 181.766 27.04C182.326 26.032 183.078 25.24 184.022 24.664C184.982 24.072 186.054 23.776 187.238 23.776C188.198 23.776 189.046 23.952 189.782 24.304C190.534 24.64 191.166 25.104 191.678 25.696C192.206 26.272 192.606 26.936 192.878 27.688C193.166 28.424 193.31 29.192 193.31 29.992C193.31 30.168 193.294 30.368 193.262 30.592C193.246 30.8 193.222 31 193.19 31.192H182.582V29.272H191.894L190.838 30.136C190.982 29.304 190.902 28.56 190.598 27.904C190.294 27.248 189.846 26.728 189.254 26.344C188.662 25.96 187.99 25.768 187.238 25.768C186.486 25.768 185.798 25.96 185.174 26.344C184.55 26.728 184.062 27.28 183.71 28C183.374 28.704 183.238 29.544 183.302 30.52C183.238 31.464 183.382 32.296 183.734 33.016C184.102 33.72 184.614 34.272 185.27 34.672C185.942 35.056 186.67 35.248 187.454 35.248C188.318 35.248 189.046 35.048 189.638 34.648C190.23 34.248 190.71 33.736 191.078 33.112L192.95 34.072C192.694 34.664 192.294 35.208 191.75 35.704C191.222 36.184 190.59 36.568 189.854 36.856C189.134 37.144 188.326 37.288 187.43 37.288ZM201.476 37.144C200.212 37.144 199.236 36.784 198.548 36.064C197.876 35.344 197.54 34.328 197.54 33.016V26.2H195.188V24.064H195.668C196.244 24.064 196.7 23.888 197.036 23.536C197.372 23.184 197.54 22.72 197.54 22.144V21.088H199.772V24.064H202.676V26.2H199.772V32.944C199.772 33.376 199.836 33.752 199.964 34.072C200.108 34.392 200.34 34.648 200.66 34.84C200.98 35.016 201.404 35.104 201.932 35.104C202.044 35.104 202.18 35.096 202.34 35.08C202.516 35.064 202.676 35.048 202.82 35.032V37C202.612 37.048 202.38 37.08 202.124 37.096C201.868 37.128 201.652 37.144 201.476 37.144ZM210.368 37.288C209.072 37.288 207.944 36.968 206.984 36.328C206.024 35.688 205.344 34.824 204.944 33.736L206.72 32.872C207.088 33.64 207.592 34.248 208.232 34.696C208.872 35.144 209.584 35.368 210.368 35.368C211.072 35.368 211.656 35.2 212.12 34.864C212.584 34.528 212.816 34.088 212.816 33.544C212.816 33.16 212.704 32.856 212.48 32.632C212.272 32.392 212.016 32.208 211.712 32.08C211.408 31.936 211.128 31.832 210.872 31.768L208.928 31.216C207.76 30.88 206.904 30.4 206.36 29.776C205.832 29.152 205.568 28.424 205.568 27.592C205.568 26.824 205.76 26.16 206.144 25.6C206.544 25.024 207.08 24.576 207.752 24.256C208.44 23.936 209.208 23.776 210.056 23.776C211.192 23.776 212.208 24.064 213.104 24.64C214.016 25.216 214.664 26.024 215.048 27.064L213.224 27.904C212.936 27.232 212.504 26.704 211.928 26.32C211.352 25.92 210.704 25.72 209.984 25.72C209.328 25.72 208.808 25.888 208.424 26.224C208.04 26.544 207.848 26.952 207.848 27.448C207.848 27.816 207.944 28.12 208.136 28.36C208.328 28.584 208.56 28.76 208.832 28.888C209.104 29 209.368 29.096 209.624 29.176L211.736 29.8C212.792 30.104 213.608 30.576 214.184 31.216C214.776 31.856 215.072 32.624 215.072 33.52C215.072 34.24 214.872 34.888 214.472 35.464C214.072 36.04 213.52 36.488 212.816 36.808C212.112 37.128 211.296 37.288 210.368 37.288Z" fill="white"/>
</g>
<defs>
<filter id="filter0_d_2684_60" x="0" y="0" width="237" height="62" filterUnits="userSpaceOnUse" color-interpolation-filters="sRGB">
<feFlood flood-opacity="0" result="BackgroundImageFix"/>
<feColorMatrix in="SourceAlpha" type="matrix" values="0 0 0 0 0 0 0 0 0 0 0 0 0 0 0 0 0 0 127 0" result="hardAlpha"/>
<feOffset dy="4"/>
<feGaussianBlur stdDeviation="2"/>
<feComposite in2="hardAlpha" operator="out"/>
<feColorMatrix type="matrix" values="0 0 0 0 0 0 0 0 0 0 0 0 0 0 0 0 0 0 0.25 0"/>
<feBlend mode="normal" in2="BackgroundImageFix" result="effect1_dropShadow_2684_60"/>
<feBlend mode="normal" in="SourceGraphic" in2="effect1_dropShadow_2684_60" result="shape"/>
</filter>
</defs>
</svg>
