<svg width="20" height="21" viewBox="0 0 20 21" fill="none" xmlns="http://www.w3.org/2000/svg">
<path d="M7.50008 18.8334H12.5001C16.6667 18.8334 18.3334 17.1667 18.3334 13.0001V8.00008C18.3334 3.83341 16.6667 2.16675 12.5001 2.16675H7.50008C3.33341 2.16675 1.66675 3.83341 1.66675 8.00008V13.0001C1.66675 17.1667 3.33341 18.8334 7.50008 18.8334Z" stroke="white" stroke-width="1.5" stroke-linecap="round" stroke-linejoin="round"/>
<path d="M9.99992 13.4166C11.6107 13.4166 12.9166 12.1107 12.9166 10.4999C12.9166 8.88909 11.6107 7.58325 9.99992 7.58325C8.38909 7.58325 7.08325 8.88909 7.08325 10.4999C7.08325 12.1107 8.38909 13.4166 9.99992 13.4166Z" stroke="white" stroke-width="1.5" stroke-linecap="round" stroke-linejoin="round"/>
<path d="M14.6968 6.33341H14.7065" stroke="white" stroke-width="2" stroke-linecap="round" stroke-linejoin="round"/>
</svg>
