<svg width="350" height="84" viewBox="0 0 350 84" fill="none" xmlns="http://www.w3.org/2000/svg">
<path d="M1.872 27.866V8.49597H5.408V27.866H1.872ZM15.2957 28.022C13.7011 28.022 12.4617 27.5886 11.5777 26.722C10.7111 25.838 10.2777 24.5986 10.2777 23.004V16.764H7.83372V13.722H8.09372C8.78705 13.722 9.32439 13.54 9.70572 13.176C10.0871 12.812 10.2777 12.2833 10.2777 11.59V10.498H13.6837V13.722H16.9337V16.764H13.6837V22.822C13.6837 23.29 13.7617 23.6886 13.9177 24.018C14.0911 24.3473 14.3511 24.5986 14.6977 24.772C15.0617 24.9453 15.5211 25.032 16.0757 25.032C16.1971 25.032 16.3357 25.0233 16.4917 25.006C16.6651 24.9886 16.8297 24.9713 16.9857 24.954V27.866C16.7431 27.9006 16.4657 27.9353 16.1537 27.97C15.8417 28.0046 15.5557 28.022 15.2957 28.022ZM30.657 28.022C29.0624 28.022 27.823 27.5886 26.939 26.722C26.0724 25.838 25.639 24.5986 25.639 23.004V16.764H23.195V13.722H23.455C24.1484 13.722 24.6857 13.54 25.067 13.176C25.4484 12.812 25.639 12.2833 25.639 11.59V10.498H29.045V13.722H32.295V16.764H29.045V22.822C29.045 23.29 29.123 23.6886 29.279 24.018C29.4524 24.3473 29.7124 24.5986 30.059 24.772C30.423 24.9453 30.8824 25.032 31.437 25.032C31.5584 25.032 31.697 25.0233 31.853 25.006C32.0264 24.9886 32.191 24.9713 32.347 24.954V27.866C32.1044 27.9006 31.827 27.9353 31.515 27.97C31.203 28.0046 30.917 28.022 30.657 28.022ZM39.1885 28.178C38.2005 28.178 37.3425 28.0133 36.6145 27.684C35.8865 27.3546 35.3232 26.8866 34.9245 26.28C34.5258 25.656 34.3265 24.9366 34.3265 24.122C34.3265 23.342 34.4998 22.6486 34.8465 22.042C35.1932 21.418 35.7305 20.898 36.4585 20.482C37.1865 20.066 38.1052 19.7713 39.2145 19.598L43.8425 18.844V21.444L39.8645 22.12C39.1885 22.2413 38.6858 22.458 38.3565 22.77C38.0272 23.082 37.8625 23.4893 37.8625 23.992C37.8625 24.4773 38.0445 24.8673 38.4085 25.162C38.7898 25.4393 39.2578 25.578 39.8125 25.578C40.5232 25.578 41.1472 25.4306 41.6845 25.136C42.2392 24.824 42.6638 24.3993 42.9585 23.862C43.2705 23.3246 43.4265 22.7353 43.4265 22.094V18.454C43.4265 17.8473 43.1838 17.3446 42.6985 16.946C42.2305 16.53 41.6065 16.322 40.8265 16.322C40.0985 16.322 39.4485 16.5213 38.8765 16.92C38.3218 17.3013 37.9145 17.8126 37.6545 18.454L34.8725 17.102C35.1498 16.3566 35.5832 15.7153 36.1725 15.178C36.7792 14.6233 37.4898 14.19 38.3045 13.878C39.1192 13.566 40.0032 13.41 40.9565 13.41C42.1178 13.41 43.1405 13.6266 44.0245 14.06C44.9085 14.476 45.5932 15.0653 46.0785 15.828C46.5812 16.5733 46.8325 17.4486 46.8325 18.454V27.866H43.6085V25.448L44.3365 25.396C43.9725 26.0026 43.5392 26.514 43.0365 26.93C42.5338 27.3286 41.9618 27.6406 41.3205 27.866C40.6792 28.074 39.9685 28.178 39.1885 28.178ZM49.9805 27.866V8.18397H53.3865V21.08L52.0865 20.69L58.7425 13.722H62.9805L57.7545 19.416L63.0845 27.866H59.1845L54.5565 20.534L56.5845 20.118L52.3205 24.694L53.3865 22.614V27.866H49.9805ZM71.4405 28.178C69.9845 28.178 68.7105 27.8486 67.6185 27.19C66.5265 26.5313 65.6772 25.6386 65.0705 24.512C64.4638 23.3853 64.1605 22.1373 64.1605 20.768C64.1605 19.3466 64.4638 18.09 65.0705 16.998C65.6945 15.8886 66.5352 15.0133 67.5925 14.372C68.6672 13.7306 69.8632 13.41 71.1805 13.41C72.2898 13.41 73.2605 13.592 74.0925 13.956C74.9418 14.32 75.6612 14.8226 76.2505 15.464C76.8398 16.1053 77.2905 16.842 77.6025 17.674C77.9145 18.4886 78.0705 19.3726 78.0705 20.326C78.0705 20.5686 78.0532 20.82 78.0185 21.08C78.0012 21.34 77.9578 21.5653 77.8885 21.756H66.9685V19.156H75.9645L74.3525 20.378C74.5085 19.5806 74.4652 18.87 74.2225 18.246C73.9972 17.622 73.6158 17.128 73.0785 16.764C72.5585 16.4 71.9258 16.218 71.1805 16.218C70.4698 16.218 69.8372 16.4 69.2825 16.764C68.7278 17.1106 68.3032 17.6306 68.0085 18.324C67.7312 19 67.6272 19.8233 67.6965 20.794C67.6272 21.6606 67.7398 22.432 68.0345 23.108C68.3465 23.7666 68.7972 24.278 69.3865 24.642C69.9932 25.006 70.6865 25.188 71.4665 25.188C72.2465 25.188 72.9052 25.0233 73.4425 24.694C73.9972 24.3646 74.4305 23.9226 74.7425 23.368L77.4985 24.72C77.2212 25.396 76.7878 25.994 76.1985 26.514C75.6092 27.034 74.9072 27.4413 74.0925 27.736C73.2952 28.0306 72.4112 28.178 71.4405 28.178ZM86.0344 28.178C84.5264 28.178 83.2091 27.8226 82.0824 27.112C80.9731 26.384 80.2104 25.4046 79.7944 24.174L82.3424 22.952C82.7064 23.7493 83.2091 24.3733 83.8504 24.824C84.5091 25.2746 85.2371 25.5 86.0344 25.5C86.6584 25.5 87.1524 25.3613 87.5164 25.084C87.8804 24.8066 88.0624 24.4426 88.0624 23.992C88.0624 23.7146 87.9844 23.4893 87.8284 23.316C87.6897 23.1253 87.4904 22.9693 87.2304 22.848C86.9877 22.7093 86.7191 22.5966 86.4244 22.51L84.1104 21.86C82.9144 21.5133 82.0044 20.9846 81.3804 20.274C80.7737 19.5633 80.4704 18.7226 80.4704 17.752C80.4704 16.8853 80.6871 16.1313 81.1204 15.49C81.5711 14.8313 82.1864 14.32 82.9664 13.956C83.7637 13.592 84.6737 13.41 85.6964 13.41C87.0311 13.41 88.2097 13.7306 89.2324 14.372C90.2551 15.0133 90.9831 15.9146 91.4164 17.076L88.8164 18.298C88.5737 17.6566 88.1664 17.1453 87.5944 16.764C87.0224 16.3826 86.3811 16.192 85.6704 16.192C85.0984 16.192 84.6477 16.322 84.3184 16.582C83.9891 16.842 83.8244 17.18 83.8244 17.596C83.8244 17.856 83.8937 18.0813 84.0324 18.272C84.1711 18.4626 84.3617 18.6186 84.6044 18.74C84.8644 18.8613 85.1591 18.974 85.4884 19.078L87.7504 19.754C88.9117 20.1006 89.8044 20.6206 90.4284 21.314C91.0697 22.0073 91.3904 22.8566 91.3904 23.862C91.3904 24.7113 91.1651 25.4653 90.7144 26.124C90.2637 26.7653 89.6397 27.268 88.8424 27.632C88.0451 27.996 87.1091 28.178 86.0344 28.178ZM96.679 33.612C96.4536 33.612 96.2196 33.6033 95.977 33.586C95.7343 33.5686 95.535 33.5426 95.379 33.508V30.544C95.691 30.596 96.003 30.622 96.315 30.622C97.043 30.622 97.6063 30.4486 98.005 30.102C98.421 29.7726 98.629 29.2613 98.629 28.568V13.722H102.035V28.568C102.035 29.6426 101.818 30.5526 101.385 31.298C100.952 32.0606 100.328 32.6326 99.513 33.014C98.7156 33.4126 97.771 33.612 96.679 33.612ZM98.629 12.136V8.49597H102.035V12.136H98.629ZM110.224 28.178C109.132 28.178 108.178 27.9353 107.364 27.45C106.566 26.9646 105.951 26.2886 105.518 25.422C105.102 24.5553 104.894 23.5413 104.894 22.38V13.722H108.3V22.094C108.3 22.6833 108.412 23.2033 108.638 23.654C108.88 24.0873 109.218 24.434 109.652 24.694C110.102 24.9366 110.605 25.058 111.16 25.058C111.714 25.058 112.208 24.9366 112.642 24.694C113.075 24.434 113.413 24.0786 113.656 23.628C113.898 23.1773 114.02 22.64 114.02 22.016V13.722H117.426V27.866H114.202V25.084L114.488 25.578C114.158 26.4446 113.612 27.0946 112.85 27.528C112.104 27.9613 111.229 28.178 110.224 28.178ZM125.974 28.178C124.466 28.178 123.149 27.8226 122.022 27.112C120.913 26.384 120.15 25.4046 119.734 24.174L122.282 22.952C122.646 23.7493 123.149 24.3733 123.79 24.824C124.449 25.2746 125.177 25.5 125.974 25.5C126.598 25.5 127.092 25.3613 127.456 25.084C127.82 24.8066 128.002 24.4426 128.002 23.992C128.002 23.7146 127.924 23.4893 127.768 23.316C127.629 23.1253 127.43 22.9693 127.17 22.848C126.927 22.7093 126.659 22.5966 126.364 22.51L124.05 21.86C122.854 21.5133 121.944 20.9846 121.32 20.274C120.713 19.5633 120.41 18.7226 120.41 17.752C120.41 16.8853 120.627 16.1313 121.06 15.49C121.511 14.8313 122.126 14.32 122.906 13.956C123.703 13.592 124.613 13.41 125.636 13.41C126.971 13.41 128.149 13.7306 129.172 14.372C130.195 15.0133 130.923 15.9146 131.356 17.076L128.756 18.298C128.513 17.6566 128.106 17.1453 127.534 16.764C126.962 16.3826 126.321 16.192 125.61 16.192C125.038 16.192 124.587 16.322 124.258 16.582C123.929 16.842 123.764 17.18 123.764 17.596C123.764 17.856 123.833 18.0813 123.972 18.272C124.111 18.4626 124.301 18.6186 124.544 18.74C124.804 18.8613 125.099 18.974 125.428 19.078L127.69 19.754C128.851 20.1006 129.744 20.6206 130.368 21.314C131.009 22.0073 131.33 22.8566 131.33 23.862C131.33 24.7113 131.105 25.4653 130.654 26.124C130.203 26.7653 129.579 27.268 128.782 27.632C127.985 27.996 127.049 28.178 125.974 28.178ZM140.395 28.022C138.801 28.022 137.561 27.5886 136.677 26.722C135.811 25.838 135.377 24.5986 135.377 23.004V16.764H132.933V13.722H133.193C133.887 13.722 134.424 13.54 134.805 13.176C135.187 12.812 135.377 12.2833 135.377 11.59V10.498H138.783V13.722H142.033V16.764H138.783V22.822C138.783 23.29 138.861 23.6886 139.017 24.018C139.191 24.3473 139.451 24.5986 139.797 24.772C140.161 24.9453 140.621 25.032 141.175 25.032C141.297 25.032 141.435 25.0233 141.591 25.006C141.765 24.9886 141.929 24.9713 142.085 24.954V27.866C141.843 27.9006 141.565 27.9353 141.253 27.97C140.941 28.0046 140.655 28.022 140.395 28.022ZM155.341 28.178C154.283 28.178 153.278 27.9873 152.325 27.606C151.389 27.2073 150.583 26.6526 149.907 25.942C149.248 25.214 148.797 24.356 148.555 23.368L151.649 22.276C151.961 23.16 152.437 23.836 153.079 24.304C153.72 24.7546 154.474 24.98 155.341 24.98C156.034 24.98 156.632 24.85 157.135 24.59C157.655 24.33 158.062 23.9573 158.357 23.472C158.651 22.9693 158.799 22.38 158.799 21.704C158.799 21.028 158.651 20.456 158.357 19.988C158.079 19.5026 157.681 19.13 157.161 18.87C156.641 18.61 156.025 18.48 155.315 18.48C154.985 18.48 154.639 18.5146 154.275 18.584C153.928 18.6533 153.616 18.7573 153.339 18.896L152.533 17.206L157.551 11.486H149.647V8.49597H161.529V11.278L156.485 17.18L156.537 15.854C157.698 15.8713 158.712 16.1226 159.579 16.608C160.445 17.0933 161.121 17.7606 161.607 18.61C162.092 19.4593 162.335 20.456 162.335 21.6C162.335 22.848 162.031 23.9746 161.425 24.98C160.818 25.968 159.986 26.748 158.929 27.32C157.871 27.892 156.675 28.178 155.341 28.178ZM175.206 28.178C173.698 28.178 172.381 27.8226 171.254 27.112C170.145 26.384 169.382 25.4046 168.966 24.174L171.514 22.952C171.878 23.7493 172.381 24.3733 173.022 24.824C173.681 25.2746 174.409 25.5 175.206 25.5C175.83 25.5 176.324 25.3613 176.688 25.084C177.052 24.8066 177.234 24.4426 177.234 23.992C177.234 23.7146 177.156 23.4893 177 23.316C176.862 23.1253 176.662 22.9693 176.402 22.848C176.16 22.7093 175.891 22.5966 175.596 22.51L173.282 21.86C172.086 21.5133 171.176 20.9846 170.552 20.274C169.946 19.5633 169.642 18.7226 169.642 17.752C169.642 16.8853 169.859 16.1313 170.292 15.49C170.743 14.8313 171.358 14.32 172.138 13.956C172.936 13.592 173.846 13.41 174.868 13.41C176.203 13.41 177.382 13.7306 178.404 14.372C179.427 15.0133 180.155 15.9146 180.588 17.076L177.988 18.298C177.746 17.6566 177.338 17.1453 176.766 16.764C176.194 16.3826 175.553 16.192 174.842 16.192C174.27 16.192 173.82 16.322 173.49 16.582C173.161 16.842 172.996 17.18 172.996 17.596C172.996 17.856 173.066 18.0813 173.204 18.272C173.343 18.4626 173.534 18.6186 173.776 18.74C174.036 18.8613 174.331 18.974 174.66 19.078L176.922 19.754C178.084 20.1006 178.976 20.6206 179.6 21.314C180.242 22.0073 180.562 22.8566 180.562 23.862C180.562 24.7113 180.337 25.4653 179.886 26.124C179.436 26.7653 178.812 27.268 178.014 27.632C177.217 27.996 176.281 28.178 175.206 28.178ZM183.18 27.866V13.722H186.586V27.866H183.18ZM183.18 12.136V8.49597H186.586V12.136H183.18ZM189.731 27.866V13.722H192.929V16.998L192.565 16.452C192.825 15.4293 193.345 14.6666 194.125 14.164C194.905 13.6613 195.823 13.41 196.881 13.41C198.042 13.41 199.065 13.7133 199.949 14.32C200.833 14.9266 201.405 15.724 201.665 16.712L200.703 16.79C201.136 15.6633 201.786 14.8226 202.653 14.268C203.519 13.696 204.516 13.41 205.643 13.41C206.648 13.41 207.541 13.6353 208.321 14.086C209.118 14.5366 209.742 15.1693 210.193 15.984C210.643 16.7813 210.869 17.7086 210.869 18.766V27.866H207.463V19.572C207.463 18.948 207.35 18.4106 207.125 17.96C206.899 17.5093 206.587 17.1626 206.189 16.92C205.79 16.66 205.305 16.53 204.733 16.53C204.195 16.53 203.719 16.66 203.303 16.92C202.887 17.1626 202.566 17.5093 202.341 17.96C202.115 18.4106 202.003 18.948 202.003 19.572V27.866H198.597V19.572C198.597 18.948 198.484 18.4106 198.259 17.96C198.033 17.5093 197.713 17.1626 197.297 16.92C196.898 16.66 196.421 16.53 195.867 16.53C195.329 16.53 194.853 16.66 194.437 16.92C194.021 17.1626 193.7 17.5093 193.475 17.96C193.249 18.4106 193.137 18.948 193.137 19.572V27.866H189.731ZM213.75 33.066V13.722H216.948V16.53L216.636 15.828C217.121 15.0653 217.78 14.476 218.612 14.06C219.444 13.6266 220.406 13.41 221.498 13.41C222.833 13.41 224.037 13.7393 225.112 14.398C226.187 15.0566 227.036 15.9406 227.66 17.05C228.301 18.1593 228.622 19.4073 228.622 20.794C228.622 22.1633 228.31 23.4113 227.686 24.538C227.062 25.6646 226.213 26.5573 225.138 27.216C224.063 27.8573 222.841 28.178 221.472 28.178C220.449 28.178 219.505 27.9786 218.638 27.58C217.789 27.164 217.113 26.5746 216.61 25.812L217.156 25.136V33.066H213.75ZM221.082 25.058C221.862 25.058 222.555 24.876 223.162 24.512C223.769 24.148 224.237 23.6453 224.566 23.004C224.913 22.3626 225.086 21.626 225.086 20.794C225.086 19.962 224.913 19.234 224.566 18.61C224.237 17.9686 223.769 17.466 223.162 17.102C222.555 16.7206 221.862 16.53 221.082 16.53C220.337 16.53 219.661 16.712 219.054 17.076C218.465 17.44 217.997 17.9513 217.65 18.61C217.321 19.2513 217.156 19.9793 217.156 20.794C217.156 21.626 217.321 22.3626 217.65 23.004C217.997 23.6453 218.465 24.148 219.054 24.512C219.661 24.876 220.337 25.058 221.082 25.058ZM231.219 27.866V8.18397H234.625V27.866H231.219ZM244.478 28.178C243.022 28.178 241.748 27.8486 240.656 27.19C239.564 26.5313 238.714 25.6386 238.108 24.512C237.501 23.3853 237.198 22.1373 237.198 20.768C237.198 19.3466 237.501 18.09 238.108 16.998C238.732 15.8886 239.572 15.0133 240.63 14.372C241.704 13.7306 242.9 13.41 244.218 13.41C245.327 13.41 246.298 13.592 247.13 13.956C247.979 14.32 248.698 14.8226 249.288 15.464C249.877 16.1053 250.328 16.842 250.64 17.674C250.952 18.4886 251.108 19.3726 251.108 20.326C251.108 20.5686 251.09 20.82 251.056 21.08C251.038 21.34 250.995 21.5653 250.926 21.756H240.006V19.156H249.002L247.39 20.378C247.546 19.5806 247.502 18.87 247.26 18.246C247.034 17.622 246.653 17.128 246.116 16.764C245.596 16.4 244.963 16.218 244.218 16.218C243.507 16.218 242.874 16.4 242.32 16.764C241.765 17.1106 241.34 17.6306 241.046 18.324C240.768 19 240.664 19.8233 240.734 20.794C240.664 21.6606 240.777 22.432 241.072 23.108C241.384 23.7666 241.834 24.278 242.424 24.642C243.03 25.006 243.724 25.188 244.504 25.188C245.284 25.188 245.942 25.0233 246.48 24.694C247.034 24.3646 247.468 23.9226 247.78 23.368L250.536 24.72C250.258 25.396 249.825 25.994 249.236 26.514C248.646 27.034 247.944 27.4413 247.13 27.736C246.332 28.0306 245.448 28.178 244.478 28.178ZM263.693 28.178C262.185 28.178 260.867 27.8226 259.741 27.112C258.631 26.384 257.869 25.4046 257.453 24.174L260.001 22.952C260.365 23.7493 260.867 24.3733 261.509 24.824C262.167 25.2746 262.895 25.5 263.693 25.5C264.317 25.5 264.811 25.3613 265.175 25.084C265.539 24.8066 265.721 24.4426 265.721 23.992C265.721 23.7146 265.643 23.4893 265.487 23.316C265.348 23.1253 265.149 22.9693 264.889 22.848C264.646 22.7093 264.377 22.5966 264.083 22.51L261.769 21.86C260.573 21.5133 259.663 20.9846 259.039 20.274C258.432 19.5633 258.129 18.7226 258.129 17.752C258.129 16.8853 258.345 16.1313 258.779 15.49C259.229 14.8313 259.845 14.32 260.625 13.956C261.422 13.592 262.332 13.41 263.355 13.41C264.689 13.41 265.868 13.7306 266.891 14.372C267.913 15.0133 268.641 15.9146 269.075 17.076L266.475 18.298C266.232 17.6566 265.825 17.1453 265.253 16.764C264.681 16.3826 264.039 16.192 263.329 16.192C262.757 16.192 262.306 16.322 261.977 16.582C261.647 16.842 261.483 17.18 261.483 17.596C261.483 17.856 261.552 18.0813 261.691 18.272C261.829 18.4626 262.02 18.6186 262.263 18.74C262.523 18.8613 262.817 18.974 263.147 19.078L265.409 19.754C266.57 20.1006 267.463 20.6206 268.087 21.314C268.728 22.0073 269.049 22.8566 269.049 23.862C269.049 24.7113 268.823 25.4653 268.373 26.124C267.922 26.7653 267.298 27.268 266.501 27.632C265.703 27.996 264.767 28.178 263.693 28.178ZM278.114 28.022C276.519 28.022 275.28 27.5886 274.396 26.722C273.529 25.838 273.096 24.5986 273.096 23.004V16.764H270.652V13.722H270.912C271.605 13.722 272.143 13.54 272.524 13.176C272.905 12.812 273.096 12.2833 273.096 11.59V10.498H276.502V13.722H279.752V16.764H276.502V22.822C276.502 23.29 276.58 23.6886 276.736 24.018C276.909 24.3473 277.169 24.5986 277.516 24.772C277.88 24.9453 278.339 25.032 278.894 25.032C279.015 25.032 279.154 25.0233 279.31 25.006C279.483 24.9886 279.648 24.9713 279.804 24.954V27.866C279.561 27.9006 279.284 27.9353 278.972 27.97C278.66 28.0046 278.374 28.022 278.114 28.022ZM288.987 28.178C287.531 28.178 286.257 27.8486 285.165 27.19C284.073 26.5313 283.224 25.6386 282.617 24.512C282.011 23.3853 281.707 22.1373 281.707 20.768C281.707 19.3466 282.011 18.09 282.617 16.998C283.241 15.8886 284.082 15.0133 285.139 14.372C286.214 13.7306 287.41 13.41 288.727 13.41C289.837 13.41 290.807 13.592 291.639 13.956C292.489 14.32 293.208 14.8226 293.797 15.464C294.387 16.1053 294.837 16.842 295.149 17.674C295.461 18.4886 295.617 19.3726 295.617 20.326C295.617 20.5686 295.6 20.82 295.565 21.08C295.548 21.34 295.505 21.5653 295.435 21.756H284.515V19.156H293.511L291.899 20.378C292.055 19.5806 292.012 18.87 291.769 18.246C291.544 17.622 291.163 17.128 290.625 16.764C290.105 16.4 289.473 16.218 288.727 16.218C288.017 16.218 287.384 16.4 286.829 16.764C286.275 17.1106 285.85 17.6306 285.555 18.324C285.278 19 285.174 19.8233 285.243 20.794C285.174 21.6606 285.287 22.432 285.581 23.108C285.893 23.7666 286.344 24.278 286.933 24.642C287.54 25.006 288.233 25.188 289.013 25.188C289.793 25.188 290.452 25.0233 290.989 24.694C291.544 24.3646 291.977 23.9226 292.289 23.368L295.045 24.72C294.768 25.396 294.335 25.994 293.745 26.514C293.156 27.034 292.454 27.4413 291.639 27.736C290.842 28.0306 289.958 28.178 288.987 28.178ZM298.199 33.066V13.722H301.397V16.53L301.085 15.828C301.571 15.0653 302.229 14.476 303.061 14.06C303.893 13.6266 304.855 13.41 305.947 13.41C307.282 13.41 308.487 13.7393 309.561 14.398C310.636 15.0566 311.485 15.9406 312.109 17.05C312.751 18.1593 313.071 19.4073 313.071 20.794C313.071 22.1633 312.759 23.4113 312.135 24.538C311.511 25.6646 310.662 26.5573 309.587 27.216C308.513 27.8573 307.291 28.178 305.921 28.178C304.899 28.178 303.954 27.9786 303.087 27.58C302.238 27.164 301.562 26.5746 301.059 25.812L301.605 25.136V33.066H298.199ZM305.531 25.058C306.311 25.058 307.005 24.876 307.611 24.512C308.218 24.148 308.686 23.6453 309.015 23.004C309.362 22.3626 309.535 21.626 309.535 20.794C309.535 19.962 309.362 19.234 309.015 18.61C308.686 17.9686 308.218 17.466 307.611 17.102C307.005 16.7206 306.311 16.53 305.531 16.53C304.786 16.53 304.11 16.712 303.503 17.076C302.914 17.44 302.446 17.9513 302.099 18.61C301.77 19.2513 301.605 19.9793 301.605 20.794C301.605 21.626 301.77 22.3626 302.099 23.004C302.446 23.6453 302.914 24.148 303.503 24.512C304.11 24.876 304.786 25.058 305.531 25.058ZM321.05 28.178C319.542 28.178 318.225 27.8226 317.098 27.112C315.989 26.384 315.226 25.4046 314.81 24.174L317.358 22.952C317.722 23.7493 318.225 24.3733 318.866 24.824C319.525 25.2746 320.253 25.5 321.05 25.5C321.674 25.5 322.168 25.3613 322.532 25.084C322.896 24.8066 323.078 24.4426 323.078 23.992C323.078 23.7146 323 23.4893 322.844 23.316C322.705 23.1253 322.506 22.9693 322.246 22.848C322.003 22.7093 321.735 22.5966 321.44 22.51L319.126 21.86C317.93 21.5133 317.02 20.9846 316.396 20.274C315.789 19.5633 315.486 18.7226 315.486 17.752C315.486 16.8853 315.703 16.1313 316.136 15.49C316.587 14.8313 317.202 14.32 317.982 13.956C318.779 13.592 319.689 13.41 320.712 13.41C322.047 13.41 323.225 13.7306 324.248 14.372C325.271 15.0133 325.999 15.9146 326.432 17.076L323.832 18.298C323.589 17.6566 323.182 17.1453 322.61 16.764C322.038 16.3826 321.397 16.192 320.686 16.192C320.114 16.192 319.663 16.322 319.334 16.582C319.005 16.842 318.84 17.18 318.84 17.596C318.84 17.856 318.909 18.0813 319.048 18.272C319.187 18.4626 319.377 18.6186 319.62 18.74C319.88 18.8613 320.175 18.974 320.504 19.078L322.766 19.754C323.927 20.1006 324.82 20.6206 325.444 21.314C326.085 22.0073 326.406 22.8566 326.406 23.862C326.406 24.7113 326.181 25.4653 325.73 26.124C325.279 26.7653 324.655 27.268 323.858 27.632C323.061 27.996 322.125 28.178 321.05 28.178Z" fill="#191717"/>
<path d="M5.026 81.034C4.19533 81.034 3.46733 80.81 2.842 80.362C2.21667 79.9046 1.72667 79.2746 1.372 78.472C1.02667 77.66 0.854 76.7173 0.854 75.644C0.854 74.5613 1.02667 73.6186 1.372 72.816C1.72667 72.0133 2.212 71.388 2.828 70.94C3.45333 70.492 4.18133 70.268 5.012 70.268C5.84267 70.268 6.566 70.492 7.182 70.94C7.80733 71.388 8.29267 72.018 8.638 72.83C8.99267 73.6326 9.17 74.5706 9.17 75.644C9.17 76.7173 8.99733 77.66 8.652 78.472C8.30667 79.2746 7.82133 79.9046 7.196 80.362C6.58 80.81 5.85667 81.034 5.026 81.034ZM5.026 79.522C5.53933 79.522 5.98267 79.3633 6.356 79.046C6.72933 78.7286 7.01867 78.2806 7.224 77.702C7.42933 77.1233 7.532 76.4373 7.532 75.644C7.532 74.8506 7.42933 74.1646 7.224 73.586C7.01867 73.0073 6.72933 72.5593 6.356 72.242C5.98267 71.9246 5.53467 71.766 5.012 71.766C4.49867 71.766 4.05533 71.9246 3.682 72.242C3.30867 72.5593 3.01933 73.0073 2.814 73.586C2.60867 74.1646 2.506 74.8506 2.506 75.644C2.506 76.428 2.60867 77.114 2.814 77.702C3.01933 78.2806 3.30867 78.7286 3.682 79.046C4.06467 79.3633 4.51267 79.522 5.026 79.522ZM12.4855 80.866V71.836H10.4835V70.436H14.1235V80.866H12.4855Z" fill="#298A5A"/>
<path d="M31.078 80.866V70.436H34.494C35.5767 70.436 36.5147 70.6553 37.308 71.094C38.1107 71.5233 38.7313 72.13 39.17 72.914C39.6087 73.698 39.828 74.608 39.828 75.644C39.828 76.6706 39.6087 77.5806 39.17 78.374C38.7313 79.158 38.1107 79.7693 37.308 80.208C36.5147 80.6466 35.5767 80.866 34.494 80.866H31.078ZM32.73 79.396H34.522C35.2593 79.396 35.8987 79.242 36.44 78.934C36.9907 78.626 37.4153 78.192 37.714 77.632C38.0127 77.072 38.162 76.4093 38.162 75.644C38.162 74.8786 38.008 74.2206 37.7 73.67C37.4013 73.11 36.9813 72.676 36.44 72.368C35.8987 72.06 35.2593 71.906 34.522 71.906H32.73V79.396ZM44.955 81.034C44.227 81.034 43.5596 80.8613 42.953 80.516C42.3556 80.1706 41.8796 79.6993 41.525 79.102C41.1703 78.5046 40.993 77.828 40.993 77.072C40.993 76.3066 41.1703 75.63 41.525 75.042C41.8796 74.4446 42.3556 73.978 42.953 73.642C43.5503 73.2966 44.2176 73.124 44.955 73.124C45.7016 73.124 46.369 73.2966 46.957 73.642C47.5543 73.978 48.0256 74.4446 48.371 75.042C48.7256 75.63 48.903 76.3066 48.903 77.072C48.903 77.8373 48.7256 78.5186 48.371 79.116C48.0163 79.7133 47.5403 80.1846 46.943 80.53C46.3456 80.866 45.683 81.034 44.955 81.034ZM44.955 79.564C45.403 79.564 45.7996 79.4566 46.145 79.242C46.4903 79.0273 46.761 78.7333 46.957 78.36C47.1623 77.9773 47.265 77.548 47.265 77.072C47.265 76.596 47.1623 76.1713 46.957 75.798C46.761 75.4246 46.4903 75.1306 46.145 74.916C45.7996 74.7013 45.403 74.594 44.955 74.594C44.5163 74.594 44.1196 74.7013 43.765 74.916C43.4196 75.1306 43.1443 75.4246 42.939 75.798C42.743 76.1713 42.645 76.596 42.645 77.072C42.645 77.548 42.743 77.9773 42.939 78.36C43.1443 78.7333 43.4196 79.0273 43.765 79.242C44.1196 79.4566 44.5163 79.564 44.955 79.564ZM52.1447 80.866L49.5407 73.292H51.2207L53.2087 79.326H52.6207L54.6507 73.292H56.0927L58.1087 79.326H57.5207L59.5227 73.292H61.2027L58.5847 80.866H57.1567L55.1127 74.692H55.6307L53.5867 80.866H52.1447ZM62.2873 80.866V73.292H63.7993V74.776L63.6173 74.58C63.8039 74.104 64.1026 73.7446 64.5133 73.502C64.9239 73.25 65.3999 73.124 65.9413 73.124C66.5013 73.124 66.9959 73.2453 67.4253 73.488C67.8546 73.7306 68.1906 74.0666 68.4333 74.496C68.6759 74.9253 68.7973 75.42 68.7973 75.98V80.866H67.2293V76.4C67.2293 76.0173 67.1593 75.6953 67.0193 75.434C66.8793 75.1633 66.6786 74.958 66.4173 74.818C66.1653 74.6686 65.8759 74.594 65.5493 74.594C65.2226 74.594 64.9286 74.6686 64.6673 74.818C64.4153 74.958 64.2193 75.1633 64.0793 75.434C63.9393 75.7046 63.8693 76.0266 63.8693 76.4V80.866H62.2873ZM70.4904 80.866V70.268H72.0724V80.866H70.4904ZM77.576 81.034C76.848 81.034 76.1807 80.8613 75.574 80.516C74.9767 80.1706 74.5007 79.6993 74.146 79.102C73.7914 78.5046 73.614 77.828 73.614 77.072C73.614 76.3066 73.7914 75.63 74.146 75.042C74.5007 74.4446 74.9767 73.978 75.574 73.642C76.1714 73.2966 76.8387 73.124 77.576 73.124C78.3227 73.124 78.99 73.2966 79.578 73.642C80.1754 73.978 80.6467 74.4446 80.992 75.042C81.3467 75.63 81.524 76.3066 81.524 77.072C81.524 77.8373 81.3467 78.5186 80.992 79.116C80.6374 79.7133 80.1614 80.1846 79.564 80.53C78.9667 80.866 78.304 81.034 77.576 81.034ZM77.576 79.564C78.024 79.564 78.4207 79.4566 78.766 79.242C79.1114 79.0273 79.382 78.7333 79.578 78.36C79.7834 77.9773 79.886 77.548 79.886 77.072C79.886 76.596 79.7834 76.1713 79.578 75.798C79.382 75.4246 79.1114 75.1306 78.766 74.916C78.4207 74.7013 78.024 74.594 77.576 74.594C77.1374 74.594 76.7407 74.7013 76.386 74.916C76.0407 75.1306 75.7654 75.4246 75.56 75.798C75.364 76.1713 75.266 76.596 75.266 77.072C75.266 77.548 75.364 77.9773 75.56 78.36C75.7654 78.7333 76.0407 79.0273 76.386 79.242C76.7407 79.4566 77.1374 79.564 77.576 79.564ZM85.3365 81.034C84.8232 81.034 84.3705 80.9453 83.9785 80.768C83.5959 80.5813 83.2972 80.3293 83.0825 80.012C82.8679 79.6853 82.7605 79.3026 82.7605 78.864C82.7605 78.4533 82.8492 78.0846 83.0265 77.758C83.2132 77.4313 83.4979 77.156 83.8805 76.932C84.2632 76.708 84.7439 76.5493 85.3225 76.456L87.9545 76.022V77.268L85.6305 77.674C85.2105 77.7486 84.9025 77.884 84.7065 78.08C84.5105 78.2666 84.4125 78.5093 84.4125 78.808C84.4125 79.0973 84.5199 79.3353 84.7345 79.522C84.9585 79.6993 85.2432 79.788 85.5885 79.788C86.0179 79.788 86.3912 79.6946 86.7085 79.508C87.0352 79.3213 87.2872 79.074 87.4645 78.766C87.6419 78.4486 87.7305 78.0986 87.7305 77.716V75.77C87.7305 75.3966 87.5905 75.0933 87.3105 74.86C87.0399 74.6173 86.6759 74.496 86.2185 74.496C85.7985 74.496 85.4299 74.608 85.1125 74.832C84.8045 75.0466 84.5759 75.3266 84.4265 75.672L83.1105 75.014C83.2505 74.6406 83.4792 74.314 83.7965 74.034C84.1139 73.7446 84.4825 73.5206 84.9025 73.362C85.3319 73.2033 85.7845 73.124 86.2605 73.124C86.8579 73.124 87.3852 73.236 87.8425 73.46C88.3092 73.684 88.6685 73.9966 88.9205 74.398C89.1819 74.79 89.3125 75.2473 89.3125 75.77V80.866H87.8005V79.494L88.1225 79.536C87.9452 79.844 87.7165 80.11 87.4365 80.334C87.1659 80.558 86.8532 80.7306 86.4985 80.852C86.1532 80.9733 85.7659 81.034 85.3365 81.034ZM94.6623 81.034C93.9343 81.034 93.2809 80.8613 92.7023 80.516C92.1329 80.1613 91.6803 79.6853 91.3443 79.088C91.0176 78.4906 90.8543 77.8186 90.8543 77.072C90.8543 76.3253 91.0223 75.6533 91.3583 75.056C91.6943 74.4586 92.1469 73.9873 92.7163 73.642C93.2856 73.2966 93.9296 73.124 94.6483 73.124C95.2549 73.124 95.7916 73.2453 96.2583 73.488C96.7249 73.7306 97.0936 74.0666 97.3643 74.496L97.1263 74.86V70.268H98.6943V80.866H97.1963V79.326L97.3783 79.62C97.1169 80.0773 96.7436 80.4273 96.2583 80.67C95.7729 80.9126 95.2409 81.034 94.6623 81.034ZM94.8163 79.564C95.2549 79.564 95.6469 79.4566 95.9923 79.242C96.3469 79.0273 96.6223 78.7333 96.8183 78.36C97.0236 77.9773 97.1263 77.548 97.1263 77.072C97.1263 76.596 97.0236 76.1713 96.8183 75.798C96.6223 75.4246 96.3469 75.1306 95.9923 74.916C95.6469 74.7013 95.2549 74.594 94.8163 74.594C94.3776 74.594 93.9809 74.7013 93.6263 74.916C93.2716 75.1306 92.9963 75.4246 92.8003 75.798C92.6043 76.1713 92.5063 76.596 92.5063 77.072C92.5063 77.548 92.6043 77.9773 92.8003 78.36C92.9963 78.7333 93.2669 79.0273 93.6123 79.242C93.9669 79.4566 94.3683 79.564 94.8163 79.564ZM106.264 80.95C105.471 80.95 104.855 80.726 104.416 80.278C103.978 79.83 103.758 79.2 103.758 78.388V74.72H102.428V73.292H102.638C102.993 73.292 103.268 73.1893 103.464 72.984C103.66 72.7786 103.758 72.4986 103.758 72.144V71.556H105.34V73.292H107.062V74.72H105.34V78.318C105.34 78.5793 105.382 78.8033 105.466 78.99C105.55 79.1673 105.686 79.3073 105.872 79.41C106.059 79.5033 106.302 79.55 106.6 79.55C106.675 79.55 106.759 79.5453 106.852 79.536C106.946 79.5266 107.034 79.5173 107.118 79.508V80.866C106.988 80.8846 106.843 80.9033 106.684 80.922C106.526 80.9406 106.386 80.95 106.264 80.95ZM108.662 80.866V70.268H110.244V74.776L109.992 74.58C110.179 74.104 110.478 73.7446 110.888 73.502C111.299 73.25 111.775 73.124 112.316 73.124C112.876 73.124 113.371 73.2453 113.8 73.488C114.23 73.7306 114.566 74.0666 114.808 74.496C115.051 74.9253 115.172 75.4153 115.172 75.966V80.866H113.604V76.4C113.604 76.0173 113.53 75.6953 113.38 75.434C113.24 75.1633 113.044 74.958 112.792 74.818C112.54 74.6686 112.251 74.594 111.924 74.594C111.607 74.594 111.318 74.6686 111.056 74.818C110.804 74.958 110.604 75.1633 110.454 75.434C110.314 75.7046 110.244 76.0266 110.244 76.4V80.866H108.662ZM120.421 81.034C119.665 81.034 118.993 80.8613 118.405 80.516C117.827 80.1613 117.374 79.6853 117.047 79.088C116.721 78.4813 116.557 77.8046 116.557 77.058C116.557 76.2926 116.721 75.616 117.047 75.028C117.383 74.44 117.831 73.978 118.391 73.642C118.951 73.2966 119.586 73.124 120.295 73.124C120.865 73.124 121.373 73.222 121.821 73.418C122.269 73.614 122.647 73.8846 122.955 74.23C123.263 74.566 123.497 74.9533 123.655 75.392C123.823 75.8306 123.907 76.2973 123.907 76.792C123.907 76.9133 123.903 77.0393 123.893 77.17C123.884 77.3006 123.865 77.422 123.837 77.534H117.803V76.274H122.941L122.185 76.848C122.279 76.3906 122.246 75.9846 122.087 75.63C121.938 75.266 121.705 74.9813 121.387 74.776C121.079 74.5613 120.715 74.454 120.295 74.454C119.875 74.454 119.502 74.5613 119.175 74.776C118.849 74.9813 118.597 75.28 118.419 75.672C118.242 76.0546 118.172 76.5213 118.209 77.072C118.163 77.5853 118.233 78.0333 118.419 78.416C118.615 78.7986 118.886 79.0973 119.231 79.312C119.586 79.5266 119.987 79.634 120.435 79.634C120.893 79.634 121.28 79.5313 121.597 79.326C121.924 79.1206 122.181 78.8546 122.367 78.528L123.655 79.158C123.506 79.5126 123.273 79.8346 122.955 80.124C122.647 80.404 122.274 80.628 121.835 80.796C121.406 80.9546 120.935 81.034 120.421 81.034ZM128.053 80.866V70.436H134.927V71.906H129.705V74.902H134.647V76.372H129.705V79.396H134.927V80.866H128.053ZM138.575 81.034C138.061 81.034 137.609 80.9453 137.217 80.768C136.834 80.5813 136.535 80.3293 136.321 80.012C136.106 79.6853 135.999 79.3026 135.999 78.864C135.999 78.4533 136.087 78.0846 136.265 77.758C136.451 77.4313 136.736 77.156 137.119 76.932C137.501 76.708 137.982 76.5493 138.561 76.456L141.193 76.022V77.268L138.869 77.674C138.449 77.7486 138.141 77.884 137.945 78.08C137.749 78.2666 137.651 78.5093 137.651 78.808C137.651 79.0973 137.758 79.3353 137.973 79.522C138.197 79.6993 138.481 79.788 138.827 79.788C139.256 79.788 139.629 79.6946 139.947 79.508C140.273 79.3213 140.525 79.074 140.703 78.766C140.88 78.4486 140.969 78.0986 140.969 77.716V75.77C140.969 75.3966 140.829 75.0933 140.549 74.86C140.278 74.6173 139.914 74.496 139.457 74.496C139.037 74.496 138.668 74.608 138.351 74.832C138.043 75.0466 137.814 75.3266 137.665 75.672L136.349 75.014C136.489 74.6406 136.717 74.314 137.035 74.034C137.352 73.7446 137.721 73.5206 138.141 73.362C138.57 73.2033 139.023 73.124 139.499 73.124C140.096 73.124 140.623 73.236 141.081 73.46C141.547 73.684 141.907 73.9966 142.159 74.398C142.42 74.79 142.551 75.2473 142.551 75.77V80.866H141.039V79.494L141.361 79.536C141.183 79.844 140.955 80.11 140.675 80.334C140.404 80.558 140.091 80.7306 139.737 80.852C139.391 80.9733 139.004 81.034 138.575 81.034ZM147.54 80.95C146.747 80.95 146.131 80.726 145.692 80.278C145.253 79.83 145.034 79.2 145.034 78.388V74.72H143.704V73.292H143.914C144.269 73.292 144.544 73.1893 144.74 72.984C144.936 72.7786 145.034 72.4986 145.034 72.144V71.556H146.616V73.292H148.338V74.72H146.616V78.318C146.616 78.5793 146.658 78.8033 146.742 78.99C146.826 79.1673 146.961 79.3073 147.148 79.41C147.335 79.5033 147.577 79.55 147.876 79.55C147.951 79.55 148.035 79.5453 148.128 79.536C148.221 79.5266 148.31 79.5173 148.394 79.508V80.866C148.263 80.8846 148.119 80.9033 147.96 80.922C147.801 80.9406 147.661 80.95 147.54 80.95ZM152.137 81.034C151.624 81.034 151.171 80.9453 150.779 80.768C150.397 80.5813 150.098 80.3293 149.883 80.012C149.669 79.6853 149.561 79.3026 149.561 78.864C149.561 78.4533 149.65 78.0846 149.827 77.758C150.014 77.4313 150.299 77.156 150.681 76.932C151.064 76.708 151.545 76.5493 152.123 76.456L154.755 76.022V77.268L152.431 77.674C152.011 77.7486 151.703 77.884 151.507 78.08C151.311 78.2666 151.213 78.5093 151.213 78.808C151.213 79.0973 151.321 79.3353 151.535 79.522C151.759 79.6993 152.044 79.788 152.389 79.788C152.819 79.788 153.192 79.6946 153.509 79.508C153.836 79.3213 154.088 79.074 154.265 78.766C154.443 78.4486 154.531 78.0986 154.531 77.716V75.77C154.531 75.3966 154.391 75.0933 154.111 74.86C153.841 74.6173 153.477 74.496 153.019 74.496C152.599 74.496 152.231 74.608 151.913 74.832C151.605 75.0466 151.377 75.3266 151.227 75.672L149.911 75.014C150.051 74.6406 150.28 74.314 150.597 74.034C150.915 73.7446 151.283 73.5206 151.703 73.362C152.133 73.2033 152.585 73.124 153.061 73.124C153.659 73.124 154.186 73.236 154.643 73.46C155.11 73.684 155.469 73.9966 155.721 74.398C155.983 74.79 156.113 75.2473 156.113 75.77V80.866H154.601V79.494L154.923 79.536C154.746 79.844 154.517 80.11 154.237 80.334C153.967 80.558 153.654 80.7306 153.299 80.852C152.954 80.9733 152.567 81.034 152.137 81.034ZM162.009 81.034C161.421 81.034 160.884 80.9126 160.399 80.67C159.923 80.4273 159.554 80.0773 159.293 79.62L159.475 79.326V80.866H157.963V70.268H159.545V74.86L159.293 74.496C159.573 74.0666 159.946 73.7306 160.413 73.488C160.88 73.2453 161.412 73.124 162.009 73.124C162.728 73.124 163.372 73.2966 163.941 73.642C164.52 73.9873 164.972 74.4586 165.299 75.056C165.635 75.6533 165.803 76.3253 165.803 77.072C165.803 77.8186 165.635 78.4906 165.299 79.088C164.972 79.6853 164.524 80.1613 163.955 80.516C163.386 80.8613 162.737 81.034 162.009 81.034ZM161.855 79.564C162.303 79.564 162.7 79.4566 163.045 79.242C163.39 79.0273 163.661 78.7333 163.857 78.36C164.062 77.9773 164.165 77.548 164.165 77.072C164.165 76.596 164.062 76.1713 163.857 75.798C163.661 75.4246 163.39 75.1306 163.045 74.916C162.7 74.7013 162.303 74.594 161.855 74.594C161.416 74.594 161.02 74.7013 160.665 74.916C160.32 75.1306 160.044 75.4246 159.839 75.798C159.643 76.1713 159.545 76.596 159.545 77.072C159.545 77.548 159.643 77.9773 159.839 78.36C160.044 78.7333 160.32 79.0273 160.665 79.242C161.02 79.4566 161.416 79.564 161.855 79.564ZM167.342 80.866V70.268H168.924V80.866H167.342ZM174.33 81.034C173.574 81.034 172.902 80.8613 172.314 80.516C171.735 80.1613 171.282 79.6853 170.956 79.088C170.629 78.4813 170.466 77.8046 170.466 77.058C170.466 76.2926 170.629 75.616 170.956 75.028C171.292 74.44 171.74 73.978 172.3 73.642C172.86 73.2966 173.494 73.124 174.204 73.124C174.773 73.124 175.282 73.222 175.73 73.418C176.178 73.614 176.556 73.8846 176.864 74.23C177.172 74.566 177.405 74.9533 177.564 75.392C177.732 75.8306 177.816 76.2973 177.816 76.792C177.816 76.9133 177.811 77.0393 177.802 77.17C177.792 77.3006 177.774 77.422 177.746 77.534H171.712V76.274H176.85L176.094 76.848C176.187 76.3906 176.154 75.9846 175.996 75.63C175.846 75.266 175.613 74.9813 175.296 74.776C174.988 74.5613 174.624 74.454 174.204 74.454C173.784 74.454 173.41 74.5613 173.084 74.776C172.757 74.9813 172.505 75.28 172.328 75.672C172.15 76.0546 172.08 76.5213 172.118 77.072C172.071 77.5853 172.141 78.0333 172.328 78.416C172.524 78.7986 172.794 79.0973 173.14 79.312C173.494 79.5266 173.896 79.634 174.344 79.634C174.801 79.634 175.188 79.5313 175.506 79.326C175.832 79.1206 176.089 78.8546 176.276 78.528L177.564 79.158C177.414 79.5126 177.181 79.8346 176.864 80.124C176.556 80.404 176.182 80.628 175.744 80.796C175.314 80.9546 174.843 81.034 174.33 81.034ZM182.16 81.034C181.385 81.034 180.704 80.8426 180.116 80.46C179.537 80.0773 179.131 79.564 178.898 78.92L180.116 78.346C180.321 78.7753 180.601 79.116 180.956 79.368C181.32 79.62 181.721 79.746 182.16 79.746C182.533 79.746 182.836 79.662 183.07 79.494C183.303 79.326 183.42 79.0973 183.42 78.808C183.42 78.6213 183.368 78.472 183.266 78.36C183.163 78.2386 183.032 78.1406 182.874 78.066C182.724 77.9913 182.57 77.9353 182.412 77.898L181.222 77.562C180.568 77.3753 180.078 77.0953 179.752 76.722C179.434 76.3393 179.276 75.896 179.276 75.392C179.276 74.9346 179.392 74.538 179.626 74.202C179.859 73.8566 180.181 73.5906 180.592 73.404C181.002 73.2173 181.464 73.124 181.978 73.124C182.668 73.124 183.284 73.2966 183.826 73.642C184.367 73.978 184.75 74.4493 184.974 75.056L183.756 75.63C183.606 75.266 183.368 74.9766 183.042 74.762C182.724 74.5473 182.365 74.44 181.964 74.44C181.618 74.44 181.343 74.524 181.138 74.692C180.932 74.8506 180.83 75.0606 180.83 75.322C180.83 75.4993 180.876 75.6486 180.97 75.77C181.063 75.882 181.184 75.9753 181.334 76.05C181.483 76.1153 181.637 76.1713 181.796 76.218L183.028 76.582C183.653 76.7593 184.134 77.0393 184.47 77.422C184.806 77.7953 184.974 78.2433 184.974 78.766C184.974 79.214 184.852 79.6106 184.61 79.956C184.376 80.292 184.05 80.558 183.63 80.754C183.21 80.9406 182.72 81.034 182.16 81.034ZM191.239 81.034C190.726 81.034 190.273 80.9453 189.881 80.768C189.498 80.5813 189.2 80.3293 188.985 80.012C188.77 79.6853 188.663 79.3026 188.663 78.864C188.663 78.4533 188.752 78.0846 188.929 77.758C189.116 77.4313 189.4 77.156 189.783 76.932C190.166 76.708 190.646 76.5493 191.225 76.456L193.857 76.022V77.268L191.533 77.674C191.113 77.7486 190.805 77.884 190.609 78.08C190.413 78.2666 190.315 78.5093 190.315 78.808C190.315 79.0973 190.422 79.3353 190.637 79.522C190.861 79.6993 191.146 79.788 191.491 79.788C191.92 79.788 192.294 79.6946 192.611 79.508C192.938 79.3213 193.19 79.074 193.367 78.766C193.544 78.4486 193.633 78.0986 193.633 77.716V75.77C193.633 75.3966 193.493 75.0933 193.213 74.86C192.942 74.6173 192.578 74.496 192.121 74.496C191.701 74.496 191.332 74.608 191.015 74.832C190.707 75.0466 190.478 75.3266 190.329 75.672L189.013 75.014C189.153 74.6406 189.382 74.314 189.699 74.034C190.016 73.7446 190.385 73.5206 190.805 73.362C191.234 73.2033 191.687 73.124 192.163 73.124C192.76 73.124 193.288 73.236 193.745 73.46C194.212 73.684 194.571 73.9966 194.823 74.398C195.084 74.79 195.215 75.2473 195.215 75.77V80.866H193.703V79.494L194.025 79.536C193.848 79.844 193.619 80.11 193.339 80.334C193.068 80.558 192.756 80.7306 192.401 80.852C192.056 80.9733 191.668 81.034 191.239 81.034ZM197.065 83.666V73.292H198.577V74.86L198.395 74.496C198.675 74.0666 199.048 73.7306 199.515 73.488C199.981 73.2453 200.513 73.124 201.111 73.124C201.829 73.124 202.473 73.2966 203.043 73.642C203.621 73.9873 204.074 74.4586 204.401 75.056C204.737 75.6533 204.905 76.3253 204.905 77.072C204.905 77.8186 204.737 78.4906 204.401 79.088C204.074 79.6853 203.626 80.1613 203.057 80.516C202.487 80.8613 201.839 81.034 201.111 81.034C200.523 81.034 199.986 80.9126 199.501 80.67C199.025 80.4273 198.656 80.0773 198.395 79.62L198.647 79.326V83.666H197.065ZM200.957 79.564C201.405 79.564 201.801 79.4566 202.147 79.242C202.492 79.0273 202.763 78.7333 202.959 78.36C203.164 77.9773 203.267 77.548 203.267 77.072C203.267 76.596 203.164 76.1713 202.959 75.798C202.763 75.4246 202.492 75.1306 202.147 74.916C201.801 74.7013 201.405 74.594 200.957 74.594C200.518 74.594 200.121 74.7013 199.767 74.916C199.421 75.1306 199.146 75.4246 198.941 75.798C198.745 76.1713 198.647 76.596 198.647 77.072C198.647 77.548 198.745 77.9773 198.941 78.36C199.146 78.7333 199.421 79.0273 199.767 79.242C200.121 79.4566 200.518 79.564 200.957 79.564ZM206.444 83.666V73.292H207.956V74.86L207.774 74.496C208.054 74.0666 208.427 73.7306 208.894 73.488C209.36 73.2453 209.892 73.124 210.49 73.124C211.208 73.124 211.852 73.2966 212.422 73.642C213 73.9873 213.453 74.4586 213.78 75.056C214.116 75.6533 214.284 76.3253 214.284 77.072C214.284 77.8186 214.116 78.4906 213.78 79.088C213.453 79.6853 213.005 80.1613 212.436 80.516C211.866 80.8613 211.218 81.034 210.49 81.034C209.902 81.034 209.365 80.9126 208.88 80.67C208.404 80.4273 208.035 80.0773 207.774 79.62L208.026 79.326V83.666H206.444ZM210.336 79.564C210.784 79.564 211.18 79.4566 211.526 79.242C211.871 79.0273 212.142 78.7333 212.338 78.36C212.543 77.9773 212.646 77.548 212.646 77.072C212.646 76.596 212.543 76.1713 212.338 75.798C212.142 75.4246 211.871 75.1306 211.526 74.916C211.18 74.7013 210.784 74.594 210.336 74.594C209.897 74.594 209.5 74.7013 209.146 74.916C208.8 75.1306 208.525 75.4246 208.32 75.798C208.124 76.1713 208.026 76.596 208.026 77.072C208.026 77.548 208.124 77.9773 208.32 78.36C208.525 78.7333 208.8 79.0273 209.146 79.242C209.5 79.4566 209.897 79.564 210.336 79.564Z" fill="#298A5A"/>
</svg>
