<svg width="16" height="18" viewBox="0 0 16 18" fill="none" xmlns="http://www.w3.org/2000/svg">
<path d="M0.32132 0.568714C0.117788 0.776733 0 1.1006 0 1.52002V16.4804C0 16.8999 0.117788 17.2237 0.32132 17.4318L0.371554 17.4774L8.95801 9.09748V8.89961L0.371554 0.51967L0.32132 0.568714Z" fill="url(#paint0_linear_2773_15114)"/>
<path d="M11.817 11.8922L8.95801 9.09748V8.8996L11.8204 6.10488L11.8845 6.14124L15.2744 8.0244C16.2419 8.55883 16.2419 9.43825 15.2744 9.97606L11.8845 11.8558L11.817 11.8922Z" fill="url(#paint1_linear_2773_15114)"/>
<path d="M11.8845 11.8559L8.95798 8.99856L0.321289 17.4318C0.64261 17.7616 1.1666 17.8013 1.76247 17.4715L11.8845 11.8559Z" fill="url(#paint2_linear_2773_15114)"/>
<path d="M11.8845 6.14127L1.76247 0.525615C1.1666 0.199212 0.64261 0.238954 0.321289 0.568739L8.95798 8.99857L11.8845 6.14127Z" fill="url(#paint3_linear_2773_15114)"/>
<defs>
<linearGradient id="paint0_linear_2773_15114" x1="8.19564" y1="16.6362" x2="-3.15413" y2="5.01147" gradientUnits="userSpaceOnUse">
<stop stop-color="#00A0FF"/>
<stop offset="0.0066" stop-color="#00A1FF"/>
<stop offset="0.2601" stop-color="#00BEFF"/>
<stop offset="0.5122" stop-color="#00D2FF"/>
<stop offset="0.7604" stop-color="#00DFFF"/>
<stop offset="1" stop-color="#00E3FF"/>
</linearGradient>
<linearGradient id="paint1_linear_2773_15114" x1="16.5342" y1="8.99759" x2="-0.231249" y2="8.99759" gradientUnits="userSpaceOnUse">
<stop stop-color="#FFE000"/>
<stop offset="0.4087" stop-color="#FFBD00"/>
<stop offset="0.7754" stop-color="#FFA500"/>
<stop offset="1" stop-color="#FF9C00"/>
</linearGradient>
<linearGradient id="paint2_linear_2773_15114" x1="10.2931" y1="7.44529" x2="-5.09805" y2="-8.31886" gradientUnits="userSpaceOnUse">
<stop stop-color="#FF3A44"/>
<stop offset="1" stop-color="#C31162"/>
</linearGradient>
<linearGradient id="paint3_linear_2773_15114" x1="-1.85275" y1="22.409" x2="5.02011" y2="15.3697" gradientUnits="userSpaceOnUse">
<stop stop-color="#32A071"/>
<stop offset="0.0685" stop-color="#2DA771"/>
<stop offset="0.4762" stop-color="#15CF74"/>
<stop offset="0.8009" stop-color="#06E775"/>
<stop offset="1" stop-color="#00F076"/>
</linearGradient>
</defs>
</svg>
