<svg width="617" height="616" viewBox="0 0 617 616" fill="none" xmlns="http://www.w3.org/2000/svg">
<path d="M3.456 50V14.24H9.984V50H3.456ZM28.2383 50.288C25.2943 50.288 23.0063 49.488 21.3743 47.888C19.7743 46.256 18.9743 43.968 18.9743 41.024V29.504H14.4623V23.888H14.9423C16.2223 23.888 17.2143 23.552 17.9183 22.88C18.6223 22.208 18.9743 21.232 18.9743 19.952V17.936H25.2623V23.888H31.2623V29.504H25.2623V40.688C25.2623 41.552 25.4063 42.288 25.6943 42.896C26.0143 43.504 26.4943 43.968 27.1343 44.288C27.8063 44.608 28.6543 44.768 29.6783 44.768C29.9023 44.768 30.1583 44.752 30.4463 44.72C30.7663 44.688 31.0703 44.656 31.3583 44.624V50C30.9103 50.064 30.3983 50.128 29.8223 50.192C29.2463 50.256 28.7183 50.288 28.2383 50.288ZM56.5976 50.288C53.6536 50.288 51.3656 49.488 49.7336 47.888C48.1336 46.256 47.3336 43.968 47.3336 41.024V29.504H42.8216V23.888H43.3016C44.5816 23.888 45.5736 23.552 46.2776 22.88C46.9816 22.208 47.3336 21.232 47.3336 19.952V17.936H53.6216V23.888H59.6216V29.504H53.6216V40.688C53.6216 41.552 53.7656 42.288 54.0536 42.896C54.3736 43.504 54.8536 43.968 55.4936 44.288C56.1656 44.608 57.0136 44.768 58.0376 44.768C58.2616 44.768 58.5176 44.752 58.8056 44.72C59.1256 44.688 59.4296 44.656 59.7176 44.624V50C59.2696 50.064 58.7576 50.128 58.1816 50.192C57.6056 50.256 57.0776 50.288 56.5976 50.288ZM72.348 50.576C70.524 50.576 68.94 50.272 67.596 49.664C66.252 49.056 65.212 48.192 64.476 47.072C63.74 45.92 63.372 44.592 63.372 43.088C63.372 41.648 63.692 40.368 64.332 39.248C64.972 38.096 65.964 37.136 67.308 36.368C68.652 35.6 70.348 35.056 72.396 34.736L80.94 33.344V38.144L73.596 39.392C72.348 39.616 71.42 40.016 70.812 40.592C70.204 41.168 69.9 41.92 69.9 42.848C69.9 43.744 70.236 44.464 70.908 45.008C71.612 45.52 72.476 45.776 73.5 45.776C74.812 45.776 75.964 45.504 76.956 44.96C77.98 44.384 78.764 43.6 79.308 42.608C79.884 41.616 80.172 40.528 80.172 39.344V32.624C80.172 31.504 79.724 30.576 78.828 29.84C77.964 29.072 76.812 28.688 75.372 28.688C74.028 28.688 72.828 29.056 71.772 29.792C70.748 30.496 69.996 31.44 69.516 32.624L64.38 30.128C64.892 28.752 65.692 27.568 66.78 26.576C67.9 25.552 69.212 24.752 70.716 24.176C72.22 23.6 73.852 23.312 75.612 23.312C77.756 23.312 79.644 23.712 81.276 24.512C82.908 25.28 84.172 26.368 85.068 27.776C85.996 29.152 86.46 30.768 86.46 32.624V50H80.508V45.536L81.852 45.44C81.18 46.56 80.38 47.504 79.452 48.272C78.524 49.008 77.468 49.584 76.284 50C75.1 50.384 73.788 50.576 72.348 50.576ZM92.2718 50V13.664H98.5598V37.472L96.1598 36.752L108.448 23.888H116.272L106.624 34.4L116.464 50H109.264L100.72 36.464L104.464 35.696L96.5918 44.144L98.5598 40.304V50H92.2718ZM131.89 50.576C129.202 50.576 126.85 49.968 124.834 48.752C122.818 47.536 121.25 45.888 120.13 43.808C119.01 41.728 118.45 39.424 118.45 36.896C118.45 34.272 119.01 31.952 120.13 29.936C121.282 27.888 122.834 26.272 124.786 25.088C126.77 23.904 128.978 23.312 131.41 23.312C133.458 23.312 135.25 23.648 136.786 24.32C138.354 24.992 139.682 25.92 140.77 27.104C141.858 28.288 142.69 29.648 143.266 31.184C143.842 32.688 144.13 34.32 144.13 36.08C144.13 36.528 144.098 36.992 144.034 37.472C144.002 37.952 143.922 38.368 143.794 38.72H123.634V33.92H140.242L137.266 36.176C137.554 34.704 137.474 33.392 137.026 32.24C136.61 31.088 135.906 30.176 134.914 29.504C133.954 28.832 132.786 28.496 131.41 28.496C130.098 28.496 128.93 28.832 127.906 29.504C126.882 30.144 126.098 31.104 125.554 32.384C125.042 33.632 124.85 35.152 124.978 36.944C124.85 38.544 125.058 39.968 125.602 41.216C126.178 42.432 127.01 43.376 128.098 44.048C129.218 44.72 130.498 45.056 131.938 45.056C133.378 45.056 134.594 44.752 135.586 44.144C136.61 43.536 137.41 42.72 137.986 41.696L143.074 44.192C142.562 45.44 141.762 46.544 140.674 47.504C139.586 48.464 138.29 49.216 136.786 49.76C135.314 50.304 133.682 50.576 131.89 50.576ZM158.833 50.576C156.049 50.576 153.617 49.92 151.537 48.608C149.489 47.264 148.081 45.456 147.313 43.184L152.017 40.928C152.689 42.4 153.617 43.552 154.801 44.384C156.017 45.216 157.361 45.632 158.833 45.632C159.985 45.632 160.897 45.376 161.569 44.864C162.241 44.352 162.577 43.68 162.577 42.848C162.577 42.336 162.433 41.92 162.145 41.6C161.889 41.248 161.521 40.96 161.041 40.736C160.593 40.48 160.097 40.272 159.553 40.112L155.281 38.912C153.073 38.272 151.393 37.296 150.241 35.984C149.121 34.672 148.561 33.12 148.561 31.328C148.561 29.728 148.961 28.336 149.761 27.152C150.593 25.936 151.729 24.992 153.169 24.32C154.641 23.648 156.321 23.312 158.209 23.312C160.673 23.312 162.849 23.904 164.737 25.088C166.625 26.272 167.969 27.936 168.769 30.08L163.969 32.336C163.521 31.152 162.769 30.208 161.713 29.504C160.657 28.8 159.473 28.448 158.161 28.448C157.105 28.448 156.273 28.688 155.665 29.168C155.057 29.648 154.753 30.272 154.753 31.04C154.753 31.52 154.881 31.936 155.137 32.288C155.393 32.64 155.745 32.928 156.193 33.152C156.673 33.376 157.217 33.584 157.825 33.776L162.001 35.024C164.145 35.664 165.793 36.624 166.945 37.904C168.129 39.184 168.721 40.752 168.721 42.608C168.721 44.176 168.305 45.568 167.473 46.784C166.641 47.968 165.489 48.896 164.017 49.568C162.545 50.24 160.817 50.576 158.833 50.576ZM178.484 60.608C178.068 60.608 177.636 60.592 177.188 60.56C176.74 60.528 176.372 60.48 176.084 60.416V54.944C176.66 55.04 177.236 55.088 177.812 55.088C179.156 55.088 180.196 54.768 180.932 54.128C181.7 53.52 182.084 52.576 182.084 51.296V23.888H188.372V51.296C188.372 53.28 187.972 54.96 187.172 56.336C186.372 57.744 185.22 58.8 183.716 59.504C182.244 60.24 180.5 60.608 178.484 60.608ZM182.084 20.96V14.24H188.372V20.96H182.084ZM203.49 50.576C201.474 50.576 199.714 50.128 198.21 49.232C196.738 48.336 195.602 47.088 194.802 45.488C194.034 43.888 193.65 42.016 193.65 39.872V23.888H199.938V39.344C199.938 40.432 200.146 41.392 200.562 42.224C201.01 43.024 201.634 43.664 202.434 44.144C203.266 44.592 204.194 44.816 205.218 44.816C206.242 44.816 207.154 44.592 207.954 44.144C208.754 43.664 209.378 43.008 209.826 42.176C210.274 41.344 210.498 40.352 210.498 39.2V23.888H216.786V50H210.834V44.864L211.362 45.776C210.754 47.376 209.746 48.576 208.338 49.376C206.962 50.176 205.346 50.576 203.49 50.576ZM232.567 50.576C229.783 50.576 227.351 49.92 225.271 48.608C223.223 47.264 221.815 45.456 221.047 43.184L225.751 40.928C226.423 42.4 227.351 43.552 228.535 44.384C229.751 45.216 231.095 45.632 232.567 45.632C233.719 45.632 234.631 45.376 235.303 44.864C235.975 44.352 236.311 43.68 236.311 42.848C236.311 42.336 236.167 41.92 235.879 41.6C235.623 41.248 235.255 40.96 234.775 40.736C234.327 40.48 233.831 40.272 233.287 40.112L229.015 38.912C226.807 38.272 225.127 37.296 223.975 35.984C222.855 34.672 222.295 33.12 222.295 31.328C222.295 29.728 222.695 28.336 223.495 27.152C224.327 25.936 225.463 24.992 226.903 24.32C228.375 23.648 230.055 23.312 231.943 23.312C234.407 23.312 236.583 23.904 238.471 25.088C240.359 26.272 241.703 27.936 242.503 30.08L237.703 32.336C237.255 31.152 236.503 30.208 235.447 29.504C234.391 28.8 233.207 28.448 231.895 28.448C230.839 28.448 230.007 28.688 229.399 29.168C228.791 29.648 228.487 30.272 228.487 31.04C228.487 31.52 228.615 31.936 228.871 32.288C229.127 32.64 229.479 32.928 229.927 33.152C230.407 33.376 230.951 33.584 231.559 33.776L235.735 35.024C237.879 35.664 239.527 36.624 240.679 37.904C241.863 39.184 242.455 40.752 242.455 42.608C242.455 44.176 242.039 45.568 241.207 46.784C240.375 47.968 239.223 48.896 237.751 49.568C236.279 50.24 234.551 50.576 232.567 50.576ZM259.191 50.288C256.247 50.288 253.959 49.488 252.327 47.888C250.727 46.256 249.927 43.968 249.927 41.024V29.504H245.415V23.888H245.895C247.175 23.888 248.167 23.552 248.871 22.88C249.575 22.208 249.927 21.232 249.927 19.952V17.936H256.215V23.888H262.215V29.504H256.215V40.688C256.215 41.552 256.359 42.288 256.647 42.896C256.967 43.504 257.447 43.968 258.087 44.288C258.759 44.608 259.607 44.768 260.631 44.768C260.855 44.768 261.111 44.752 261.399 44.72C261.719 44.688 262.023 44.656 262.311 44.624V50C261.863 50.064 261.351 50.128 260.775 50.192C260.199 50.256 259.671 50.288 259.191 50.288ZM286.783 50.576C284.831 50.576 282.975 50.224 281.215 49.52C279.487 48.784 277.999 47.76 276.751 46.448C275.535 45.104 274.703 43.52 274.255 41.696L279.967 39.68C280.543 41.312 281.423 42.56 282.607 43.424C283.791 44.256 285.183 44.672 286.783 44.672C288.063 44.672 289.167 44.432 290.095 43.952C291.055 43.472 291.807 42.784 292.351 41.888C292.895 40.96 293.167 39.872 293.167 38.624C293.167 37.376 292.895 36.32 292.351 35.456C291.839 34.56 291.103 33.872 290.143 33.392C289.183 32.912 288.047 32.672 286.735 32.672C286.127 32.672 285.487 32.736 284.815 32.864C284.175 32.992 283.599 33.184 283.087 33.44L281.599 30.32L290.863 19.76H276.271V14.24H298.207V19.376L288.895 30.272L288.991 27.824C291.135 27.856 293.007 28.32 294.607 29.216C296.207 30.112 297.455 31.344 298.351 32.912C299.247 34.48 299.695 36.32 299.695 38.432C299.695 40.736 299.135 42.816 298.015 44.672C296.895 46.496 295.359 47.936 293.407 48.992C291.455 50.048 289.247 50.576 286.783 50.576ZM323.458 50.576C320.674 50.576 318.242 49.92 316.162 48.608C314.114 47.264 312.706 45.456 311.938 43.184L316.642 40.928C317.314 42.4 318.242 43.552 319.426 44.384C320.642 45.216 321.986 45.632 323.458 45.632C324.61 45.632 325.522 45.376 326.194 44.864C326.866 44.352 327.202 43.68 327.202 42.848C327.202 42.336 327.058 41.92 326.77 41.6C326.514 41.248 326.146 40.96 325.666 40.736C325.218 40.48 324.722 40.272 324.178 40.112L319.906 38.912C317.698 38.272 316.018 37.296 314.866 35.984C313.746 34.672 313.186 33.12 313.186 31.328C313.186 29.728 313.586 28.336 314.386 27.152C315.218 25.936 316.354 24.992 317.794 24.32C319.266 23.648 320.946 23.312 322.834 23.312C325.298 23.312 327.474 23.904 329.362 25.088C331.25 26.272 332.594 27.936 333.394 30.08L328.594 32.336C328.146 31.152 327.394 30.208 326.338 29.504C325.282 28.8 324.098 28.448 322.786 28.448C321.73 28.448 320.898 28.688 320.29 29.168C319.682 29.648 319.378 30.272 319.378 31.04C319.378 31.52 319.506 31.936 319.762 32.288C320.018 32.64 320.37 32.928 320.818 33.152C321.298 33.376 321.842 33.584 322.45 33.776L326.626 35.024C328.77 35.664 330.418 36.624 331.57 37.904C332.754 39.184 333.346 40.752 333.346 42.608C333.346 44.176 332.93 45.568 332.098 46.784C331.266 47.968 330.114 48.896 328.642 49.568C327.17 50.24 325.442 50.576 323.458 50.576ZM338.178 50V23.888H344.466V50H338.178ZM338.178 20.96V14.24H344.466V20.96H338.178ZM350.272 50V23.888H356.176V29.936L355.504 28.928C355.984 27.04 356.944 25.632 358.384 24.704C359.824 23.776 361.52 23.312 363.472 23.312C365.616 23.312 367.504 23.872 369.136 24.992C370.768 26.112 371.824 27.584 372.304 29.408L370.528 29.552C371.328 27.472 372.528 25.92 374.128 24.896C375.728 23.84 377.568 23.312 379.648 23.312C381.504 23.312 383.152 23.728 384.592 24.56C386.064 25.392 387.216 26.56 388.048 28.064C388.88 29.536 389.296 31.248 389.296 33.2V50H383.008V34.688C383.008 33.536 382.8 32.544 382.384 31.712C381.968 30.88 381.392 30.24 380.656 29.792C379.92 29.312 379.024 29.072 377.968 29.072C376.976 29.072 376.096 29.312 375.328 29.792C374.56 30.24 373.968 30.88 373.552 31.712C373.136 32.544 372.928 33.536 372.928 34.688V50H366.64V34.688C366.64 33.536 366.432 32.544 366.016 31.712C365.6 30.88 365.008 30.24 364.24 29.792C363.504 29.312 362.624 29.072 361.6 29.072C360.608 29.072 359.728 29.312 358.96 29.792C358.192 30.24 357.6 30.88 357.184 31.712C356.768 32.544 356.56 33.536 356.56 34.688V50H350.272ZM394.616 59.6V23.888H400.52V29.072L399.944 27.776C400.84 26.368 402.056 25.28 403.592 24.512C405.128 23.712 406.904 23.312 408.92 23.312C411.384 23.312 413.608 23.92 415.592 25.136C417.576 26.352 419.144 27.984 420.296 30.032C421.48 32.08 422.072 34.384 422.072 36.944C422.072 39.472 421.496 41.776 420.344 43.856C419.192 45.936 417.624 47.584 415.64 48.8C413.656 49.984 411.4 50.576 408.872 50.576C406.984 50.576 405.24 50.208 403.64 49.472C402.072 48.704 400.824 47.616 399.896 46.208L400.904 44.96V59.6H394.616ZM408.152 44.816C409.592 44.816 410.872 44.48 411.992 43.808C413.112 43.136 413.976 42.208 414.584 41.024C415.224 39.84 415.544 38.48 415.544 36.944C415.544 35.408 415.224 34.064 414.584 32.912C413.976 31.728 413.112 30.8 411.992 30.128C410.872 29.424 409.592 29.072 408.152 29.072C406.776 29.072 405.528 29.408 404.408 30.08C403.32 30.752 402.456 31.696 401.816 32.912C401.208 34.096 400.904 35.44 400.904 36.944C400.904 38.48 401.208 39.84 401.816 41.024C402.456 42.208 403.32 43.136 404.408 43.808C405.528 44.48 406.776 44.816 408.152 44.816ZM426.866 50V13.664H433.154V50H426.866ZM451.343 50.576C448.655 50.576 446.303 49.968 444.287 48.752C442.271 47.536 440.703 45.888 439.583 43.808C438.463 41.728 437.903 39.424 437.903 36.896C437.903 34.272 438.463 31.952 439.583 29.936C440.735 27.888 442.287 26.272 444.239 25.088C446.223 23.904 448.431 23.312 450.863 23.312C452.911 23.312 454.703 23.648 456.239 24.32C457.807 24.992 459.135 25.92 460.223 27.104C461.311 28.288 462.143 29.648 462.719 31.184C463.295 32.688 463.583 34.32 463.583 36.08C463.583 36.528 463.551 36.992 463.487 37.472C463.455 37.952 463.375 38.368 463.247 38.72H443.087V33.92H459.695L456.719 36.176C457.007 34.704 456.927 33.392 456.479 32.24C456.063 31.088 455.359 30.176 454.367 29.504C453.407 28.832 452.239 28.496 450.863 28.496C449.551 28.496 448.383 28.832 447.359 29.504C446.335 30.144 445.551 31.104 445.007 32.384C444.495 33.632 444.303 35.152 444.431 36.944C444.303 38.544 444.511 39.968 445.055 41.216C445.631 42.432 446.463 43.376 447.551 44.048C448.671 44.72 449.951 45.056 451.391 45.056C452.831 45.056 454.047 44.752 455.039 44.144C456.063 43.536 456.863 42.72 457.439 41.696L462.527 44.192C462.015 45.44 461.215 46.544 460.127 47.504C459.039 48.464 457.743 49.216 456.239 49.76C454.767 50.304 453.135 50.576 451.343 50.576ZM486.817 50.576C484.033 50.576 481.601 49.92 479.521 48.608C477.473 47.264 476.065 45.456 475.297 43.184L480.001 40.928C480.673 42.4 481.601 43.552 482.785 44.384C484.001 45.216 485.345 45.632 486.817 45.632C487.969 45.632 488.881 45.376 489.553 44.864C490.225 44.352 490.561 43.68 490.561 42.848C490.561 42.336 490.417 41.92 490.129 41.6C489.873 41.248 489.505 40.96 489.025 40.736C488.577 40.48 488.081 40.272 487.537 40.112L483.265 38.912C481.057 38.272 479.377 37.296 478.225 35.984C477.105 34.672 476.545 33.12 476.545 31.328C476.545 29.728 476.945 28.336 477.745 27.152C478.577 25.936 479.713 24.992 481.153 24.32C482.625 23.648 484.305 23.312 486.193 23.312C488.657 23.312 490.833 23.904 492.721 25.088C494.609 26.272 495.953 27.936 496.753 30.08L491.953 32.336C491.505 31.152 490.753 30.208 489.697 29.504C488.641 28.8 487.457 28.448 486.145 28.448C485.089 28.448 484.257 28.688 483.649 29.168C483.041 29.648 482.737 30.272 482.737 31.04C482.737 31.52 482.865 31.936 483.121 32.288C483.377 32.64 483.729 32.928 484.177 33.152C484.657 33.376 485.201 33.584 485.809 33.776L489.985 35.024C492.129 35.664 493.777 36.624 494.929 37.904C496.113 39.184 496.705 40.752 496.705 42.608C496.705 44.176 496.289 45.568 495.457 46.784C494.625 47.968 493.473 48.896 492.001 49.568C490.529 50.24 488.801 50.576 486.817 50.576ZM513.441 50.288C510.497 50.288 508.209 49.488 506.577 47.888C504.977 46.256 504.177 43.968 504.177 41.024V29.504H499.665V23.888H500.145C501.425 23.888 502.417 23.552 503.121 22.88C503.825 22.208 504.177 21.232 504.177 19.952V17.936H510.465V23.888H516.465V29.504H510.465V40.688C510.465 41.552 510.609 42.288 510.897 42.896C511.217 43.504 511.697 43.968 512.337 44.288C513.009 44.608 513.857 44.768 514.881 44.768C515.105 44.768 515.361 44.752 515.649 44.72C515.969 44.688 516.273 44.656 516.561 44.624V50C516.113 50.064 515.601 50.128 515.025 50.192C514.449 50.256 513.921 50.288 513.441 50.288ZM533.515 50.576C530.827 50.576 528.475 49.968 526.459 48.752C524.443 47.536 522.875 45.888 521.755 43.808C520.635 41.728 520.075 39.424 520.075 36.896C520.075 34.272 520.635 31.952 521.755 29.936C522.907 27.888 524.459 26.272 526.411 25.088C528.395 23.904 530.603 23.312 533.035 23.312C535.083 23.312 536.875 23.648 538.411 24.32C539.979 24.992 541.307 25.92 542.395 27.104C543.483 28.288 544.315 29.648 544.891 31.184C545.467 32.688 545.755 34.32 545.755 36.08C545.755 36.528 545.723 36.992 545.659 37.472C545.627 37.952 545.547 38.368 545.419 38.72H525.259V33.92H541.867L538.891 36.176C539.179 34.704 539.099 33.392 538.651 32.24C538.235 31.088 537.531 30.176 536.539 29.504C535.579 28.832 534.411 28.496 533.035 28.496C531.723 28.496 530.555 28.832 529.531 29.504C528.507 30.144 527.723 31.104 527.179 32.384C526.667 33.632 526.475 35.152 526.603 36.944C526.475 38.544 526.683 39.968 527.227 41.216C527.803 42.432 528.635 43.376 529.723 44.048C530.843 44.72 532.123 45.056 533.563 45.056C535.003 45.056 536.219 44.752 537.211 44.144C538.235 43.536 539.035 42.72 539.611 41.696L544.699 44.192C544.187 45.44 543.387 46.544 542.299 47.504C541.211 48.464 539.915 49.216 538.411 49.76C536.939 50.304 535.307 50.576 533.515 50.576ZM550.522 59.6V23.888H556.426V29.072L555.85 27.776C556.746 26.368 557.962 25.28 559.498 24.512C561.034 23.712 562.81 23.312 564.826 23.312C567.29 23.312 569.514 23.92 571.498 25.136C573.482 26.352 575.05 27.984 576.202 30.032C577.386 32.08 577.978 34.384 577.978 36.944C577.978 39.472 577.402 41.776 576.25 43.856C575.098 45.936 573.53 47.584 571.546 48.8C569.562 49.984 567.306 50.576 564.778 50.576C562.89 50.576 561.146 50.208 559.546 49.472C557.978 48.704 556.73 47.616 555.802 46.208L556.81 44.96V59.6H550.522ZM564.058 44.816C565.498 44.816 566.778 44.48 567.898 43.808C569.018 43.136 569.882 42.208 570.49 41.024C571.13 39.84 571.45 38.48 571.45 36.944C571.45 35.408 571.13 34.064 570.49 32.912C569.882 31.728 569.018 30.8 567.898 30.128C566.778 29.424 565.498 29.072 564.058 29.072C562.682 29.072 561.434 29.408 560.314 30.08C559.226 30.752 558.362 31.696 557.722 32.912C557.114 34.096 556.81 35.44 556.81 36.944C556.81 38.48 557.114 39.84 557.722 41.024C558.362 42.208 559.226 43.136 560.314 43.808C561.434 44.48 562.682 44.816 564.058 44.816ZM592.708 50.576C589.924 50.576 587.492 49.92 585.412 48.608C583.364 47.264 581.956 45.456 581.188 43.184L585.892 40.928C586.564 42.4 587.492 43.552 588.676 44.384C589.892 45.216 591.236 45.632 592.708 45.632C593.86 45.632 594.772 45.376 595.444 44.864C596.116 44.352 596.452 43.68 596.452 42.848C596.452 42.336 596.308 41.92 596.02 41.6C595.764 41.248 595.396 40.96 594.916 40.736C594.468 40.48 593.972 40.272 593.428 40.112L589.156 38.912C586.948 38.272 585.268 37.296 584.116 35.984C582.996 34.672 582.436 33.12 582.436 31.328C582.436 29.728 582.836 28.336 583.636 27.152C584.468 25.936 585.604 24.992 587.044 24.32C588.516 23.648 590.196 23.312 592.084 23.312C594.548 23.312 596.724 23.904 598.612 25.088C600.5 26.272 601.844 27.936 602.644 30.08L597.844 32.336C597.396 31.152 596.644 30.208 595.588 29.504C594.532 28.8 593.348 28.448 592.036 28.448C590.98 28.448 590.148 28.688 589.54 29.168C588.932 29.648 588.628 30.272 588.628 31.04C588.628 31.52 588.756 31.936 589.012 32.288C589.268 32.64 589.62 32.928 590.068 33.152C590.548 33.376 591.092 33.584 591.7 33.776L595.876 35.024C598.02 35.664 599.668 36.624 600.82 37.904C602.004 39.184 602.596 40.752 602.596 42.608C602.596 44.176 602.18 45.568 601.348 46.784C600.516 47.968 599.364 48.896 597.892 49.568C596.42 50.24 594.692 50.576 592.708 50.576Z" fill="#191717"/>
<path d="M13.4285 125.384C11.5298 125.384 9.86583 124.872 8.4365 123.848C7.0285 122.803 5.92983 121.363 5.1405 119.528C4.35117 117.672 3.9565 115.517 3.9565 113.064C3.9565 110.611 4.35117 108.467 5.1405 106.632C5.92983 104.776 7.0285 103.336 8.4365 102.312C9.8445 101.288 11.4978 100.776 13.3965 100.776C15.2952 100.776 16.9485 101.288 18.3565 102.312C19.7645 103.336 20.8632 104.776 21.6525 106.632C22.4632 108.467 22.8685 110.611 22.8685 113.064C22.8685 115.517 22.4738 117.672 21.6845 119.528C20.8952 121.384 19.7858 122.824 18.3565 123.848C16.9485 124.872 15.3058 125.384 13.4285 125.384ZM13.4285 122.472C14.7085 122.472 15.8178 122.088 16.7565 121.32C17.6952 120.531 18.4205 119.432 18.9325 118.024C19.4658 116.616 19.7325 114.963 19.7325 113.064C19.7325 111.165 19.4658 109.512 18.9325 108.104C18.4205 106.696 17.6845 105.608 16.7245 104.84C15.7858 104.072 14.6765 103.688 13.3965 103.688C12.1165 103.688 11.0072 104.072 10.0685 104.84C9.12983 105.608 8.39383 106.696 7.8605 108.104C7.3485 109.512 7.0925 111.165 7.0925 113.064C7.0925 114.941 7.3485 116.584 7.8605 117.992C8.39383 119.4 9.12983 120.499 10.0685 121.288C11.0285 122.077 12.1485 122.472 13.4285 122.472ZM30.6648 125V103.88H26.1528V101.16H33.8328V125H30.6648Z" fill="#191717"/>
<path d="M61.656 125V101.16H69.464C71.8747 101.16 73.976 101.651 75.768 102.632C77.56 103.613 78.9467 105 79.928 106.792C80.9093 108.563 81.4 110.653 81.4 113.064C81.4 115.453 80.9093 117.544 79.928 119.336C78.9467 121.128 77.56 122.525 75.768 123.528C73.976 124.509 71.8747 125 69.464 125H61.656ZM64.792 122.12H69.496C71.2667 122.12 72.792 121.747 74.072 121C75.3733 120.253 76.376 119.208 77.08 117.864C77.784 116.499 78.136 114.899 78.136 113.064C78.136 111.208 77.7733 109.608 77.048 108.264C76.344 106.92 75.3413 105.885 74.04 105.16C72.76 104.413 71.2453 104.04 69.496 104.04H64.792V122.12ZM93.2148 125.384C91.5508 125.384 90.0468 125 88.7028 124.232C87.3588 123.443 86.2921 122.365 85.5028 121C84.7134 119.635 84.3188 118.088 84.3188 116.36C84.3188 114.632 84.7028 113.096 85.4708 111.752C86.2601 110.408 87.3268 109.341 88.6708 108.552C90.0148 107.763 91.5294 107.368 93.2148 107.368C94.8788 107.368 96.3828 107.763 97.7268 108.552C99.0708 109.32 100.127 110.376 100.895 111.72C101.684 113.064 102.079 114.611 102.079 116.36C102.079 118.109 101.673 119.667 100.863 121.032C100.052 122.376 98.9748 123.443 97.6308 124.232C96.3081 125 94.8361 125.384 93.2148 125.384ZM93.2148 122.504C94.2814 122.504 95.2414 122.237 96.0948 121.704C96.9694 121.171 97.6521 120.435 98.1428 119.496C98.6548 118.557 98.9108 117.512 98.9108 116.36C98.9108 115.187 98.6548 114.152 98.1428 113.256C97.6521 112.339 96.9694 111.613 96.0948 111.08C95.2414 110.525 94.2814 110.248 93.2148 110.248C92.1268 110.248 91.1454 110.525 90.2708 111.08C89.4174 111.613 88.7348 112.339 88.2228 113.256C87.7108 114.152 87.4548 115.187 87.4548 116.36C87.4548 117.512 87.7108 118.557 88.2228 119.496C88.7348 120.435 89.4174 121.171 90.2708 121.704C91.1454 122.237 92.1268 122.504 93.2148 122.504ZM109.616 125L103.696 107.752H106.992L111.696 122.184L110.544 122.152L115.152 107.752H117.968L122.576 122.152L121.424 122.184L126.16 107.752H129.424L123.504 125H120.656L116.112 110.6H117.008L112.464 125H109.616ZM132.085 125V107.752H134.997V111.112L134.517 110.824C134.944 109.736 135.627 108.893 136.565 108.296C137.525 107.677 138.645 107.368 139.925 107.368C141.163 107.368 142.261 107.645 143.221 108.2C144.203 108.755 144.971 109.523 145.525 110.504C146.101 111.485 146.389 112.595 146.389 113.832V125H143.381V114.792C143.381 113.832 143.211 113.021 142.869 112.36C142.528 111.699 142.037 111.187 141.397 110.824C140.779 110.44 140.064 110.248 139.253 110.248C138.443 110.248 137.717 110.44 137.077 110.824C136.459 111.187 135.968 111.709 135.605 112.392C135.243 113.053 135.061 113.853 135.061 114.792V125H132.085ZM150.648 125V100.776H153.624V125H150.648ZM166.434 125.384C164.77 125.384 163.266 125 161.922 124.232C160.578 123.443 159.511 122.365 158.722 121C157.932 119.635 157.538 118.088 157.538 116.36C157.538 114.632 157.922 113.096 158.69 111.752C159.479 110.408 160.546 109.341 161.89 108.552C163.234 107.763 164.748 107.368 166.434 107.368C168.098 107.368 169.602 107.763 170.946 108.552C172.29 109.32 173.346 110.376 174.114 111.72C174.903 113.064 175.298 114.611 175.298 116.36C175.298 118.109 174.892 119.667 174.082 121.032C173.271 122.376 172.194 123.443 170.85 124.232C169.527 125 168.055 125.384 166.434 125.384ZM166.434 122.504C167.5 122.504 168.46 122.237 169.314 121.704C170.188 121.171 170.871 120.435 171.362 119.496C171.874 118.557 172.13 117.512 172.13 116.36C172.13 115.187 171.874 114.152 171.362 113.256C170.871 112.339 170.188 111.613 169.314 111.08C168.46 110.525 167.5 110.248 166.434 110.248C165.346 110.248 164.364 110.525 163.49 111.08C162.636 111.613 161.954 112.339 161.442 113.256C160.93 114.152 160.674 115.187 160.674 116.36C160.674 117.512 160.93 118.557 161.442 119.496C161.954 120.435 162.636 121.171 163.49 121.704C164.364 122.237 165.346 122.504 166.434 122.504ZM184.235 125.384C183.104 125.384 182.102 125.181 181.227 124.776C180.374 124.349 179.702 123.773 179.211 123.048C178.72 122.301 178.475 121.448 178.475 120.488C178.475 119.571 178.667 118.749 179.051 118.024C179.456 117.277 180.075 116.648 180.907 116.136C181.76 115.624 182.827 115.261 184.107 115.048L190.507 113.992V116.488L184.779 117.448C183.67 117.64 182.859 117.992 182.347 118.504C181.856 119.016 181.611 119.645 181.611 120.392C181.611 121.096 181.888 121.683 182.443 122.152C183.019 122.621 183.734 122.856 184.587 122.856C185.675 122.856 186.614 122.632 187.403 122.184C188.214 121.715 188.843 121.085 189.291 120.296C189.76 119.507 189.995 118.632 189.995 117.672V113.288C189.995 112.349 189.643 111.592 188.939 111.016C188.256 110.419 187.35 110.12 186.219 110.12C185.238 110.12 184.363 110.376 183.595 110.888C182.848 111.379 182.294 112.04 181.931 112.872L179.339 111.528C179.659 110.739 180.171 110.035 180.875 109.416C181.579 108.776 182.4 108.275 183.339 107.912C184.278 107.549 185.259 107.368 186.283 107.368C187.606 107.368 188.768 107.624 189.771 108.136C190.774 108.627 191.552 109.32 192.107 110.216C192.683 111.091 192.971 112.115 192.971 113.288V125H190.059V121.736L190.603 121.928C190.24 122.611 189.75 123.208 189.131 123.72C188.512 124.232 187.787 124.637 186.955 124.936C186.123 125.235 185.216 125.384 184.235 125.384ZM205.425 125.384C203.804 125.384 202.343 124.989 201.041 124.2C199.761 123.411 198.748 122.333 198.001 120.968C197.255 119.603 196.881 118.077 196.881 116.392C196.881 114.664 197.255 113.128 198.001 111.784C198.748 110.419 199.761 109.341 201.041 108.552C202.343 107.763 203.804 107.368 205.425 107.368C206.855 107.368 208.124 107.677 209.233 108.296C210.343 108.893 211.217 109.704 211.857 110.728L211.377 111.464V100.776H214.385V125H211.473V121.32L211.857 121.832C211.26 122.963 210.385 123.837 209.233 124.456C208.103 125.075 206.833 125.384 205.425 125.384ZM205.681 122.504C206.769 122.504 207.74 122.237 208.593 121.704C209.447 121.171 210.119 120.445 210.609 119.528C211.121 118.589 211.377 117.544 211.377 116.392C211.377 115.219 211.121 114.173 210.609 113.256C210.119 112.317 209.447 111.581 208.593 111.048C207.74 110.515 206.769 110.248 205.681 110.248C204.615 110.248 203.644 110.525 202.769 111.08C201.916 111.613 201.244 112.339 200.753 113.256C200.263 114.152 200.017 115.197 200.017 116.392C200.017 117.544 200.263 118.589 200.753 119.528C201.244 120.445 201.916 121.171 202.769 121.704C203.623 122.237 204.593 122.504 205.681 122.504ZM231.531 125.192C229.845 125.192 228.544 124.712 227.627 123.752C226.731 122.792 226.283 121.437 226.283 119.688V110.6H223.147V107.752H223.787C224.555 107.752 225.163 107.517 225.611 107.048C226.059 106.579 226.283 105.96 226.283 105.192V103.784H229.259V107.752H233.131V110.6H229.259V119.592C229.259 120.168 229.344 120.669 229.515 121.096C229.707 121.523 230.016 121.864 230.443 122.12C230.869 122.355 231.435 122.472 232.139 122.472C232.288 122.472 232.469 122.461 232.683 122.44C232.917 122.419 233.131 122.397 233.323 122.376V125C233.045 125.064 232.736 125.107 232.395 125.128C232.053 125.171 231.765 125.192 231.531 125.192ZM237.21 125V100.776H240.186V111.112L239.642 110.824C240.069 109.736 240.752 108.893 241.69 108.296C242.65 107.677 243.77 107.368 245.05 107.368C246.288 107.368 247.386 107.645 248.346 108.2C249.328 108.755 250.096 109.523 250.65 110.504C251.226 111.485 251.514 112.595 251.514 113.832V125H248.506V114.792C248.506 113.832 248.325 113.021 247.962 112.36C247.621 111.699 247.141 111.187 246.522 110.824C245.904 110.44 245.189 110.248 244.378 110.248C243.589 110.248 242.874 110.44 242.234 110.824C241.594 111.187 241.093 111.709 240.73 112.392C240.368 113.053 240.186 113.853 240.186 114.792V125H237.21ZM263.709 125.384C262.045 125.384 260.562 124.989 259.261 124.2C257.959 123.411 256.935 122.333 256.189 120.968C255.442 119.581 255.069 118.035 255.069 116.328C255.069 114.6 255.431 113.064 256.157 111.72C256.903 110.376 257.906 109.32 259.165 108.552C260.445 107.763 261.874 107.368 263.453 107.368C264.733 107.368 265.863 107.603 266.845 108.072C267.847 108.52 268.69 109.139 269.373 109.928C270.077 110.696 270.61 111.581 270.973 112.584C271.357 113.565 271.549 114.589 271.549 115.656C271.549 115.891 271.527 116.157 271.485 116.456C271.463 116.733 271.431 117 271.389 117.256H257.245V114.696H269.661L268.253 115.848C268.445 114.739 268.338 113.747 267.933 112.872C267.527 111.997 266.93 111.304 266.141 110.792C265.351 110.28 264.455 110.024 263.453 110.024C262.45 110.024 261.533 110.28 260.701 110.792C259.869 111.304 259.218 112.04 258.749 113C258.301 113.939 258.119 115.059 258.205 116.36C258.119 117.619 258.311 118.728 258.781 119.688C259.271 120.627 259.954 121.363 260.829 121.896C261.725 122.408 262.695 122.664 263.741 122.664C264.893 122.664 265.863 122.397 266.653 121.864C267.442 121.331 268.082 120.648 268.573 119.816L271.069 121.096C270.727 121.885 270.194 122.611 269.469 123.272C268.765 123.912 267.922 124.424 266.941 124.808C265.981 125.192 264.903 125.384 263.709 125.384ZM281.312 125V101.16H296.832V104.04H284.448V111.592H296.192V114.472H284.448V122.12H296.832V125H281.312ZM305.423 125.384C304.292 125.384 303.289 125.181 302.415 124.776C301.561 124.349 300.889 123.773 300.399 123.048C299.908 122.301 299.663 121.448 299.663 120.488C299.663 119.571 299.855 118.749 300.239 118.024C300.644 117.277 301.263 116.648 302.095 116.136C302.948 115.624 304.015 115.261 305.295 115.048L311.695 113.992V116.488L305.967 117.448C304.857 117.64 304.047 117.992 303.535 118.504C303.044 119.016 302.799 119.645 302.799 120.392C302.799 121.096 303.076 121.683 303.631 122.152C304.207 122.621 304.921 122.856 305.775 122.856C306.863 122.856 307.801 122.632 308.591 122.184C309.401 121.715 310.031 121.085 310.479 120.296C310.948 119.507 311.183 118.632 311.183 117.672V113.288C311.183 112.349 310.831 111.592 310.127 111.016C309.444 110.419 308.537 110.12 307.407 110.12C306.425 110.12 305.551 110.376 304.783 110.888C304.036 111.379 303.481 112.04 303.119 112.872L300.527 111.528C300.847 110.739 301.359 110.035 302.062 109.416C302.767 108.776 303.588 108.275 304.527 107.912C305.465 107.549 306.447 107.368 307.47 107.368C308.793 107.368 309.956 107.624 310.959 108.136C311.961 108.627 312.74 109.32 313.295 110.216C313.871 111.091 314.159 112.115 314.159 113.288V125H311.247V121.736L311.791 121.928C311.428 122.611 310.937 123.208 310.319 123.72C309.7 124.232 308.975 124.637 308.143 124.936C307.311 125.235 306.404 125.384 305.423 125.384ZM325.468 125.192C323.783 125.192 322.482 124.712 321.564 123.752C320.668 122.792 320.22 121.437 320.22 119.688V110.6H317.084V107.752H317.724C318.492 107.752 319.1 107.517 319.548 107.048C319.996 106.579 320.22 105.96 320.22 105.192V103.784H323.196V107.752H327.068V110.6H323.196V119.592C323.196 120.168 323.282 120.669 323.452 121.096C323.644 121.523 323.954 121.864 324.38 122.12C324.807 122.355 325.372 122.472 326.076 122.472C326.226 122.472 326.407 122.461 326.62 122.44C326.855 122.419 327.068 122.397 327.26 122.376V125C326.983 125.064 326.674 125.107 326.332 125.128C325.991 125.171 325.703 125.192 325.468 125.192ZM335.985 125.384C334.854 125.384 333.852 125.181 332.977 124.776C332.124 124.349 331.452 123.773 330.961 123.048C330.47 122.301 330.225 121.448 330.225 120.488C330.225 119.571 330.417 118.749 330.801 118.024C331.206 117.277 331.825 116.648 332.657 116.136C333.51 115.624 334.577 115.261 335.857 115.048L342.257 113.992V116.488L336.529 117.448C335.42 117.64 334.609 117.992 334.097 118.504C333.606 119.016 333.361 119.645 333.361 120.392C333.361 121.096 333.638 121.683 334.193 122.152C334.769 122.621 335.484 122.856 336.337 122.856C337.425 122.856 338.364 122.632 339.153 122.184C339.964 121.715 340.593 121.085 341.041 120.296C341.51 119.507 341.745 118.632 341.745 117.672V113.288C341.745 112.349 341.393 111.592 340.689 111.016C340.006 110.419 339.1 110.12 337.969 110.12C336.988 110.12 336.113 110.376 335.345 110.888C334.598 111.379 334.044 112.04 333.681 112.872L331.089 111.528C331.409 110.739 331.921 110.035 332.625 109.416C333.329 108.776 334.15 108.275 335.089 107.912C336.028 107.549 337.009 107.368 338.033 107.368C339.356 107.368 340.518 107.624 341.521 108.136C342.524 108.627 343.302 109.32 343.857 110.216C344.433 111.091 344.721 112.115 344.721 113.288V125H341.809V121.736L342.353 121.928C341.99 122.611 341.5 123.208 340.881 123.72C340.262 124.232 339.537 124.637 338.705 124.936C337.873 125.235 336.966 125.384 335.985 125.384ZM358.263 125.384C356.877 125.384 355.607 125.075 354.455 124.456C353.325 123.837 352.45 122.963 351.831 121.832L352.247 121.32V125H349.335V100.776H352.311V111.464L351.863 110.728C352.503 109.704 353.378 108.893 354.487 108.296C355.597 107.677 356.866 107.368 358.295 107.368C359.917 107.368 361.367 107.763 362.647 108.552C363.949 109.341 364.973 110.419 365.719 111.784C366.466 113.128 366.839 114.664 366.839 116.392C366.839 118.077 366.466 119.603 365.719 120.968C364.973 122.333 363.949 123.411 362.647 124.2C361.367 124.989 359.906 125.384 358.263 125.384ZM358.039 122.504C359.127 122.504 360.098 122.237 360.951 121.704C361.805 121.171 362.466 120.445 362.935 119.528C363.426 118.589 363.671 117.544 363.671 116.392C363.671 115.197 363.426 114.152 362.935 113.256C362.466 112.339 361.805 111.613 360.951 111.08C360.098 110.525 359.127 110.248 358.039 110.248C356.951 110.248 355.97 110.515 355.095 111.048C354.242 111.581 353.559 112.317 353.047 113.256C352.557 114.173 352.311 115.219 352.311 116.392C352.311 117.544 352.557 118.589 353.047 119.528C353.559 120.445 354.242 121.171 355.095 121.704C355.97 122.237 356.951 122.504 358.039 122.504ZM370.742 125V100.776H373.718V125H370.742ZM386.271 125.384C384.607 125.384 383.125 124.989 381.823 124.2C380.522 123.411 379.498 122.333 378.751 120.968C378.005 119.581 377.631 118.035 377.631 116.328C377.631 114.6 377.994 113.064 378.719 111.72C379.466 110.376 380.469 109.32 381.727 108.552C383.007 107.763 384.437 107.368 386.015 107.368C387.295 107.368 388.426 107.603 389.407 108.072C390.41 108.52 391.253 109.139 391.935 109.928C392.639 110.696 393.173 111.581 393.535 112.584C393.919 113.565 394.111 114.589 394.111 115.656C394.111 115.891 394.09 116.157 394.047 116.456C394.026 116.733 393.994 117 393.951 117.256H379.807V114.696H392.223L390.815 115.848C391.007 114.739 390.901 113.747 390.495 112.872C390.09 111.997 389.493 111.304 388.703 110.792C387.914 110.28 387.018 110.024 386.015 110.024C385.013 110.024 384.095 110.28 383.263 110.792C382.431 111.304 381.781 112.04 381.311 113C380.863 113.939 380.682 115.059 380.767 116.36C380.682 117.619 380.874 118.728 381.343 119.688C381.834 120.627 382.517 121.363 383.391 121.896C384.287 122.408 385.258 122.664 386.303 122.664C387.455 122.664 388.426 122.397 389.215 121.864C390.005 121.331 390.645 120.648 391.135 119.816L393.631 121.096C393.29 121.885 392.757 122.611 392.031 123.272C391.327 123.912 390.485 124.424 389.503 124.808C388.543 125.192 387.466 125.384 386.271 125.384ZM404.168 125.384C402.44 125.384 400.936 124.957 399.656 124.104C398.376 123.251 397.469 122.099 396.936 120.648L399.304 119.496C399.794 120.52 400.466 121.331 401.32 121.928C402.173 122.525 403.122 122.824 404.168 122.824C405.106 122.824 405.885 122.6 406.504 122.152C407.122 121.704 407.432 121.117 407.432 120.392C407.432 119.88 407.282 119.475 406.984 119.176C406.706 118.856 406.365 118.611 405.96 118.44C405.554 118.248 405.181 118.109 404.84 118.024L402.248 117.288C400.69 116.84 399.549 116.2 398.824 115.368C398.12 114.536 397.768 113.565 397.768 112.456C397.768 111.432 398.024 110.547 398.536 109.8C399.069 109.032 399.784 108.435 400.68 108.008C401.597 107.581 402.621 107.368 403.752 107.368C405.266 107.368 406.621 107.752 407.816 108.52C409.032 109.288 409.896 110.365 410.408 111.752L407.976 112.872C407.592 111.976 407.016 111.272 406.248 110.76C405.48 110.227 404.616 109.96 403.656 109.96C402.781 109.96 402.088 110.184 401.576 110.632C401.064 111.059 400.808 111.603 400.808 112.264C400.808 112.755 400.936 113.16 401.192 113.48C401.448 113.779 401.757 114.013 402.12 114.184C402.482 114.333 402.834 114.461 403.176 114.568L405.992 115.4C407.4 115.805 408.488 116.435 409.256 117.288C410.045 118.141 410.44 119.165 410.44 120.36C410.44 121.32 410.173 122.184 409.64 122.952C409.106 123.72 408.37 124.317 407.432 124.744C406.493 125.171 405.405 125.384 404.168 125.384ZM426.523 125L417.915 101.16H421.275L428.571 122.12H427.899L435.194 101.16H438.555L429.979 125H426.523ZM447.553 125.384C445.889 125.384 444.406 124.989 443.105 124.2C441.803 123.411 440.779 122.333 440.033 120.968C439.286 119.581 438.913 118.035 438.913 116.328C438.913 114.6 439.275 113.064 440.001 111.72C440.747 110.376 441.75 109.32 443.009 108.552C444.289 107.763 445.718 107.368 447.297 107.368C448.577 107.368 449.707 107.603 450.689 108.072C451.691 108.52 452.534 109.139 453.217 109.928C453.921 110.696 454.454 111.581 454.817 112.584C455.201 113.565 455.392 114.589 455.392 115.656C455.392 115.891 455.371 116.157 455.329 116.456C455.307 116.733 455.275 117 455.233 117.256H441.089V114.696H453.505L452.097 115.848C452.289 114.739 452.182 113.747 451.777 112.872C451.371 111.997 450.774 111.304 449.985 110.792C449.195 110.28 448.299 110.024 447.297 110.024C446.294 110.024 445.377 110.28 444.545 110.792C443.713 111.304 443.062 112.04 442.593 113C442.145 113.939 441.963 115.059 442.049 116.36C441.963 117.619 442.155 118.728 442.625 119.688C443.115 120.627 443.798 121.363 444.673 121.896C445.569 122.408 446.539 122.664 447.585 122.664C448.737 122.664 449.707 122.397 450.497 121.864C451.286 121.331 451.926 120.648 452.417 119.816L454.913 121.096C454.571 121.885 454.038 122.611 453.312 123.272C452.609 123.912 451.766 124.424 450.785 124.808C449.825 125.192 448.747 125.384 447.553 125.384ZM459.273 125V107.752H462.185V111.112L461.705 110.824C462.131 109.736 462.814 108.893 463.753 108.296C464.713 107.677 465.833 107.368 467.113 107.368C468.35 107.368 469.449 107.645 470.409 108.2C471.39 108.755 472.158 109.523 472.713 110.504C473.289 111.485 473.577 112.595 473.577 113.832V125H470.569V114.792C470.569 113.832 470.398 113.021 470.057 112.36C469.715 111.699 469.225 111.187 468.585 110.824C467.966 110.44 467.251 110.248 466.441 110.248C465.63 110.248 464.905 110.44 464.265 110.824C463.646 111.187 463.155 111.709 462.793 112.392C462.43 113.053 462.249 113.853 462.249 114.792V125H459.273ZM485.675 125.384C484.054 125.384 482.593 124.989 481.291 124.2C480.011 123.411 478.998 122.333 478.251 120.968C477.505 119.603 477.131 118.077 477.131 116.392C477.131 114.664 477.505 113.128 478.251 111.784C478.998 110.419 480.011 109.341 481.291 108.552C482.593 107.763 484.054 107.368 485.675 107.368C487.105 107.368 488.374 107.677 489.483 108.296C490.593 108.893 491.467 109.704 492.107 110.728L491.627 111.464V100.776H494.635V125H491.723V121.32L492.107 121.832C491.51 122.963 490.635 123.837 489.483 124.456C488.353 125.075 487.083 125.384 485.675 125.384ZM485.931 122.504C487.019 122.504 487.99 122.237 488.843 121.704C489.697 121.171 490.369 120.445 490.859 119.528C491.371 118.589 491.627 117.544 491.627 116.392C491.627 115.219 491.371 114.173 490.859 113.256C490.369 112.317 489.697 111.581 488.843 111.048C487.99 110.515 487.019 110.248 485.931 110.248C484.865 110.248 483.894 110.525 483.019 111.08C482.166 111.613 481.494 112.339 481.003 113.256C480.513 114.152 480.267 115.197 480.267 116.392C480.267 117.544 480.513 118.589 481.003 119.528C481.494 120.445 482.166 121.171 483.019 121.704C483.873 122.237 484.843 122.504 485.931 122.504ZM507.434 125.384C505.77 125.384 504.266 125 502.922 124.232C501.578 123.443 500.511 122.365 499.722 121C498.932 119.635 498.538 118.088 498.538 116.36C498.538 114.632 498.922 113.096 499.69 111.752C500.479 110.408 501.546 109.341 502.89 108.552C504.234 107.763 505.748 107.368 507.434 107.368C509.098 107.368 510.602 107.763 511.946 108.552C513.29 109.32 514.346 110.376 515.114 111.72C515.903 113.064 516.298 114.611 516.298 116.36C516.298 118.109 515.892 119.667 515.082 121.032C514.271 122.376 513.194 123.443 511.85 124.232C510.527 125 509.055 125.384 507.434 125.384ZM507.434 122.504C508.5 122.504 509.46 122.237 510.314 121.704C511.188 121.171 511.871 120.435 512.362 119.496C512.874 118.557 513.13 117.512 513.13 116.36C513.13 115.187 512.874 114.152 512.362 113.256C511.871 112.339 511.188 111.613 510.314 111.08C509.46 110.525 508.5 110.248 507.434 110.248C506.346 110.248 505.364 110.525 504.49 111.08C503.636 111.613 502.954 112.339 502.442 113.256C501.93 114.152 501.674 115.187 501.674 116.36C501.674 117.512 501.93 118.557 502.442 119.496C502.954 120.435 503.636 121.171 504.49 121.704C505.364 122.237 506.346 122.504 507.434 122.504ZM520.179 125V107.752H523.091V110.92L522.771 110.472C523.176 109.491 523.795 108.765 524.627 108.296C525.459 107.805 526.472 107.56 527.667 107.56H528.723V110.376H527.219C526.003 110.376 525.022 110.76 524.275 111.528C523.528 112.275 523.155 113.341 523.155 114.728V125H520.179ZM541.954 125.384C540.823 125.384 539.82 125.181 538.946 124.776C538.092 124.349 537.42 123.773 536.93 123.048C536.439 122.301 536.194 121.448 536.194 120.488C536.194 119.571 536.386 118.749 536.77 118.024C537.175 117.277 537.794 116.648 538.626 116.136C539.479 115.624 540.546 115.261 541.826 115.048L548.226 113.992V116.488L542.498 117.448C541.388 117.64 540.578 117.992 540.066 118.504C539.575 119.016 539.33 119.645 539.33 120.392C539.33 121.096 539.607 121.683 540.162 122.152C540.738 122.621 541.452 122.856 542.306 122.856C543.394 122.856 544.332 122.632 545.122 122.184C545.932 121.715 546.562 121.085 547.01 120.296C547.479 119.507 547.714 118.632 547.714 117.672V113.288C547.714 112.349 547.362 111.592 546.658 111.016C545.975 110.419 545.068 110.12 543.938 110.12C542.956 110.12 542.082 110.376 541.314 110.888C540.567 111.379 540.012 112.04 539.65 112.872L537.058 111.528C537.378 110.739 537.89 110.035 538.594 109.416C539.298 108.776 540.119 108.275 541.058 107.912C541.996 107.549 542.978 107.368 544.002 107.368C545.324 107.368 546.487 107.624 547.49 108.136C548.492 108.627 549.271 109.32 549.826 110.216C550.402 111.091 550.69 112.115 550.69 113.288V125H547.778V121.736L548.322 121.928C547.959 122.611 547.468 123.208 546.85 123.72C546.231 124.232 545.506 124.637 544.674 124.936C543.842 125.235 542.935 125.384 541.954 125.384ZM555.304 131.4V107.752H558.216V111.464L557.832 110.728C558.472 109.704 559.347 108.893 560.456 108.296C561.565 107.677 562.835 107.368 564.264 107.368C565.885 107.368 567.336 107.763 568.616 108.552C569.917 109.341 570.941 110.419 571.688 111.784C572.435 113.128 572.808 114.664 572.808 116.392C572.808 118.077 572.435 119.603 571.688 120.968C570.941 122.333 569.917 123.411 568.616 124.2C567.336 124.989 565.875 125.384 564.232 125.384C562.845 125.384 561.576 125.075 560.424 124.456C559.293 123.837 558.419 122.963 557.8 121.832L558.28 121.32V131.4H555.304ZM564.008 122.504C565.096 122.504 566.067 122.237 566.92 121.704C567.773 121.171 568.435 120.445 568.904 119.528C569.395 118.589 569.64 117.544 569.64 116.392C569.64 115.197 569.395 114.152 568.904 113.256C568.435 112.339 567.773 111.613 566.92 111.08C566.067 110.525 565.096 110.248 564.008 110.248C562.92 110.248 561.939 110.515 561.064 111.048C560.211 111.581 559.528 112.317 559.016 113.256C558.525 114.173 558.28 115.219 558.28 116.392C558.28 117.544 558.525 118.589 559.016 119.528C559.528 120.445 560.211 121.171 561.064 121.704C561.939 122.237 562.92 122.504 564.008 122.504ZM576.71 131.4V107.752H579.622V111.464L579.238 110.728C579.878 109.704 580.753 108.893 581.862 108.296C582.972 107.677 584.241 107.368 585.67 107.368C587.292 107.368 588.742 107.763 590.022 108.552C591.324 109.341 592.348 110.419 593.094 111.784C593.841 113.128 594.214 114.664 594.214 116.392C594.214 118.077 593.841 119.603 593.094 120.968C592.348 122.333 591.324 123.411 590.022 124.2C588.742 124.989 587.281 125.384 585.638 125.384C584.252 125.384 582.982 125.075 581.83 124.456C580.7 123.837 579.825 122.963 579.206 121.832L579.686 121.32V131.4H576.71ZM585.414 122.504C586.502 122.504 587.473 122.237 588.326 121.704C589.18 121.171 589.841 120.445 590.31 119.528C590.801 118.589 591.046 117.544 591.046 116.392C591.046 115.197 590.801 114.152 590.31 113.256C589.841 112.339 589.18 111.613 588.326 111.08C587.473 110.525 586.502 110.248 585.414 110.248C584.326 110.248 583.345 110.515 582.47 111.048C581.617 111.581 580.934 112.317 580.422 113.256C579.932 114.173 579.686 115.219 579.686 116.392C579.686 117.544 579.932 118.589 580.422 119.528C580.934 120.445 581.617 121.171 582.47 121.704C583.345 122.237 584.326 122.504 585.414 122.504Z" fill="#191717"/>
<line x1="20.5" y1="156.003" x2="20.0789" y2="236.002" stroke="#191717"/>
<line x1="20" y1="324.005" x2="19.5789" y2="404.004" stroke="#298A5A" stroke-width="2"/>
<path d="M12.7536 461.383C10.855 461.383 9.19096 460.871 7.76163 459.847C6.33229 458.802 5.21229 457.362 4.40163 455.527C3.61229 453.671 3.21763 451.516 3.21763 449.063C3.21763 446.588 3.61229 444.434 4.40163 442.599C5.21229 440.764 6.32163 439.335 7.72963 438.311C9.15896 437.287 10.823 436.775 12.7216 436.775C14.6203 436.775 16.2736 437.287 17.6816 438.311C19.111 439.335 20.2203 440.775 21.0096 442.631C21.8203 444.466 22.2256 446.61 22.2256 449.063C22.2256 451.516 21.831 453.671 21.0416 455.527C20.2523 457.362 19.143 458.802 17.7136 459.847C16.3056 460.871 14.6523 461.383 12.7536 461.383ZM12.7536 457.927C13.927 457.927 14.9403 457.564 15.7936 456.839C16.647 456.114 17.3083 455.09 17.7776 453.767C18.247 452.444 18.4816 450.876 18.4816 449.063C18.4816 447.25 18.247 445.682 17.7776 444.359C17.3083 443.036 16.647 442.012 15.7936 441.287C14.9403 440.562 13.9163 440.199 12.7216 440.199C11.5483 440.199 10.535 440.562 9.68163 441.287C8.82829 442.012 8.16696 443.036 7.69763 444.359C7.22829 445.682 6.99363 447.25 6.99363 449.063C6.99363 450.855 7.22829 452.423 7.69763 453.767C8.16696 455.09 8.82829 456.114 9.68163 456.839C10.5563 457.564 11.5803 457.927 12.7536 457.927ZM33.5479 461.383C32.2679 461.383 31.0625 461.148 29.9319 460.679C28.8225 460.21 27.8625 459.548 27.0519 458.695C26.2625 457.842 25.6972 456.839 25.3559 455.687L28.5559 454.471C28.9825 455.602 29.6332 456.476 30.5079 457.095C31.3825 457.714 32.3959 458.023 33.5479 458.023C34.4865 458.023 35.2972 457.842 35.9799 457.479C36.6839 457.116 37.2279 456.604 37.6119 455.943C38.0172 455.282 38.2199 454.482 38.2199 453.543C38.2199 452.626 38.0172 451.836 37.6119 451.175C37.2279 450.514 36.6839 450.012 35.9799 449.671C35.2972 449.33 34.4865 449.159 33.5479 449.159C33.1639 449.159 32.7692 449.191 32.3639 449.255C31.9799 449.319 31.6385 449.404 31.3399 449.511L30.5079 447.751L36.7799 440.359H26.6359V437.159H41.0039V440.199L34.8599 447.559L34.7639 446.343C36.1932 446.364 37.4519 446.684 38.5399 447.303C39.6279 447.9 40.4705 448.732 41.0679 449.799C41.6865 450.844 41.9959 452.06 41.9959 453.447C41.9959 454.94 41.6332 456.295 40.9079 457.511C40.1825 458.706 39.1799 459.655 37.8999 460.359C36.6412 461.042 35.1905 461.383 33.5479 461.383Z" fill="#298A5A"/>
<path d="M67.464 460.999V437.159H76.136C77.736 437.159 79.144 437.458 80.36 438.055C81.576 438.631 82.5253 439.484 83.208 440.615C83.912 441.724 84.264 443.058 84.264 444.615C84.264 446.258 83.848 447.666 83.016 448.839C82.2053 450.012 81.1067 450.866 79.72 451.399L85.224 460.999H80.936L75.08 450.599L77.544 452.039H71.24V460.999H67.464ZM71.24 448.679H76.2C77.0747 448.679 77.832 448.508 78.472 448.167C79.112 447.826 79.6027 447.356 79.944 446.759C80.3067 446.14 80.488 445.415 80.488 444.583C80.488 443.751 80.3067 443.036 79.944 442.439C79.6027 441.82 79.112 441.351 78.472 441.031C77.832 440.69 77.0747 440.519 76.2 440.519H71.24V448.679ZM95.2088 461.383C93.4808 461.383 91.9448 460.988 90.6008 460.199C89.2781 459.388 88.2434 458.3 87.4968 456.935C86.7501 455.548 86.3768 454.002 86.3768 452.295C86.3768 450.546 86.7501 448.999 87.4968 447.655C88.2648 446.311 89.2888 445.255 90.5688 444.487C91.8488 443.698 93.2994 443.303 94.9208 443.303C96.2221 443.303 97.3848 443.527 98.4088 443.975C99.4328 444.423 100.297 445.042 101.001 445.831C101.705 446.599 102.238 447.484 102.601 448.487C102.985 449.49 103.177 450.556 103.177 451.687C103.177 451.964 103.166 452.252 103.145 452.551C103.123 452.85 103.081 453.127 103.017 453.383H89.2248V450.503H100.969L99.2408 451.815C99.4541 450.77 99.3794 449.842 99.0168 449.031C98.6754 448.199 98.1421 447.548 97.4168 447.079C96.7128 446.588 95.8808 446.343 94.9208 446.343C93.9608 446.343 93.1074 446.588 92.3608 447.079C91.6141 447.548 91.0381 448.231 90.6328 449.127C90.2274 450.002 90.0674 451.068 90.1528 452.327C90.0461 453.5 90.2061 454.524 90.6328 455.399C91.0808 456.274 91.6994 456.956 92.4888 457.447C93.2994 457.938 94.2168 458.183 95.2408 458.183C96.2861 458.183 97.1714 457.948 97.8968 457.479C98.6434 457.01 99.2301 456.402 99.6568 455.655L102.601 457.095C102.259 457.906 101.726 458.642 101.001 459.303C100.297 459.943 99.4434 460.455 98.4408 460.839C97.4594 461.202 96.3821 461.383 95.2088 461.383ZM114.93 461.383C113.202 461.383 111.666 460.988 110.322 460.199C108.999 459.388 107.943 458.3 107.154 456.935C106.386 455.57 106.002 454.023 106.002 452.295C106.002 450.588 106.386 449.052 107.154 447.687C107.922 446.322 108.978 445.255 110.322 444.487C111.666 443.698 113.202 443.303 114.93 443.303C116.103 443.303 117.202 443.516 118.226 443.943C119.25 444.348 120.135 444.914 120.882 445.639C121.65 446.364 122.215 447.207 122.578 448.167L119.41 449.639C119.047 448.743 118.46 448.028 117.65 447.495C116.86 446.94 115.954 446.663 114.93 446.663C113.948 446.663 113.063 446.908 112.274 447.399C111.506 447.868 110.898 448.54 110.45 449.415C110.002 450.268 109.778 451.239 109.778 452.327C109.778 453.415 110.002 454.396 110.45 455.271C110.898 456.124 111.506 456.796 112.274 457.287C113.063 457.778 113.948 458.023 114.93 458.023C115.975 458.023 116.882 457.756 117.65 457.223C118.439 456.668 119.026 455.932 119.41 455.015L122.578 456.519C122.236 457.436 121.682 458.268 120.914 459.015C120.167 459.74 119.282 460.316 118.258 460.743C117.234 461.17 116.124 461.383 114.93 461.383ZM134.24 461.383C132.512 461.383 130.976 460.988 129.632 460.199C128.309 459.388 127.275 458.3 126.528 456.935C125.781 455.548 125.408 454.002 125.408 452.295C125.408 450.546 125.781 448.999 126.528 447.655C127.296 446.311 128.32 445.255 129.6 444.487C130.88 443.698 132.331 443.303 133.952 443.303C135.253 443.303 136.416 443.527 137.44 443.975C138.464 444.423 139.328 445.042 140.032 445.831C140.736 446.599 141.269 447.484 141.632 448.487C142.016 449.49 142.208 450.556 142.208 451.687C142.208 451.964 142.197 452.252 142.176 452.551C142.155 452.85 142.112 453.127 142.048 453.383H128.256V450.503H140L138.272 451.815C138.485 450.77 138.411 449.842 138.048 449.031C137.707 448.199 137.173 447.548 136.448 447.079C135.744 446.588 134.912 446.343 133.952 446.343C132.992 446.343 132.139 446.588 131.392 447.079C130.645 447.548 130.069 448.231 129.664 449.127C129.259 450.002 129.099 451.068 129.184 452.327C129.077 453.5 129.237 454.524 129.664 455.399C130.112 456.274 130.731 456.956 131.52 457.447C132.331 457.938 133.248 458.183 134.272 458.183C135.317 458.183 136.203 457.948 136.928 457.479C137.675 457.01 138.261 456.402 138.688 455.655L141.632 457.095C141.291 457.906 140.757 458.642 140.032 459.303C139.328 459.943 138.475 460.455 137.472 460.839C136.491 461.202 135.413 461.383 134.24 461.383ZM145.737 460.999V443.687H149.353V460.999H145.737ZM145.737 441.319V437.159H149.353V441.319H145.737ZM158.605 460.999L151.821 443.687H155.757L160.973 457.799H159.533L164.749 443.687H168.717L161.901 460.999H158.605ZM178.99 461.383C177.262 461.383 175.726 460.988 174.382 460.199C173.059 459.388 172.025 458.3 171.278 456.935C170.531 455.548 170.158 454.002 170.158 452.295C170.158 450.546 170.531 448.999 171.278 447.655C172.046 446.311 173.07 445.255 174.35 444.487C175.63 443.698 177.081 443.303 178.702 443.303C180.003 443.303 181.166 443.527 182.19 443.975C183.214 444.423 184.078 445.042 184.782 445.831C185.486 446.599 186.019 447.484 186.382 448.487C186.766 449.49 186.958 450.556 186.958 451.687C186.958 451.964 186.947 452.252 186.926 452.551C186.905 452.85 186.862 453.127 186.798 453.383H173.006V450.503H184.75L183.022 451.815C183.235 450.77 183.161 449.842 182.798 449.031C182.457 448.199 181.923 447.548 181.198 447.079C180.494 446.588 179.662 446.343 178.702 446.343C177.742 446.343 176.889 446.588 176.142 447.079C175.395 447.548 174.819 448.231 174.414 449.127C174.009 450.002 173.849 451.068 173.934 452.327C173.827 453.5 173.987 454.524 174.414 455.399C174.862 456.274 175.481 456.956 176.27 457.447C177.081 457.938 177.998 458.183 179.022 458.183C180.067 458.183 180.953 457.948 181.678 457.479C182.425 457.01 183.011 456.402 183.438 455.655L186.382 457.095C186.041 457.906 185.507 458.642 184.782 459.303C184.078 459.943 183.225 460.455 182.222 460.839C181.241 461.202 180.163 461.383 178.99 461.383ZM201.265 461.383C200.091 461.383 199.057 461.18 198.161 460.775C197.286 460.348 196.603 459.772 196.113 459.047C195.622 458.3 195.377 457.426 195.377 456.423C195.377 455.484 195.579 454.642 195.985 453.895C196.411 453.148 197.062 452.519 197.937 452.007C198.811 451.495 199.91 451.132 201.233 450.919L207.249 449.927V452.775L201.937 453.703C200.977 453.874 200.273 454.183 199.825 454.631C199.377 455.058 199.153 455.612 199.153 456.295C199.153 456.956 199.398 457.5 199.889 457.927C200.401 458.332 201.051 458.535 201.841 458.535C202.822 458.535 203.675 458.322 204.401 457.895C205.147 457.468 205.723 456.903 206.129 456.199C206.534 455.474 206.737 454.674 206.737 453.799V449.351C206.737 448.498 206.417 447.804 205.777 447.271C205.158 446.716 204.326 446.439 203.281 446.439C202.321 446.439 201.478 446.695 200.753 447.207C200.049 447.698 199.526 448.338 199.185 449.127L196.177 447.623C196.497 446.77 197.019 446.023 197.745 445.383C198.47 444.722 199.313 444.21 200.273 443.847C201.254 443.484 202.289 443.303 203.377 443.303C204.742 443.303 205.947 443.559 206.993 444.071C208.059 444.583 208.881 445.298 209.457 446.215C210.054 447.111 210.353 448.156 210.353 449.351V460.999H206.897V457.863L207.633 457.959C207.227 458.663 206.705 459.271 206.065 459.783C205.446 460.295 204.731 460.69 203.921 460.967C203.131 461.244 202.246 461.383 201.265 461.383ZM214.581 460.999V443.687H218.037V447.079L217.621 446.631C218.047 445.543 218.73 444.722 219.669 444.167C220.607 443.591 221.695 443.303 222.933 443.303C224.213 443.303 225.343 443.58 226.325 444.135C227.306 444.69 228.074 445.458 228.629 446.439C229.183 447.42 229.461 448.551 229.461 449.831V460.999H225.877V450.791C225.877 449.916 225.717 449.18 225.397 448.583C225.077 447.964 224.618 447.495 224.021 447.175C223.445 446.834 222.783 446.663 222.037 446.663C221.29 446.663 220.618 446.834 220.021 447.175C219.445 447.495 218.997 447.964 218.677 448.583C218.357 449.202 218.197 449.938 218.197 450.791V460.999H214.581ZM241.331 461.383C239.667 461.383 238.173 460.988 236.851 460.199C235.549 459.388 234.515 458.3 233.747 456.935C233 455.57 232.627 454.034 232.627 452.327C232.627 450.62 233.011 449.084 233.779 447.719C234.547 446.354 235.581 445.276 236.883 444.487C238.184 443.698 239.656 443.303 241.299 443.303C242.685 443.303 243.912 443.58 244.979 444.135C246.045 444.69 246.888 445.458 247.507 446.439L246.963 447.271V436.775H250.547V460.999H247.123V457.479L247.539 458.151C246.941 459.196 246.088 459.996 244.979 460.551C243.869 461.106 242.653 461.383 241.331 461.383ZM241.683 458.023C242.685 458.023 243.581 457.778 244.371 457.287C245.181 456.796 245.811 456.124 246.259 455.271C246.728 454.396 246.963 453.415 246.963 452.327C246.963 451.239 246.728 450.268 246.259 449.415C245.811 448.562 245.181 447.89 244.371 447.399C243.581 446.908 242.685 446.663 241.683 446.663C240.68 446.663 239.773 446.908 238.963 447.399C238.152 447.89 237.523 448.562 237.075 449.415C236.627 450.268 236.403 451.239 236.403 452.327C236.403 453.415 236.627 454.396 237.075 455.271C237.523 456.124 238.141 456.796 238.931 457.287C239.741 457.778 240.659 458.023 241.683 458.023ZM264.554 460.999L258.602 443.687H262.442L266.986 457.479H265.642L270.282 443.687H273.578L278.186 457.479H276.842L281.418 443.687H285.258L279.274 460.999H276.01L271.338 446.887H272.522L267.85 460.999H264.554ZM287.737 460.999V443.687H291.353V460.999H287.737ZM287.737 441.319V437.159H291.353V441.319H287.737ZM303.069 461.191C301.255 461.191 299.847 460.679 298.845 459.655C297.842 458.631 297.341 457.191 297.341 455.335V446.951H294.301V443.687H294.781C295.591 443.687 296.221 443.452 296.669 442.983C297.117 442.514 297.341 441.874 297.341 441.063V439.719H300.957V443.687H304.893V446.951H300.957V455.175C300.957 455.772 301.053 456.284 301.245 456.711C301.437 457.116 301.746 457.436 302.173 457.671C302.599 457.884 303.154 457.991 303.837 457.991C304.007 457.991 304.199 457.98 304.413 457.959C304.626 457.938 304.829 457.916 305.021 457.895V460.999C304.722 461.042 304.391 461.084 304.029 461.127C303.666 461.17 303.346 461.191 303.069 461.191ZM308.549 460.999V436.775H312.166V447.079L311.59 446.631C312.016 445.543 312.699 444.722 313.638 444.167C314.576 443.591 315.664 443.303 316.902 443.303C318.182 443.303 319.312 443.58 320.294 444.135C321.275 444.69 322.043 445.458 322.597 446.439C323.152 447.42 323.43 448.54 323.43 449.799V460.999H319.846V450.791C319.846 449.916 319.675 449.18 319.334 448.583C319.014 447.964 318.566 447.495 317.99 447.175C317.414 446.834 316.752 446.663 316.006 446.663C315.28 446.663 314.619 446.834 314.022 447.175C313.446 447.495 312.987 447.964 312.646 448.583C312.326 449.202 312.166 449.938 312.166 450.791V460.999H308.549ZM335.3 461.383C333.636 461.383 332.142 460.988 330.82 460.199C329.518 459.388 328.484 458.3 327.716 456.935C326.969 455.57 326.596 454.034 326.596 452.327C326.596 450.62 326.98 449.084 327.748 447.719C328.516 446.354 329.55 445.276 330.852 444.487C332.153 443.698 333.625 443.303 335.268 443.303C336.654 443.303 337.881 443.58 338.948 444.135C340.014 444.69 340.857 445.458 341.476 446.439L340.932 447.271V436.775H344.516V460.999H341.092V457.479L341.508 458.151C340.91 459.196 340.057 459.996 338.948 460.551C337.838 461.106 336.622 461.383 335.3 461.383ZM335.652 458.023C336.654 458.023 337.55 457.778 338.34 457.287C339.15 456.796 339.78 456.124 340.228 455.271C340.697 454.396 340.932 453.415 340.932 452.327C340.932 451.239 340.697 450.268 340.228 449.415C339.78 448.562 339.15 447.89 338.34 447.399C337.55 446.908 336.654 446.663 335.652 446.663C334.649 446.663 333.742 446.908 332.932 447.399C332.121 447.89 331.492 448.562 331.044 449.415C330.596 450.268 330.372 451.239 330.372 452.327C330.372 453.415 330.596 454.396 331.044 455.271C331.492 456.124 332.11 456.796 332.9 457.287C333.71 457.778 334.628 458.023 335.652 458.023ZM348.737 460.999V443.687H352.193V447.175L351.873 446.663C352.257 445.532 352.876 444.722 353.729 444.231C354.582 443.719 355.606 443.463 356.801 443.463H357.857V446.759H356.353C355.158 446.759 354.188 447.132 353.441 447.879C352.716 448.604 352.353 449.65 352.353 451.015V460.999H348.737ZM365.515 461.383C364.341 461.383 363.307 461.18 362.411 460.775C361.536 460.348 360.853 459.772 360.363 459.047C359.872 458.3 359.627 457.426 359.627 456.423C359.627 455.484 359.829 454.642 360.235 453.895C360.661 453.148 361.312 452.519 362.187 452.007C363.061 451.495 364.16 451.132 365.483 450.919L371.499 449.927V452.775L366.187 453.703C365.227 453.874 364.523 454.183 364.075 454.631C363.627 455.058 363.403 455.612 363.403 456.295C363.403 456.956 363.648 457.5 364.139 457.927C364.651 458.332 365.301 458.535 366.091 458.535C367.072 458.535 367.925 458.322 368.651 457.895C369.397 457.468 369.973 456.903 370.379 456.199C370.784 455.474 370.987 454.674 370.987 453.799V449.351C370.987 448.498 370.667 447.804 370.027 447.271C369.408 446.716 368.576 446.439 367.531 446.439C366.571 446.439 365.728 446.695 365.003 447.207C364.299 447.698 363.776 448.338 363.435 449.127L360.427 447.623C360.747 446.77 361.269 446.023 361.995 445.383C362.72 444.722 363.563 444.21 364.523 443.847C365.504 443.484 366.539 443.303 367.627 443.303C368.992 443.303 370.197 443.559 371.243 444.071C372.309 444.583 373.131 445.298 373.707 446.215C374.304 447.111 374.603 448.156 374.603 449.351V460.999H371.147V457.863L371.883 457.959C371.477 458.663 370.955 459.271 370.315 459.783C369.696 460.295 368.981 460.69 368.171 460.967C367.381 461.244 366.496 461.383 365.515 461.383ZM383.023 460.999L377.071 443.687H380.911L385.455 457.479H384.111L388.751 443.687H392.047L396.655 457.479H395.311L399.887 443.687H403.727L397.743 460.999H394.479L389.807 446.887H390.991L386.319 460.999H383.023ZM413.336 468.039C412.909 468.039 412.482 467.996 412.056 467.911C411.65 467.847 411.277 467.74 410.936 467.591V464.487C411.192 464.551 411.501 464.604 411.864 464.647C412.226 464.711 412.578 464.743 412.92 464.743C413.922 464.743 414.658 464.519 415.128 464.071C415.618 463.644 416.056 462.983 416.44 462.087L417.592 459.463L417.528 462.503L410.04 443.687H413.911L419.448 458.119H418.135L423.64 443.687H427.544L419.896 462.887C419.49 463.911 418.978 464.807 418.36 465.575C417.762 466.364 417.048 466.972 416.216 467.399C415.405 467.826 414.445 468.039 413.336 468.039ZM438.058 461.383C436.394 461.383 434.868 460.988 433.482 460.199C432.116 459.41 431.028 458.332 430.218 456.967C429.407 455.602 429.002 454.055 429.002 452.327C429.002 450.578 429.407 449.031 430.218 447.687C431.028 446.322 432.116 445.255 433.482 444.487C434.847 443.698 436.372 443.303 438.058 443.303C439.764 443.303 441.29 443.698 442.634 444.487C443.999 445.255 445.076 446.322 445.866 447.687C446.676 449.031 447.082 450.578 447.082 452.327C447.082 454.076 446.676 455.634 445.866 456.999C445.055 458.364 443.967 459.442 442.602 460.231C441.236 460.999 439.722 461.383 438.058 461.383ZM438.058 458.023C439.082 458.023 439.988 457.778 440.778 457.287C441.567 456.796 442.186 456.124 442.634 455.271C443.103 454.396 443.338 453.415 443.338 452.327C443.338 451.239 443.103 450.268 442.634 449.415C442.186 448.562 441.567 447.89 440.778 447.399C439.988 446.908 439.082 446.663 438.058 446.663C437.055 446.663 436.148 446.908 435.338 447.399C434.548 447.89 433.919 448.562 433.45 449.415C433.002 450.268 432.778 451.239 432.778 452.327C432.778 453.415 433.002 454.396 433.45 455.271C433.919 456.124 434.548 456.796 435.338 457.287C436.148 457.778 437.055 458.023 438.058 458.023ZM456.788 461.383C455.487 461.383 454.345 461.095 453.364 460.519C452.383 459.922 451.615 459.1 451.06 458.055C450.527 456.988 450.26 455.762 450.26 454.375V443.687H453.876V454.055C453.876 454.844 454.036 455.538 454.356 456.135C454.676 456.732 455.124 457.202 455.7 457.543C456.276 457.863 456.937 458.023 457.684 458.023C458.452 458.023 459.124 457.852 459.7 457.511C460.276 457.17 460.724 456.69 461.044 456.071C461.385 455.452 461.556 454.727 461.556 453.895V443.687H465.14V460.999H461.716V457.607L462.1 458.055C461.695 459.122 461.023 459.943 460.084 460.519C459.145 461.095 458.047 461.383 456.788 461.383ZM469.362 460.999V443.687H472.818V447.175L472.498 446.663C472.882 445.532 473.501 444.722 474.354 444.231C475.207 443.719 476.231 443.463 477.426 443.463H478.482V446.759H476.978C475.783 446.759 474.813 447.132 474.066 447.879C473.341 448.604 472.978 449.65 472.978 451.015V460.999H469.362ZM486.549 467.399V443.687H490.006V447.271L489.59 446.439C490.23 445.458 491.083 444.69 492.15 444.135C493.216 443.58 494.432 443.303 495.798 443.303C497.44 443.303 498.912 443.698 500.214 444.487C501.536 445.276 502.571 446.354 503.318 447.719C504.086 449.084 504.47 450.62 504.47 452.327C504.47 454.034 504.086 455.57 503.318 456.935C502.571 458.3 501.547 459.388 500.246 460.199C498.944 460.988 497.462 461.383 495.798 461.383C494.454 461.383 493.227 461.106 492.118 460.551C491.03 459.996 490.187 459.196 489.59 458.151L490.166 457.479V467.399H486.549ZM495.446 458.023C496.47 458.023 497.376 457.778 498.166 457.287C498.955 456.796 499.574 456.124 500.022 455.271C500.491 454.396 500.726 453.415 500.726 452.327C500.726 451.239 500.491 450.268 500.022 449.415C499.574 448.562 498.955 447.89 498.166 447.399C497.376 446.908 496.47 446.663 495.446 446.663C494.443 446.663 493.536 446.908 492.726 447.399C491.936 447.89 491.307 448.562 490.838 449.415C490.39 450.268 490.166 451.239 490.166 452.327C490.166 453.415 490.39 454.396 490.838 455.271C491.307 456.124 491.936 456.796 492.726 457.287C493.536 457.778 494.443 458.023 495.446 458.023ZM513.171 461.383C511.998 461.383 510.963 461.18 510.067 460.775C509.192 460.348 508.51 459.772 508.019 459.047C507.528 458.3 507.283 457.426 507.283 456.423C507.283 455.484 507.486 454.642 507.891 453.895C508.318 453.148 508.968 452.519 509.843 452.007C510.718 451.495 511.816 451.132 513.139 450.919L519.155 449.927V452.775L513.843 453.703C512.883 453.874 512.179 454.183 511.731 454.631C511.283 455.058 511.059 455.612 511.059 456.295C511.059 456.956 511.304 457.5 511.795 457.927C512.307 458.332 512.958 458.535 513.747 458.535C514.728 458.535 515.582 458.322 516.307 457.895C517.054 457.468 517.63 456.903 518.035 456.199C518.44 455.474 518.643 454.674 518.643 453.799V449.351C518.643 448.498 518.323 447.804 517.683 447.271C517.064 446.716 516.232 446.439 515.187 446.439C514.227 446.439 513.384 446.695 512.659 447.207C511.955 447.698 511.432 448.338 511.091 449.127L508.083 447.623C508.403 446.77 508.926 446.023 509.651 445.383C510.376 444.722 511.219 444.21 512.179 443.847C513.16 443.484 514.195 443.303 515.283 443.303C516.648 443.303 517.854 443.559 518.899 444.071C519.966 444.583 520.787 445.298 521.363 446.215C521.96 447.111 522.259 448.156 522.259 449.351V460.999H518.803V457.863L519.539 457.959C519.134 458.663 518.611 459.271 517.971 459.783C517.352 460.295 516.638 460.69 515.827 460.967C515.038 461.244 514.152 461.383 513.171 461.383ZM528.023 468.039C527.596 468.039 527.17 467.996 526.743 467.911C526.338 467.847 525.964 467.74 525.623 467.591V464.487C525.879 464.551 526.188 464.604 526.551 464.647C526.914 464.711 527.266 464.743 527.607 464.743C528.61 464.743 529.346 464.519 529.815 464.071C530.306 463.644 530.743 462.983 531.127 462.087L532.279 459.463L532.215 462.503L524.727 443.687H528.599L534.135 458.119H532.823L538.327 443.687H542.231L534.583 462.887C534.178 463.911 533.666 464.807 533.047 465.575C532.45 466.364 531.735 466.972 530.903 467.399C530.092 467.826 529.132 468.039 528.023 468.039ZM552.745 461.383C551.081 461.383 549.556 460.988 548.169 460.199C546.804 459.41 545.716 458.332 544.905 456.967C544.095 455.602 543.689 454.055 543.689 452.327C543.689 450.578 544.095 449.031 544.905 447.687C545.716 446.322 546.804 445.255 548.169 444.487C549.535 443.698 551.06 443.303 552.745 443.303C554.452 443.303 555.977 443.698 557.321 444.487C558.687 445.255 559.764 446.322 560.553 447.687C561.364 449.031 561.769 450.578 561.769 452.327C561.769 454.076 561.364 455.634 560.553 456.999C559.743 458.364 558.655 459.442 557.289 460.231C555.924 460.999 554.409 461.383 552.745 461.383ZM552.745 458.023C553.769 458.023 554.676 457.778 555.465 457.287C556.255 456.796 556.873 456.124 557.321 455.271C557.791 454.396 558.025 453.415 558.025 452.327C558.025 451.239 557.791 450.268 557.321 449.415C556.873 448.562 556.255 447.89 555.465 447.399C554.676 446.908 553.769 446.663 552.745 446.663C551.743 446.663 550.836 446.908 550.025 447.399C549.236 447.89 548.607 448.562 548.137 449.415C547.689 450.268 547.465 451.239 547.465 452.327C547.465 453.415 547.689 454.396 548.137 455.271C548.607 456.124 549.236 456.796 550.025 457.287C550.836 457.778 551.743 458.023 552.745 458.023ZM571.476 461.383C570.174 461.383 569.033 461.095 568.052 460.519C567.07 459.922 566.302 459.1 565.748 458.055C565.214 456.988 564.948 455.762 564.948 454.375V443.687H568.564V454.055C568.564 454.844 568.724 455.538 569.044 456.135C569.364 456.732 569.812 457.202 570.388 457.543C570.964 457.863 571.625 458.023 572.372 458.023C573.14 458.023 573.812 457.852 574.388 457.511C574.964 457.17 575.412 456.69 575.732 456.071C576.073 455.452 576.244 454.727 576.244 453.895V443.687H579.828V460.999H576.404V457.607L576.788 458.055C576.382 459.122 575.71 459.943 574.772 460.519C573.833 461.095 572.734 461.383 571.476 461.383ZM591.538 461.191C589.724 461.191 588.316 460.679 587.314 459.655C586.311 458.631 585.81 457.191 585.81 455.335V446.951H582.77V443.687H583.25C584.06 443.687 584.69 443.452 585.138 442.983C585.586 442.514 585.81 441.874 585.81 441.063V439.719H589.426V443.687H593.362V446.951H589.426V455.175C589.426 455.772 589.522 456.284 589.714 456.711C589.906 457.116 590.215 457.436 590.642 457.671C591.068 457.884 591.623 457.991 592.306 457.991C592.476 457.991 592.668 457.98 592.882 457.959C593.095 457.938 593.298 457.916 593.49 457.895V460.999C593.191 461.042 592.86 461.084 592.498 461.127C592.135 461.17 591.815 461.191 591.538 461.191ZM603.418 461.383C601.648 461.383 600.09 460.946 598.746 460.071C597.424 459.196 596.496 458.023 595.962 456.551L598.746 455.239C599.216 456.22 599.856 456.999 600.666 457.575C601.498 458.151 602.416 458.439 603.418 458.439C604.272 458.439 604.965 458.247 605.498 457.863C606.032 457.479 606.298 456.956 606.298 456.295C606.298 455.868 606.181 455.527 605.946 455.271C605.712 454.994 605.413 454.77 605.05 454.599C604.709 454.428 604.357 454.3 603.994 454.215L601.274 453.447C599.781 453.02 598.661 452.38 597.914 451.527C597.189 450.652 596.826 449.639 596.826 448.487C596.826 447.442 597.093 446.535 597.626 445.767C598.16 444.978 598.896 444.37 599.834 443.943C600.773 443.516 601.829 443.303 603.002 443.303C604.581 443.303 605.989 443.698 607.226 444.487C608.464 445.255 609.338 446.332 609.85 447.719L607.066 449.031C606.725 448.199 606.181 447.538 605.434 447.047C604.709 446.556 603.888 446.311 602.97 446.311C602.181 446.311 601.552 446.503 601.082 446.887C600.613 447.25 600.378 447.73 600.378 448.327C600.378 448.732 600.485 449.074 600.698 449.351C600.912 449.607 601.189 449.82 601.53 449.991C601.872 450.14 602.224 450.268 602.586 450.375L605.402 451.207C606.832 451.612 607.93 452.252 608.698 453.127C609.466 453.98 609.85 455.004 609.85 456.199C609.85 457.223 609.573 458.13 609.018 458.919C608.485 459.687 607.738 460.295 606.778 460.743C605.818 461.17 604.698 461.383 603.418 461.383Z" fill="#298A5A"/>
<rect y="547.999" width="68" height="68" rx="16" fill="#054425"/>
<path d="M18.5858 565.105C18.1787 565.521 17.9431 566.169 17.9431 567.008V596.929C17.9431 597.768 18.1787 598.415 18.5858 598.832L18.6862 598.923L35.8591 582.163V581.767L18.6862 565.007L18.5858 565.105Z" fill="url(#paint0_linear_3125_2733)"/>
<path d="M41.5771 587.752L35.8591 582.163V581.767L41.584 576.178L41.7122 576.251L48.492 580.017C50.4268 581.086 50.4268 582.845 48.492 583.92L41.7122 587.68L41.5771 587.752Z" fill="url(#paint1_linear_3125_2733)"/>
<path d="M41.7121 587.68L35.8591 581.965L18.5857 598.831C19.2283 599.491 20.2763 599.571 21.4681 598.911L41.7121 587.68Z" fill="url(#paint2_linear_3125_2733)"/>
<path d="M41.7121 576.251L21.4681 565.019C20.2763 564.367 19.2283 564.446 18.5857 565.106L35.8591 581.965L41.7121 576.251Z" fill="url(#paint3_linear_3125_2733)"/>
<rect x="88" y="547.999" width="68" height="68" rx="16" fill="#054425"/>
<path d="M130.587 582.881C130.547 578.642 134.147 576.579 134.311 576.483C132.273 573.586 129.113 573.19 128.003 573.158C125.35 572.886 122.776 574.707 121.424 574.707C120.045 574.707 117.964 573.185 115.721 573.229C112.834 573.273 110.133 574.903 108.652 577.433C105.595 582.593 107.875 590.175 110.803 594.346C112.268 596.389 113.98 598.67 116.221 598.589C118.413 598.501 119.232 597.227 121.877 597.227C124.499 597.227 125.267 598.589 127.553 598.538C129.905 598.501 131.387 596.486 132.8 594.425C134.493 592.084 135.173 589.778 135.2 589.66C135.145 589.641 130.631 587.962 130.587 582.881Z" fill="white"/>
<path d="M126.27 570.415C127.449 568.977 128.255 567.021 128.032 565.037C126.325 565.11 124.191 566.187 122.962 567.594C121.875 568.833 120.903 570.863 121.154 572.773C123.071 572.912 125.039 571.83 126.27 570.415Z" fill="white"/>
<path d="M12.9598 293.384C11.0611 293.384 9.39708 292.872 7.96775 291.848C6.55975 290.803 5.46108 289.363 4.67175 287.528C3.88242 285.672 3.48775 283.517 3.48775 281.064C3.48775 278.611 3.88242 276.467 4.67175 274.632C5.46108 272.776 6.55975 271.336 7.96775 270.312C9.37575 269.288 11.0291 268.776 12.9278 268.776C14.8264 268.776 16.4798 269.288 17.8878 270.312C19.2958 271.336 20.3944 272.776 21.1838 274.632C21.9944 276.467 22.3998 278.611 22.3998 281.064C22.3998 283.517 22.0051 285.672 21.2158 287.528C20.4264 289.384 19.3171 290.824 17.8878 291.848C16.4798 292.872 14.8371 293.384 12.9598 293.384ZM12.9598 290.472C14.2398 290.472 15.3491 290.088 16.2878 289.32C17.2264 288.531 17.9518 287.432 18.4638 286.024C18.9971 284.616 19.2638 282.963 19.2638 281.064C19.2638 279.165 18.9971 277.512 18.4638 276.104C17.9518 274.696 17.2158 273.608 16.2558 272.84C15.3171 272.072 14.2078 271.688 12.9278 271.688C11.6478 271.688 10.5384 272.072 9.59975 272.84C8.66108 273.608 7.92508 274.696 7.39175 276.104C6.87975 277.512 6.62375 279.165 6.62375 281.064C6.62375 282.941 6.87975 284.584 7.39175 285.992C7.92508 287.4 8.66108 288.499 9.59975 289.288C10.5598 290.077 11.6798 290.472 12.9598 290.472ZM26.228 293V290.824L32.82 283.688C34.1213 282.301 35.156 281.16 35.924 280.264C36.7133 279.368 37.2893 278.568 37.652 277.864C38.0147 277.16 38.196 276.413 38.196 275.624C38.196 274.323 37.812 273.32 37.044 272.616C36.276 271.912 35.2627 271.56 34.004 271.56C32.724 271.56 31.636 271.933 30.74 272.68C29.844 273.405 29.2253 274.44 28.884 275.784L26.036 275.048C26.3133 273.768 26.8253 272.659 27.572 271.72C28.3187 270.781 29.2467 270.056 30.356 269.544C31.4653 269.032 32.6813 268.776 34.004 268.776C35.4547 268.776 36.724 269.064 37.812 269.64C38.9213 270.195 39.7853 270.973 40.404 271.976C41.044 272.979 41.364 274.141 41.364 275.464C41.364 276.339 41.1827 277.192 40.82 278.024C40.4573 278.856 39.924 279.741 39.22 280.68C38.516 281.597 37.5987 282.664 36.468 283.88L30.58 290.28H41.876V293H26.228Z" fill="#054425"/>
<path d="M76.296 293.384C74.568 293.384 73.032 293.021 71.688 292.296C70.3653 291.571 69.3307 290.579 68.584 289.32C67.8587 288.04 67.496 286.589 67.496 284.968V269.16H70.664V284.904C70.664 285.992 70.8987 286.963 71.368 287.816C71.8587 288.648 72.52 289.299 73.352 289.768C74.2053 290.237 75.1867 290.472 76.296 290.472C77.4053 290.472 78.376 290.237 79.208 289.768C80.0613 289.299 80.7227 288.648 81.192 287.816C81.6827 286.963 81.928 285.992 81.928 284.904V269.16H85.096V284.968C85.096 286.589 84.7227 288.04 83.976 289.32C83.2507 290.579 82.2267 291.571 80.904 292.296C79.5813 293.021 78.0453 293.384 76.296 293.384ZM89.8978 299.4V275.752H92.8098V279.464L92.4258 278.728C93.0658 277.704 93.9404 276.893 95.0498 276.296C96.1591 275.677 97.4284 275.368 98.8578 275.368C100.479 275.368 101.93 275.763 103.21 276.552C104.511 277.341 105.535 278.419 106.282 279.784C107.028 281.128 107.402 282.664 107.402 284.392C107.402 286.077 107.028 287.603 106.282 288.968C105.535 290.333 104.511 291.411 103.21 292.2C101.93 292.989 100.468 293.384 98.8258 293.384C97.4391 293.384 96.1698 293.075 95.0178 292.456C93.8871 291.837 93.0124 290.963 92.3938 289.832L92.8738 289.32V299.4H89.8978ZM98.6018 290.504C99.6898 290.504 100.66 290.237 101.514 289.704C102.367 289.171 103.028 288.445 103.498 287.528C103.988 286.589 104.234 285.544 104.234 284.392C104.234 283.197 103.988 282.152 103.498 281.256C103.028 280.339 102.367 279.613 101.514 279.08C100.66 278.525 99.6898 278.248 98.6018 278.248C97.5138 278.248 96.5324 278.515 95.6578 279.048C94.8044 279.581 94.1218 280.317 93.6098 281.256C93.1191 282.173 92.8738 283.219 92.8738 284.392C92.8738 285.544 93.1191 286.589 93.6098 287.528C94.1218 288.445 94.8044 289.171 95.6578 289.704C96.5324 290.237 97.5138 290.504 98.6018 290.504ZM111.304 293V268.776H114.28V293H111.304ZM127.09 293.384C125.426 293.384 123.922 293 122.578 292.232C121.234 291.443 120.167 290.365 119.378 289C118.588 287.635 118.194 286.088 118.194 284.36C118.194 282.632 118.578 281.096 119.346 279.752C120.135 278.408 121.202 277.341 122.546 276.552C123.89 275.763 125.404 275.368 127.09 275.368C128.754 275.368 130.258 275.763 131.602 276.552C132.946 277.32 134.002 278.376 134.77 279.72C135.559 281.064 135.954 282.611 135.954 284.36C135.954 286.109 135.548 287.667 134.738 289.032C133.927 290.376 132.85 291.443 131.506 292.232C130.183 293 128.711 293.384 127.09 293.384ZM127.09 290.504C128.156 290.504 129.116 290.237 129.97 289.704C130.844 289.171 131.527 288.435 132.018 287.496C132.53 286.557 132.786 285.512 132.786 284.36C132.786 283.187 132.53 282.152 132.018 281.256C131.527 280.339 130.844 279.613 129.97 279.08C129.116 278.525 128.156 278.248 127.09 278.248C126.002 278.248 125.02 278.525 124.146 279.08C123.292 279.613 122.61 280.339 122.098 281.256C121.586 282.152 121.33 283.187 121.33 284.36C121.33 285.512 121.586 286.557 122.098 287.496C122.61 288.435 123.292 289.171 124.146 289.704C125.02 290.237 126.002 290.504 127.09 290.504ZM144.891 293.384C143.761 293.384 142.758 293.181 141.883 292.776C141.03 292.349 140.358 291.773 139.867 291.048C139.377 290.301 139.131 289.448 139.131 288.488C139.131 287.571 139.323 286.749 139.707 286.024C140.113 285.277 140.731 284.648 141.563 284.136C142.417 283.624 143.483 283.261 144.763 283.048L151.163 281.992V284.488L145.435 285.448C144.326 285.64 143.515 285.992 143.003 286.504C142.513 287.016 142.267 287.645 142.267 288.392C142.267 289.096 142.545 289.683 143.099 290.152C143.675 290.621 144.39 290.856 145.243 290.856C146.331 290.856 147.27 290.632 148.059 290.184C148.87 289.715 149.499 289.085 149.947 288.296C150.417 287.507 150.651 286.632 150.651 285.672V281.288C150.651 280.349 150.299 279.592 149.595 279.016C148.913 278.419 148.006 278.12 146.875 278.12C145.894 278.12 145.019 278.376 144.251 278.888C143.505 279.379 142.95 280.04 142.587 280.872L139.995 279.528C140.315 278.739 140.827 278.035 141.531 277.416C142.235 276.776 143.057 276.275 143.995 275.912C144.934 275.549 145.915 275.368 146.939 275.368C148.262 275.368 149.425 275.624 150.427 276.136C151.43 276.627 152.209 277.32 152.763 278.216C153.339 279.091 153.627 280.115 153.627 281.288V293H150.715V289.736L151.259 289.928C150.897 290.611 150.406 291.208 149.787 291.72C149.169 292.232 148.443 292.637 147.611 292.936C146.779 293.235 145.873 293.384 144.891 293.384ZM166.082 293.384C164.46 293.384 162.999 292.989 161.698 292.2C160.418 291.411 159.404 290.333 158.658 288.968C157.911 287.603 157.538 286.077 157.538 284.392C157.538 282.664 157.911 281.128 158.658 279.784C159.404 278.419 160.418 277.341 161.698 276.552C162.999 275.763 164.46 275.368 166.082 275.368C167.511 275.368 168.78 275.677 169.89 276.296C170.999 276.893 171.874 277.704 172.514 278.728L172.034 279.464V268.776H175.042V293H172.13V289.32L172.514 289.832C171.916 290.963 171.042 291.837 169.89 292.456C168.759 293.075 167.49 293.384 166.082 293.384ZM166.338 290.504C167.426 290.504 168.396 290.237 169.25 289.704C170.103 289.171 170.775 288.445 171.266 287.528C171.778 286.589 172.034 285.544 172.034 284.392C172.034 283.219 171.778 282.173 171.266 281.256C170.775 280.317 170.103 279.581 169.25 279.048C168.396 278.515 167.426 278.248 166.338 278.248C165.271 278.248 164.3 278.525 163.426 279.08C162.572 279.613 161.9 280.339 161.41 281.256C160.919 282.152 160.674 283.197 160.674 284.392C160.674 285.544 160.919 286.589 161.41 287.528C161.9 288.445 162.572 289.171 163.426 289.704C164.279 290.237 165.25 290.504 166.338 290.504ZM186.107 300.04C185.723 300.04 185.339 300.008 184.955 299.944C184.571 299.88 184.208 299.773 183.867 299.624V296.968C184.102 297.011 184.39 297.053 184.731 297.096C185.094 297.16 185.446 297.192 185.787 297.192C186.79 297.192 187.547 296.968 188.059 296.52C188.592 296.093 189.094 295.347 189.563 294.28L190.651 291.688L190.587 294.28L183.227 275.752H186.459L192.187 290.472H191.227L196.923 275.752H200.219L192.443 295.048C192.08 295.965 191.611 296.797 191.035 297.544C190.48 298.312 189.798 298.92 188.987 299.368C188.176 299.816 187.216 300.04 186.107 300.04ZM210.746 293.384C209.082 293.384 207.578 293 206.234 292.232C204.89 291.443 203.823 290.365 203.034 289C202.245 287.635 201.85 286.088 201.85 284.36C201.85 282.632 202.234 281.096 203.002 279.752C203.791 278.408 204.858 277.341 206.202 276.552C207.546 275.763 209.061 275.368 210.746 275.368C212.41 275.368 213.914 275.763 215.258 276.552C216.602 277.32 217.658 278.376 218.426 279.72C219.215 281.064 219.61 282.611 219.61 284.36C219.61 286.109 219.205 287.667 218.394 289.032C217.583 290.376 216.506 291.443 215.162 292.232C213.839 293 212.367 293.384 210.746 293.384ZM210.746 290.504C211.813 290.504 212.773 290.237 213.626 289.704C214.501 289.171 215.183 288.435 215.674 287.496C216.186 286.557 216.442 285.512 216.442 284.36C216.442 283.187 216.186 282.152 215.674 281.256C215.183 280.339 214.501 279.613 213.626 279.08C212.773 278.525 211.813 278.248 210.746 278.248C209.658 278.248 208.677 278.525 207.802 279.08C206.949 279.613 206.266 280.339 205.754 281.256C205.242 282.152 204.986 283.187 204.986 284.36C204.986 285.512 205.242 286.557 205.754 287.496C206.266 288.435 206.949 289.171 207.802 289.704C208.677 290.237 209.658 290.504 210.746 290.504ZM229.604 293.384C228.366 293.384 227.246 293.096 226.244 292.52C225.262 291.944 224.494 291.144 223.94 290.12C223.406 289.075 223.14 287.88 223.14 286.536V275.752H226.116V286.216C226.116 287.069 226.286 287.816 226.628 288.456C226.99 289.096 227.481 289.597 228.1 289.96C228.74 290.323 229.465 290.504 230.276 290.504C231.086 290.504 231.801 290.323 232.42 289.96C233.06 289.597 233.55 289.075 233.892 288.392C234.254 287.709 234.436 286.899 234.436 285.96V275.752H237.444V293H234.532V289.64L235.012 289.928C234.606 291.016 233.913 291.869 232.932 292.488C231.972 293.085 230.862 293.384 229.604 293.384ZM242.054 293V275.752H244.966V278.92L244.646 278.472C245.051 277.491 245.67 276.765 246.502 276.296C247.334 275.805 248.347 275.56 249.542 275.56H250.598V278.376H249.094C247.878 278.376 246.897 278.76 246.15 279.528C245.403 280.275 245.03 281.341 245.03 282.728V293H242.054ZM258.773 293V275.752H261.685V279.272L261.269 278.728C261.695 277.64 262.378 276.808 263.317 276.232C264.255 275.656 265.311 275.368 266.485 275.368C267.829 275.368 269.034 275.741 270.101 276.488C271.189 277.235 271.935 278.216 272.341 279.432L271.509 279.464C271.957 278.12 272.714 277.107 273.781 276.424C274.847 275.72 276.031 275.368 277.333 275.368C278.527 275.368 279.605 275.645 280.565 276.2C281.546 276.755 282.325 277.523 282.901 278.504C283.477 279.485 283.765 280.595 283.765 281.832V293H280.757V282.792C280.757 281.832 280.586 281.021 280.245 280.36C279.903 279.699 279.434 279.187 278.837 278.824C278.261 278.44 277.578 278.248 276.789 278.248C276.021 278.248 275.327 278.44 274.709 278.824C274.111 279.187 273.631 279.709 273.269 280.392C272.927 281.053 272.757 281.853 272.757 282.792V293H269.749V282.792C269.749 281.832 269.578 281.021 269.237 280.36C268.895 279.699 268.426 279.187 267.829 278.824C267.253 278.44 266.57 278.248 265.781 278.248C265.013 278.248 264.319 278.44 263.701 278.824C263.103 279.187 262.623 279.709 262.261 280.392C261.919 281.053 261.749 281.853 261.749 282.792V293H258.773ZM295.928 293.384C294.264 293.384 292.781 292.989 291.48 292.2C290.178 291.411 289.154 290.333 288.408 288.968C287.661 287.581 287.288 286.035 287.288 284.328C287.288 282.6 287.65 281.064 288.376 279.72C289.122 278.376 290.125 277.32 291.384 276.552C292.664 275.763 294.093 275.368 295.672 275.368C296.952 275.368 298.082 275.603 299.064 276.072C300.066 276.52 300.909 277.139 301.592 277.928C302.296 278.696 302.829 279.581 303.192 280.584C303.576 281.565 303.767 282.589 303.767 283.656C303.767 283.891 303.746 284.157 303.704 284.456C303.682 284.733 303.65 285 303.608 285.256H289.464V282.696H301.88L300.472 283.848C300.664 282.739 300.557 281.747 300.152 280.872C299.746 279.997 299.149 279.304 298.36 278.792C297.57 278.28 296.674 278.024 295.672 278.024C294.669 278.024 293.752 278.28 292.92 278.792C292.088 279.304 291.437 280.04 290.968 281C290.52 281.939 290.338 283.059 290.424 284.36C290.338 285.619 290.53 286.728 291 287.688C291.49 288.627 292.173 289.363 293.048 289.896C293.944 290.408 294.914 290.664 295.96 290.664C297.112 290.664 298.082 290.397 298.872 289.864C299.661 289.331 300.301 288.648 300.792 287.816L303.288 289.096C302.946 289.885 302.413 290.611 301.688 291.272C300.984 291.912 300.141 292.424 299.16 292.808C298.2 293.192 297.122 293.384 295.928 293.384ZM307.648 293V275.752H310.56V279.112L310.08 278.824C310.506 277.736 311.189 276.893 312.128 276.296C313.088 275.677 314.208 275.368 315.488 275.368C316.725 275.368 317.824 275.645 318.784 276.2C319.765 276.755 320.533 277.523 321.088 278.504C321.664 279.485 321.952 280.595 321.952 281.832V293H318.944V282.792C318.944 281.832 318.773 281.021 318.432 280.36C318.09 279.699 317.6 279.187 316.96 278.824C316.341 278.44 315.626 278.248 314.816 278.248C314.005 278.248 313.28 278.44 312.64 278.824C312.021 279.187 311.53 279.709 311.168 280.392C310.805 281.053 310.624 281.853 310.624 282.792V293H307.648ZM332.322 293.384C331.085 293.384 329.965 293.096 328.962 292.52C327.981 291.944 327.213 291.144 326.658 290.12C326.125 289.075 325.858 287.88 325.858 286.536V275.752H328.834V286.216C328.834 287.069 329.005 287.816 329.346 288.456C329.709 289.096 330.2 289.597 330.818 289.96C331.458 290.323 332.184 290.504 332.994 290.504C333.805 290.504 334.52 290.323 335.138 289.96C335.778 289.597 336.269 289.075 336.61 288.392C336.973 287.709 337.154 286.899 337.154 285.96V275.752H340.162V293H337.25V289.64L337.73 289.928C337.325 291.016 336.632 291.869 335.65 292.488C334.69 293.085 333.581 293.384 332.322 293.384ZM350.304 293V275.752H353.28V293H350.304ZM350.304 273V269.16H353.28V273H350.304ZM364.906 293.192C363.22 293.192 361.919 292.712 361.002 291.752C360.106 290.792 359.658 289.437 359.658 287.688V278.6H356.522V275.752H357.162C357.93 275.752 358.538 275.517 358.986 275.048C359.434 274.579 359.658 273.96 359.658 273.192V271.784H362.634V275.752H366.506V278.6H362.634V287.592C362.634 288.168 362.719 288.669 362.89 289.096C363.082 289.523 363.391 289.864 363.818 290.12C364.244 290.355 364.81 290.472 365.514 290.472C365.663 290.472 365.844 290.461 366.058 290.44C366.292 290.419 366.506 290.397 366.698 290.376V293C366.42 293.064 366.111 293.107 365.77 293.128C365.428 293.171 365.14 293.192 364.906 293.192ZM378.053 293.384C376.389 293.384 374.906 292.989 373.605 292.2C372.303 291.411 371.279 290.333 370.533 288.968C369.786 287.581 369.413 286.035 369.413 284.328C369.413 282.6 369.775 281.064 370.501 279.72C371.247 278.376 372.25 277.32 373.509 276.552C374.789 275.763 376.218 275.368 377.797 275.368C379.077 275.368 380.207 275.603 381.189 276.072C382.191 276.52 383.034 277.139 383.717 277.928C384.421 278.696 384.954 279.581 385.317 280.584C385.701 281.565 385.892 282.589 385.892 283.656C385.892 283.891 385.871 284.157 385.829 284.456C385.807 284.733 385.775 285 385.733 285.256H371.589V282.696H384.005L382.597 283.848C382.789 282.739 382.682 281.747 382.277 280.872C381.871 279.997 381.274 279.304 380.485 278.792C379.695 278.28 378.799 278.024 377.797 278.024C376.794 278.024 375.877 278.28 375.045 278.792C374.213 279.304 373.562 280.04 373.093 281C372.645 281.939 372.463 283.059 372.549 284.36C372.463 285.619 372.655 286.728 373.125 287.688C373.615 288.627 374.298 289.363 375.173 289.896C376.069 290.408 377.039 290.664 378.085 290.664C379.237 290.664 380.207 290.397 380.997 289.864C381.786 289.331 382.426 288.648 382.917 287.816L385.413 289.096C385.071 289.885 384.538 290.611 383.812 291.272C383.109 291.912 382.266 292.424 381.285 292.808C380.325 293.192 379.247 293.384 378.053 293.384ZM389.773 293V275.752H392.685V279.272L392.269 278.728C392.695 277.64 393.378 276.808 394.317 276.232C395.255 275.656 396.311 275.368 397.485 275.368C398.829 275.368 400.034 275.741 401.101 276.488C402.189 277.235 402.935 278.216 403.341 279.432L402.509 279.464C402.957 278.12 403.714 277.107 404.781 276.424C405.847 275.72 407.031 275.368 408.333 275.368C409.527 275.368 410.605 275.645 411.565 276.2C412.546 276.755 413.325 277.523 413.901 278.504C414.477 279.485 414.765 280.595 414.765 281.832V293H411.757V282.792C411.757 281.832 411.586 281.021 411.245 280.36C410.903 279.699 410.434 279.187 409.837 278.824C409.261 278.44 408.578 278.248 407.789 278.248C407.021 278.248 406.327 278.44 405.709 278.824C405.111 279.187 404.631 279.709 404.269 280.392C403.927 281.053 403.757 281.853 403.757 282.792V293H400.749V282.792C400.749 281.832 400.578 281.021 400.237 280.36C399.895 279.699 399.426 279.187 398.829 278.824C398.253 278.44 397.57 278.248 396.781 278.248C396.013 278.248 395.319 278.44 394.701 278.824C394.103 279.187 393.623 279.709 393.261 280.392C392.919 281.053 392.749 281.853 392.749 282.792V293H389.773ZM425.168 293.384C423.44 293.384 421.936 292.957 420.656 292.104C419.376 291.251 418.469 290.099 417.936 288.648L420.304 287.496C420.794 288.52 421.466 289.331 422.32 289.928C423.173 290.525 424.122 290.824 425.168 290.824C426.106 290.824 426.885 290.6 427.504 290.152C428.122 289.704 428.432 289.117 428.432 288.392C428.432 287.88 428.282 287.475 427.984 287.176C427.706 286.856 427.365 286.611 426.96 286.44C426.554 286.248 426.181 286.109 425.84 286.024L423.248 285.288C421.69 284.84 420.549 284.2 419.824 283.368C419.12 282.536 418.768 281.565 418.768 280.456C418.768 279.432 419.024 278.547 419.536 277.8C420.069 277.032 420.784 276.435 421.68 276.008C422.597 275.581 423.621 275.368 424.752 275.368C426.266 275.368 427.621 275.752 428.816 276.52C430.032 277.288 430.896 278.365 431.408 279.752L428.976 280.872C428.592 279.976 428.016 279.272 427.248 278.76C426.48 278.227 425.616 277.96 424.656 277.96C423.781 277.96 423.088 278.184 422.576 278.632C422.064 279.059 421.808 279.603 421.808 280.264C421.808 280.755 421.936 281.16 422.192 281.48C422.448 281.779 422.757 282.013 423.12 282.184C423.482 282.333 423.834 282.461 424.176 282.568L426.992 283.4C428.4 283.805 429.488 284.435 430.256 285.288C431.045 286.141 431.44 287.165 431.44 288.36C431.44 289.32 431.173 290.184 430.64 290.952C430.106 291.72 429.37 292.317 428.432 292.744C427.493 293.171 426.405 293.384 425.168 293.384Z" fill="#054425"/>
<defs>
<linearGradient id="paint0_linear_3125_2733" x1="34.3344" y1="597.241" x2="11.6349" y2="573.991" gradientUnits="userSpaceOnUse">
<stop stop-color="#00A0FF"/>
<stop offset="0.0066" stop-color="#00A1FF"/>
<stop offset="0.2601" stop-color="#00BEFF"/>
<stop offset="0.5122" stop-color="#00D2FF"/>
<stop offset="0.7604" stop-color="#00DFFF"/>
<stop offset="1" stop-color="#00E3FF"/>
</linearGradient>
<linearGradient id="paint1_linear_3125_2733" x1="51.0115" y1="581.963" x2="17.4806" y2="581.963" gradientUnits="userSpaceOnUse">
<stop stop-color="#FFE000"/>
<stop offset="0.4087" stop-color="#FFBD00"/>
<stop offset="0.7754" stop-color="#FFA500"/>
<stop offset="1" stop-color="#FF9C00"/>
</linearGradient>
<linearGradient id="paint2_linear_3125_2733" x1="38.5294" y1="578.858" x2="7.74702" y2="547.33" gradientUnits="userSpaceOnUse">
<stop stop-color="#FF3A44"/>
<stop offset="1" stop-color="#C31162"/>
</linearGradient>
<linearGradient id="paint3_linear_3125_2733" x1="14.2376" y1="608.786" x2="27.9833" y2="594.708" gradientUnits="userSpaceOnUse">
<stop stop-color="#32A071"/>
<stop offset="0.0685" stop-color="#2DA771"/>
<stop offset="0.4762" stop-color="#15CF74"/>
<stop offset="0.8009" stop-color="#06E775"/>
<stop offset="1" stop-color="#00F076"/>
</linearGradient>
</defs>
</svg>
